<?xml version="1.0" encoding="UTF-8"?>
<svg width="496px" height="496px" viewBox="0 0 496 496" xmlns="http://www.w3.org/2000/svg" xmlns:xlink="http://www.w3.org/1999/xlink" version="1.1">
 <!-- Generated by Pixelmator Pro 1.5.4 -->
 <g id="group">
  <path id="Path" d="M476.38 281.023 C476.187 281.023 476.03 280.866 476.03 280.673 L476.03 274.453 468.428 264.947 468.428 229.993 476.03 215.173 476.03 206.523 C476.03 199.343 474.12 192.293 470.48 186.093 L439.09 132.593 C431.84 120.243 418.59 112.653 404.26 112.653 L226.79 112.653 C220.24 112.653 213.9 115.023 208.96 119.323 L98.75 215.203 98.75 349.643 486.52 349.643 C491.331 349.643 495.23 345.743 495.23 340.933 L495.23 299.873 C495.23 289.462 486.791 281.023 476.38 281.023 Z" fill="#1f7bc4" fill-opacity="1" stroke="none"/>
  <g id="group-1">
   <path id="Path-1" d="M98.75 215.203 L45.18 215.203 C29.068 215.203 14.934 223.65 6.936 236.349 L11.384 240.805 8.784 261.606 0 266.593 0 340.983 C0 345.763 3.87 349.643 8.66 349.643 L98.75 349.643 155.336 328.946 155.336 251.468 Z" fill="#0462c0" fill-opacity="1" stroke="none"/>
   <path id="Path-2" d="M98.75 275.836 L98.75 349.643 148.373 331.493 C145.421 304.088 125.144 281.809 98.75 275.836 Z" fill="#0360bc" fill-opacity="1" stroke="none"/>
  </g>
  <path id="Path-3" d="M84.586 274.246 C84.127 274.246 83.669 274.251 83.213 274.261 76.325 274.409 71.809 267.208 74.763 260.983 82.011 245.708 97.573 235.141 115.601 235.141 L129.86 235.141 98.75 215.203 45.18 215.203 C29.065 215.203 14.93 223.647 6.932 236.345 L11.384 240.805 8.784 261.606 0 266.593 0 340.983 C0 345.763 3.87 349.643 8.66 349.643 L70.421 349.643 70.421 328.946 148.038 328.946 C143.447 298.039 116.75 274.246 84.586 274.246 Z" fill="#0169cd" fill-opacity="1" stroke="none"/>
  <path id="Path-4" d="M115.601 235.141 L199.319 235.141 C213.273 235.141 226.616 229.419 236.234 219.31 L332.381 118.261 C335.398 115.635 338.94 113.74 342.729 112.653 L226.79 112.653 C220.24 112.653 213.9 115.023 208.96 119.323 L98.75 215.203 98.75 238.403 C103.959 236.306 109.642 235.141 115.601 235.141 Z" fill="#0278ec" fill-opacity="1" stroke="none"/>
  <g id="group-2">
   <g id="group-3">
    <path id="Path-5" d="M272.829 345.913 C271.743 345.913 270.64 345.676 269.595 345.175 265.859 343.386 264.281 338.907 266.07 335.172 L275.078 316.362 289.146 284.983 C289.306 284.626 289.387 284.247 289.387 283.855 L289.387 180.67 C289.387 176.528 292.745 173.17 296.887 173.17 301.029 173.17 304.387 176.528 304.387 180.67 L304.387 283.855 C304.387 286.376 303.864 288.82 302.833 291.12 L288.726 322.585 C288.7 322.642 288.674 322.699 288.646 322.756 L279.597 341.652 C278.31 344.342 275.626 345.913 272.829 345.913 Z" fill="#0462c0" fill-opacity="1" stroke="none"/>
   </g>
   <g id="group-4">
    <path id="Path-6" d="M495.23 319.513 L495.23 340.933 C495.23 345.743 491.33 349.643 486.52 349.643 L98.75 349.643 8.66 349.643 C3.87 349.643 0 345.763 0 340.983 L0 319.513 Z" fill="#1b70b4" fill-opacity="1" stroke="none"/>
    <path id="Path-7" d="M84.586 319.513 L0 319.513 0 340.983 C0 345.763 3.87 349.643 8.66 349.643 L84.586 349.643 Z" fill="#0462c0" fill-opacity="1" stroke="none"/>
   </g>
   <path id="Path-8" d="M145.908 319.513 L109.43 319.513 109.43 349.643 147.747 349.643 C148.394 345.993 148.751 342.244 148.751 338.411 148.752 331.836 147.754 325.49 145.908 319.513 Z" fill="#0462c0" fill-opacity="1" stroke="none"/>
   <path id="Path-9" d="M128.752 338.411 C128.752 362.803 108.978 382.577 84.586 382.577 60.194 382.577 40.42 362.803 40.42 338.411 40.42 314.019 60.194 294.245 84.586 294.245 108.978 294.245 128.752 314.019 128.752 338.411 Z" fill="#736572" fill-opacity="1" stroke="none"/>
   <path id="Path-10" d="M413.218 274.246 C377.837 274.246 349.052 303.031 349.052 338.412 349.052 342.245 349.409 345.994 350.056 349.644 L476.38 349.644 C477.027 345.994 477.384 342.245 477.384 338.412 477.384 303.031 448.6 274.246 413.218 274.246 Z" fill="#0169cd" fill-opacity="1" stroke="none"/>
   <path id="Path-11" d="M349.053 338.411 C349.053 342.244 349.41 345.993 350.057 349.643 L476.38 349.643 C477.027 345.993 477.384 342.244 477.384 338.411 477.384 331.836 476.386 325.49 474.54 319.513 L351.896 319.513 C350.051 325.49 349.053 331.836 349.053 338.411 Z" fill="#0462c0" fill-opacity="1" stroke="none"/>
   <path id="Path-12" d="M457.384 338.411 C457.384 362.803 437.61 382.577 413.218 382.577 388.826 382.577 369.052 362.803 369.052 338.411 369.052 314.019 388.826 294.245 413.218 294.245 437.61 294.245 457.384 314.019 457.384 338.411 Z" fill="#736572" fill-opacity="1" stroke="none"/>
   <path id="Path-13" d="M84.586 335.218 C84.586 320.035 92.257 306.643 103.925 298.694 98.086 295.846 91.52 294.246 84.586 294.246 60.194 294.246 40.42 314.02 40.42 338.412 40.42 362.804 60.194 382.578 84.586 382.578 93.795 382.578 102.353 379.755 109.43 374.933 94.728 367.762 84.586 352.676 84.586 335.218 Z" fill="#615260" fill-opacity="1" stroke="none"/>
   <path id="Path-14" d="M413.218 335.218 C413.218 320.035 420.889 306.643 432.557 298.694 426.718 295.846 420.152 294.246 413.218 294.246 388.826 294.246 369.052 314.02 369.052 338.412 369.052 362.804 388.826 382.578 413.218 382.578 422.427 382.578 430.985 379.755 438.062 374.933 423.36 367.762 413.218 352.676 413.218 335.218 Z" fill="#615260" fill-opacity="1" stroke="none"/>
   <g id="XMLID_199_">
    <g id="group-5">
     <path id="Path-15" d="M281.88 142.653 L229.74 142.653 C228.52 142.653 227.34 143.093 226.42 143.893 L147.613 212.456 C146.533 213.396 147.197 215.173 148.63 215.173 L281.88 215.173 298.792 207.997 298.792 159.29 Z" fill="#d5eaff" fill-opacity="1" stroke="none"/>
     <path id="Path-16" d="M295.977 156.52 L281.88 142.653 229.74 142.653 C228.52 142.653 227.34 143.093 226.42 143.893 L147.613 212.456 C146.533 213.396 147.197 215.173 148.63 215.173 L240.17 215.173 Z" fill="#b8ddff" fill-opacity="1" stroke="none"/>
     <path id="Path-17" d="M404.32 142.653 L404.26 142.653 311.89 142.653 302.102 155.27 302.102 207.998 311.89 215.174 401.62 215.174 C405.8 215.174 409.18 211.794 409.18 207.614 L409.18 147.534 C409.18 144.843 407.01 142.653 404.32 142.653 Z" fill="#d5eaff" fill-opacity="1" stroke="none"/>
     <path id="Path-18" d="M281.88 142.653 L311.89 142.653 311.89 215.173 281.88 215.173 Z" fill="#1f7bc4" fill-opacity="1" stroke="none"/>
     <path id="Path-19" d="M281.88 142.653 L281.88 171.336 309.172 142.653 Z" fill="#0278ec" fill-opacity="1" stroke="none"/>
    </g>
   </g>
   <g id="XMLID_206_">
    <g id="group-6">
     <g id="XMLID_207_">
      <g id="group-7">
       <path id="Path-20" d="M38.59 240.773 C41.33 243.513 43.02 247.293 43.02 251.473 43.02 259.823 36.25 266.593 27.89 266.593 L0 266.593 0 260.393 C0 251.553 2.54 243.303 6.93 236.343 L27.89 236.343 C32.07 236.343 35.85 238.033 38.59 240.773 Z" fill="#fedf30" fill-opacity="1" stroke="none"/>
      </g>
     </g>
    </g>
   </g>
   <g id="group-8">
    <path id="Path-21" d="M270.045 249.412 L255.632 249.412 C251.49 249.412 248.132 246.054 248.132 241.912 248.132 237.77 251.49 234.412 255.632 234.412 L270.045 234.412 C274.187 234.412 277.545 237.77 277.545 241.912 277.545 246.054 274.187 249.412 270.045 249.412 Z" fill="#44b1f4" fill-opacity="1" stroke="none"/>
   </g>
   <g id="XMLID_208_">
    <g id="group-9">
     <path id="Path-22" d="M470.688 232.815 L451.369 232.815 445.24 244.813 445.24 266.223 C445.24 270.763 448.93 274.453 453.48 274.453 L476.03 274.453 476.03 244.813 Z" fill="#e94444" fill-opacity="1" stroke="none"/>
    </g>
   </g>
   <path id="Path-23" d="M84.586 352.577 C76.775 352.577 70.42 346.223 70.42 338.411 70.42 330.599 76.774 324.245 84.586 324.245 92.398 324.245 98.752 330.6 98.752 338.411 98.752 346.222 92.397 352.577 84.586 352.577 Z" fill="#f9f7f8" fill-opacity="1" stroke="none"/>
   <path id="Path-24" d="M87.955 352.155 C85.785 346.939 84.587 341.219 84.587 335.217 84.587 331.454 85.061 327.801 85.947 324.314 85.499 324.271 85.046 324.245 84.587 324.245 76.776 324.245 70.421 330.6 70.421 338.411 70.421 346.222 76.775 352.577 84.587 352.577 85.749 352.577 86.873 352.421 87.955 352.155 Z" fill="#d7d0d6" fill-opacity="1" stroke="none"/>
   <path id="Path-25" d="M413.218 352.577 C405.407 352.577 399.052 346.223 399.052 338.411 399.052 330.599 405.406 324.245 413.218 324.245 421.03 324.245 427.384 330.6 427.384 338.411 427.384 346.222 421.029 352.577 413.218 352.577 Z" fill="#f9f7f8" fill-opacity="1" stroke="none"/>
   <path id="Path-26" d="M416.594 352.171 C414.424 346.955 413.218 341.219 413.218 335.218 413.218 331.455 413.683 327.802 414.57 324.314 414.122 324.271 413.677 324.246 413.218 324.246 405.407 324.246 399.052 330.601 399.052 338.412 399.052 346.223 405.406 352.578 413.218 352.578 414.381 352.577 415.513 352.436 416.594 352.171 Z" fill="#d7d0d6" fill-opacity="1" stroke="none"/>
  </g>
  <path id="Path-27" d="M476.03 215.173 L476.03 244.813 445.24 244.813 445.24 223.413 C445.24 218.863 448.93 215.173 453.48 215.173 Z" fill="#fdb441" fill-opacity="1" stroke="none"/>
 </g>
</svg>
