<svg version="1.1" id="Capa_1" xmlns="http://www.w3.org/2000/svg" xmlns:xlink="http://www.w3.org/1999/xlink" x="0px" y="0px" viewBox="0 0 512 512" style="enable-background:new 0 0 512 512;" xml:space="preserve">
	<path style="fill:#D5A150;" d="M173.862,496.224c-24.756-25.784-40.196-62.258-40.196-102.695c0-21.683,4.444-42.225,12.38-60.592
	c-7.935-18.367-12.38-38.909-12.38-60.592c0-20.622,4.024-40.21,11.243-57.879c-7.219-17.669-11.243-37.256-11.243-57.879
	c0-40.437,15.439-76.91,40.196-102.695c33.406-34.792,88.577-8.205,88.577,42.367v357.596
	C262.439,504.428,207.267,531.015,173.862,496.224z" />
	<g>
		<path style="fill:#AD712C;" d="M173.862,496.224c-0.821-0.855-1.631-1.725-2.431-2.603c28.084,1.652,55.888-22.152,55.888-58.054
		V77.97c0-16.048-5.56-29.674-14.212-39.697c25.698,2.066,49.332,24.887,49.332,57.987v357.596
		C262.439,504.428,207.267,531.015,173.862,496.224z" />
		<path style="fill:#AD712C;" d="M142.619,208.492c-0.023-0.062-0.045-0.125-0.067-0.188c-2.624-7.339-4.707-14.978-6.193-22.856
		c-0.57-3.018,0.108-6.162,1.855-8.574c3.764-5.196,7.853-10.096,12.235-14.659c11.29-11.758,25.066-16.506,38.358-15.685
		c5.774,0.356,7.045,8.951,1.677,11.313c-5.867,2.582-11.5,6.471-16.622,11.805c-12.126,12.63-22.01,27.83-28.946,44.799
		C144.114,212.485,143.341,210.503,142.619,208.492z" />
	</g>
	<path style="fill:#D5A150;" d="M289.757,458.107c-24.756-25.784-40.196-62.258-40.196-102.695c0-21.683,4.445-42.226,12.381-60.593
	c-7.935-18.367-12.381-38.908-12.381-60.591c0-20.622,4.024-40.21,11.243-57.879c-7.22-17.669-11.243-37.256-11.243-57.879
	c0-40.437,15.439-76.91,40.196-102.695c33.406-34.791,88.577-8.204,88.577,42.367V415.74
	C378.334,466.311,323.163,492.898,289.757,458.107z" />
	<g>
		<path style="fill:#AD712C;" d="M289.757,458.107c-0.821-0.855-1.631-1.725-2.431-2.603c28.084,1.652,55.888-22.152,55.888-58.054
		V39.854c0-16.048-5.56-29.674-14.212-39.697c25.697,2.066,49.332,24.887,49.332,57.987V415.74
		C378.334,466.311,323.163,492.898,289.757,458.107z" />
		<path style="fill:#AD712C;" d="M259.977,290.035c-0.075-0.193-0.149-0.386-0.224-0.58c-1.191-3.084-2.288-6.224-3.281-9.416
		c-0.052-0.165-0.101-0.331-0.152-0.497c-0.992-3.226-1.882-6.501-2.664-9.827c-0.035-0.149-0.115-0.5-0.115-0.5
		c-0.722-3.112-0.067-6.425,1.786-8.909c3.423-4.588,7.102-8.939,11.018-13.017c10.925-11.379,24.184-16.19,37.074-15.746
		c0.137,0.072,0.271,0.134,0.409,0.205c-0.135-0.069-0.274-0.134-0.409-0.205c0.161,0.005,0.329,0.013,0.496,0.024
		c5.748,0.359,6.975,9.043,1.603,11.318c-5.875,2.488-11.851,5.762-15.76,9.832c-11.48,11.956-20.953,26.217-27.816,42.1
		C261.26,293.241,260.606,291.644,259.977,290.035z" />
		<path style="fill:#AD712C;" d="M258.515,170.375c-0.023-0.062-0.045-0.125-0.067-0.188c-2.624-7.339-4.707-14.978-6.193-22.856
		c-0.57-3.018,0.108-6.162,1.855-8.574c3.764-5.196,7.853-10.096,12.235-14.659c11.29-11.758,25.066-16.506,38.358-15.685
		c5.774,0.356,7.045,8.951,1.677,11.313c-5.867,2.582-11.5,6.471-16.622,11.805c-12.126,12.63-22.01,27.83-28.946,44.799
		C260.009,174.368,259.237,172.386,258.515,170.375z" />
	</g>
	<path style="fill:#8D663D;" d="M398.686,285.392l-15.453-15.195c-2.005-1.971-5.219-1.971-7.223,0l-13.381,13.157
	c-2.005,1.971-5.219,1.971-7.223,0l-13.381-13.157c-2.005-1.971-5.219-1.971-7.223,0l-13.381,13.157
	c-2.005,1.971-5.219,1.971-7.223,0l-13.381-13.157c-2.005-1.971-5.219-1.971-7.223,0l-13.381,13.157
	c-1.002,0.986-2.307,1.478-3.612,1.478l-92.716,115.393L276.604,512c2.271,0,105.289,0,103.018,0
	c11.379,0,20.604-9.224,20.604-20.604V289.065C400.225,287.683,399.671,286.36,398.686,285.392z" />
	<path style="fill:#B69362;" d="M272.992,283.354l-13.381-13.157c-2.005-1.971-5.219-1.971-7.223,0l-13.381,13.157
	c-2.005,1.971-5.219,1.971-7.223,0l-13.381-13.157c-2.005-1.971-5.219-1.971-7.223,0l-13.411,13.187
	c-1.992,1.958-5.183,1.973-7.192,0.031l-13.413-12.965c-1.997-1.93-5.163-1.93-7.16,0l-13.444,12.995c-1.996,1.93-5.163,1.93-7.16,0
	l-13.444-12.995c-1.996-1.93-5.163-1.93-7.16,0l-15.453,14.937c-1.004,0.97-1.571,2.308-1.571,3.703v202.306
	c0,11.379,9.224,20.604,20.604,20.604c0,0,139.516,0,144.225,0V284.833C275.299,284.833,273.994,284.339,272.992,283.354z" />
	<g>
	</g>
	<g>
	</g>
	<g>
	</g>
	<g>
	</g>
	<g>
	</g>
	<g>
	</g>
	<g>
	</g>
	<g>
	</g>
	<g>
	</g>
	<g>
	</g>
	<g>
	</g>
	<g>
	</g>
	<g>
	</g>
	<g>
	</g>
	<g>
	</g>
</svg>
