<?xml version="1.0" encoding="UTF-8"?>
<svg width="200px" height="200px" viewBox="0 0 200 200" xmlns="http://www.w3.org/2000/svg" xmlns:xlink="http://www.w3.org/1999/xlink" version="1.1">
 <!-- Generated by Pixelmator Pro 1.5.4 -->
 <path id="Polygon" d="M70 120 L60 130 70 140 80 130 Z" fill="#952309" fill-opacity="1" stroke="none"/>
 <path id="Polygon-1" d="M120 50 L110 60 120 70 130 60 Z" fill="#952309" fill-opacity="1" stroke="none"/>
 <path id="Rectangle" d="M60 130 L70 130 70 50 60 50 Z" fill="#952309" fill-opacity="1" stroke="none"/>
 <path id="Rectangle-1" d="M60 60 L120 60 120 50 60 50 Z" fill="#952309" fill-opacity="1" stroke="none"/>
 <path id="Rectangle-2" d="M70 140 L130 140 130 60 70 60 Z" fill="#c9300b" fill-opacity="1" stroke="none"/>
 <path id="Path" d="M85.888 129 L84.5 128.536 83.198 128.991 81.655 128.496 80 129 80 123.25 C80 121.455 82.015 120 84.5 120 86.985 120 89 121.455 89 123.25 L89 129 87.481 128.5 85.888 129 Z M82.423 124.5 C82.996 124.5 83.461 124.164 83.461 123.75 83.461 123.336 82.996 123 82.423 123 81.849 123 81.385 123.336 81.385 123.75 81.385 124.164 81.849 124.5 82.423 124.5 Z M86.577 124.5 C87.15 124.5 87.615 124.164 87.615 123.75 87.615 123.336 87.15 123 86.577 123 86.003 123 85.538 123.336 85.538 123.75 85.538 124.164 86.003 124.5 86.577 124.5 Z" fill="#2f3a95" fill-opacity="1" stroke="none"/>
 <path id="Path-1" d="M115.888 129 L114.5 128.536 113.198 128.991 111.655 128.496 110 129 110 123.25 C110 121.455 112.015 120 114.5 120 116.985 120 119 121.455 119 123.25 L119 129 117.481 128.5 115.888 129 Z M112.423 124.5 C112.996 124.5 113.461 124.164 113.461 123.75 113.461 123.336 112.996 123 112.423 123 111.849 123 111.385 123.336 111.385 123.75 111.385 124.164 111.849 124.5 112.423 124.5 Z M116.577 124.5 C117.15 124.5 117.615 124.164 117.615 123.75 117.615 123.336 117.15 123 116.577 123 116.003 123 115.538 123.336 115.538 123.75 115.538 124.164 116.003 124.5 116.577 124.5 Z" fill="#369530" fill-opacity="1" stroke="none"/>
 <defs>
  <text id="string" transform="matrix(1.0 0.0 0.0 1.0 84.0 76.0)" text-decoration="none" font-size="8" fill="#ffffff" x="4.216796875" y="6.0" font-family="Helvetica, Helvetica">Cereal</text>
 </defs>
 <use id="Cereal" xlink:href="#string"/>
 <path id="Path-2" d="M100.888 114 L99.5 113.536 98.198 113.991 96.655 113.496 95 114 95 108.25 C95 106.455 97.015 105 99.5 105 101.985 105 104 106.455 104 108.25 L104 114 102.481 113.5 100.888 114 Z M97.423 109.5 C97.996 109.5 98.461 109.164 98.461 108.75 98.461 108.336 97.996 108 97.423 108 96.849 108 96.385 108.336 96.385 108.75 96.385 109.164 96.849 109.5 97.423 109.5 Z M101.577 109.5 C102.15 109.5 102.615 109.164 102.615 108.75 102.615 108.336 102.15 108 101.577 108 101.003 108 100.538 108.336 100.538 108.75 100.538 109.164 101.003 109.5 101.577 109.5 Z" fill="#919508" fill-opacity="1" stroke="none"/>
</svg>
