<?xml version="1.0" encoding="UTF-8"?>
<svg width="512px" height="512px" viewBox="0 0 512 512" xmlns="http://www.w3.org/2000/svg" xmlns:xlink="http://www.w3.org/1999/xlink" version="1.1">
	<!-- Generated by Pixelmator Pro 1.5.4 -->
	<g id="winebottle">
		<path id="Path" d="M383.246 174.04 L380.118 170.862 392.559 139.293 C393.38 137.21 392.357 134.856 390.274 134.035 L378.7 129.474 C376.617 128.653 374.263 129.677 373.443 131.759 L361.001 163.329 356.547 163.518 C351.762 163.722 347.536 166.733 345.779 171.189 L315.144 248.928 C314.323 251.01 315.346 253.364 317.429 254.185 L349.993 267.018 C352.075 267.839 354.429 266.816 355.25 264.733 L385.886 186.993 C387.642 182.537 386.606 177.453 383.246 174.04 Z" fill="#1ba88a" fill-opacity="1" stroke="none" />
		<path id="Path-1" d="M392.559 139.293 C393.38 137.21 392.357 134.856 390.274 134.035 L378.7 129.474 C376.617 128.653 374.263 129.677 373.443 131.759 L365.714 151.371 384.83 158.904 392.559 139.293 Z" fill="#bd0058" fill-opacity="1" stroke="none" />
		<path id="Path-2" d="M384.487 131.755 L378.7 129.474 C376.617 128.653 374.263 129.677 373.442 131.759 L361.001 163.328 356.547 163.518 C351.762 163.722 347.535 166.733 345.779 171.189 L315.144 248.927 C314.323 251.01 315.346 253.364 317.429 254.185 L333.71 260.601 Z" fill="#73cb8b" fill-opacity="1" stroke="none" />
		<path id="Path-3" d="M384.487 131.755 L378.7 129.474 C376.617 128.653 374.263 129.677 373.442 131.759 L365.714 151.371 375.272 155.137 384.486 131.755 Z" fill="#e83a71" fill-opacity="1" stroke="none" />
		<path id="Path-4" d="M348.618 242.969 L365.884 199.157 C366.431 197.768 365.748 196.199 364.36 195.652 L339.932 186.025 320.685 234.866 345.113 244.492 C346.501 245.04 348.071 244.357 348.618 242.969 Z" fill="#ffae45" fill-opacity="1" stroke="none" />
		<path id="Path-5" d="M339.932 186.026 L359.959 193.918 340.712 242.76 320.684 234.867 Z" fill="#ffd75e" fill-opacity="1" stroke="none" />
	</g>
	<g id="cerealbox">
		<path id="Polygon" d="M169.747 122.896 L163.575 137.578 178.257 143.749 184.429 129.068 Z" fill="#952309" fill-opacity="1" stroke="none" />
		<path id="Polygon-1" d="M192.096 28.633 L185.925 43.315 200.606 49.487 206.778 34.805 Z" fill="#952309" fill-opacity="1" stroke="none" />
		<path id="Rectangle" d="M163.575 137.577 L174.002 133.322 139.962 49.908 129.536 54.163 Z" fill="#952309" fill-opacity="1" stroke="none" />
		<path id="Rectangle-1" d="M133.791 64.59 L196.351 39.06 192.097 28.633 129.536 54.163 Z" fill="#952309" fill-opacity="1" stroke="none" />
		<path id="Rectangle-2" d="M178.257 143.749 L240.818 118.219 206.778 34.805 144.217 60.335 Z" fill="#c9300b" fill-opacity="1" stroke="none" />
		<path id="Path-6" d="M190.143 125.519 L188.498 125.626 187.334 126.655 185.515 126.795 184.004 128.025 181.557 122.029 C180.793 120.158 182.275 117.783 184.866 116.726 187.457 115.668 190.177 116.328 190.941 118.2 L193.388 124.195 191.592 124.32 190.143 125.519 Z M184.615 122.302 C185.213 122.058 185.555 121.51 185.379 121.078 185.203 120.646 184.575 120.494 183.977 120.738 183.379 120.982 183.037 121.53 183.213 121.962 183.39 122.394 184.017 122.546 184.615 122.302 Z M188.946 120.534 C189.544 120.29 189.886 119.742 189.71 119.31 189.534 118.879 188.906 118.726 188.308 118.97 187.71 119.214 187.368 119.762 187.544 120.194 187.721 120.626 188.348 120.778 188.946 120.534 Z" fill="#2f3a95" fill-opacity="1" stroke="none" />
		<path id="Path-7" d="M221.423 112.755 L219.778 112.861 218.615 113.89 216.795 114.03 215.284 115.26 212.837 109.264 C212.074 107.393 213.555 105.018 216.147 103.961 218.738 102.904 221.458 103.563 222.221 105.435 L224.668 111.43 222.872 111.555 221.423 112.755 Z M215.896 109.537 C216.493 109.293 216.836 108.745 216.659 108.313 216.483 107.881 215.855 107.729 215.257 107.973 214.659 108.217 214.318 108.765 214.494 109.197 214.67 109.629 215.297 109.781 215.896 109.537 Z M220.227 107.769 C220.825 107.525 221.167 106.978 220.99 106.546 220.814 106.114 220.187 105.961 219.589 106.205 218.99 106.449 218.649 106.997 218.825 107.429 219.001 107.861 219.629 108.013 220.227 107.769 Z" fill="#369530" fill-opacity="1" stroke="none" />
		<defs>
			<text id="string-2" transform="matrix(0.9258748006208054 -0.3778304561246801 0.3778304561246801 0.9258748006208054 163.1382610835901 71.53947910659193)" text-decoration="none" font-size="9.009" fill="#ffffff" x="7.230244688386273" y="7.0" font-family="Helvetica, Helvetica">
				Cereal
			</text>
		</defs>
		<use id="Cereal" xlink:href="#string-2" />
		<path id="Path-8" d="M199.401 103.497 L197.756 103.603 196.592 104.633 194.772 104.772 193.261 106.002 190.815 100.007 C190.051 98.135 191.532 95.761 194.124 94.703 196.715 93.646 199.435 94.306 200.199 96.177 L202.645 102.173 200.849 102.298 199.401 103.497 Z M193.873 100.279 C194.471 100.035 194.813 99.487 194.637 99.055 194.46 98.623 193.833 98.471 193.234 98.715 192.637 98.959 192.295 99.507 192.471 99.939 192.647 100.371 193.275 100.523 193.873 100.279 Z M198.204 98.512 C198.802 98.268 199.144 97.72 198.968 97.288 198.792 96.856 198.164 96.703 197.566 96.948 196.968 97.192 196.626 97.74 196.802 98.171 196.978 98.603 197.606 98.756 198.204 98.512 Z" fill="#919508" fill-opacity="1" stroke="none" />
	</g>
	<g id="apple">
		<path id="Path-9" d="M139.336 158.387 C138.112 159.582 136.915 160.757 136.621 161.653 136.055 161.867 135.32 161.647 134.992 161.234 135.025 161.137 135.063 161.043 135.108 160.952 L135.267 160.663 C136.413 158.783 140.057 156.079 140.693 154.249 140.84 153.809 141.315 153.569 141.757 153.711 141.967 153.779 142.141 153.93 142.239 154.128 142.337 154.329 142.357 154.559 142.296 154.774 142.015 155.783 140.66 157.096 139.337 158.387 139.336 158.387 139.336 158.387 139.336 158.387 Z" fill="#e29454" fill-opacity="1" stroke="none" />
		<path id="Path-10" d="M135.654 161.451 C135.686 161.354 135.725 161.26 135.77 161.168 L135.929 160.88 C137.074 159 140.718 156.296 141.354 154.466 141.461 154.155 141.736 153.931 142.063 153.892 141.975 153.81 141.871 153.748 141.757 153.711 141.315 153.569 140.84 153.809 140.693 154.249 140.057 156.079 136.413 158.783 135.267 160.663 L135.108 160.952 C135.063 161.043 135.025 161.137 134.992 161.234 135.203 161.5 135.583 161.685 135.977 161.726 135.854 161.655 135.744 161.561 135.654 161.451 Z" fill="#bf7a47" fill-opacity="1" stroke="none" />
		<path id="Path-11" d="M145.423 158.949 C145.439 159.027 145.419 159.107 145.369 159.168 L144.872 159.779 C144.423 160.332 143.854 160.775 143.207 161.075 143.02 160.916 142.823 160.768 142.617 160.633 140.242 159.062 138.025 160.941 136.739 161.601 136.701 161.621 136.662 161.638 136.621 161.653 136.915 160.757 138.112 159.582 139.336 158.387 139.336 158.387 139.336 158.387 139.337 158.387 140.917 157.142 142.936 157.36 144.598 158.349 L145.291 158.762 C145.36 158.803 145.408 158.871 145.423 158.949 Z" fill="#8dc63f" fill-opacity="1" stroke="none" />
		<path id="Path-12" d="M145.291 158.762 L145.188 158.7 C144.87 158.906 144.541 159.113 144.209 159.32 144.209 159.321 144.209 159.321 144.208 159.321 142.494 160.158 140.672 159.624 139.281 158.441 138.076 159.617 136.91 160.77 136.621 161.653 136.662 161.638 136.701 161.621 136.739 161.601 138.025 160.941 140.242 159.062 142.617 160.633 142.823 160.768 143.02 160.916 143.207 161.075 143.854 160.775 144.423 160.332 144.872 159.779 L145.369 159.168 C145.419 159.107 145.439 159.027 145.423 158.949 145.408 158.871 145.36 158.803 145.291 158.762 Z" fill="#739937" fill-opacity="1" stroke="none" />
		<path id="Path-13" d="M135.108 160.952 C135.063 161.043 135.025 161.137 134.992 161.234 134.932 161.16 134.885 161.075 134.854 160.984 134.454 159.751 133.645 157.217 131.21 156.783 130.968 155.538 131.104 153.791 131.672 152.566 L132.1 151.64 C132.143 151.547 132.223 151.478 132.321 151.45 132.419 151.422 132.524 151.438 132.609 151.494 L133.464 152.052 C136.046 153.741 137 157.067 135.704 159.867 L135.267 160.663 Q135.177 160.811 135.108 160.952 Z" fill="#8dc63f" fill-opacity="1" stroke="none" />
		<path id="Path-14" d="M133.682 152.202 C133.839 152.339 134.006 152.474 134.182 152.6 134.022 152.459 133.855 152.326 133.682 152.202 Z" fill="#6e891a" fill-opacity="1" stroke="none" />
		<path id="Path-15" d="M132.019 152.184 L132.079 151.684 131.672 152.566 C131.104 153.791 130.968 155.538 131.21 156.783 133.645 157.217 134.454 159.751 134.854 160.984 134.885 161.075 134.932 161.16 134.992 161.234 135.025 161.137 135.063 161.043 135.108 160.952 Q135.176 160.811 135.267 160.663 L135.704 159.867 C135.925 159.39 136.085 158.887 136.179 158.37 133.573 157.46 131.879 154.941 132.019 152.184 Z" fill="#739937" fill-opacity="1" stroke="none" />
		<path id="Path-16" d="M133.537 155.915 C133.434 155.882 133.354 155.8 133.322 155.697 L132.025 151.545 C131.989 151.431 132.017 151.306 132.098 151.218 132.179 151.13 132.301 151.092 132.417 151.119 132.534 151.145 132.628 151.231 132.663 151.345 L133.96 155.498 C133.998 155.617 133.965 155.748 133.876 155.835 133.787 155.923 133.656 155.954 133.537 155.915 Z" fill="#6e891a" fill-opacity="1" stroke="none" />
		<path id="Path-17" d="M143.242 160.969 C145.981 163.294 145.917 167.454 144.995 170.268 143.354 175.28 136.194 180.504 133.032 179.468 132.248 179.211 131.65 178.537 131.22 178.037 130.843 177.599 129.939 177.415 129.58 177.5 128.938 177.653 128.036 177.831 127.272 177.581 123.494 176.344 121.434 168.186 123.07 163.087 123.859 160.631 126.732 156.423 130.722 156.619 130.898 156.627 131.072 156.647 131.245 156.677 133.679 157.111 134.489 159.645 134.889 160.878 134.919 160.969 134.966 161.054 135.027 161.128 135.354 161.541 136.089 161.761 136.656 161.547 136.696 161.532 136.736 161.515 136.774 161.495 138.06 160.835 140.276 158.956 142.652 160.527 142.858 160.662 143.055 160.81 143.242 160.969 Z" fill="#fc324b" fill-opacity="1" stroke="none" />
		<path id="Path-18" d="M127.36 167.058 C126.846 164.349 127.396 158.93 131.245 157.077 131.413 156.995 131.587 156.924 131.765 156.864 131.793 156.855 131.821 156.847 131.849 156.838 131.652 156.767 131.45 156.714 131.245 156.677 131.072 156.647 130.897 156.627 130.722 156.619 126.732 156.423 123.859 160.631 123.07 163.087 121.434 168.186 123.494 176.344 127.272 177.581 128.036 177.831 128.938 177.653 129.58 177.5 129.939 177.415 130.843 177.599 131.22 178.037 131.65 178.537 132.248 179.211 133.032 179.468 134.135 179.829 135.723 179.429 137.394 178.542 133.35 177.973 128.318 172.117 127.36 167.058 Z" fill="#e01b33" fill-opacity="1" stroke="none" />
		<g id="group">
			<path id="Path-19" d="M125.448 165.501 C125.296 165.451 125.2 165.299 125.222 165.139 125.771 160.977 128.041 159.778 128.137 159.729 128.301 159.647 128.501 159.712 128.585 159.876 128.668 160.039 128.604 160.24 128.441 160.325 128.429 160.331 127.919 160.606 127.356 161.334 126.829 162.015 126.146 163.242 125.885 165.227 125.871 165.326 125.815 165.413 125.731 165.466 125.647 165.519 125.543 165.532 125.449 165.501 Z" fill="#e9e9e9" fill-opacity="1" stroke="none" />
		</g>
		<g id="group-1">
			<path id="Path-20" d="M125.248 167.114 C125.099 167.065 125.004 166.919 125.02 166.762 L125.09 166.073 C125.101 165.953 125.176 165.848 125.285 165.799 125.395 165.749 125.523 165.762 125.62 165.833 125.717 165.904 125.769 166.021 125.755 166.141 L125.685 166.83 C125.675 166.931 125.619 167.022 125.534 167.077 125.449 167.132 125.344 167.146 125.248 167.114 Z" fill="#e9e9e9" fill-opacity="1" stroke="none" />
		</g>
	</g>
	<g id="orange">
		<g id="group-2">
			<path id="Path-21" d="M306.463 197.639 L307.74 198.685 302.927 204.561 301.651 203.516 Z" fill="#d88a55" fill-opacity="1" stroke="none" />
		</g>
		<g id="group-3">
			<path id="Path-22" d="M307.1 198.16 L307.74 198.685 302.927 204.561 302.287 204.037 Z" fill="#c57a44" fill-opacity="1" stroke="none" />
		</g>
		<g id="group-4">
			<path id="Path-23" d="M302.35 203.997 C302.35 203.997 304.143 201.29 306.662 201.04 309.181 200.789 311.472 203.089 311.472 203.089 311.472 203.089 309.679 205.796 307.16 206.047 304.641 206.297 302.35 203.997 302.35 203.997 Z" fill="#86ec88" fill-opacity="1" stroke="none" />
		</g>
		<g id="group-5">
			<g id="group-6">
				<path id="Path-24" d="M287.762 204.898 C284.019 209.468 284.69 216.206 289.26 219.949 L297.541 211.653 302.812 203.4 C298.242 199.658 291.504 200.329 287.762 204.898 Z" fill="#fdae02" fill-opacity="1" stroke="none" />
				<path id="Path-25" d="M302.812 203.4 L289.26 219.949 C293.83 223.691 300.568 223.02 304.31 218.45 308.052 213.88 307.382 207.142 302.812 203.4 Z" fill="#e68f21" fill-opacity="1" stroke="none" />
			</g>
			<g id="group-7">
				<g id="group-8">
					<path id="Path-26" d="M296.544 213.163 L293.758 210.881 C290.306 215.096 290.925 221.312 295.14 224.764 L299.681 220.479 Z" fill="#ffdf8e" fill-opacity="1" stroke="none" />
					<path id="Path-27" d="M306.237 221.1 L297.422 221.978 295.14 224.764 C299.355 228.216 305.571 227.597 309.023 223.382 Z" fill="#fdc673" fill-opacity="1" stroke="none" />
					<g id="group-9">
						<g id="group-10">
							<path id="Path-28" d="M296.544 213.163 C295.078 214.953 294.771 217.319 295.532 219.344 L301.39 217.131 Z" fill="#fdc673" fill-opacity="1" stroke="none" />
							<path id="Path-29" d="M295.532 219.344 C295.906 220.341 296.54 221.255 297.422 221.978 L301.819 217.482 301.391 217.131 Z" fill="#fdae02" fill-opacity="1" stroke="none" />
						</g>
						<g id="group-11">
							<path id="Path-30" d="M301.391 217.131 L297.422 221.978 C298.304 222.7 299.325 223.141 300.377 223.312 Z" fill="#e68f21" fill-opacity="1" stroke="none" />
							<path id="Path-31" d="M306.237 221.1 L301.391 217.131 300.377 223.311 C302.512 223.658 304.771 222.891 306.237 221.1 Z" fill="#fdae02" fill-opacity="1" stroke="none" />
						</g>
					</g>
				</g>
			</g>
		</g>
	</g>
	<g id="grapes">
		<path id="Path-32" d="M206.831 227.802 C205.633 230.511 202.465 231.736 199.755 230.538 197.045 229.34 195.82 226.172 197.019 223.462 198.217 220.752 201.385 219.527 204.095 220.725 206.804 221.924 208.029 225.092 206.831 227.802 Z" fill="#744eaa" fill-opacity="1" stroke="none" />
		<path id="Path-33" d="M200.368 230.656 C198 228.875 197.525 225.511 199.307 223.144 200.642 221.37 202.865 220.659 204.892 221.164 202.544 219.601 199.356 220.124 197.639 222.406 195.857 224.774 196.332 228.137 198.699 229.918 199.292 230.364 199.948 230.669 200.626 230.838 200.539 230.78 200.452 230.72 200.368 230.656 Z" fill="#67449e" fill-opacity="1" stroke="none" />
		<path id="Path-34" d="M187.964 195.963 C188.073 196.045 188.178 196.132 188.279 196.221 188.418 196.036 188.568 195.865 188.724 195.705 186.274 187.924 181.057 183.152 179.071 181.63 178.65 181.307 178.05 181.436 177.798 181.9 L176.227 184.801 C176.012 185.198 176.213 185.699 176.643 185.833 182.009 187.499 185.591 192.191 187.601 195.714 187.724 195.792 187.846 195.874 187.964 195.963 Z" fill="#93603e" fill-opacity="1" stroke="none" />
		<path id="Path-35" d="M187.364 192.211 C185.25 189.009 181.987 185.431 177.445 184.021 177.178 183.938 176.999 183.713 176.953 183.46 L176.227 184.801 C176.012 185.198 176.213 185.699 176.643 185.833 182.009 187.499 185.591 192.191 187.601 195.714 187.724 195.792 187.845 195.874 187.964 195.963 188.073 196.045 188.178 196.132 188.279 196.22 188.418 196.036 188.568 195.865 188.724 195.705 188.333 194.463 187.872 193.299 187.364 192.211 Z" fill="#7f573c" fill-opacity="1" stroke="none" />
		<path id="Path-36" d="M176.623 202.105 C177.584 201.62 178.672 201.436 179.737 201.578 179.81 201.825 178.789 199.231 180.582 196.849 181.842 195.175 183.898 194.455 185.826 194.818 183.861 193.041 180.661 191.384 176.294 191.946 175.915 191.995 175.672 192.377 175.796 192.739 176.047 193.475 176.552 194.705 177.429 195.917 177.659 196.234 177.512 196.678 177.139 196.798 175.778 197.237 174.364 197.987 172.958 199.181 172.667 199.428 172.672 199.88 172.972 200.116 173.64 200.64 175.045 201.565 176.623 202.105 Z" fill="#3bbc56" fill-opacity="1" stroke="none" />
		<path id="Path-37" d="M174.743 200.899 C174.442 200.663 174.438 200.211 174.729 199.963 176.134 198.77 177.548 198.019 178.91 197.581 179.283 197.461 179.429 197.017 179.199 196.7 178.322 195.488 177.818 194.258 177.566 193.522 177.443 193.16 177.685 192.778 178.064 192.729 180.199 192.454 182.055 192.711 183.624 193.252 181.747 192.222 179.296 191.56 176.294 191.946 175.915 191.995 175.672 192.377 175.796 192.739 176.047 193.475 176.552 194.705 177.429 195.917 177.658 196.235 177.512 196.678 177.139 196.798 175.778 197.237 174.364 197.987 172.958 199.18 172.667 199.428 172.672 199.88 172.972 200.116 173.638 200.639 175.038 201.56 176.612 202.101 175.806 201.669 175.142 201.213 174.743 200.899 Z" fill="#30aa44" fill-opacity="1" stroke="none" />
		<path id="Path-38" d="M195.73 195.173 C195.979 195.361 196.206 195.566 196.412 195.785 197.465 195.093 198.727 194.803 199.961 194.947 201.095 193.133 201.358 190.919 201.469 189.891 201.51 189.511 201.19 189.192 200.81 189.227 198.974 189.399 197.449 189.887 196.184 190.555 195.838 190.738 195.418 190.532 195.351 190.146 195.097 188.672 194.569 187.452 194.218 186.758 194.045 186.417 193.603 186.323 193.303 186.56 189.798 189.333 188.845 192.872 188.769 195.54 190.62 193.769 193.617 193.583 195.73 195.173 Z" fill="#3bbc56" fill-opacity="1" stroke="none" />
		<path id="Path-39" d="M194.611 187.616 C194.471 187.279 194.335 186.989 194.218 186.758 194.046 186.417 193.603 186.323 193.303 186.56 189.798 189.333 188.845 192.872 188.769 195.54 189.315 195.018 189.961 194.634 190.653 194.393 191.06 192.19 192.153 189.71 194.611 187.616 Z" fill="#30aa44" fill-opacity="1" stroke="none" />
		<path id="Path-40" d="M204.176 202.259 C202.978 204.969 199.81 206.194 197.1 204.995 194.391 203.797 193.165 200.629 194.364 197.919 195.562 195.21 198.73 193.985 201.44 195.183 204.149 196.381 205.374 199.549 204.176 202.259 Z" fill="#744eaa" fill-opacity="1" stroke="none" />
		<path id="Path-41" d="M197.713 205.113 C195.345 203.332 194.87 199.969 196.652 197.602 197.987 195.828 200.21 195.116 202.237 195.621 199.889 194.059 196.701 194.581 194.984 196.864 193.202 199.231 193.677 202.594 196.044 204.375 196.637 204.822 197.293 205.126 197.971 205.295 197.884 205.237 197.797 205.177 197.713 205.113 Z" fill="#67449e" fill-opacity="1" stroke="none" />
		<path id="Path-42" d="M191.738 215.805 C190.539 218.515 187.371 219.74 184.662 218.542 181.952 217.344 180.727 214.175 181.925 211.466 183.124 208.756 186.292 207.531 189.001 208.729 191.711 209.928 192.936 213.096 191.738 215.805 Z" fill="#744eaa" fill-opacity="1" stroke="none" />
		<path id="Path-43" d="M185.275 218.66 C182.907 216.879 182.433 213.515 184.214 211.148 185.549 209.374 187.772 208.663 189.799 209.168 187.451 207.606 184.263 208.128 182.546 210.411 180.764 212.778 181.239 216.141 183.607 217.922 184.2 218.369 184.855 218.673 185.533 218.842 185.446 218.784 185.36 218.724 185.275 218.66 Z" fill="#67449e" fill-opacity="1" stroke="none" />
		<path id="Path-44" d="M183.771 208.909 C182.572 211.619 179.404 212.844 176.694 211.645 173.985 210.447 172.76 207.279 173.958 204.569 175.156 201.86 178.324 200.635 181.034 201.833 183.744 203.031 184.969 206.199 183.771 208.909 Z" fill="#744eaa" fill-opacity="1" stroke="none" />
		<path id="Path-45" d="M177.307 211.763 C174.94 209.982 174.465 206.619 176.247 204.251 177.582 202.477 179.805 201.766 181.832 202.271 179.484 200.709 176.296 201.231 174.578 203.514 172.797 205.881 173.272 209.244 175.639 211.025 176.232 211.472 176.888 211.776 177.566 211.945 177.479 211.887 177.392 211.827 177.307 211.763 Z" fill="#67449e" fill-opacity="1" stroke="none" />
		<path id="Path-46" d="M197.386 201.332 C196.188 204.042 193.02 205.267 190.31 204.069 187.601 202.87 186.376 199.702 187.574 196.993 188.772 194.283 191.94 193.058 194.65 194.256 197.36 195.455 198.585 198.623 197.386 201.332 Z" fill="#553788" fill-opacity="1" stroke="none" />
		<path id="Path-47" d="M190.925 204.188 C188.558 202.406 188.083 199.043 189.864 196.676 191.199 194.902 193.422 194.191 195.448 194.695 193.1 193.132 189.911 193.654 188.194 195.937 186.412 198.304 186.887 201.667 189.255 203.449 189.848 203.895 190.504 204.2 191.182 204.369 191.095 204.311 191.009 204.251 190.925 204.188 Z" fill="#462e7a" fill-opacity="1" stroke="none" />
		<path id="Path-48" d="M202.224 209.191 C201.035 211.88 197.891 213.096 195.202 211.907 192.513 210.718 191.297 207.574 192.486 204.885 193.675 202.195 196.819 200.98 199.508 202.169 202.197 203.358 203.413 206.502 202.224 209.191 Z" fill="#9266cc" fill-opacity="1" stroke="none" />
		<path id="Path-49" d="M195.824 212.03 C193.475 210.262 193.003 206.924 194.771 204.575 196.095 202.816 198.298 202.11 200.308 202.607 197.976 201.051 194.807 201.568 193.101 203.836 191.333 206.186 191.804 209.524 194.154 211.292 194.745 211.736 195.398 212.039 196.073 212.206 195.989 212.15 195.906 212.092 195.824 212.03 Z" fill="#7b54ba" fill-opacity="1" stroke="none" />
		<path id="Path-50" d="M206.743 219.294 C205.553 221.983 202.409 223.199 199.72 222.01 197.031 220.821 195.816 217.677 197.005 214.988 198.194 212.299 201.338 211.083 204.027 212.272 206.716 213.461 207.932 216.605 206.743 219.294 Z" fill="#9266cc" fill-opacity="1" stroke="none" />
		<path id="Path-51" d="M200.343 222.134 C197.993 220.365 197.522 217.028 199.29 214.678 200.613 212.919 202.816 212.213 204.826 212.711 202.495 211.154 199.326 211.671 197.619 213.939 195.851 216.289 196.323 219.627 198.672 221.395 199.263 221.839 199.916 222.142 200.592 222.309 200.507 222.253 200.424 222.195 200.343 222.134 Z" fill="#7b54ba" fill-opacity="1" stroke="none" />
		<path id="Path-52" d="M199.175 223.65 C197.986 226.339 194.842 227.555 192.153 226.366 189.464 225.176 188.248 222.032 189.437 219.344 190.627 216.654 193.771 215.439 196.46 216.628 199.149 217.817 200.365 220.961 199.175 223.65 Z" fill="#9266cc" fill-opacity="1" stroke="none" />
		<path id="Path-53" d="M192.776 226.49 C190.426 224.722 189.955 221.384 191.723 219.034 193.046 217.275 195.249 216.569 197.259 217.067 194.928 215.51 191.759 216.027 190.052 218.295 188.284 220.645 188.756 223.983 191.105 225.751 191.696 226.195 192.349 226.498 193.024 226.665 192.94 226.609 192.857 226.551 192.776 226.49 Z" fill="#7b54ba" fill-opacity="1" stroke="none" />
		<path id="Path-54" d="M189.538 202.13 C188.349 204.819 185.205 206.035 182.516 204.845 179.827 203.656 178.611 200.512 179.8 197.823 180.989 195.134 184.133 193.918 186.822 195.107 189.511 196.297 190.727 199.441 189.538 202.13 Z" fill="#9266cc" fill-opacity="1" stroke="none" />
		<path id="Path-55" d="M183.138 204.969 C180.788 203.201 180.317 199.863 182.085 197.513 183.408 195.754 185.611 195.048 187.621 195.546 185.29 193.989 182.121 194.507 180.414 196.774 178.646 199.124 179.118 202.462 181.467 204.23 182.058 204.675 182.712 204.977 183.387 205.144 183.303 205.088 183.219 205.03 183.138 204.969 Z" fill="#7b54ba" fill-opacity="1" stroke="none" />
		<path id="Path-56" d="M193.304 209.526 C192.115 212.215 188.971 213.431 186.282 212.242 183.593 211.053 182.377 207.909 183.566 205.22 184.755 202.531 187.899 201.315 190.589 202.504 193.277 203.693 194.493 206.837 193.304 209.526 Z" fill="#aa8dd8" fill-opacity="1" stroke="none" />
		<path id="Path-57" d="M186.884 212.357 C184.534 210.589 184.063 207.251 185.831 204.901 187.154 203.142 189.358 202.436 191.367 202.934 189.036 201.377 185.867 201.894 184.161 204.162 182.392 206.512 182.864 209.85 185.214 211.618 185.804 212.063 186.458 212.365 187.133 212.532 187.049 212.476 186.966 212.418 186.884 212.357 Z" fill="#987fc9" fill-opacity="1" stroke="none" />
		<path id="Path-58" d="M199.49 216.086 C198.3 218.776 195.156 219.991 192.467 218.802 189.778 217.613 188.562 214.469 189.752 211.78 190.941 209.091 194.085 207.875 196.774 209.064 199.463 210.254 200.679 213.397 199.49 216.086 Z" fill="#aa8dd8" fill-opacity="1" stroke="none" />
		<path id="Path-59" d="M193.069 218.917 C190.719 217.148 190.248 213.811 192.016 211.461 193.339 209.702 195.542 208.996 197.552 209.494 195.221 207.937 192.052 208.454 190.345 210.722 188.577 213.072 189.049 216.41 191.398 218.178 191.989 218.622 192.642 218.925 193.317 219.092 193.233 219.036 193.15 218.978 193.069 218.917 Z" fill="#987fc9" fill-opacity="1" stroke="none" />
		<g id="group-12" />
		<g id="group-13" />
		<g id="group-14" />
		<g id="group-15" />
		<g id="group-16" />
		<g id="group-17" />
		<g id="group-18" />
		<g id="group-19" />
		<g id="group-20" />
		<g id="group-21" />
		<g id="group-22" />
		<g id="group-23" />
		<g id="group-24" />
		<g id="group-25" />
		<g id="group-26" />
	</g>
	<g id="ice-cream">
		<path id="Path-60" d="M245.643 177.112 C242.904 181.81 236.866 183.441 232.12 180.675 L228.323 178.461 C223.625 175.722 221.994 169.684 224.76 164.938 L232.286 152.029 C235.025 147.331 241.063 145.7 245.809 148.466 L249.605 150.68 C254.304 153.419 255.935 159.457 253.168 164.203 Z" fill="#a85800" fill-opacity="1" stroke="none" />
		<path id="Path-61" d="M233.761 181.568 L228.837 190.016 C227.702 191.962 225.223 192.615 223.277 191.48 221.331 190.346 220.678 187.867 221.813 185.921 L226.737 177.473 Z" fill="#ffd972" fill-opacity="1" stroke="none" />
		<path id="Path-62" d="M251.315 167.382 C251.315 167.382 254.216 163.605 251.084 161.779 249.66 160.949 247.809 161.396 246.952 162.868 L246.066 164.386 245.181 165.905 C244.351 167.329 242.473 167.824 241.049 166.994 239.625 166.164 239.103 164.333 239.96 162.862 L240.846 161.343 241.731 159.824 C242.561 158.401 242.066 156.522 240.642 155.693 239.219 154.862 237.368 155.31 236.51 156.781 L235.625 158.3 233.19 162.476 C232.36 163.9 230.482 164.395 229.058 163.565 227.635 162.735 227.112 160.904 227.97 159.433 L230.404 155.256 C230.404 155.256 235.17 142.392 247.652 149.668 247.707 149.573 259.366 153.572 251.315 167.382 Z" fill="#ffad04" fill-opacity="1" stroke="none" />
		<g id="group-27" />
		<g id="group-28" />
		<g id="group-29" />
		<g id="group-30" />
		<g id="group-31" />
		<g id="group-32" />
		<g id="group-33" />
		<g id="group-34" />
		<g id="group-35" />
		<g id="group-36" />
		<g id="group-37" />
		<g id="group-38" />
		<g id="group-39" />
		<g id="group-40" />
		<g id="group-41" />
	</g>
	<g id="tomato">
		<path id="Path-63" d="M318.873 73.603 C319.846 72.557 320.962 71.721 322.168 71.096 326.447 68.878 331.848 69.316 335.935 72.453 336.271 72.712 336.6 72.989 336.918 73.285 342.174 78.173 342.618 86.241 337.909 91.304 336.341 92.991 334.554 93.964 332.675 94.331 331.133 94.633 329.528 94.526 327.931 94.072 327.856 94.051 327.782 94.029 327.707 94.006 325.48 93.327 323.271 91.976 321.268 90.113 320.95 89.818 320.645 89.517 320.353 89.209 318.856 87.637 317.706 85.923 316.993 84.161 316.963 84.09 316.936 84.018 316.908 83.947 315.558 80.425 315.966 76.729 318.873 73.603 Z" fill="#cd2a00" fill-opacity="1" stroke="none" />
		<path id="Path-64" d="M318.873 73.603 C319.846 72.557 320.962 71.721 322.168 71.096 325.854 70.2 329.934 70.988 333.183 73.483 333.52 73.741 333.848 74.018 334.166 74.314 339.422 79.202 339.866 87.27 335.157 92.333 334.378 93.171 333.545 93.833 332.675 94.331 331.133 94.633 329.528 94.526 327.931 94.072 325.628 93.417 323.338 92.038 321.268 90.114 320.95 89.818 320.645 89.517 320.353 89.209 318.796 87.573 317.613 85.784 316.908 83.947 315.558 80.425 315.966 76.729 318.873 73.603 Z" fill="#ff3501" fill-opacity="1" stroke="none" />
		<path id="Path-65" d="M319.668 80.774 L320.02 84.662 C320.064 85.16 319.535 85.517 319.098 85.284 L317.134 84.236 C317.086 84.211 317.032 84.259 317.053 84.309 317.762 86.01 318.837 87.718 320.277 89.236 L317.98 91.694 C317.481 92.23 317.512 93.077 318.048 93.576 318.584 94.075 319.431 94.044 319.93 93.508 L322.227 91.05 C323.856 92.382 325.633 93.327 327.392 93.906 327.496 93.941 327.584 93.824 327.523 93.733 L326.47 92.174 C326.182 91.749 326.518 91.167 327.034 91.195 L330.632 91.388 C330.963 91.406 331.083 90.951 330.783 90.816 L325.585 88.474 C325.264 88.329 325.135 87.942 325.302 87.624 L326.994 84.407 C327.138 84.134 326.832 83.854 326.572 84.022 L323.562 85.965 C323.246 86.169 322.83 86.055 322.671 85.722 L320.236 80.606 C320.094 80.307 319.638 80.441 319.668 80.774 Z" fill="#5eac24" fill-opacity="1" stroke="none" />
		<g id="group-42" />
		<g id="group-43" />
		<g id="group-44" />
		<g id="group-45" />
		<g id="group-46" />
		<g id="group-47" />
		<g id="group-48" />
		<g id="group-49" />
		<g id="group-50" />
		<g id="group-51" />
		<g id="group-52" />
		<g id="group-53" />
		<g id="group-54" />
		<g id="group-55" />
		<g id="group-56" />
	</g>
</svg>
