<?xml version="1.0" encoding="UTF-8"?>
<svg width="512px" height="512px" viewBox="0 0 512 512" xmlns="http://www.w3.org/2000/svg" xmlns:xlink="http://www.w3.org/1999/xlink" version="1.1">
 <!-- Generated by Pixelmator Pro 1.5.4 -->
 <g id="market">
  <g id="Stroke_copy_2">
   <g id="group">
    <path id="Path" d="M300.046 219.273 L256.137 190 212.228 219.273 168.319 190 124.41 219.273 80.501 190 80.501 512 343.956 512 343.956 190 Z" fill="#bc7d64" fill-opacity="1" stroke="none"/>
    <path id="Path-1" d="M343.956 431.5 L343.956 512 80.501 512 80.501 190 124.41 219.273 168.319 190 168.319 255.864 C168.319 352.811 246.92 431.451 343.911 431.499 Z" fill="#a06b57" fill-opacity="1" stroke="none"/>
    <path id="Path-2" d="M343.956 190 L387.865 219.273 431.774 190 431.774 512 343.956 512 Z" fill="#895d4d" fill-opacity="1" stroke="none"/>
    <path id="Path-3" d="M431.774 190 L431.774 512 387.865 512 387.865 219.273 Z" fill="#6e4a3d" fill-opacity="1" stroke="none"/>
    <path id="Path-4" d="M387.865 468.091 L343.956 512 387.865 512 431.774 512 Z" fill="#bc7d64" fill-opacity="1" stroke="none"/>
   </g>
  </g>
 </g>
</svg>
