<?xml version="1.0" encoding="UTF-8"?>
<svg viewBox="0 0 512 512" xmlns="http://www.w3.org/2000/svg" xmlns:xlink="http://www.w3.org/1999/xlink" version="1.1">
	<!-- Generated by Pixelmator Pro 1.5.4 -->
	<g id="winebottle">
		<path id="Path" d="M370.388 220.501 L366.426 218.457 368.406 184.583 C368.537 182.348 366.831 180.43 364.597 180.299 L352.177 179.573 C349.943 179.442 348.025 181.148 347.894 183.383 L345.913 217.257 341.74 218.826 C337.256 220.511 334.179 224.689 333.899 229.471 L329.021 312.886 C328.891 315.121 330.597 317.038 332.831 317.169 L367.773 319.213 C370.007 319.343 371.925 317.637 372.056 315.402 L376.934 231.987 C377.213 227.206 374.644 222.697 370.388 220.501 Z" fill="#1ba88a" fill-opacity="1" stroke="none" />
		<path id="Path-1" d="M368.406 184.583 C368.537 182.348 366.831 180.43 364.597 180.299 L352.177 179.573 C349.943 179.442 348.025 181.148 347.894 183.383 L346.663 204.427 367.176 205.626 368.406 184.583 Z" fill="#bd0058" fill-opacity="1" stroke="none" />
		<path id="Path-2" d="M358.387 179.936 L352.177 179.573 C349.942 179.442 348.025 181.148 347.894 183.383 L345.913 217.257 341.739 218.826 C337.256 220.511 334.179 224.689 333.899 229.471 L329.021 312.886 C328.89 315.121 330.596 317.038 332.831 317.169 L350.302 318.191 Z" fill="#73cb8b" fill-opacity="1" stroke="none" />
		<path id="Path-3" d="M358.387 179.936 L352.177 179.573 C349.942 179.442 348.025 181.148 347.894 183.383 L346.663 204.427 356.919 205.026 358.386 179.936 Z" fill="#e83a71" fill-opacity="1" stroke="none" />
		<path id="Path-4" d="M358.97 296.79 L361.72 249.779 C361.807 248.289 360.669 247.011 359.18 246.924 L332.968 245.391 329.904 297.797 356.115 299.33 C357.605 299.417 358.883 298.28 358.97 296.79 Z" fill="#ffae45" fill-opacity="1" stroke="none" />
		<path id="Path-5" d="M332.968 245.391 L354.458 246.648 351.393 299.056 329.903 297.799 Z" fill="#ffd75e" fill-opacity="1" stroke="none" />
	</g>
	<g id="apple">
		<path id="Path-6" d="M126.77 190.059 C128.363 190.683 129.926 191.291 130.863 191.19 131.292 191.618 131.393 192.379 131.152 192.847 131.051 192.857 130.949 192.861 130.847 192.857 L130.519 192.831 C128.334 192.56 124.37 190.352 122.44 190.525 121.978 190.571 121.564 190.238 121.512 189.776 121.487 189.556 121.553 189.336 121.694 189.165 121.837 188.993 122.038 188.88 122.26 188.848 123.294 188.688 125.048 189.383 126.769 190.058 126.77 190.059 126.77 190.059 126.77 190.059 Z" fill="#e29454" fill-opacity="1" stroke="none" />
		<path id="Path-7" d="M131.077 192.155 C130.976 192.165 130.874 192.169 130.772 192.165 L130.444 192.139 C128.259 191.868 124.295 189.66 122.366 189.833 122.038 189.864 121.722 189.705 121.551 189.423 121.512 189.537 121.499 189.657 121.512 189.776 121.564 190.238 121.978 190.571 122.44 190.525 124.37 190.352 128.334 192.56 130.519 192.831 L130.847 192.857 C130.949 192.861 131.051 192.857 131.152 192.847 131.307 192.545 131.32 192.123 131.195 191.746 131.181 191.889 131.141 192.027 131.077 192.155 Z" fill="#bf7a47" fill-opacity="1" stroke="none" />
		<path id="Path-8" d="M124.778 184.279 C124.842 184.234 124.924 184.219 125 184.239 L125.761 184.441 C126.45 184.623 127.088 184.959 127.627 185.425 127.559 185.661 127.506 185.901 127.467 186.144 127.013 188.956 129.637 190.203 130.768 191.104 130.801 191.13 130.833 191.159 130.863 191.19 129.926 191.291 128.363 190.683 126.77 190.059 126.77 190.059 126.77 190.059 126.769 190.058 124.985 189.13 124.353 187.2 124.571 185.279 L124.662 184.477 C124.671 184.397 124.713 184.325 124.778 184.279 Z" fill="#8dc63f" fill-opacity="1" stroke="none" />
		<path id="Path-9" d="M124.662 184.477 L124.648 184.597 C124.966 184.801 125.29 185.016 125.616 185.233 125.616 185.233 125.616 185.233 125.617 185.234 127.085 186.452 127.348 188.333 126.842 190.087 128.41 190.701 129.94 191.289 130.863 191.19 130.833 191.159 130.801 191.13 130.768 191.104 129.637 190.203 127.013 188.956 127.467 186.144 127.506 185.901 127.559 185.661 127.627 185.425 127.088 184.959 126.45 184.623 125.761 184.441 L125 184.239 C124.924 184.219 124.842 184.234 124.778 184.279 124.713 184.325 124.671 184.397 124.662 184.477 Z" fill="#739937" fill-opacity="1" stroke="none" />
		<path id="Path-10" d="M130.847 192.857 C130.949 192.861 131.051 192.857 131.152 192.847 131.109 192.933 131.051 193.011 130.98 193.076 130.021 193.948 128.045 195.728 128.651 198.125 127.616 198.858 125.968 199.452 124.618 199.439 L123.597 199.43 C123.495 199.429 123.399 199.384 123.333 199.307 123.267 199.229 123.239 199.127 123.254 199.026 L123.412 198.017 C123.889 194.969 126.528 192.731 129.613 192.76 L130.519 192.831 Q130.691 192.853 130.847 192.857 Z" fill="#8dc63f" fill-opacity="1" stroke="none" />
		<path id="Path-11" d="M123.458 197.757 C123.519 197.557 123.573 197.35 123.616 197.137 123.552 197.341 123.5 197.548 123.458 197.757 Z" fill="#6e891a" fill-opacity="1" stroke="none" />
		<path id="Path-12" d="M124.126 199.28 L123.646 199.431 124.618 199.439 C125.968 199.452 127.616 198.858 128.651 198.125 128.045 195.728 130.021 193.948 130.98 193.076 131.051 193.011 131.109 192.933 131.152 192.847 131.051 192.857 130.949 192.861 130.847 192.857 Q130.691 192.853 130.519 192.831 L129.613 192.76 C129.087 192.755 128.563 192.816 128.053 192.943 128.296 195.693 126.697 198.274 124.126 199.28 Z" fill="#739937" fill-opacity="1" stroke="none" />
		<path id="Path-13" d="M126.903 196.361 C126.914 196.469 126.873 196.575 126.792 196.647 L123.541 199.538 C123.452 199.617 123.327 199.643 123.214 199.605 123.1 199.568 123.016 199.473 122.991 199.355 122.967 199.238 123.008 199.117 123.097 199.038 L126.348 196.147 C126.442 196.064 126.574 196.04 126.69 196.085 126.807 196.13 126.889 196.236 126.903 196.361 Z" fill="#6e891a" fill-opacity="1" stroke="none" />
		<path id="Path-14" d="M127.516 185.437 C128.509 181.984 132.327 180.331 135.271 180.013 140.514 179.448 148.221 183.824 148.578 187.132 148.666 187.952 148.298 188.775 148.019 189.373 147.775 189.897 147.979 190.796 148.204 191.088 148.607 191.61 149.142 192.359 149.228 193.158 149.654 197.111 143.066 202.345 137.745 202.951 135.183 203.243 130.166 202.355 128.702 198.637 128.638 198.474 128.584 198.307 128.54 198.137 127.934 195.74 129.911 193.96 130.87 193.088 130.94 193.023 130.998 192.945 131.041 192.859 131.283 192.391 131.181 191.63 130.752 191.202 130.722 191.171 130.69 191.142 130.657 191.116 129.526 190.215 126.902 188.968 127.356 186.156 127.395 185.913 127.448 185.673 127.516 185.437 Z" fill="#fc324b" fill-opacity="1" stroke="none" />
		<path id="Path-15" d="M139.6 197.408 C137.343 198.99 132.177 200.718 128.905 197.973 128.76 197.853 128.624 197.723 128.497 197.586 128.477 197.564 128.458 197.542 128.438 197.521 128.455 197.729 128.489 197.935 128.54 198.137 128.584 198.307 128.638 198.474 128.702 198.638 130.166 202.355 135.183 203.243 137.745 202.951 143.066 202.345 149.654 197.111 149.228 193.158 149.142 192.359 148.607 191.61 148.204 191.088 147.979 190.796 147.775 189.897 148.019 189.373 148.298 188.775 148.666 187.952 148.578 187.132 148.453 185.979 147.435 184.696 145.939 183.537 147.084 187.457 143.817 194.452 139.6 197.408 Z" fill="#e01b33" fill-opacity="1" stroke="none" />
		<g id="group">
			<path id="Path-16" d="M138.967 199.79 C138.984 199.95 138.885 200.099 138.731 200.146 134.711 201.358 132.685 199.782 132.601 199.714 132.458 199.599 132.435 199.389 132.55 199.246 132.665 199.102 132.874 199.078 133.018 199.192 133.029 199.201 133.489 199.552 134.384 199.766 135.222 199.966 136.622 200.083 138.538 199.505 138.633 199.477 138.736 199.492 138.819 199.547 138.902 199.602 138.956 199.691 138.967 199.79 Z" fill="#e9e9e9" fill-opacity="1" stroke="none" />
		</g>
		<g id="group-1">
			<path id="Path-17" d="M140.52 199.309 C140.537 199.466 140.443 199.612 140.293 199.662 L139.636 199.881 C139.522 199.921 139.396 199.896 139.306 199.816 139.215 199.737 139.175 199.615 139.199 199.497 139.224 199.38 139.309 199.284 139.424 199.247 L140.082 199.028 C140.178 198.996 140.283 199.009 140.368 199.064 140.453 199.118 140.509 199.209 140.52 199.309 Z" fill="#e9e9e9" fill-opacity="1" stroke="none" />
		</g>
	</g>
	<g id="cerealbox">
		<path id="Polygon" d="M197.22 225.406 L188.438 238.691 201.723 247.474 210.506 234.188 Z" fill="#952309" fill-opacity="1" stroke="none" />
		<path id="Polygon-1" d="M236.63 136.908 L227.848 150.194 241.133 158.977 249.916 145.691 Z" fill="#952309" fill-opacity="1" stroke="none" />
		<path id="Rectangle" d="M188.438 238.691 L199.472 236.44 181.459 148.166 170.425 150.417 Z" fill="#952309" fill-opacity="1" stroke="none" />
		<path id="Rectangle-1" d="M172.677 161.452 L238.882 147.943 236.63 136.908 170.425 150.418 Z" fill="#952309" fill-opacity="1" stroke="none" />
		<path id="Rectangle-2" d="M201.723 247.474 L267.928 233.965 249.916 145.691 183.711 159.2 Z" fill="#c9300b" fill-opacity="1" stroke="none" />
		<path id="Path-18" d="M216.778 231.759 L215.142 231.559 213.807 232.355 211.993 232.156 210.281 233.085 208.986 226.74 C208.582 224.76 210.477 222.7 213.22 222.141 215.962 221.581 218.513 222.733 218.917 224.714 L220.212 231.058 218.423 230.849 216.778 231.759 Z M211.941 227.574 C212.574 227.445 213.011 226.97 212.918 226.512 212.825 226.056 212.236 225.79 211.603 225.919 210.97 226.048 210.533 226.523 210.626 226.98 210.72 227.437 211.308 227.703 211.941 227.574 Z M216.525 226.639 C217.157 226.509 217.595 226.034 217.501 225.577 217.408 225.12 216.82 224.854 216.187 224.983 215.554 225.113 215.117 225.588 215.21 226.045 215.303 226.502 215.892 226.768 216.525 226.639 Z" fill="#2f3a95" fill-opacity="1" stroke="none" />
		<path id="Path-19" d="M249.88 225.004 L248.244 224.805 246.91 225.601 245.096 225.401 243.383 226.33 242.089 219.985 C241.685 218.005 243.58 215.946 246.322 215.386 249.064 214.827 251.615 215.979 252.02 217.959 L253.314 224.304 251.526 224.094 249.88 225.004 Z M245.044 220.819 C245.676 220.69 246.114 220.215 246.021 219.758 245.927 219.301 245.339 219.035 244.706 219.164 244.073 219.293 243.636 219.769 243.729 220.225 243.822 220.683 244.411 220.948 245.044 220.819 Z M249.627 219.884 C250.26 219.755 250.697 219.28 250.604 218.823 250.511 218.366 249.922 218.1 249.29 218.229 248.656 218.358 248.219 218.833 248.312 219.29 248.406 219.747 248.994 220.013 249.627 219.884 Z" fill="#369530" fill-opacity="1" stroke="none" />
		<defs>
			<text id="string-3" transform="matrix(0.9798101185761706 -0.19993031669997055 0.19993031669997055 0.9798101185761706 200.2309428970487 173.71347268458857)" text-decoration="none" font-size="9.009" fill="#ffffff" x="7.230244688386273" y="7.0" font-family="Helvetica, Helvetica">
				Cereal
			</text>
		</defs>
		<use id="Cereal" xlink:href="#string-3" />
		<path id="Path-20" d="M229.952 211.83 L228.316 211.63 226.981 212.427 225.167 212.227 223.455 213.156 222.16 206.811 C221.756 204.831 223.651 202.772 226.394 202.212 229.136 201.653 231.687 202.804 232.091 204.785 L233.385 211.13 231.597 210.92 229.952 211.83 Z M225.115 207.645 C225.748 207.516 226.185 207.041 226.092 206.584 225.999 206.127 225.41 205.861 224.777 205.99 224.144 206.119 223.707 206.594 223.8 207.051 223.894 207.509 224.482 207.774 225.115 207.645 Z M229.699 206.71 C230.331 206.581 230.769 206.106 230.676 205.649 230.582 205.192 229.994 204.926 229.361 205.055 228.728 205.184 228.291 205.659 228.384 206.116 228.477 206.573 229.066 206.839 229.699 206.71 Z" fill="#919508" fill-opacity="1" stroke="none" />
	</g>
	<g id="grapes">
		<path id="Path-21" d="M183.119 234.852 C180.325 233.868 178.857 230.805 179.841 228.01 180.825 225.216 183.888 223.748 186.682 224.732 189.477 225.715 190.945 228.779 189.961 231.573 188.977 234.368 185.914 235.836 183.119 234.852 Z" fill="#744eaa" fill-opacity="1" stroke="none" />
		<path id="Path-22" d="M179.771 228.63 C181.363 226.131 184.679 225.396 187.177 226.988 189.05 228.181 189.932 230.342 189.586 232.402 190.961 229.94 190.192 226.802 187.783 225.268 185.284 223.676 181.968 224.411 180.377 226.91 179.978 227.536 179.725 228.213 179.609 228.902 179.661 228.811 179.714 228.72 179.771 228.63 Z" fill="#67449e" fill-opacity="1" stroke="none" />
		<path id="Path-23" d="M213.394 213.565 C213.32 213.68 213.242 213.791 213.161 213.899 213.355 214.023 213.538 214.159 213.71 214.303 221.277 211.255 225.628 205.682 226.991 203.584 227.28 203.139 227.105 202.55 226.623 202.336 L223.608 200.995 C223.196 200.811 222.712 201.051 222.612 201.49 221.369 206.97 216.969 210.906 213.613 213.184 213.545 213.313 213.473 213.44 213.394 213.565 Z" fill="#93603e" fill-opacity="1" stroke="none" />
		<path id="Path-24" d="M217.087 212.675 C220.115 210.318 223.429 206.786 224.481 202.149 224.543 201.876 224.753 201.681 225.002 201.615 L223.608 200.995 C223.196 200.811 222.712 201.051 222.612 201.49 221.369 206.97 216.969 210.906 213.613 213.184 213.545 213.313 213.473 213.44 213.394 213.565 213.32 213.68 213.242 213.791 213.161 213.899 213.355 214.023 213.538 214.159 213.71 214.303 214.917 213.817 216.043 213.266 217.087 212.675 Z" fill="#7f573c" fill-opacity="1" stroke="none" />
		<path id="Path-25" d="M206.388 202.736 C206.946 203.657 207.214 204.727 207.155 205.799 206.915 205.891 209.421 204.672 211.936 206.274 213.703 207.4 214.58 209.394 214.368 211.344 215.987 209.247 217.391 205.927 216.49 201.618 216.411 201.243 216.012 201.032 215.661 201.183 214.946 201.491 213.76 202.09 212.62 203.058 212.321 203.312 211.867 203.201 211.718 202.838 211.176 201.515 210.318 200.163 209.018 198.855 208.749 198.584 208.298 198.624 208.086 198.942 207.616 199.648 206.803 201.121 206.388 202.736 Z" fill="#3bbc56" fill-opacity="1" stroke="none" />
		<path id="Path-26" d="M207.443 200.768 C207.655 200.45 208.106 200.41 208.375 200.681 209.675 201.989 210.533 203.341 211.076 204.664 211.224 205.027 211.678 205.138 211.977 204.884 213.117 203.916 214.303 203.317 215.018 203.009 215.369 202.857 215.769 203.069 215.847 203.443 216.287 205.551 216.176 207.421 215.759 209.027 216.639 207.076 217.109 204.581 216.49 201.618 216.411 201.243 216.012 201.032 215.661 201.183 214.946 201.491 213.76 202.09 212.62 203.058 212.321 203.312 211.867 203.201 211.718 202.838 211.176 201.515 210.318 200.163 209.018 198.855 208.749 198.584 208.298 198.624 208.086 198.942 207.617 199.646 206.807 201.114 206.391 202.725 206.759 201.888 207.162 201.19 207.443 200.768 Z" fill="#30aa44" fill-opacity="1" stroke="none" />
		<path id="Path-27" d="M214.785 221.246 C214.618 221.509 214.43 221.751 214.228 221.974 215 222.969 215.387 224.205 215.34 225.446 217.237 226.436 219.464 226.526 220.498 226.557 220.88 226.568 221.173 226.224 221.108 225.848 220.794 224.031 220.189 222.548 219.425 221.34 219.215 221.008 219.388 220.574 219.767 220.477 221.217 220.109 222.392 219.488 223.057 219.084 223.384 218.885 223.443 218.437 223.183 218.157 220.146 214.877 216.544 214.203 213.878 214.335 215.788 216.042 216.206 219.015 214.785 221.246 Z" fill="#3bbc56" fill-opacity="1" stroke="none" />
		<path id="Path-28" d="M222.232 219.542 C222.557 219.377 222.836 219.218 223.057 219.084 223.384 218.885 223.443 218.437 223.183 218.157 220.146 214.877 216.544 214.203 213.878 214.335 214.441 214.838 214.873 215.452 215.168 216.124 217.396 216.358 219.953 217.255 222.232 219.542 Z" fill="#30aa44" fill-opacity="1" stroke="none" />
		<path id="Path-29" d="M208.378 230.218 C205.583 229.234 204.115 226.171 205.099 223.376 206.083 220.581 209.146 219.114 211.941 220.097 214.736 221.081 216.203 224.144 215.22 226.939 214.236 229.734 211.173 231.202 208.378 230.218 Z" fill="#744eaa" fill-opacity="1" stroke="none" />
		<path id="Path-30" d="M205.029 223.996 C206.621 221.497 209.937 220.762 212.436 222.354 214.308 223.547 215.19 225.708 214.845 227.768 216.219 225.305 215.451 222.168 213.041 220.633 210.543 219.042 207.227 219.777 205.635 222.275 205.236 222.901 204.984 223.579 204.868 224.268 204.919 224.176 204.972 224.085 205.029 223.996 Z" fill="#67449e" fill-opacity="1" stroke="none" />
		<path id="Path-31" d="M193.905 218.871 C191.11 217.887 189.642 214.824 190.626 212.03 191.61 209.235 194.673 207.767 197.468 208.751 200.262 209.735 201.73 212.798 200.746 215.592 199.762 218.387 196.699 219.855 193.905 218.871 Z" fill="#744eaa" fill-opacity="1" stroke="none" />
		<path id="Path-32" d="M190.556 212.65 C192.148 210.151 195.464 209.416 197.962 211.008 199.835 212.201 200.717 214.362 200.371 216.422 201.746 213.959 200.977 210.822 198.568 209.287 196.069 207.695 192.754 208.431 191.162 210.929 190.763 211.555 190.51 212.233 190.395 212.922 190.446 212.83 190.499 212.739 190.556 212.65 Z" fill="#67449e" fill-opacity="1" stroke="none" />
		<path id="Path-33" d="M200.16 210.391 C197.366 209.407 195.898 206.344 196.882 203.55 197.866 200.755 200.929 199.287 203.723 200.271 206.518 201.255 207.986 204.318 207.002 207.113 206.018 209.907 202.955 211.375 200.16 210.391 Z" fill="#744eaa" fill-opacity="1" stroke="none" />
		<path id="Path-34" d="M196.812 204.17 C198.404 201.671 201.72 200.936 204.218 202.528 206.091 203.721 206.973 205.882 206.627 207.942 208.002 205.479 207.233 202.342 204.824 200.807 202.325 199.216 199.01 199.951 197.418 202.45 197.019 203.076 196.766 203.753 196.651 204.442 196.702 204.35 196.755 204.26 196.812 204.17 Z" fill="#67449e" fill-opacity="1" stroke="none" />
		<path id="Path-35" d="M208.774 223.377 C205.979 222.393 204.511 219.33 205.495 216.535 206.479 213.74 209.542 212.272 212.336 213.256 215.131 214.24 216.599 217.303 215.615 220.098 214.631 222.893 211.568 224.36 208.774 223.377 Z" fill="#553788" fill-opacity="1" stroke="none" />
		<path id="Path-36" d="M205.424 217.157 C207.016 214.658 210.332 213.923 212.831 215.515 214.703 216.708 215.585 218.868 215.24 220.928 216.615 218.465 215.847 215.327 213.437 213.792 210.938 212.2 207.623 212.935 206.031 215.434 205.632 216.06 205.379 216.738 205.264 217.427 205.314 217.336 205.367 217.246 205.424 217.157 Z" fill="#462e7a" fill-opacity="1" stroke="none" />
		<path id="Path-37" d="M201.315 228.811 C198.542 227.834 197.085 224.795 198.061 222.021 199.037 219.248 202.077 217.791 204.851 218.767 207.624 219.744 209.081 222.784 208.104 225.557 207.128 228.331 204.088 229.787 201.315 228.811 Z" fill="#9266cc" fill-opacity="1" stroke="none" />
		<path id="Path-38" d="M197.986 222.651 C199.566 220.171 202.857 219.442 205.337 221.022 207.194 222.204 208.069 224.346 207.729 226.388 209.1 223.943 208.338 220.824 205.944 219.299 203.464 217.719 200.173 218.449 198.593 220.929 198.196 221.552 197.945 222.227 197.831 222.913 197.88 222.825 197.931 222.738 197.986 222.651 Z" fill="#7b54ba" fill-opacity="1" stroke="none" />
		<path id="Path-39" d="M191.594 234.102 C188.821 233.125 187.364 230.086 188.34 227.312 189.317 224.539 192.356 223.082 195.13 224.058 197.903 225.035 199.36 228.075 198.384 230.848 197.407 233.622 194.367 235.078 191.594 234.102 Z" fill="#9266cc" fill-opacity="1" stroke="none" />
		<path id="Path-40" d="M188.265 227.942 C189.845 225.462 193.136 224.733 195.616 226.312 197.473 227.495 198.348 229.637 198.008 231.679 199.379 229.234 198.617 226.115 196.223 224.59 193.743 223.01 190.452 223.74 188.872 226.219 188.475 226.843 188.224 227.518 188.109 228.204 188.159 228.116 188.21 228.029 188.265 227.942 Z" fill="#7b54ba" fill-opacity="1" stroke="none" />
		<path id="Path-41" d="M186.663 226.896 C183.889 225.92 182.432 222.88 183.409 220.107 184.385 217.333 187.425 215.877 190.198 216.853 192.972 217.829 194.429 220.869 193.452 223.643 192.476 226.416 189.436 227.873 186.663 226.896 Z" fill="#9266cc" fill-opacity="1" stroke="none" />
		<path id="Path-42" d="M183.334 220.737 C184.914 218.257 188.205 217.527 190.685 219.107 192.541 220.29 193.417 222.431 193.077 224.474 194.448 222.029 193.685 218.909 191.291 217.384 188.811 215.804 185.52 216.534 183.94 219.014 183.543 219.638 183.292 220.313 183.178 220.999 183.227 220.911 183.279 220.823 183.334 220.737 Z" fill="#7b54ba" fill-opacity="1" stroke="none" />
		<path id="Path-43" d="M207.368 215.614 C204.594 214.637 203.138 211.598 204.114 208.824 205.091 206.051 208.13 204.594 210.904 205.57 213.677 206.547 215.134 209.587 214.157 212.36 213.181 215.133 210.141 216.59 207.368 215.614 Z" fill="#9266cc" fill-opacity="1" stroke="none" />
		<path id="Path-44" d="M204.039 209.454 C205.619 206.974 208.91 206.244 211.391 207.824 213.247 209.007 214.122 211.148 213.783 213.191 215.153 210.746 214.391 207.626 211.997 206.101 209.517 204.521 206.226 205.251 204.646 207.731 204.249 208.355 203.998 209.03 203.884 209.716 203.933 209.628 203.984 209.54 204.039 209.454 Z" fill="#7b54ba" fill-opacity="1" stroke="none" />
		<path id="Path-45" d="M200.287 219.944 C197.513 218.968 196.056 215.928 197.033 213.155 198.009 210.381 201.049 208.924 203.822 209.901 206.596 210.877 208.053 213.917 207.076 216.69 206.1 219.464 203.06 220.921 200.287 219.944 Z" fill="#aa8dd8" fill-opacity="1" stroke="none" />
		<path id="Path-46" d="M196.965 213.764 C198.545 211.284 201.836 210.554 204.316 212.134 206.173 213.316 207.048 215.458 206.709 217.5 208.079 215.055 207.317 211.936 204.923 210.411 202.443 208.831 199.152 209.561 197.572 212.041 197.175 212.664 196.924 213.339 196.81 214.025 196.859 213.937 196.91 213.85 196.965 213.764 Z" fill="#987fc9" fill-opacity="1" stroke="none" />
		<path id="Path-47" d="M194.228 226.621 C191.454 225.645 189.997 222.605 190.974 219.832 191.95 217.058 194.99 215.601 197.764 216.578 200.537 217.554 201.994 220.594 201.017 223.367 200.041 226.141 197.001 227.598 194.228 226.621 Z" fill="#aa8dd8" fill-opacity="1" stroke="none" />
		<path id="Path-48" d="M190.907 220.44 C192.486 217.96 195.778 217.23 198.258 218.81 200.114 219.993 200.99 222.134 200.65 224.177 202.02 221.731 201.258 218.612 198.864 217.087 196.384 215.507 193.093 216.237 191.513 218.717 191.116 219.341 190.865 220.016 190.751 220.702 190.8 220.614 190.852 220.526 190.907 220.44 Z" fill="#987fc9" fill-opacity="1" stroke="none" />
		<g id="group-2" />
		<g id="group-3" />
		<g id="group-4" />
		<g id="group-5" />
		<g id="group-6" />
		<g id="group-7" />
		<g id="group-8" />
		<g id="group-9" />
		<g id="group-10" />
		<g id="group-11" />
		<g id="group-12" />
		<g id="group-13" />
		<g id="group-14" />
		<g id="group-15" />
		<g id="group-16" />
	</g>
	<g id="ice-cream">
		<path id="Path-49" d="M268.208 233.835 C264.197 237.508 257.947 237.271 254.238 233.219 L251.27 229.978 C247.597 225.966 247.834 219.717 251.886 216.007 L262.907 205.917 C266.918 202.244 273.168 202.48 276.878 206.532 L279.845 209.774 C283.518 213.785 283.281 220.035 279.229 223.745 Z" fill="#a85800" fill-opacity="1" stroke="none" />
		<path id="Path-50" d="M255.54 234.56 L248.327 241.163 C246.666 242.684 244.105 242.571 242.584 240.91 241.063 239.248 241.176 236.687 242.837 235.166 L250.049 228.563 Z" fill="#ffd972" fill-opacity="1" stroke="none" />
		<path id="Path-51" d="M276.515 226.23 C276.515 226.23 280.407 223.485 277.959 220.811 276.846 219.596 274.946 219.473 273.69 220.623 L272.394 221.81 271.097 222.997 C269.881 224.11 267.941 224.025 266.828 222.809 265.715 221.594 265.76 219.69 267.016 218.54 L268.313 217.353 269.609 216.166 C270.825 215.053 270.911 213.113 269.798 211.897 268.685 210.682 266.785 210.559 265.529 211.709 L264.232 212.896 260.667 216.161 C259.451 217.274 257.511 217.188 256.398 215.972 255.285 214.757 255.33 212.854 256.586 211.704 L260.152 208.439 C260.152 208.439 268.524 197.571 278.281 208.227 278.361 208.153 288.306 215.435 276.515 226.23 Z" fill="#ffad04" fill-opacity="1" stroke="none" />
		<g id="group-17" />
		<g id="group-18" />
		<g id="group-19" />
		<g id="group-20" />
		<g id="group-21" />
		<g id="group-22" />
		<g id="group-23" />
		<g id="group-24" />
		<g id="group-25" />
		<g id="group-26" />
		<g id="group-27" />
		<g id="group-28" />
		<g id="group-29" />
		<g id="group-30" />
		<g id="group-31" />
	</g>
	<g id="tomato">
		<path id="Path-52" d="M329.291 179.023 C328.814 180.369 328.123 181.58 327.265 182.633 324.222 186.37 319.092 188.116 314.094 186.863 313.682 186.76 313.271 186.636 312.862 186.492 306.095 184.098 302.479 176.872 304.785 170.353 305.553 168.182 306.805 166.579 308.383 165.494 309.678 164.604 311.193 164.063 312.839 163.845 312.915 163.834 312.993 163.825 313.07 163.816 315.384 163.553 317.948 163.914 320.527 164.827 320.936 164.971 321.336 165.126 321.726 165.292 323.724 166.139 325.462 167.255 326.817 168.588 326.872 168.641 326.926 168.696 326.98 168.75 329.619 171.444 330.715 174.998 329.291 179.023 Z" fill="#cd2a00" fill-opacity="1" stroke="none" />
		<path id="Path-53" d="M329.291 179.023 C328.814 180.369 328.123 181.58 327.265 182.633 324.24 184.921 320.182 185.821 316.21 184.824 315.798 184.721 315.386 184.598 314.977 184.453 308.21 182.059 304.594 174.833 306.9 168.314 307.282 167.236 307.783 166.298 308.383 165.494 309.678 164.604 311.193 164.063 312.839 163.845 315.213 163.53 317.862 163.884 320.527 164.826 320.936 164.971 321.336 165.126 321.726 165.292 323.805 166.174 325.602 167.345 326.98 168.75 329.619 171.444 330.715 174.998 329.291 179.023 Z" fill="#ff3501" fill-opacity="1" stroke="none" />
		<path id="Path-54" d="M325.71 172.759 L323.84 169.331 C323.601 168.893 323.945 168.354 324.438 168.394 L326.657 168.575 C326.711 168.579 326.741 168.513 326.702 168.476 325.375 167.197 323.71 166.058 321.785 165.237 L322.915 162.068 C323.159 161.378 322.794 160.613 322.104 160.369 321.413 160.125 320.648 160.49 320.404 161.18 L319.274 164.349 C317.25 163.775 315.243 163.614 313.399 163.782 313.29 163.792 313.256 163.935 313.348 163.993 L314.934 165.005 C315.367 165.281 315.291 165.948 314.806 166.128 L311.428 167.382 C311.117 167.497 311.188 167.962 311.517 167.967 L317.218 168.048 C317.57 168.053 317.842 168.357 317.815 168.715 L317.542 172.339 C317.519 172.647 317.911 172.782 318.083 172.525 L320.072 169.545 C320.281 169.232 320.708 169.171 320.986 169.414 L325.255 173.139 C325.505 173.357 325.869 173.053 325.71 172.759 Z" fill="#5eac24" fill-opacity="1" stroke="none" />
		<g id="group-32" />
		<g id="group-33" />
		<g id="group-34" />
		<g id="group-35" />
		<g id="group-36" />
		<g id="group-37" />
		<g id="group-38" />
		<g id="group-39" />
		<g id="group-40" />
		<g id="group-41" />
		<g id="group-42" />
		<g id="group-43" />
		<g id="group-44" />
		<g id="group-45" />
		<g id="group-46" />
	</g>
</svg>
