<?xml version="1.0" encoding="UTF-8"?>
<svg viewBox="0 0 512 512" xmlns="http://www.w3.org/2000/svg" xmlns:xlink="http://www.w3.org/1999/xlink" version="1.1">
	<!-- Generated by Pixelmator Pro 1.5.4 -->
	<g id="winebottle">
		<path id="Path" d="M451.517 20.836 L448.598 17.465 463.026 -13.246 C463.978 -15.272 463.107 -17.687 461.081 -18.639 L449.822 -23.929 C447.795 -24.88 445.381 -24.01 444.429 -21.983 L430.001 8.729 425.543 8.634 C420.755 8.532 416.345 11.267 414.308 15.602 L378.779 91.23 C377.827 93.256 378.698 95.67 380.724 96.622 L412.403 111.505 C414.429 112.457 416.844 111.586 417.796 109.56 L453.326 33.932 C455.362 29.597 454.652 24.457 451.517 20.836 Z" fill="#1ba88a" fill-opacity="1" stroke="none" />
		<path id="Path-1" d="M463.026 -13.246 C463.978 -15.272 463.107 -17.687 461.081 -18.639 L449.822 -23.929 C447.795 -24.88 445.381 -24.01 444.429 -21.983 L435.466 -2.904 454.063 5.833 463.026 -13.246 Z" fill="#bd0058" fill-opacity="1" stroke="none" />
		<path id="Path-2" d="M455.451 -21.284 L449.821 -23.929 C447.795 -24.881 445.381 -24.01 444.429 -21.984 L430 8.729 425.543 8.634 C420.755 8.532 416.345 11.267 414.308 15.602 L378.778 91.23 C377.827 93.256 378.698 95.67 380.724 96.622 L396.563 104.063 Z" fill="#73cb8b" fill-opacity="1" stroke="none" />
		<path id="Path-3" d="M455.451 -21.284 L449.821 -23.929 C447.795 -24.881 445.381 -24.01 444.429 -21.984 L435.466 -2.905 444.764 1.464 455.451 -21.284 Z" fill="#e83a71" fill-opacity="1" stroke="none" />
		<path id="Path-4" d="M412.565 87.417 L432.589 44.795 C433.223 43.444 432.642 41.835 431.292 41.2 L407.527 30.036 385.205 77.55 408.97 88.714 C410.32 89.349 411.93 88.768 412.565 87.417 Z" fill="#ffae45" fill-opacity="1" stroke="none" />
		<path id="Path-5" d="M407.527 30.036 L427.01 39.189 404.688 86.704 385.204 77.551 Z" fill="#ffd75e" fill-opacity="1" stroke="none" />
		<defs>
			<text id="string" transform="matrix(0.9050938424595679 0.42521187229635876 -0.42521187229635876 0.9050938424595679 400.4266165925975 37.54950585750474)" text-decoration="none" font-size="9.738" fill="#e83a71" x="3.5843980272650047" y="7.0" font-family="Helvetica, Helvetica">
				ne
			</text>
		</defs>
		<use id="ne" xlink:href="#string" />
	</g>
	<g id="cerealbox">
		<path id="Polygon" d="M125.08 48.705 L121.041 64.111 136.447 68.15 140.486 52.744 Z" fill="#952309" fill-opacity="1" stroke="none" />
		<path id="Rectangle" d="M121.041 64.111 L130.763 58.428 85.296 -19.35 75.573 -13.667 Z" fill="#952309" fill-opacity="1" stroke="none" />
		<path id="Rectangle-1" d="M136.447 68.15 L194.78 34.049 149.312 -43.729 90.979 -9.628 Z" fill="#c9300b" fill-opacity="1" stroke="none" />
		<path id="Path-6" d="M145.642 48.425 L144.028 48.763 143.021 49.946 141.24 50.341 139.917 51.772 136.649 46.182 C135.629 44.437 136.761 41.877 139.177 40.464 141.593 39.052 144.379 39.321 145.399 41.066 L148.667 46.657 146.907 47.034 145.642 48.425 Z M139.715 46.02 C140.273 45.694 140.534 45.103 140.299 44.7 140.063 44.298 139.42 44.236 138.863 44.562 138.305 44.887 138.044 45.478 138.28 45.881 138.515 46.284 139.158 46.346 139.715 46.02 Z M143.754 43.659 C144.312 43.333 144.573 42.742 144.337 42.34 144.102 41.937 143.459 41.875 142.901 42.201 142.344 42.527 142.083 43.117 142.318 43.52 142.553 43.923 143.196 43.985 143.754 43.659 Z" fill="#2f3a95" fill-opacity="1" stroke="none" />
		<path id="Path-7" d="M174.808 31.375 L173.195 31.712 172.188 32.896 170.406 33.29 169.084 34.721 165.816 29.131 C164.796 27.386 165.927 24.826 168.344 23.414 170.76 22.001 173.546 22.271 174.566 24.016 L177.834 29.606 176.074 29.983 174.808 31.375 Z M168.882 28.969 C169.44 28.643 169.701 28.053 169.465 27.65 169.23 27.247 168.587 27.185 168.029 27.511 167.472 27.837 167.211 28.428 167.446 28.83 167.682 29.233 168.324 29.295 168.882 28.969 Z M172.921 26.608 C173.478 26.282 173.739 25.692 173.504 25.289 173.269 24.886 172.626 24.824 172.068 25.15 171.51 25.476 171.249 26.067 171.485 26.469 171.72 26.872 172.363 26.934 172.921 26.608 Z" fill="#369530" fill-opacity="1" stroke="none" />
		<defs>
			<text id="string-1" transform="matrix(0.8633066742560972 -0.5046796867171066 0.5046796867171066 0.8633066742560972 111.29156811600447 -1.2046082959397841)" text-decoration="none" font-size="9.009" fill="#ffffff" x="7.230244688386273" y="7.0" font-family="Helvetica, Helvetica">
				Cereal
			</text>
		</defs>
		<use id="Cereal" xlink:href="#string-1" />
		<path id="Path-8" d="M151.7 25.317 L150.087 25.654 149.08 26.838 147.298 27.232 145.975 28.663 142.708 23.073 C141.687 21.328 142.819 18.768 145.235 17.356 147.651 15.943 150.437 16.213 151.457 17.958 L154.725 23.548 152.965 23.925 151.7 25.317 Z M145.773 22.911 C146.331 22.585 146.592 21.995 146.357 21.592 146.122 21.189 145.479 21.127 144.921 21.453 144.363 21.779 144.102 22.37 144.338 22.772 144.573 23.175 145.216 23.237 145.773 22.911 Z M149.812 20.55 C150.37 20.224 150.631 19.634 150.395 19.231 150.16 18.828 149.517 18.766 148.96 19.092 148.402 19.418 148.141 20.009 148.376 20.411 148.612 20.814 149.254 20.876 149.812 20.55 Z" fill="#919508" fill-opacity="1" stroke="none" />
	</g>
	<g id="apple">
		<path id="Path-9" d="M89.03 74.959 C87.425 74.369 85.849 73.796 84.914 73.918 84.476 73.499 84.357 72.741 84.589 72.267 84.69 72.255 84.791 72.249 84.893 72.25 L85.222 72.269 C87.412 72.492 91.424 74.613 93.349 74.398 93.81 74.341 94.231 74.666 94.294 75.126 94.323 75.345 94.262 75.567 94.125 75.741 93.986 75.916 93.787 76.033 93.567 76.071 92.536 76.252 90.767 75.597 89.031 74.959 89.031 74.959 89.031 74.959 89.03 74.959 Z" fill="#e29454" fill-opacity="1" stroke="none" />
		<path id="Path-10" d="M84.678 72.957 C84.779 72.945 84.881 72.939 84.983 72.94 L85.312 72.959 C87.502 73.182 91.513 75.303 93.439 75.088 93.766 75.05 94.086 75.202 94.262 75.479 94.299 75.365 94.309 75.245 94.294 75.126 94.231 74.666 93.81 74.341 93.349 74.398 91.424 74.613 87.412 72.492 85.222 72.269 L84.893 72.25 C84.791 72.249 84.69 72.255 84.589 72.267 84.44 72.572 84.437 72.994 84.569 73.368 84.581 73.226 84.618 73.087 84.678 72.957 Z" fill="#bf7a47" fill-opacity="1" stroke="none" />
		<path id="Path-11" d="M91.149 80.693 C91.086 80.74 91.005 80.757 90.928 80.738 L90.163 80.553 C89.47 80.386 88.825 80.064 88.275 79.61 88.338 79.373 88.386 79.131 88.42 78.887 88.812 76.067 86.161 74.877 85.011 74.002 84.977 73.976 84.944 73.948 84.914 73.918 85.849 73.796 87.425 74.369 89.03 74.959 89.031 74.959 89.031 74.959 89.031 74.959 90.836 75.848 91.51 77.763 91.334 79.689 L91.261 80.493 C91.254 80.573 91.213 80.645 91.149 80.693 Z" fill="#8dc63f" fill-opacity="1" stroke="none" />
		<path id="Path-12" d="M91.261 80.493 L91.272 80.373 C90.95 80.175 90.621 79.967 90.291 79.758 90.29 79.758 90.29 79.758 90.29 79.757 88.795 78.571 88.491 76.697 88.958 74.932 87.377 74.352 85.834 73.798 84.914 73.918 84.944 73.948 84.977 73.976 85.011 74.002 86.161 74.877 88.812 76.067 88.42 78.887 88.386 79.131 88.338 79.373 88.275 79.61 88.825 80.064 89.47 80.386 90.163 80.553 L90.928 80.738 C91.005 80.757 91.086 80.74 91.149 80.693 91.213 80.645 91.254 80.573 91.261 80.493 Z" fill="#739937" fill-opacity="1" stroke="none" />
		<path id="Path-13" d="M84.893 72.25 C84.791 72.249 84.69 72.255 84.589 72.267 84.63 72.18 84.686 72.101 84.755 72.034 85.695 71.142 87.632 69.319 86.973 66.936 87.992 66.18 89.627 65.55 90.977 65.533 L91.998 65.52 C92.099 65.518 92.197 65.562 92.264 65.638 92.331 65.714 92.362 65.816 92.349 65.916 L92.214 66.929 C91.804 69.986 89.214 72.281 86.129 72.32 L85.222 72.269 Q85.05 72.251 84.893 72.25 Z" fill="#8dc63f" fill-opacity="1" stroke="none" />
		<path id="Path-14" d="M92.173 67.189 C92.116 67.391 92.067 67.599 92.029 67.813 92.088 67.608 92.135 67.4 92.173 67.189 Z" fill="#6e891a" fill-opacity="1" stroke="none" />
		<path id="Path-15" d="M91.472 65.682 L91.948 65.521 90.977 65.533 C89.627 65.55 87.992 66.18 86.973 66.936 87.632 69.319 85.695 71.142 84.755 72.034 84.686 72.101 84.63 72.18 84.589 72.267 84.69 72.255 84.791 72.249 84.893 72.25 Q85.049 72.251 85.222 72.269 L86.129 72.32 C86.655 72.314 87.177 72.241 87.684 72.103 87.382 69.359 88.924 66.744 91.472 65.682 Z" fill="#739937" fill-opacity="1" stroke="none" />
		<path id="Path-16" d="M88.76 68.661 C88.746 68.553 88.784 68.446 88.864 68.372 L92.051 65.411 C92.138 65.329 92.262 65.301 92.377 65.336 92.491 65.371 92.578 65.465 92.604 65.581 92.631 65.698 92.593 65.82 92.506 65.901 L89.319 68.862 C89.227 68.948 89.096 68.974 88.978 68.932 88.86 68.89 88.776 68.785 88.76 68.661 Z" fill="#6e891a" fill-opacity="1" stroke="none" />
		<path id="Path-17" d="M88.386 79.596 C87.469 83.069 83.689 84.806 80.752 85.188 75.523 85.869 67.722 81.662 67.292 78.363 67.186 77.545 67.536 76.714 67.802 76.111 68.035 75.581 67.811 74.687 67.579 74.4 67.165 73.887 66.614 73.149 66.51 72.353 65.997 68.41 72.469 63.033 77.775 62.31 80.331 61.963 85.366 62.74 86.911 66.424 86.979 66.586 87.036 66.752 87.084 66.921 87.742 69.305 85.805 71.127 84.865 72.02 84.797 72.087 84.74 72.166 84.699 72.253 84.468 72.726 84.586 73.484 85.024 73.903 85.055 73.933 85.087 73.961 85.121 73.987 86.272 74.863 88.923 76.052 88.53 78.873 88.497 79.117 88.448 79.358 88.386 79.596 Z" fill="#fc324b" fill-opacity="1" stroke="none" />
		<path id="Path-18" d="M76.042 67.893 C78.265 66.262 83.391 64.421 86.723 67.093 86.87 67.21 87.009 67.337 87.139 67.471 87.16 67.492 87.179 67.514 87.199 67.535 87.178 67.328 87.139 67.122 87.084 66.921 87.036 66.752 86.979 66.586 86.911 66.424 85.366 62.74 80.331 61.963 77.775 62.31 72.469 63.033 65.997 68.41 66.51 72.353 66.614 73.149 67.165 73.887 67.579 74.4 67.811 74.687 68.035 75.581 67.802 76.111 67.536 76.714 67.186 77.545 67.292 78.363 67.442 79.513 68.488 80.774 70.009 81.899 68.778 78.005 71.891 70.94 76.042 67.893 Z" fill="#e01b33" fill-opacity="1" stroke="none" />
		<g id="group">
			<path id="Path-19" d="M76.623 65.497 C76.602 65.338 76.698 65.186 76.851 65.136 80.843 63.837 82.904 65.367 82.99 65.433 83.135 65.546 83.162 65.755 83.051 65.901 82.939 66.047 82.731 66.075 82.584 65.965 82.572 65.956 82.105 65.615 81.205 65.421 80.364 65.239 78.961 65.153 77.058 65.772 76.964 65.803 76.86 65.79 76.776 65.737 76.692 65.684 76.636 65.596 76.623 65.497 Z" fill="#e9e9e9" fill-opacity="1" stroke="none" />
		</g>
		<g id="group-1">
			<path id="Path-20" d="M75.081 66.012 C75.061 65.856 75.152 65.707 75.3 65.654 L75.953 65.42 C76.065 65.379 76.192 65.401 76.284 65.478 76.376 65.556 76.419 65.677 76.397 65.795 76.375 65.913 76.292 66.01 76.178 66.05 L75.525 66.284 C75.43 66.318 75.324 66.307 75.238 66.254 75.152 66.201 75.094 66.112 75.081 66.012 Z" fill="#e9e9e9" fill-opacity="1" stroke="none" />
		</g>
	</g>
	<g id="orange">
		<g id="group-2">
			<path id="Path-21" d="M286.352 151.511 L287.106 150.043 293.862 153.514 293.108 154.982 Z" fill="#d88a55" fill-opacity="1" stroke="none" />
		</g>
		<g id="group-3">
			<path id="Path-22" d="M286.728 150.779 L287.106 150.043 293.862 153.514 293.484 154.25 Z" fill="#c57a44" fill-opacity="1" stroke="none" />
		</g>
		<g id="group-4">
			<path id="Path-23" d="M293.432 154.197 C293.432 154.197 290.409 153.013 289.635 150.603 288.861 148.192 290.628 145.469 290.628 145.469 290.628 145.469 293.651 146.654 294.426 149.064 295.2 151.474 293.432 154.197 293.432 154.197 Z" fill="#86ec88" fill-opacity="1" stroke="none" />
		</g>
		<g id="group-5">
			<g id="group-6">
				<path id="Path-24" d="M297.377 168.271 C302.631 170.97 309.078 168.899 311.777 163.645 L301.927 157.291 292.751 153.871 C290.052 159.125 292.123 165.572 297.377 168.271 Z" fill="#fdae02" fill-opacity="1" stroke="none" />
				<path id="Path-25" d="M292.751 153.871 L311.777 163.645 C314.476 158.391 312.405 151.944 307.151 149.245 301.897 146.546 295.45 148.617 292.751 153.871 Z" fill="#e68f21" fill-opacity="1" stroke="none" />
			</g>
			<g id="group-7">
				<g id="group-8">
					<path id="Path-26" d="M303.613 157.949 L301.967 161.152 C306.813 163.642 312.76 161.731 315.25 156.885 L310.107 153.345 Z" fill="#ffdf8e" fill-opacity="1" stroke="none" />
					<path id="Path-27" d="M309.337 146.805 L312.047 155.24 315.25 156.885 C317.74 152.039 315.829 146.092 310.983 143.602 Z" fill="#fdc673" fill-opacity="1" stroke="none" />
					<g id="group-9">
						<g id="group-10">
							<path id="Path-28" d="M303.613 157.949 C305.671 159.006 308.048 158.81 309.868 157.641 L306.475 152.377 Z" fill="#fdc673" fill-opacity="1" stroke="none" />
							<path id="Path-29" d="M309.868 157.641 C310.765 157.065 311.526 156.253 312.047 155.24 L306.728 151.885 306.475 152.377 Z" fill="#fdae02" fill-opacity="1" stroke="none" />
						</g>
						<g id="group-11">
							<path id="Path-30" d="M306.475 152.377 L312.047 155.24 C312.568 154.226 312.784 153.134 312.73 152.07 Z" fill="#e68f21" fill-opacity="1" stroke="none" />
							<path id="Path-31" d="M309.337 146.805 L306.475 152.377 312.73 152.07 C312.62 149.91 311.396 147.863 309.337 146.805 Z" fill="#fdae02" fill-opacity="1" stroke="none" />
						</g>
					</g>
				</g>
			</g>
		</g>
	</g>
	<g id="grapes">
		<path id="Path-32" d="M150.119 163.852 C147.325 162.868 145.857 159.805 146.841 157.01 147.825 154.216 150.888 152.748 153.682 153.732 156.477 154.715 157.945 157.779 156.961 160.573 155.977 163.368 152.914 164.836 150.119 163.852 Z" fill="#744eaa" fill-opacity="1" stroke="none" />
		<path id="Path-33" d="M146.771 157.63 C148.363 155.131 151.679 154.396 154.177 155.988 156.05 157.181 156.932 159.342 156.586 161.402 157.961 158.94 157.192 155.802 154.783 154.268 152.284 152.676 148.968 153.411 147.377 155.91 146.978 156.536 146.725 157.213 146.609 157.902 146.661 157.811 146.714 157.72 146.771 157.63 Z" fill="#67449e" fill-opacity="1" stroke="none" />
		<path id="Path-34" d="M180.394 142.565 C180.32 142.68 180.242 142.791 180.161 142.899 180.355 143.023 180.538 143.159 180.71 143.303 188.277 140.255 192.628 134.682 193.991 132.584 194.28 132.139 194.105 131.55 193.623 131.336 L190.608 129.995 C190.196 129.811 189.712 130.051 189.612 130.49 188.369 135.97 183.969 139.906 180.613 142.184 180.545 142.313 180.473 142.44 180.394 142.565 Z" fill="#93603e" fill-opacity="1" stroke="none" />
		<path id="Path-35" d="M184.087 141.675 C187.115 139.318 190.429 135.786 191.481 131.149 191.543 130.876 191.753 130.681 192.002 130.615 L190.608 129.995 C190.196 129.811 189.712 130.051 189.612 130.49 188.369 135.97 183.969 139.906 180.613 142.184 180.545 142.313 180.473 142.44 180.394 142.565 180.32 142.68 180.242 142.791 180.161 142.899 180.355 143.023 180.538 143.159 180.71 143.303 181.917 142.817 183.043 142.266 184.087 141.675 Z" fill="#7f573c" fill-opacity="1" stroke="none" />
		<path id="Path-36" d="M173.388 131.736 C173.946 132.657 174.214 133.727 174.155 134.799 173.915 134.891 176.421 133.672 178.936 135.274 180.703 136.4 181.58 138.394 181.368 140.344 182.987 138.247 184.391 134.927 183.49 130.618 183.411 130.243 183.012 130.032 182.661 130.183 181.946 130.491 180.76 131.09 179.62 132.058 179.321 132.312 178.867 132.201 178.718 131.838 178.176 130.515 177.318 129.163 176.018 127.855 175.749 127.584 175.298 127.624 175.086 127.942 174.616 128.648 173.803 130.121 173.388 131.736 Z" fill="#3bbc56" fill-opacity="1" stroke="none" />
		<path id="Path-37" d="M174.443 129.768 C174.655 129.45 175.106 129.41 175.375 129.681 176.675 130.989 177.533 132.341 178.076 133.664 178.224 134.027 178.678 134.138 178.977 133.884 180.117 132.916 181.303 132.317 182.018 132.009 182.369 131.857 182.769 132.069 182.847 132.443 183.287 134.551 183.176 136.421 182.759 138.027 183.639 136.076 184.109 133.581 183.49 130.618 183.411 130.243 183.012 130.032 182.661 130.183 181.946 130.491 180.76 131.09 179.62 132.058 179.321 132.312 178.867 132.201 178.718 131.838 178.176 130.515 177.318 129.163 176.018 127.855 175.749 127.584 175.298 127.624 175.086 127.942 174.617 128.646 173.807 130.114 173.391 131.725 173.759 130.888 174.162 130.19 174.443 129.768 Z" fill="#30aa44" fill-opacity="1" stroke="none" />
		<path id="Path-38" d="M181.785 150.246 C181.618 150.509 181.43 150.751 181.228 150.974 182 151.969 182.387 153.205 182.34 154.446 184.237 155.436 186.464 155.526 187.498 155.557 187.88 155.568 188.173 155.224 188.108 154.848 187.794 153.031 187.189 151.548 186.425 150.34 186.215 150.008 186.388 149.574 186.767 149.477 188.217 149.109 189.392 148.488 190.057 148.084 190.384 147.885 190.443 147.437 190.183 147.157 187.146 143.877 183.544 143.203 180.878 143.335 182.788 145.042 183.206 148.015 181.785 150.246 Z" fill="#3bbc56" fill-opacity="1" stroke="none" />
		<path id="Path-39" d="M189.232 148.542 C189.557 148.377 189.836 148.218 190.057 148.084 190.384 147.885 190.443 147.437 190.183 147.157 187.146 143.877 183.544 143.203 180.878 143.335 181.441 143.838 181.873 144.452 182.168 145.124 184.396 145.358 186.953 146.255 189.232 148.542 Z" fill="#30aa44" fill-opacity="1" stroke="none" />
		<path id="Path-40" d="M175.378 159.218 C172.583 158.234 171.115 155.171 172.099 152.376 173.083 149.581 176.146 148.114 178.941 149.097 181.736 150.081 183.203 153.144 182.22 155.939 181.236 158.734 178.173 160.202 175.378 159.218 Z" fill="#744eaa" fill-opacity="1" stroke="none" />
		<path id="Path-41" d="M172.029 152.996 C173.621 150.497 176.937 149.762 179.436 151.354 181.308 152.547 182.19 154.708 181.845 156.768 183.219 154.305 182.451 151.168 180.041 149.633 177.543 148.042 174.227 148.777 172.635 151.275 172.236 151.901 171.984 152.579 171.868 153.268 171.919 153.176 171.972 153.085 172.029 152.996 Z" fill="#67449e" fill-opacity="1" stroke="none" />
		<path id="Path-42" d="M160.905 147.871 C158.11 146.887 156.642 143.824 157.626 141.03 158.61 138.235 161.673 136.767 164.468 137.751 167.262 138.735 168.73 141.798 167.746 144.592 166.762 147.387 163.699 148.855 160.905 147.871 Z" fill="#744eaa" fill-opacity="1" stroke="none" />
		<path id="Path-43" d="M157.556 141.65 C159.148 139.151 162.464 138.416 164.962 140.008 166.835 141.201 167.717 143.362 167.371 145.422 168.746 142.959 167.977 139.822 165.568 138.287 163.069 136.695 159.754 137.431 158.162 139.929 157.763 140.555 157.51 141.233 157.395 141.922 157.446 141.83 157.499 141.739 157.556 141.65 Z" fill="#67449e" fill-opacity="1" stroke="none" />
		<path id="Path-44" d="M167.16 139.391 C164.366 138.407 162.898 135.344 163.882 132.55 164.866 129.755 167.929 128.287 170.723 129.271 173.518 130.255 174.986 133.318 174.002 136.113 173.018 138.907 169.955 140.375 167.16 139.391 Z" fill="#744eaa" fill-opacity="1" stroke="none" />
		<path id="Path-45" d="M163.812 133.17 C165.404 130.671 168.72 129.936 171.218 131.528 173.091 132.721 173.973 134.882 173.627 136.942 175.002 134.479 174.233 131.342 171.824 129.807 169.325 128.216 166.01 128.951 164.418 131.45 164.019 132.076 163.766 132.753 163.651 133.442 163.702 133.35 163.755 133.26 163.812 133.17 Z" fill="#67449e" fill-opacity="1" stroke="none" />
		<path id="Path-46" d="M175.774 152.377 C172.979 151.393 171.511 148.33 172.495 145.535 173.479 142.74 176.542 141.272 179.336 142.256 182.131 143.24 183.599 146.303 182.615 149.098 181.631 151.893 178.568 153.36 175.774 152.377 Z" fill="#553788" fill-opacity="1" stroke="none" />
		<path id="Path-47" d="M172.424 146.157 C174.016 143.658 177.332 142.923 179.831 144.515 181.703 145.708 182.585 147.868 182.24 149.928 183.615 147.465 182.847 144.327 180.437 142.792 177.938 141.2 174.623 141.935 173.031 144.434 172.632 145.06 172.379 145.738 172.264 146.427 172.314 146.336 172.367 146.246 172.424 146.157 Z" fill="#462e7a" fill-opacity="1" stroke="none" />
		<path id="Path-48" d="M168.315 157.811 C165.542 156.834 164.085 153.795 165.061 151.021 166.037 148.248 169.077 146.791 171.851 147.767 174.624 148.744 176.081 151.784 175.104 154.557 174.128 157.331 171.088 158.787 168.315 157.811 Z" fill="#9266cc" fill-opacity="1" stroke="none" />
		<path id="Path-49" d="M164.986 151.651 C166.566 149.171 169.857 148.442 172.337 150.022 174.194 151.204 175.069 153.346 174.729 155.388 176.1 152.943 175.338 149.824 172.944 148.299 170.464 146.719 167.173 147.449 165.593 149.929 165.196 150.552 164.945 151.227 164.831 151.913 164.88 151.825 164.931 151.738 164.986 151.651 Z" fill="#7b54ba" fill-opacity="1" stroke="none" />
		<path id="Path-50" d="M158.594 163.102 C155.821 162.125 154.364 159.086 155.34 156.312 156.317 153.539 159.356 152.082 162.13 153.058 164.903 154.035 166.36 157.075 165.384 159.848 164.407 162.622 161.367 164.078 158.594 163.102 Z" fill="#9266cc" fill-opacity="1" stroke="none" />
		<path id="Path-51" d="M155.265 156.942 C156.845 154.462 160.136 153.733 162.616 155.312 164.473 156.495 165.348 158.637 165.008 160.679 166.379 158.234 165.617 155.115 163.223 153.59 160.743 152.01 157.452 152.74 155.872 155.219 155.475 155.843 155.224 156.518 155.109 157.204 155.159 157.116 155.21 157.029 155.265 156.942 Z" fill="#7b54ba" fill-opacity="1" stroke="none" />
		<path id="Path-52" d="M153.663 155.896 C150.889 154.92 149.432 151.88 150.409 149.107 151.385 146.333 154.425 144.877 157.198 145.853 159.972 146.829 161.429 149.869 160.452 152.643 159.476 155.416 156.436 156.873 153.663 155.896 Z" fill="#9266cc" fill-opacity="1" stroke="none" />
		<path id="Path-53" d="M150.334 149.737 C151.914 147.257 155.205 146.527 157.685 148.107 159.541 149.29 160.417 151.431 160.077 153.474 161.448 151.029 160.685 147.909 158.291 146.384 155.811 144.804 152.52 145.534 150.94 148.014 150.543 148.638 150.292 149.313 150.178 149.999 150.227 149.911 150.279 149.823 150.334 149.737 Z" fill="#7b54ba" fill-opacity="1" stroke="none" />
		<path id="Path-54" d="M174.368 144.614 C171.594 143.637 170.138 140.598 171.114 137.824 172.091 135.051 175.13 133.594 177.904 134.57 180.677 135.547 182.134 138.587 181.157 141.36 180.181 144.133 177.141 145.59 174.368 144.614 Z" fill="#9266cc" fill-opacity="1" stroke="none" />
		<path id="Path-55" d="M171.039 138.454 C172.619 135.974 175.91 135.244 178.391 136.824 180.247 138.007 181.122 140.148 180.783 142.191 182.153 139.746 181.391 136.626 178.997 135.101 176.517 133.521 173.226 134.251 171.646 136.731 171.249 137.355 170.998 138.03 170.884 138.716 170.933 138.628 170.984 138.54 171.039 138.454 Z" fill="#7b54ba" fill-opacity="1" stroke="none" />
		<path id="Path-56" d="M167.287 148.944 C164.513 147.968 163.056 144.928 164.033 142.155 165.009 139.381 168.049 137.924 170.822 138.901 173.596 139.877 175.053 142.917 174.076 145.69 173.1 148.464 170.06 149.921 167.287 148.944 Z" fill="#aa8dd8" fill-opacity="1" stroke="none" />
		<path id="Path-57" d="M163.965 142.764 C165.545 140.284 168.836 139.554 171.316 141.134 173.173 142.316 174.048 144.458 173.709 146.5 175.079 144.055 174.317 140.936 171.923 139.411 169.443 137.831 166.152 138.561 164.572 141.041 164.175 141.664 163.924 142.339 163.81 143.025 163.859 142.937 163.91 142.85 163.965 142.764 Z" fill="#987fc9" fill-opacity="1" stroke="none" />
		<path id="Path-58" d="M161.228 155.621 C158.454 154.645 156.997 151.605 157.974 148.832 158.95 146.058 161.99 144.601 164.764 145.578 167.537 146.554 168.994 149.594 168.017 152.367 167.041 155.141 164.001 156.598 161.228 155.621 Z" fill="#aa8dd8" fill-opacity="1" stroke="none" />
		<path id="Path-59" d="M157.907 149.44 C159.486 146.96 162.778 146.23 165.258 147.81 167.114 148.993 167.99 151.134 167.65 153.177 169.02 150.731 168.258 147.612 165.864 146.087 163.384 144.507 160.093 145.237 158.513 147.717 158.116 148.341 157.865 149.016 157.751 149.702 157.8 149.614 157.852 149.526 157.907 149.44 Z" fill="#987fc9" fill-opacity="1" stroke="none" />
		<g id="group-12" />
		<g id="group-13" />
		<g id="group-14" />
		<g id="group-15" />
		<g id="group-16" />
		<g id="group-17" />
		<g id="group-18" />
		<g id="group-19" />
		<g id="group-20" />
		<g id="group-21" />
		<g id="group-22" />
		<g id="group-23" />
		<g id="group-24" />
		<g id="group-25" />
		<g id="group-26" />
	</g>
	<g id="ice-cream">
		<path id="Path-60" d="M244.551 103.772 C244.242 109.201 239.601 113.394 234.116 113.082 L229.729 112.832 C224.299 112.523 220.106 107.882 220.418 102.397 L221.268 87.479 C221.577 82.049 226.218 77.857 231.703 78.169 L236.09 78.419 C241.52 78.728 245.713 83.369 245.401 88.853 Z" fill="#a85800" fill-opacity="1" stroke="none" />
		<path id="Path-61" d="M235.984 113.133 L235.428 122.896 C235.3 125.145 233.387 126.852 231.139 126.724 228.89 126.595 227.183 124.682 227.311 122.434 L227.867 112.671 Z" fill="#ffd972" fill-opacity="1" stroke="none" />
		<path id="Path-62" d="M245.191 92.528 C245.191 92.528 246.063 87.846 242.443 87.639 240.798 87.546 239.352 88.784 239.255 90.484 L239.155 92.239 239.055 93.994 C238.961 95.64 237.512 96.933 235.867 96.839 234.221 96.745 232.925 95.351 233.022 93.651 L233.122 91.896 233.222 90.141 C233.316 88.495 232.022 87.046 230.377 86.952 228.732 86.859 227.286 88.097 227.189 89.797 L227.089 91.552 226.814 96.379 C226.72 98.024 225.271 99.317 223.625 99.224 221.98 99.13 220.684 97.735 220.781 96.035 L221.056 91.209 C221.056 91.209 219.465 77.582 233.89 78.403 233.896 78.294 246.1 76.568 245.191 92.528 Z" fill="#ffad04" fill-opacity="1" stroke="none" />
		<g id="group-27" />
		<g id="group-28" />
		<g id="group-29" />
		<g id="group-30" />
		<g id="group-31" />
		<g id="group-32" />
		<g id="group-33" />
		<g id="group-34" />
		<g id="group-35" />
		<g id="group-36" />
		<g id="group-37" />
		<g id="group-38" />
		<g id="group-39" />
		<g id="group-40" />
		<g id="group-41" />
	</g>
	<g id="tomato">
		<path id="Path-63" d="M296.904 33.965 C296.38 32.636 296.107 31.269 296.062 29.911 295.904 25.095 298.627 20.409 303.219 18.073 303.598 17.881 303.989 17.704 304.393 17.544 311.069 14.907 318.541 17.984 321.081 24.415 321.927 26.557 322.035 28.588 321.557 30.442 321.164 31.964 320.377 33.366 319.279 34.612 319.228 34.67 319.176 34.728 319.123 34.785 317.551 36.502 315.379 37.914 312.836 38.918 312.432 39.078 312.029 39.223 311.625 39.354 309.562 40.028 307.519 40.327 305.622 40.211 305.545 40.207 305.468 40.201 305.392 40.195 301.633 39.897 298.473 37.935 296.904 33.965 Z" fill="#cd2a00" fill-opacity="1" stroke="none" />
		<path id="Path-64" d="M296.904 33.965 C296.38 32.636 296.107 31.269 296.062 29.911 296.842 26.199 299.311 22.857 302.962 21 303.34 20.807 303.732 20.63 304.136 20.471 310.812 17.834 318.284 20.91 320.824 27.341 321.244 28.405 321.482 29.442 321.557 30.443 321.164 31.964 320.377 33.366 319.279 34.612 317.695 36.407 315.464 37.88 312.836 38.918 312.432 39.078 312.029 39.223 311.625 39.354 309.478 40.055 307.354 40.351 305.392 40.196 301.633 39.897 298.473 37.935 296.904 33.965 Z" fill="#ff3501" fill-opacity="1" stroke="none" />
		<path id="Path-65" d="M303.718 36.338 L307.379 37.696 C307.847 37.87 307.941 38.502 307.543 38.796 L305.751 40.116 C305.707 40.148 305.728 40.218 305.781 40.221 307.622 40.314 309.626 40.08 311.617 39.435 L312.845 42.567 C313.114 43.248 313.892 43.585 314.573 43.316 315.254 43.047 315.591 42.27 315.322 41.589 L314.094 38.456 C315.998 37.56 317.617 36.364 318.897 35.027 318.973 34.948 318.905 34.818 318.797 34.834 L316.937 35.112 C316.429 35.188 316.049 34.635 316.297 34.181 L318.021 31.017 C318.18 30.727 317.821 30.422 317.569 30.635 L313.217 34.316 C312.947 34.543 312.542 34.493 312.328 34.205 L310.154 31.292 C309.969 31.045 309.585 31.2 309.624 31.507 L310.08 35.061 C310.128 35.434 309.846 35.76 309.477 35.76 L303.812 35.753 C303.48 35.752 303.405 36.221 303.718 36.338 Z" fill="#5eac24" fill-opacity="1" stroke="none" />
		<g id="group-42" />
		<g id="group-43" />
		<g id="group-44" />
		<g id="group-45" />
		<g id="group-46" />
		<g id="group-47" />
		<g id="group-48" />
		<g id="group-49" />
		<g id="group-50" />
		<g id="group-51" />
		<g id="group-52" />
		<g id="group-53" />
		<g id="group-54" />
		<g id="group-55" />
		<g id="group-56" />
	</g>
</svg>
