<svg version="1.1" id="Capa_1" xmlns="http://www.w3.org/2000/svg" xmlns:xlink="http://www.w3.org/1999/xlink" x="0px" y="0px" viewBox="0 0 364.4 364.4" style="enable-background:new 0 0 364.4 364.4;" xml:space="preserve">
	<path style="fill:#A85800;" d="M270.2,186c0,39.6-32,72-72,72h-32c-39.6,0-72-32-72-72V77.2c0-39.6,32-72,72-72h32
	c39.6,0,72,32,72,72V186z" />
	<path style="fill:#FFD972;" d="M211.8,257.6v71.2c0,16.4-13.2,29.6-29.6,29.6l0,0c-16.4,0-29.6-13.2-29.6-29.6v-71.2H211.8z" />
	<path style="fill:#FFAD04;" d="M270.2,104c0,0,4.4-34.4-22-34.4l0,0c-12,0-22,9.6-22,22v12.8v12.8c0,12-10,22-22,22l0,0
	c-12,0-22-9.6-22-22v-12.8V91.6c0-12-10-22-22-22l0,0c-12,0-22,9.6-22,22v12.8v35.2c0,12-10,22-22,22l0,0c-12,0-22-9.6-22-22v-35.2
	c0,0-17.2-98.4,88-98.4C182.2,5.2,270.2-12.4,270.2,104z" />
	<path style="fill:#5E2600;" d="M147,260.8v68.4c0,19.2,15.6,35.2,35.2,35.2c19.2,0,35.2-15.6,35.2-35.2v-68.4
	c33.2-8.4,58-38.8,58-74.8v-82l0,0V91.2v-0.4V77.2c0-42.8-34.8-77.2-77.2-77.2h-32C123.4,0,89,34.8,89,77.2V104v35.2V186
	C89,222,113.8,252.4,147,260.8z M206.2,329.2c0,13.2-10.8,24-24,24c-13.2,0-24-10.8-24-24v-66.4c2.8,0.4,5.2,0.4,8,0.4h32
	c2.8,0,5.6,0,8-0.4V329.2z M99.8,77.2c0-36.8,29.6-66.4,66.4-66.4h32c34,0,62,25.6,66,58.4c-4.4-3.2-10-5.2-16-5.2
	c-15.2,0-27.6,12.4-27.6,27.2v25.2c0,9.2-7.6,16.4-16.4,16.4c-9.2,0-16.4-7.2-16.4-16.4V91.2c0-15.2-12.4-27.2-27.6-27.2
	c-15.2,0-27.6,12.4-27.6,27.2v48c0,9.2-7.6,16.4-16.4,16.4c-9.2,0-16.4-7.2-16.4-16.4V104V77.2z M99.8,160.8
	c4.8,3.6,10.4,5.6,16.4,5.6c15.2,0,27.6-12.4,27.6-27.2v-48c0-9.2,7.6-16.4,16.4-16.4c9.2,0,16.4,7.2,16.4,16.4v25.2
	c0,15.2,12.4,27.2,27.6,27.2s27.6-12.4,27.6-27.2V91.2c0-9.2,7.6-16.4,16.4-16.4s16.4,7.2,16.4,16V186c0,36.8-29.6,66.4-66.4,66.4
	h-32c-36.8,0-66.4-29.6-66.4-66.4V160.8z" />
	<g>
	</g>
	<g>
	</g>
	<g>
	</g>
	<g>
	</g>
	<g>
	</g>
	<g>
	</g>
	<g>
	</g>
	<g>
	</g>
	<g>
	</g>
	<g>
	</g>
	<g>
	</g>
	<g>
	</g>
	<g>
	</g>
	<g>
	</g>
	<g>
	</g>
</svg>
