<?xml version="1.0" encoding="UTF-8"?>
<svg width="512px" height="512px" viewBox="0 0 512 512" xmlns="http://www.w3.org/2000/svg" xmlns:xlink="http://www.w3.org/1999/xlink" version="1.1">
 <!-- Generated by Pixelmator Pro 1.5.4 -->
 <path id="Line" d="M141 169 L141 319" fill="none" stroke="#5f645f" stroke-width="5" stroke-opacity="1" stroke-linejoin="round"/>
 <path id="Line-1" d="M170 169 L170 319" fill="none" stroke="#878f87" stroke-width="5" stroke-opacity="1" stroke-linejoin="round"/>
 <path id="Line-2" d="M170.011 319.894 L129.985 512.128" fill="none" stroke="#878f87" stroke-width="5" stroke-opacity="1" stroke-linejoin="round"/>
 <path id="Line-3" d="M331 323 L369.988 512.897" fill="none" stroke="#878f87" stroke-width="5" stroke-opacity="1" stroke-linejoin="round"/>
 <path id="Line-4" d="M301 322 L319.994 512.922" fill="none" stroke="#878f87" stroke-width="5" stroke-opacity="1" stroke-linejoin="round"/>
 <path id="Line-5" d="M201 318 L179.996 511.95" fill="none" stroke="#878f87" stroke-width="5" stroke-opacity="1" stroke-linejoin="round"/>
 <path id="Line-6" d="M230 318 L229.996 513.054" fill="none" stroke="#878f87" stroke-width="5" stroke-opacity="1" stroke-linejoin="round"/>
 <path id="Line-7" d="M270 319 L269.996 514.054" fill="none" stroke="#878f87" stroke-width="5" stroke-opacity="1" stroke-linejoin="round"/>
 <path id="Line-8" d="M200 169 L200 319" fill="none" stroke="#878f87" stroke-width="5" stroke-opacity="1" stroke-linejoin="round"/>
 <path id="Line-9" d="M230 169 L230 319" fill="none" stroke="#878f87" stroke-width="5" stroke-opacity="1" stroke-linejoin="round"/>
 <path id="Line-10" d="M270 169 L270 319" fill="none" stroke="#878f87" stroke-width="5" stroke-opacity="1" stroke-linejoin="round"/>
 <path id="Line-11" d="M300 168 L300 318" fill="none" stroke="#878f87" stroke-width="5" stroke-opacity="1" stroke-linejoin="round"/>
 <path id="Line-12" d="M330 169 L330 319" fill="none" stroke="#878f87" stroke-width="5" stroke-opacity="1" stroke-linejoin="round"/>
 <path id="Line-13" d="M361 169 L361 319" fill="none" stroke="#5f645f" stroke-width="5" stroke-opacity="1" stroke-linejoin="round"/>
 <path id="Line-14" d="M141 169 L360.5 168.5" fill="none" stroke="#878f87" stroke-width="5" stroke-opacity="1" stroke-linejoin="round"/>
 <path id="Line-15" d="M141 169 L360.5 168.5" fill="none" stroke="#3c91e7" stroke-width="10" stroke-opacity="1" stroke-linejoin="round"/>
 <path id="Line-16" d="M141 200 L360.5 199.5" fill="none" stroke="#878f87" stroke-width="5" stroke-opacity="1" stroke-linejoin="round"/>
 <path id="Line-17" d="M141 230 L360.5 229.5" fill="none" stroke="#878f87" stroke-width="5" stroke-opacity="1" stroke-linejoin="round"/>
 <path id="Line-18" d="M142 260 L361.5 259.5" fill="none" stroke="#878f87" stroke-width="5" stroke-opacity="1" stroke-linejoin="round"/>
 <path id="Line-19" d="M143 289 L362.5 288.5" fill="none" stroke="#878f87" stroke-width="5" stroke-opacity="1" stroke-linejoin="round"/>
 <path id="Line-20" d="M130.501 350.498 L369.499 349.499" fill="none" stroke="#878f87" stroke-width="5" stroke-opacity="1" stroke-linejoin="round"/>
 <path id="Line-21" d="M370.5 349.5 L369.039 179.806" fill="none" stroke="#878f87" stroke-width="5" stroke-opacity="1" stroke-linejoin="round"/>
 <path id="Line-22" d="M132.5 348.5 L131.039 178.806" fill="none" stroke="#878f87" stroke-width="5" stroke-opacity="1" stroke-linejoin="round"/>
 <path id="Line-23" d="M380.5 379.5 L379.001 190.004" fill="none" stroke="#878f87" stroke-width="5" stroke-opacity="1" stroke-linejoin="round"/>
 <path id="Line-24" d="M122.5 382.5 L121.001 193.004" fill="none" stroke="#878f87" stroke-width="5" stroke-opacity="1" stroke-linejoin="round"/>
 <path id="Line-25" d="M389.5 410.5 L387.998 205.004" fill="none" stroke="#878f87" stroke-width="5" stroke-opacity="1" stroke-linejoin="round"/>
 <path id="Line-26" d="M111.5 410.5 L109.998 205.004" fill="none" stroke="#878f87" stroke-width="5" stroke-opacity="1" stroke-linejoin="round"/>
 <path id="Line-27" d="M399.5 439.5 L398.001 210.004" fill="none" stroke="#878f87" stroke-width="5" stroke-opacity="1" stroke-linejoin="round"/>
 <path id="Line-28" d="M102.5 443.5 L101.001 214.004" fill="none" stroke="#878f87" stroke-width="5" stroke-opacity="1" stroke-linejoin="round"/>
 <path id="Line-29" d="M409.5 469.5 L408.001 230.004" fill="none" stroke="#878f87" stroke-width="5" stroke-opacity="1" stroke-linejoin="round"/>
 <path id="Line-30" d="M91.5 468.5 L90.001 229.004" fill="none" stroke="#878f87" stroke-width="5" stroke-opacity="1" stroke-linejoin="round"/>
 <path id="Line-31" d="M418.5 498.5 L418.002 244.004" fill="none" stroke="#878f87" stroke-width="5" stroke-opacity="1" stroke-linejoin="round"/>
 <path id="Line-32" d="M81.5 504.5 L81.002 250.004" fill="none" stroke="#878f87" stroke-width="5" stroke-opacity="1" stroke-linejoin="round"/>
 <path id="Line-33" d="M431.5 519.5 L429.002 256.004" fill="none" stroke="#878f87" stroke-width="5" stroke-opacity="1" stroke-linejoin="round"/>
 <path id="Line-34" d="M71.5 522.5 L69.002 259.004" fill="none" stroke="#878f87" stroke-width="5" stroke-opacity="1" stroke-linejoin="round"/>
 <path id="Line-35" d="M442.999 519.996 L449.003 279.983" fill="none" stroke="#878f87" stroke-width="5" stroke-opacity="1" stroke-linejoin="round"/>
 <path id="Line-36" d="M50.998 520.012 L53.003 280.983" fill="none" stroke="#878f87" stroke-width="5" stroke-opacity="1" stroke-linejoin="round"/>
 <path id="Line-37" d="M471 519.999 L469.002 303.004" fill="none" stroke="#878f87" stroke-width="5" stroke-opacity="1" stroke-linejoin="round"/>
 <path id="Line-38" d="M30 534.999 L28.002 318.004" fill="none" stroke="#878f87" stroke-width="5" stroke-opacity="1" stroke-linejoin="round"/>
 <path id="Line-39" d="M499.5 565.5 L499.001 340.004" fill="none" stroke="#878f87" stroke-width="5" stroke-opacity="1" stroke-linejoin="round"/>
 <path id="Line-40" d="M0.5 581.5 L0.001 356.004" fill="none" stroke="#878f87" stroke-width="5" stroke-opacity="1" stroke-linejoin="round"/>
 <path id="Line-41" d="M120.501 380.499 L379.499 379.499" fill="none" stroke="#878f87" stroke-width="5" stroke-opacity="1" stroke-linejoin="round"/>
 <path id="Line-42" d="M111.501 410.502 L389.499 409.499" fill="none" stroke="#878f87" stroke-width="5" stroke-opacity="1" stroke-linejoin="round"/>
 <path id="Line-43" d="M139 440 L358.5 439.5" fill="none" stroke="#878f87" stroke-width="5" stroke-opacity="1" stroke-linejoin="round"/>
 <path id="Line-44" d="M100.501 440.501 L399.499 439.499" fill="none" stroke="#878f87" stroke-width="5" stroke-opacity="1" stroke-linejoin="round"/>
 <path id="Line-45" d="M90.501 470.501 L409.499 469.499" fill="none" stroke="#878f87" stroke-width="5" stroke-opacity="1" stroke-linejoin="round"/>
 <path id="Line-46" d="M81.501 500.502 L419.499 499.499" fill="none" stroke="#878f87" stroke-width="5" stroke-opacity="1" stroke-linejoin="round"/>
 <path id="Line-47" d="M143 319 L362.5 318.5" fill="none" stroke="#5f645f" stroke-width="5" stroke-opacity="1" stroke-linejoin="round"/>
 <path id="Line-48" d="M-19.093 380.29 L138.155 168.739" fill="none" stroke="#878f87" stroke-width="5" stroke-opacity="1" stroke-linejoin="round"/>
 <path id="Line-49" d="M66.901 264.298 L138.155 168.739" fill="none" stroke="#3c91e7" stroke-width="10" stroke-opacity="1" stroke-linejoin="round"/>
 <path id="Line-50" d="M539.097 390.295 L362.052 169.259" fill="none" stroke="#878f87" stroke-width="5" stroke-opacity="1" stroke-linejoin="round"/>
 <path id="Line-51" d="M442.11 264.313 L362.052 169.259" fill="none" stroke="#3c91e7" stroke-width="10" stroke-opacity="1" stroke-linejoin="round"/>
 <path id="Line-52" d="M520.907 440.707 L363.052 200.259" fill="none" stroke="#878f87" stroke-width="5" stroke-opacity="1" stroke-linejoin="round"/>
 <path id="Line-53" d="M-9.083 441.278 L141.052 200.259" fill="none" stroke="#878f87" stroke-width="5" stroke-opacity="1" stroke-linejoin="round"/>
 <path id="Line-54" d="M-10.923 519.736 L141.052 230.259" fill="none" stroke="#878f87" stroke-width="5" stroke-opacity="1" stroke-linejoin="round"/>
 <path id="Line-55" d="M520.944 514.23 L362.052 230.259" fill="none" stroke="#878f87" stroke-width="5" stroke-opacity="1" stroke-linejoin="round"/>
 <path id="Line-56" d="M479.039 520.198 L362.052 259.259" fill="none" stroke="#878f87" stroke-width="5" stroke-opacity="1" stroke-linejoin="round"/>
 <path id="Line-57" d="M30.956 529.796 L141.052 260.259" fill="none" stroke="#878f87" stroke-width="5" stroke-opacity="1" stroke-linejoin="round"/>
 <path id="Line-58" d="M60.963 513.189 L142.052 288.259" fill="none" stroke="#878f87" stroke-width="5" stroke-opacity="1" stroke-linejoin="round"/>
 <path id="Line-59" d="M440.969 510.171 L361.052 290.259" fill="none" stroke="#878f87" stroke-width="5" stroke-opacity="1" stroke-linejoin="round"/>
 <path id="Line-60" d="M420.98 519.854 L360.973 319.838" fill="none" stroke="#5f645f" stroke-width="5" stroke-opacity="1" stroke-linejoin="round"/>
 <path id="Line-61" d="M80.978 511.856 L140.973 320.838" fill="none" stroke="#5f645f" stroke-width="5" stroke-opacity="1" stroke-linejoin="round"/>
</svg>
