<svg id="Capa_1" enable-background="new 0 0 512 512" height="512" viewBox="0 0 512 512" width="512" xmlns="http://www.w3.org/2000/svg">
	<g>
		<g>
			<path d="m179.45 0h30v138.101h-30z" fill="#d88a55" />
		</g>
		<g>
			<path d="m194.403 0h15.047v138.101h-15.047z" fill="#c57a44" />
		</g>
		<g>
			<path d="m194.831 136.821s-5.961-58.729 26.585-91.275 91.275-26.585 91.275-26.585 5.961 58.729-26.585 91.275-91.275 26.585-91.275 26.585z" fill="#86ec88" />
		</g>
		<g>
			<g>
				<path d="m0 317.55c0 107.392 87.058 194.45 194.45 194.45l20.921-212.088-20.921-176.812c-107.392 0-194.45 87.059-194.45 194.45z" fill="#fdae02" />
				<path d="m194.45 123.1v388.9c107.392 0 194.45-87.058 194.45-194.45-.001-107.391-87.059-194.45-194.45-194.45z" fill="#e68f21" />
			</g>
			<g>
				<g>
					<path d="m218.742 332.633h-65.475c0 99.062 80.305 179.367 179.367 179.367l14.517-112.578z" fill="#ffdf8e" />
					<path d="m446.524 332.633-113.89 113.891v65.476c99.061 0 179.366-80.305 179.366-179.367z" fill="#fdc673" />
					<g>
						<g>
							<path d="m218.742 332.633c0 42.074 22.935 78.89 56.958 98.61l56.933-98.61z" fill="#fdc673" />
							<path d="m275.7 431.243c16.759 9.714 36.208 15.281 56.933 15.281l10.062-113.892h-10.062z" fill="#fdae02" />
						</g>
						<g>
							<path d="m332.634 332.633v113.892c20.725 0 40.173-5.568 56.933-15.281z" fill="#e68f21" />
							<path d="m446.524 332.633h-113.89l56.933 98.61c34.022-19.72 56.957-56.536 56.957-98.61z" fill="#fdae02" />
						</g>
					</g>
				</g>
			</g>
		</g>
	</g>
</svg>
