<?xml version="1.0" encoding="UTF-8"?>
<svg width="512px" height="512px" viewBox="0 0 512 512" xmlns="http://www.w3.org/2000/svg" xmlns:xlink="http://www.w3.org/1999/xlink" version="1.1">
 <!-- Generated by Pixelmator Pro 1.5.4 -->
 <path id="Path" d="M140.871 0 C118.851 0 101 17.909 101 40 L101 472 C101 494.091 118.851 512 140.871 512 L370.129 512 C392.149 512 410 494.091 410 472 L410 40 C410 17.909 392.149 0 370.129 0 Z" fill="#c40802" fill-opacity="1" stroke="none"/>
 <path id="Rectangle" d="M101 360 L410 360 410 200 101 200 Z" fill="#504eca" fill-opacity="1" stroke="none"/>
 <path id="Rectangle-1" d="M320 360 L410 360 410 200 320 200 Z" fill="#3f3ea2" fill-opacity="1" stroke="none"/>
 <path id="Rectangle-2" d="M101 340 L410 340 410 220 101 220 Z" fill="#dfd300" fill-opacity="1" stroke="none"/>
 <path id="Rectangle-3" d="M320 340 L410 340 410 220 320 220 Z" fill="#cac002" fill-opacity="1" stroke="none"/>
 <defs>
  <text id="string" transform="matrix(1.0 0.0 0.0 1.0 114.0 264.0)" text-decoration="none" font-size="32" fill="#c40802" x="95.6328125" y="25.0" font-family="Helvetica, Helvetica">Sauce</text>
 </defs>
 <use id="Sauce" xlink:href="#string"/>
 <path id="Ellipse" d="M161 30 C161 13.432 147.568 0 131 0 114.431 0 101 13.432 101 30 101 46.569 114.431 60 131 60 147.568 60 161 46.569 161 30 Z" fill="#dfd300" fill-opacity="1" stroke="none"/>
 <path id="Ellipse-1" d="M410 480 C410 463.432 396.568 450 380 450 363.431 450 350 463.432 350 480 350 496.569 363.431 510 380 510 396.568 510 410 496.569 410 480 Z" fill="#9f0803" fill-opacity="1" stroke="none"/>
 <path id="Rectangle-4" d="M320 512 L370 512 370 480 320 480 Z" fill="#9f0803" fill-opacity="1" stroke="none"/>
 <path id="Rectangle-5" d="M320 480 L410 480 410 360 320 360 Z" fill="#9f0803" fill-opacity="1" stroke="none"/>
 <path id="Rectangle-6" d="M320 200 L410 200 410 60 320 60 Z" fill="#9f0803" fill-opacity="1" stroke="none"/>
 <path id="Ellipse-2" d="M410 30 C410 13.432 396.568 0 380 0 363.431 0 350 13.432 350 30 350 46.569 363.431 60 380 60 396.568 60 410 46.569 410 30 Z" fill="#dfd300" fill-opacity="1" stroke="none"/>
 <path id="Rectangle-7" d="M130 60 L380 60 380 0 130 0 Z" fill="#dfd300" fill-opacity="1" stroke="none"/>
 <path id="Rectangle-8" d="M101 60 L131 60 131 30 101 30 Z" fill="#dfd300" fill-opacity="1" stroke="none"/>
 <path id="Rectangle-9" d="M380 60 L410 60 410 30 380 30 Z" fill="#dfd300" fill-opacity="1" stroke="none"/>
 <path id="Rectangle-10" d="M131 60 L151 60 151 0 131 0 Z" fill="#cac002" fill-opacity="1" stroke="none"/>
 <path id="Rectangle-11" d="M170 60 L190 60 190 0 170 0 Z" fill="#cac002" fill-opacity="1" stroke="none"/>
 <path id="Rectangle-12" d="M250 60 L270 60 270 0 250 0 Z" fill="#cac002" fill-opacity="1" stroke="none"/>
 <path id="Rectangle-13" d="M210 60 L230 60 230 0 210 0 Z" fill="#cac002" fill-opacity="1" stroke="none"/>
 <path id="Rectangle-14" d="M290 60 L310 60 310 0 290 0 Z" fill="#cac002" fill-opacity="1" stroke="none"/>
 <path id="Rectangle-15" d="M330 60 L350 60 350 0 330 0 Z" fill="#cac002" fill-opacity="1" stroke="none"/>
 <path id="Rectangle-16" d="M360 60 L380 60 380 0 360 0 Z" fill="#cac002" fill-opacity="1" stroke="none"/>
</svg>
