<?xml version="1.0" encoding="UTF-8"?>
<svg width="200px" height="200px" viewBox="0 0 200 200" xmlns="http://www.w3.org/2000/svg" xmlns:xlink="http://www.w3.org/1999/xlink" version="1.1">
 <!-- Generated by Pixelmator Pro 1.5.4 -->
 <path id="Rounded-Rectangle" d="M69 0 C46.909 0 29 17.909 29 40 L29 160 C29 182.091 46.909 200 69 200 L132 200 C154.091 200 172 182.091 172 160 L172 40 C172 17.909 154.091 0 132 0 Z" fill="#000000" fill-opacity="1" stroke="none"/>
 <path id="Ellipse" d="M116 180 C116 171.716 109.284 165 101 165 92.716 165 86 171.716 86 180 86 188.284 92.716 195 101 195 109.284 195 116 188.284 116 180 Z" fill="#242421" fill-opacity="1" stroke="none"/>
 <path id="Ellipse-1" d="M111 180 C111 174.477 106.523 170 101 170 95.477 170 91 174.477 91 180 91 185.523 95.477 190 101 190 106.523 190 111 185.523 111 180 Z" fill="#343531" fill-opacity="1" stroke="none"/>
 <path id="Rectangle" d="M50 150 L150 150 150 25 50 25 Z" fill="#343531" fill-opacity="1" stroke="none"/>
</svg>
