<?xml version="1.0" encoding="UTF-8"?>
<svg preserveAspectRatio="none" viewBox="0 0 512 512" xmlns="http://www.w3.org/2000/svg" xmlns:xlink="http://www.w3.org/1999/xlink" version="1.1">
	<g id="New-Group">
		<g id="Man">
			<defs>
				<linearGradient id="linear-gradient8" gradientUnits="userSpaceOnUse" x1="-4925.649" y1="2825.943" x2="-4939.491" y2="2801.638">
					<stop offset="0" stop-color="#753200" stop-opacity="1" />
					<stop offset="1" stop-color="#a04400" stop-opacity="1" />
				</linearGradient>
			</defs>
			<path id="Path" d="M203.697 459.782 L204.756 474.574 203.445 484.066 200.896 486.335 190.201 483.123 187.565 479.054 188.833 460.337 Z" fill-opacity="1" fill="url(#linear-gradient8)" stroke="none" />
			<defs>
				<linearGradient id="linear-gradient8-1" gradientUnits="userSpaceOnUse" x1="-4769.749" y1="3008.677" x2="-4781.372" y2="2988.253">
					<stop offset="0" stop-color="#753200" stop-opacity="1" />
					<stop offset="1" stop-color="#a04400" stop-opacity="1" />
				</linearGradient>
			</defs>
			<path id="Path-1" d="M167.739 460.445 L168.956 468.043 170.354 478.687 166.789 482.453 155.849 480.17 152.882 476.346 154.38 461.763 Z" fill-opacity="1" fill="url(#linear-gradient8-1)" stroke="none" />
			<path id="Path-2" d="M214.291 401.493 C215.443 395.357 217.891 387.968 216.509 381.875 212.505 364.08 206.117 324.723 202.487 312.063 200.723 305.906 184.109 300.54 169.813 299.957 169.753 300.762 169.739 301.57 169.77 302.377 163.534 300.937 155.583 300.26 148.237 299.957 146.797 317.032 151.161 396.163 151.161 396.163 L153.567 463.542 168.877 463.837 C168.877 463.837 177.879 352.356 181.12 352.003 184.361 351.65 192.016 391.353 191.663 396.826 L187.565 462.944 205.137 462.814 Z" fill="#000000" fill-opacity="1" stroke="none" />
			<defs>
				<linearGradient id="linear-gradient8-2" gradientUnits="userSpaceOnUse" x1="125.43" y1="264.77" x2="222.889" y2="264.77">
					<stop offset="0" stop-color="#ee3219" stop-opacity="1" />
					<stop offset="0.44" stop-color="#e82d27" stop-opacity="1" />
					<stop offset="0.89" stop-color="#d51f3a" stop-opacity="1" />
				</linearGradient>
			</defs>
			<path id="Path-3" d="M208.99 215.734 C202.314 209.627 177.39 205.551 171.405 205.472 160.855 205.335 143.513 209.462 137.255 216.418 132.639 221.553 128.491 237.015 125.423 251.764 L147.366 263.128 C148.842 260.038 150.009 257.763 150.398 257.367 147.186 275.371 145.803 297.509 145.882 316.132 176.245 319.423 187.652 333.099 203.611 314.504 L202.948 251.908 203.935 264.871 222.853 259.109 C220.823 240.277 216.768 222.849 208.99 215.734 Z" fill-opacity="1" fill="url(#linear-gradient8-2)" stroke="none" />
			<defs>
				<linearGradient id="linear-gradient8-3" gradientUnits="userSpaceOnUse" x1="203.964" y1="307.223" x2="236.94" y2="307.223">
					<stop offset="0" stop-color="#a04400" stop-opacity="1" />
					<stop offset="0.3" stop-color="#9c4200" stop-opacity="1" />
					<stop offset="0.62" stop-color="#8e3d00" stop-opacity="1" />
					<stop offset="0.95" stop-color="#793300" stop-opacity="1" />
					<stop offset="1" stop-color="#753200" stop-opacity="1" />
				</linearGradient>
			</defs>
			<path id="Path-4" d="M236.666 343.534 C236.061 341.46 236.299 340.79 233.648 337.996 230.998 335.202 225.316 328.9 225.316 328.9 225.316 328.9 223.005 322.829 223.156 320.41 223.876 310.529 225.496 283.581 222.839 259.138 L203.92 264.9 205.173 281.334 C205.173 281.334 214.651 331.903 214.42 332.407 213.852 334.135 213.787 335.988 214.233 337.751 214.78 339.573 215.673 340.761 217.222 342.792 218.77 344.823 220.412 346.796 220.858 348.914 221.305 351.031 220.858 351.225 221.874 351.593 222.889 351.96 225.064 350.26 224.899 348.467 224.733 346.674 224.322 343.606 224.322 343.606 225.397 344.316 226.535 344.926 227.722 345.428 229.443 346.048 230.727 347.508 231.121 349.295 231.661 353.069 231.805 354.214 232.993 355.136 234.181 356.057 235.154 352.694 235.154 352.694 235.154 352.694 237.753 347.171 236.666 343.534 Z" fill-opacity="1" fill="url(#linear-gradient8-3)" stroke="none" />
			<defs>
				<linearGradient id="linear-gradient8-4" gradientUnits="userSpaceOnUse" x1="-5117.846" y1="914.571" x2="-5113.201" y2="914.571">
					<stop offset="0" stop-color="#753200" stop-opacity="1" />
					<stop offset="1" stop-color="#a04400" stop-opacity="1" />
				</linearGradient>
			</defs>
			<path id="Path-5" d="M160.423 175.016 C159.472 173.309 158.183 168.535 157.578 167.095 160.07 166.943 162.914 170.155 163.339 172.344 162.698 172.438 161.006 174.433 160.422 175.016 Z" fill-opacity="1" fill="url(#linear-gradient8-4)" stroke="none" />
			<defs>
				<linearGradient id="linear-gradient8-5" gradientUnits="userSpaceOnUse" x1="-5168.754" y1="949.146" x2="-5134.1" y2="929.342">
					<stop offset="0" stop-color="#753200" stop-opacity="1" />
					<stop offset="1" stop-color="#a04400" stop-opacity="1" />
				</linearGradient>
			</defs>
			<path id="Path-6" d="M176.619 213.725 C180.616 213.705 184.102 211.007 185.124 207.143 185.307 206.029 185.345 204.896 185.239 203.772 L185.196 202.563 185.16 201.446 185.117 200.078 C185.75 200.034 186.38 199.952 187.004 199.833 191.901 198.89 199.498 195.339 201.529 187.252 202.97 181.613 200.6 176.608 200.384 173.346 200.168 170.083 201.364 167.692 201.745 163.983 202.242 159.259 200.024 153.505 197.648 152.259 186.924 146.599 168.481 153.476 168.481 153.476 168.481 153.476 162.353 156.623 165.6 169.586 164.931 169.197 166.364 171.891 165.471 171.747 163.904 171.44 162.281 171.821 161.013 172.791 158.745 174.757 158.975 179.208 163.973 185.077 L164.146 185.286 C164.371 186.514 164.518 187.755 164.585 189.002 164.585 189.189 164.585 189.384 164.628 189.578 164.772 191.875 164.967 194.857 165.147 197.73 165.406 201.885 165.464 205.472 165.514 206.862 165.622 210.304 169.525 213.97 176.619 213.725 Z" fill-opacity="1" fill="url(#linear-gradient8-5)" stroke="none" />
			<defs>
				<linearGradient id="linear-gradient8-6" gradientUnits="userSpaceOnUse" x1="-5143.923" y1="914.384" x2="-5123.549" y2="901.219">
					<stop offset="0" stop-color="#a04400" stop-opacity="0" />
					<stop offset="0.18" stop-color="#9a4100" stop-opacity="0.14" />
					<stop offset="0.52" stop-color="#8a3b00" stop-opacity="0.52" />
					<stop offset="0.9" stop-color="#753200" stop-opacity="1" />
				</linearGradient>
			</defs>
			<path id="Path-7" d="M165.586 169.615 C162.345 156.652 168.467 153.505 168.467 153.505 168.467 153.505 186.91 146.628 197.633 152.288 199.311 153.167 199.736 155.687 200.233 157.833 195.912 154.765 187.609 156.631 181.005 157.228 177.843 157.516 179.471 160.829 178.599 161.031 171.506 160.195 167.077 164.012 168.964 173.85 L165.528 171.797 C166.256 171.74 164.938 169.255 165.586 169.615 Z" fill-opacity="1" fill="url(#linear-gradient8-6)" stroke="none" />
			<path id="Path-8" d="M157.146 166.425 C156.606 164.149 156.562 161.636 156.671 158.193 156.894 150.769 161.049 146.844 168.251 144.049 L175.215 141.81 C175.848 141.608 187.623 138.375 193.831 140.542 196.164 141.356 199.491 143.797 199.851 145.792 200.773 150.884 201.414 153.584 201.004 157.675 196.51 147.758 193.384 161.024 178.268 153.008 175.467 151.525 176.734 156.609 175.863 156.803 167.855 155.867 163.267 160.836 167.257 173.691 165.096 172.921 163.577 171.97 162.36 172.049 160.538 170.472 157.448 167.62 157.146 166.425 Z" fill="#1d0d01" fill-opacity="1" stroke="none" />
			<defs>
				<linearGradient id="linear-gradient8-7" gradientUnits="userSpaceOnUse" x1="-5115.678" y1="932.856" x2="-5133.502" y2="950.349">
					<stop offset="0" stop-color="#a04400" stop-opacity="1" />
					<stop offset="1" stop-color="#753200" stop-opacity="1" />
				</linearGradient>
			</defs>
			<path id="Path-9" d="M164.65 189.621 C169.277 196.749 176.798 201.487 185.225 202.584 L185.189 201.468 185.146 200.099 C185.779 200.056 186.409 199.974 187.032 199.855 182.56 197.32 170.094 190.125 163.987 185.142 L164.16 185.351 C164.386 186.579 164.533 187.82 164.599 189.067 164.592 189.232 164.607 189.42 164.65 189.621 Z" fill-opacity="1" fill="url(#linear-gradient8-7)" stroke="none" />
			<path id="Path-10" d="M165.845 173.353 C165.557 173.137 164.708 172.633 164.708 172.633 L164.787 170.098 168.654 171.703 C169.401 172.012 169.906 172.719 169.958 173.526 L170.512 182.362 C175.827 184.335 188.286 190.55 190.396 190.485 193.075 190.406 193.276 187 194.846 187.475 196.416 187.95 196.575 189.938 197.547 189.751 198.051 189.65 200.953 186.928 201.76 185.315 201.76 185.315 201.162 191.141 200.989 192.178 200.593 194.583 196.611 200.063 196.611 200.063 196.212 200.664 195.558 201.047 194.839 201.101 L188.574 201.569 185.117 200.265 C180.342 198.645 168.496 190.903 168.2 189.571 166.45 181.844 168.697 175.528 165.845 173.353 Z" fill="#1d0d01" fill-opacity="1" stroke="none" />
			<defs>
				<linearGradient id="linear-gradient8-8" gradientUnits="userSpaceOnUse" x1="-5115.599" y1="920.534" x2="-5117.896" y2="922.795">
					<stop offset="0" stop-color="#753200" stop-opacity="1" />
					<stop offset="1" stop-color="#a04400" stop-opacity="1" />
				</linearGradient>
			</defs>
			<path id="Path-11" d="M165.248 175.974 C165.248 175.974 163.361 173.655 162.223 175.564 161.085 177.472 163.202 180.504 163.202 180.504 Z" fill-opacity="1" fill="url(#linear-gradient8-8)" stroke="none" />
			<defs>
				<linearGradient id="linear-gradient8-9" gradientUnits="userSpaceOnUse" x1="119.993" y1="310.385" x2="147.395" y2="310.385">
					<stop offset="0" stop-color="#a04400" stop-opacity="1" />
					<stop offset="0.3" stop-color="#9c4200" stop-opacity="1" />
					<stop offset="0.62" stop-color="#8e3d00" stop-opacity="1" />
					<stop offset="0.95" stop-color="#793300" stop-opacity="1" />
					<stop offset="1" stop-color="#753200" stop-opacity="1" />
				</linearGradient>
			</defs>
			<path id="Path-12" d="M147.366 263.128 L125.394 251.757 C122.067 267.917 120 283.17 120 283.17 L123.68 331.421 123.723 338.09 C123.723 338.09 122.124 345.896 121.318 349.425 120.511 352.954 121.548 355.986 122.038 357.959 122.909 361.423 128.577 367.631 128.577 367.631 128.577 367.631 130.946 369.928 131.458 368.574 131.969 367.22 130.644 363.302 129.297 359.997 128.649 358.42 128.577 353.962 129.6 352.594 130.334 351.627 130.977 350.596 131.522 349.511 131.522 349.511 132.653 352.19 133.373 353.724 134.094 355.258 136.643 355.604 137.313 354.812 137.982 354.02 137.507 354.092 136.859 352.161 136.211 350.231 136.578 347.841 136.859 345.478 137.14 343.116 137.298 341.712 136.859 339.984 136.379 338.344 135.442 336.876 134.158 335.749 133.733 335.454 132.776 330.902 132.776 330.902 132.776 330.902 137.817 297.919 137.817 284.603 138.263 283.184 143.765 270.711 147.366 263.128 Z" fill-opacity="1" fill="url(#linear-gradient8-9)" stroke="none" />
			<path id="Path-13" d="M170.354 459.116 L170.354 460.791 C170.354 462.501 168.967 463.887 167.257 463.887 L153.999 463.887 C152.288 463.887 150.902 462.501 150.902 460.791 L150.902 457.442 C150.902 455.732 152.288 454.345 153.999 454.345 L167.257 454.345 C168.967 454.345 170.354 455.732 170.354 457.442 Z" fill="#443f40" fill-opacity="1" stroke="none" />
			<path id="Path-14" d="M206.801 459.116 L206.801 460.733 C206.801 462.475 205.389 463.887 203.647 463.887 L189.704 463.887 C187.962 463.887 186.55 462.475 186.55 460.733 L186.55 457.5 C186.55 455.757 187.962 454.345 189.704 454.345 L203.647 454.345 C205.389 454.345 206.801 455.757 206.801 457.5 Z" fill="#443f40" fill-opacity="1" stroke="none" />
			<path id="Path-15" d="M165.248 183.457 C165.248 184.165 164.674 184.739 163.966 184.739 163.258 184.739 162.684 184.165 162.684 183.457 162.684 182.749 163.258 182.175 163.966 182.175 164.674 182.175 165.248 182.749 165.248 183.457 Z" fill="#f2f4f6" fill-opacity="1" stroke="none" />
			<path id="Path-16" d="M151.824 478.377 C151.824 478.377 148.576 479.774 154.755 494.084 156.195 497.425 162.741 499.406 169.158 499.233 175.575 499.06 178.297 498.081 178.743 496.302 179.19 494.523 175.373 488.805 175.373 488.805 Z" fill="#fef5ff" fill-opacity="1" stroke="none" />
			<defs>
				<linearGradient id="linear-gradient8-10" gradientUnits="userSpaceOnUse" x1="151.824" y1="481.646" x2="177.044" y2="481.646">
					<stop offset="0" stop-color="#e62a29" stop-opacity="1" />
					<stop offset="0.44" stop-color="#df2532" stop-opacity="1" />
					<stop offset="0.89" stop-color="#d52039" stop-opacity="1" />
				</linearGradient>
			</defs>
			<path id="Path-17" d="M151.881 476.958 C151.881 476.958 151.817 473.919 153.199 473.213 153.84 476.814 155.583 474.013 157.52 471.989 159.227 470.239 159.911 468.792 163.174 468.54 166.436 468.287 167.495 470.938 168.827 471.989 171.247 473.854 171.297 472.752 172.068 475.489 172.752 477.909 174.854 486.745 176.727 490.296 177.182 491.098 177.06 492.104 176.425 492.773 173.393 495.762 166.537 494.674 162.785 494.048 158.529 493.328 154.683 490.677 153.026 485.002 151.37 479.328 151.881 476.958 151.881 476.958 Z" fill-opacity="1" fill="url(#linear-gradient8-10)" stroke="none" />
			<path id="Path-18" d="M186.118 485.838 L186.118 489.935 C186.106 491.393 187.185 492.63 188.631 492.816 191.512 493.219 196.135 493.889 198.641 494.379 202.458 495.099 211.604 498.448 216.739 498.779 221.874 499.11 227.693 499.197 230.271 497.533 232.849 495.87 232.266 491.974 232.266 491.974 Z" fill="#f6ffff" fill-opacity="1" stroke="none" />
			<defs>
				<linearGradient id="linear-gradient8-11" gradientUnits="userSpaceOnUse" x1="185.988" y1="482.633" x2="232.259" y2="482.633">
					<stop offset="0" stop-color="#e32a2b" stop-opacity="1" />
					<stop offset="0.44" stop-color="#de2631" stop-opacity="1" />
					<stop offset="0.89" stop-color="#d61e3b" stop-opacity="1" />
				</linearGradient>
			</defs>
			<path id="Path-19" d="M187.601 474.884 C187.601 474.884 184.944 485.01 186.442 486.507 187.94 488.005 199.138 488.747 202.127 490.656 205.116 492.564 217.315 495.553 223.79 495.056 230.264 494.559 232.093 493.731 232.259 491.988 232.424 490.245 219.382 487.833 217.07 486.126 214.759 484.419 213.333 478.24 210.099 476.166 206.866 474.092 209.379 470.354 205.951 470.189 202.523 470.023 203.459 475.504 198.397 475.835 194.773 475.949 191.149 475.63 187.601 474.884 Z" fill-opacity="1" fill="url(#linear-gradient8-11)" stroke="none" />
			<path id="Path-20" d="M186.175 326.293 C186.507 326.956 186.838 341.129 181.134 352.01" fill="none" stroke="#343434" stroke-width="0.663" stroke-opacity="1" stroke-linejoin="round" />
			<g id="chefhat">
				<path id="Path-21" d="M197.669 96.445 C196.721 96.445 195.731 96.571 194.702 96.762 191.256 92.745 186.156 90.188 180.461 90.188 174.766 90.188 169.666 92.745 166.221 96.762 165.192 96.571 164.201 96.445 163.253 96.445 153.764 96.445 146.045 104.165 146.045 113.653 146.045 120.155 149.711 126.066 155.468 128.989 L155.437 152.63 C155.436 154.336 156.099 155.941 157.304 157.147 158.511 158.356 160.114 159.02 161.82 159.02 L199.109 159.02 C202.628 159.02 205.491 156.157 205.491 152.638 L205.491 128.966 C211.226 126.036 214.878 120.134 214.878 113.653 214.877 104.165 207.158 96.445 197.669 96.445 Z" fill="#303c42" fill-opacity="1" stroke="none" />
				<path id="Path-22" d="M199.109 155.892 L161.82 155.892 C160.951 155.892 160.133 155.552 159.518 154.937 158.904 154.321 158.564 153.504 158.566 152.633 L158.574 146.505 202.362 146.505 202.362 152.638 C202.362 154.431 200.902 155.892 199.109 155.892 Z" fill="#e6e6e6" fill-opacity="1" stroke="none" />
				<path id="Path-23" d="M161.695 152.633 L161.702 146.505 158.574 146.505 158.566 152.633 C158.564 153.504 158.904 154.321 159.518 154.937 160.133 155.552 160.951 155.891 161.82 155.891 L164.484 155.891 C163.739 155.891 163.038 155.552 162.511 154.937 161.984 154.321 161.693 153.504 161.695 152.633 Z" fill="#ffffff" fill-opacity="1" stroke="none" />
				<path id="Path-24" d="M199.234 146.505 L199.234 152.638 C199.234 154.431 197.982 155.892 196.445 155.892 L199.109 155.892 C200.902 155.892 202.363 154.431 202.363 152.638 L202.363 146.505 Z" fill="#000000" fill-opacity="1" stroke="none" />
				<path id="Path-25" d="M203.331 126.531 C203.248 126.564 203.171 126.604 203.097 126.651 202.9 126.773 202.738 126.935 202.618 127.122 202.495 127.307 202.413 127.521 202.379 127.75 202.365 127.837 202.361 127.924 202.362 128.012 L202.362 143.376 158.578 143.376 158.598 128.034 C158.599 127.948 158.595 127.861 158.583 127.777 158.549 127.54 158.462 127.32 158.335 127.129 158.216 126.95 158.06 126.795 157.871 126.675 157.793 126.627 157.71 126.584 157.625 126.549 152.49 124.303 149.173 119.246 149.173 113.653 149.173 105.889 155.489 99.574 163.253 99.574 163.556 99.574 163.877 99.611 164.191 99.635 162.608 102.386 161.688 105.565 161.688 108.96 161.688 109.825 162.388 110.525 163.253 110.525 164.118 110.525 164.817 109.825 164.817 108.96 164.817 100.335 171.836 93.316 180.461 93.316 189.087 93.316 196.105 100.335 196.105 108.96 196.105 109.825 196.805 110.525 197.669 110.525 198.534 110.525 199.234 109.825 199.234 108.96 199.234 105.565 198.314 102.386 196.731 99.635 197.046 99.611 197.366 99.574 197.669 99.574 205.433 99.574 211.749 105.89 211.749 113.653 211.749 119.227 208.446 124.277 203.331 126.531 Z" fill="#f2f2f2" fill-opacity="1" stroke="none" />
				<path id="Path-26" d="M180.461 95.272 C187.643 95.272 193.68 99.823 195.813 106.067 194.448 98.822 188.096 93.316 180.461 93.316 172.827 93.316 166.474 98.822 165.11 106.067 167.242 99.823 173.279 95.272 180.461 95.272 Z" fill="#ffffff" fill-opacity="1" stroke="none" />
				<path id="Path-27" d="M197.669 99.574 C197.366 99.574 197.046 99.611 196.731 99.635 196.743 99.656 196.751 99.678 196.762 99.698 203.115 100.329 208.131 106.309 208.131 113.653 208.131 119.226 205.21 124.277 200.687 126.53 200.614 126.564 200.545 126.604 200.48 126.651 200.306 126.773 200.163 126.935 200.056 127.122 199.948 127.306 199.875 127.52 199.845 127.749 199.833 127.837 199.829 127.924 199.83 128.012 L199.83 143.376 202.362 143.376 202.362 128.012 C202.361 127.924 202.366 127.837 202.379 127.749 202.413 127.52 202.495 127.306 202.618 127.122 202.738 126.935 202.9 126.773 203.097 126.651 203.171 126.604 203.249 126.564 203.331 126.53 208.446 124.277 211.749 119.227 211.749 113.653 211.749 105.89 205.433 99.574 197.669 99.574 Z" fill="#000000" fill-opacity="1" stroke="none" />
				<path id="Path-28" d="M161.112 127.777 C161.083 127.54 161.006 127.32 160.894 127.129 160.788 126.951 160.65 126.795 160.483 126.676 160.414 126.627 160.341 126.584 160.265 126.549 155.724 124.303 152.791 119.246 152.791 113.653 152.791 106.309 157.807 100.329 164.16 99.698 164.172 99.678 164.18 99.656 164.191 99.636 163.877 99.611 163.556 99.574 163.253 99.574 155.489 99.574 149.173 105.89 149.173 113.653 149.173 119.246 152.49 124.303 157.625 126.549 157.71 126.584 157.793 126.627 157.871 126.676 158.06 126.795 158.216 126.951 158.335 127.13 158.462 127.32 158.549 127.54 158.583 127.777 158.595 127.861 158.6 127.948 158.598 128.034 L158.578 143.377 161.108 143.377 161.126 128.034 C161.127 127.948 161.123 127.861 161.112 127.777 Z" fill="#ffffff" fill-opacity="1" stroke="none" />
				<g id="group">
					<path id="Path-29" d="M164.817 123.04 C164.817 122.175 164.118 121.475 163.253 121.475 162.388 121.475 161.688 122.175 161.688 123.04 161.688 127.148 166.22 132.788 166.736 133.419 167.046 133.795 167.495 133.99 167.948 133.99 168.296 133.99 168.647 133.874 168.939 133.636 169.607 133.087 169.703 132.102 169.156 131.433 167.479 129.389 164.817 125.304 164.817 123.04 Z" fill="#303c42" fill-opacity="1" stroke="none" />
					<path id="Path-30" d="M197.669 121.475 C196.805 121.475 196.105 122.175 196.105 123.04 196.105 125.296 193.444 129.386 191.766 131.435 191.219 132.102 191.317 133.088 191.985 133.636 192.275 133.874 192.626 133.99 192.976 133.99 193.428 133.99 193.876 133.795 194.186 133.419 194.703 132.788 199.234 127.148 199.234 123.04 199.234 122.175 198.534 121.475 197.669 121.475 Z" fill="#303c42" fill-opacity="1" stroke="none" />
					<path id="Path-31" d="M180.461 121.475 C179.596 121.475 178.897 122.175 178.897 123.04 L178.897 132.426 C178.897 133.291 179.596 133.99 180.461 133.99 181.326 133.99 182.026 133.291 182.026 132.426 L182.026 123.04 C182.026 122.175 181.326 121.475 180.461 121.475 Z" fill="#303c42" fill-opacity="1" stroke="none" />
				</g>
				<defs>
					<linearGradient id="linear-gradient8-12" gradientUnits="userSpaceOnUse" x1="136.184" y1="180.742" x2="139.267" y2="179.305">
						<stop offset="0" stop-color="#ffffff" stop-opacity="0.2" />
						<stop offset="1" stop-color="#ffffff" stop-opacity="0" />
					</linearGradient>
				</defs>
				<path id="Path-32" d="M197.669 96.445 C196.721 96.445 195.731 96.571 194.702 96.762 191.256 92.745 186.156 90.188 180.461 90.188 174.766 90.188 169.666 92.745 166.221 96.762 165.192 96.571 164.201 96.445 163.253 96.445 153.764 96.445 146.045 104.165 146.045 113.653 146.045 120.155 149.711 126.066 155.468 128.989 L155.437 152.63 C155.436 154.336 156.099 155.941 157.304 157.147 158.511 158.356 160.114 159.02 161.82 159.02 L199.109 159.02 C202.628 159.02 205.491 156.157 205.491 152.638 L205.491 128.966 C211.226 126.036 214.878 120.134 214.878 113.653 214.877 104.165 207.158 96.445 197.669 96.445 Z" fill-opacity="1" fill="url(#linear-gradient8-12)" stroke="none" />
				<g id="group-1" />
				<g id="group-2" />
				<g id="group-3" />
				<g id="group-4" />
				<g id="group-5" />
				<g id="group-6" />
				<g id="group-7" />
				<g id="group-8" />
				<g id="group-9" />
				<g id="group-10" />
				<g id="group-11" />
				<g id="group-12" />
				<g id="group-13" />
				<g id="group-14" />
				<g id="group-15" />
			</g>
		</g>
		<path id="Rounded-Rectangle" d="M252.151 327.001 C245.934 323.384 237.963 325.49 234.345 331.707 L224.989 347.786 C221.371 354.002 223.478 361.974 229.694 365.591 L229.694 365.591 C235.91 369.208 243.882 367.101 247.499 360.885 L256.856 344.806 C260.474 338.59 258.367 330.618 252.151 327.001 Z" fill="#000000" fill-opacity="1" stroke="none" />
		<g id="recipebook">
			<path id="Rounded-Rectangle-1" d="M291.642 352.422 C291.994 351.734 291.722 350.891 291.034 350.538 L263.626 336.506 C262.938 336.154 262.095 336.427 261.742 337.115 261.39 337.802 261.663 338.646 262.35 338.998 L289.758 353.03 C290.446 353.382 291.29 353.11 291.642 352.422 Z" fill="#656d78" fill-opacity="1" stroke="none" />
			<path id="Rectangle-3" d="M262.113 337.619 L250.378 360.542 252.371 361.562 264.107 338.639 Z" fill="#e7e9ed" fill-opacity="1" stroke="none" />
			<path id="Ellipse" d="M262.344 339.624 C262.895 339.906 263.627 339.576 263.979 338.888 264.331 338.2 264.171 337.414 263.62 337.132 263.07 336.851 262.338 337.18 261.986 337.868 261.634 338.556 261.794 339.342 262.344 339.624 Z" fill="#e7e9ed" fill-opacity="1" stroke="none" />
			<path id="Line" d="M262.35 338.998 L252.273 358.682" fill="none" stroke="#9ea2ab" stroke-width="0.536" stroke-opacity="1" stroke-linejoin="round" />
			<path id="Rectangle-1" d="M261.742 337.115 L249.624 360.785 250.122 361.04 262.241 337.37 Z" fill="#3a8ee1" fill-opacity="1" stroke="none" />
			<path id="Rectangle-2" d="M250.633 360.043 L250.122 361.04 252.116 362.061 252.626 361.064 Z" fill="#2c70b4" fill-opacity="1" stroke="none" />
			<path id="Rectangle" d="M264.234 338.39 L252.116 362.061 279.524 376.092 291.642 352.422 Z" fill="#3a8ee1" fill-opacity="1" stroke="none" />
			<path id="Rounded-Rectangle-1" d="M285.521 357.621 C286.331 356.039 285.705 354.099 284.122 353.289 282.54 352.479 280.6 353.105 279.79 354.688 L274.432 365.152 C273.622 366.735 274.249 368.675 275.831 369.485 277.413 370.295 279.353 369.669 280.163 368.086 Z" fill="#eaecdd" fill-opacity="1" stroke="none" />
			<defs>
				<text id="string8" transform="matrix(-0.4557102346795117 0.8901281829087001 -0.8901281829087001 -0.4557102346795117 286.1816435623868 353.83164270713183)" text-decoration="none" font-family="Helvetica, Helvetica" x="1.0" font-size="4.479" y="3.0">
					Recipes
				</text>
			</defs>
			<use id="Recipes" xlink:href="#string8" fill="#5b5b5b" fill-opacity="1" stroke="none" />
		</g>
	</g>
</svg>
