<?xml version="1.0" encoding="UTF-8"?>
<svg preserveAspectRatio="none" viewBox="0 0 512 512" xmlns="http://www.w3.org/2000/svg" xmlns:xlink="http://www.w3.org/1999/xlink" version="1.1">
	<g id="Man">
		<defs>
			<linearGradient id="linear-gradient5" gradientUnits="userSpaceOnUse" x1="-2645.21" y1="1519.896" x2="-2652.65" y2="1506.831">
				<stop offset="0" stop-color="#753200" stop-opacity="1" />
				<stop offset="1" stop-color="#a04400" stop-opacity="1" />
			</linearGradient>
		</defs>
		<path id="Path" d="M111.99 248.003 L112.559 255.954 111.854 261.056 110.484 262.276 104.735 260.549 103.319 258.362 104 248.301 Z" fill-opacity="1" fill="url(#linear-gradient5)" stroke="none" />
		<defs>
			<linearGradient id="linear-gradient5-1" gradientUnits="userSpaceOnUse" x1="-2561.408" y1="1618.121" x2="-2567.656" y2="1607.143">
				<stop offset="0" stop-color="#753200" stop-opacity="1" />
				<stop offset="1" stop-color="#a04400" stop-opacity="1" />
			</linearGradient>
		</defs>
		<path id="Path-1" d="M92.661 248.359 L93.316 252.443 94.067 258.165 92.151 260.189 86.27 258.962 84.675 256.906 85.481 249.068 Z" fill-opacity="1" fill="url(#linear-gradient5-1)" stroke="none" />
		<path id="Path-2" d="M117.684 216.67 C118.304 213.372 119.62 209.4 118.877 206.125 116.724 196.56 113.291 175.404 111.34 168.599 110.391 165.289 101.461 162.405 93.776 162.091 93.744 162.524 93.736 162.958 93.753 163.392 90.401 162.618 86.127 162.254 82.179 162.091 81.404 171.27 83.75 213.806 83.75 213.806 L85.043 250.024 93.273 250.182 C93.273 250.182 98.112 190.258 99.854 190.068 101.596 189.878 105.711 211.22 105.521 214.162 L103.319 249.702 112.764 249.633 Z" fill="#000000" fill-opacity="1" stroke="none" />
		<defs>
			<linearGradient id="linear-gradient5-2" gradientUnits="userSpaceOnUse" x1="69.919" y1="143.177" x2="122.307" y2="143.177">
				<stop offset="0" stop-color="#ee3219" stop-opacity="1" />
				<stop offset="0.44" stop-color="#e82d27" stop-opacity="1" />
				<stop offset="0.89" stop-color="#d51f3a" stop-opacity="1" />
			</linearGradient>
		</defs>
		<path id="Path-3" d="M114.835 116.819 C111.247 113.536 97.849 111.345 94.632 111.302 88.961 111.229 79.639 113.447 76.275 117.187 73.794 119.947 71.564 128.258 69.915 136.186 L81.71 142.295 C82.504 140.634 83.131 139.411 83.34 139.198 81.613 148.875 80.87 160.775 80.913 170.786 97.233 172.555 103.365 179.906 111.943 169.911 L111.587 136.263 112.118 143.231 122.287 140.134 C121.196 130.011 119.016 120.643 114.835 116.819 Z" fill-opacity="1" fill="url(#linear-gradient5-2)" stroke="none" />
		<defs>
			<linearGradient id="linear-gradient5-3" gradientUnits="userSpaceOnUse" x1="112.133" y1="165.997" x2="129.859" y2="165.997">
				<stop offset="0" stop-color="#a04400" stop-opacity="1" />
				<stop offset="0.3" stop-color="#9c4200" stop-opacity="1" />
				<stop offset="0.62" stop-color="#8e3d00" stop-opacity="1" />
				<stop offset="0.95" stop-color="#793300" stop-opacity="1" />
				<stop offset="1" stop-color="#753200" stop-opacity="1" />
			</linearGradient>
		</defs>
		<path id="Path-4" d="M129.712 185.516 C129.387 184.401 129.515 184.041 128.09 182.539 126.665 181.037 123.611 177.649 123.611 177.649 123.611 177.649 122.368 174.386 122.45 173.085 122.837 167.774 123.708 153.288 122.279 140.15 L112.11 143.247 112.784 152.081 C112.784 152.081 117.878 179.264 117.754 179.535 117.449 180.463 117.414 181.459 117.653 182.407 117.948 183.386 118.428 184.025 119.26 185.117 120.092 186.208 120.975 187.269 121.215 188.407 121.455 189.545 121.215 189.65 121.761 189.847 122.307 190.045 123.476 189.131 123.386 188.167 123.297 187.203 123.077 185.554 123.077 185.554 123.655 185.936 124.266 186.264 124.904 186.534 125.83 186.867 126.52 187.652 126.731 188.612 127.021 190.641 127.099 191.256 127.738 191.752 128.376 192.247 128.899 190.44 128.899 190.44 128.899 190.44 130.297 187.47 129.712 185.515 Z" fill-opacity="1" fill="url(#linear-gradient5-3)" stroke="none" />
		<defs>
			<linearGradient id="linear-gradient5-4" gradientUnits="userSpaceOnUse" x1="-2748.522" y1="492.468" x2="-2746.025" y2="492.468">
				<stop offset="0" stop-color="#753200" stop-opacity="1" />
				<stop offset="1" stop-color="#a04400" stop-opacity="1" />
			</linearGradient>
		</defs>
		<path id="Path-5" d="M88.729 94.932 C88.218 94.014 87.525 91.448 87.199 90.673 88.539 90.592 90.068 92.318 90.296 93.495 89.952 93.546 89.042 94.618 88.728 94.932 Z" fill-opacity="1" fill="url(#linear-gradient5-4)" stroke="none" />
		<defs>
			<linearGradient id="linear-gradient5-5" gradientUnits="userSpaceOnUse" x1="-2775.887" y1="511.053" x2="-2757.259" y2="500.407">
				<stop offset="0" stop-color="#753200" stop-opacity="1" />
				<stop offset="1" stop-color="#a04400" stop-opacity="1" />
			</linearGradient>
		</defs>
		<path id="Path-6" d="M97.435 115.739 C99.583 115.728 101.457 114.277 102.006 112.2 102.104 111.602 102.125 110.993 102.068 110.389 L102.045 109.738 102.026 109.138 102.003 108.403 C102.343 108.379 102.682 108.335 103.017 108.271 105.649 107.764 109.733 105.856 110.825 101.508 111.599 98.477 110.325 95.787 110.209 94.033 110.093 92.28 110.736 90.995 110.941 89.001 111.208 86.461 110.016 83.368 108.738 82.699 102.974 79.656 93.06 83.353 93.06 83.353 93.06 83.353 89.766 85.045 91.512 92.013 91.152 91.804 91.922 93.251 91.442 93.174 90.6 93.009 89.727 93.214 89.046 93.735 87.827 94.792 87.95 97.184 90.637 100.339 L90.73 100.452 C90.851 101.112 90.93 101.779 90.966 102.449 90.966 102.55 90.966 102.654 90.989 102.759 91.067 103.994 91.171 105.596 91.268 107.141 91.407 109.375 91.438 111.302 91.465 112.05 91.523 113.9 93.622 115.87 97.435 115.739 Z" fill-opacity="1" fill="url(#linear-gradient5-5)" stroke="none" />
		<defs>
			<linearGradient id="linear-gradient5-6" gradientUnits="userSpaceOnUse" x1="-2762.539" y1="492.367" x2="-2751.588" y2="485.29">
				<stop offset="0" stop-color="#a04400" stop-opacity="0" />
				<stop offset="0.18" stop-color="#9a4100" stop-opacity="0.14" />
				<stop offset="0.52" stop-color="#8a3b00" stop-opacity="0.52" />
				<stop offset="0.9" stop-color="#753200" stop-opacity="1" />
			</linearGradient>
		</defs>
		<path id="Path-7" d="M91.504 92.028 C89.762 85.06 93.052 83.368 93.052 83.368 93.052 83.368 102.966 79.672 108.73 82.714 109.632 83.187 109.861 84.541 110.128 85.695 107.805 84.046 103.342 85.048 99.792 85.37 98.093 85.525 98.968 87.305 98.499 87.414 94.686 86.965 92.305 89.016 93.32 94.304 L91.473 93.201 C91.864 93.17 91.156 91.834 91.504 92.028 Z" fill-opacity="1" fill="url(#linear-gradient5-6)" stroke="none" />
		<path id="Path-8" d="M86.967 90.313 C86.677 89.09 86.654 87.739 86.712 85.889 86.832 81.897 89.065 79.788 92.936 78.286 L96.68 77.082 C97.02 76.973 103.35 75.235 106.687 76.4 107.941 76.838 109.729 78.15 109.923 79.222 110.418 81.959 110.763 83.411 110.542 85.61 108.127 80.279 106.447 87.41 98.321 83.101 96.815 82.304 97.497 85.037 97.028 85.141 92.724 84.638 90.258 87.309 92.402 94.219 91.241 93.805 90.424 93.294 89.77 93.337 88.79 92.489 87.13 90.956 86.967 90.313 Z" fill="#1d0d01" fill-opacity="1" stroke="none" />
		<defs>
			<linearGradient id="linear-gradient5-7" gradientUnits="userSpaceOnUse" x1="-2747.357" y1="502.296" x2="-2756.938" y2="511.699">
				<stop offset="0" stop-color="#a04400" stop-opacity="1" />
				<stop offset="1" stop-color="#753200" stop-opacity="1" />
			</linearGradient>
		</defs>
		<path id="Path-9" d="M91.001 102.782 C93.488 106.613 97.531 109.16 102.061 109.75 L102.041 109.15 102.018 108.415 C102.358 108.391 102.697 108.347 103.032 108.283 100.628 106.92 93.927 103.053 90.645 100.374 L90.738 100.486 C90.859 101.147 90.938 101.814 90.974 102.484 90.97 102.573 90.978 102.674 91.001 102.782 Z" fill-opacity="1" fill="url(#linear-gradient5-7)" stroke="none" />
		<path id="Path-10" d="M91.643 94.037 C91.489 93.921 91.032 93.65 91.032 93.65 L91.074 92.287 93.153 93.151 C93.554 93.317 93.826 93.697 93.854 94.13 L94.152 98.88 C97.009 99.941 103.706 103.281 104.84 103.247 106.28 103.204 106.389 101.373 107.232 101.628 108.076 101.884 108.161 102.952 108.684 102.852 108.955 102.797 110.515 101.334 110.949 100.467 110.949 100.467 110.627 103.599 110.534 104.156 110.322 105.449 108.181 108.395 108.181 108.395 107.967 108.718 107.615 108.924 107.229 108.953 L103.861 109.204 102.003 108.504 C99.436 107.633 93.068 103.471 92.909 102.755 91.969 98.601 93.176 95.206 91.643 94.037 Z" fill="#1d0d01" fill-opacity="1" stroke="none" />
		<defs>
			<linearGradient id="linear-gradient5-8" gradientUnits="userSpaceOnUse" x1="-2747.314" y1="495.673" x2="-2748.549" y2="496.888">
				<stop offset="0" stop-color="#753200" stop-opacity="1" />
				<stop offset="1" stop-color="#a04400" stop-opacity="1" />
			</linearGradient>
		</defs>
		<path id="Path-11" d="M91.322 95.446 C91.322 95.446 90.308 94.2 89.696 95.226 89.085 96.251 90.223 97.881 90.223 97.881 Z" fill-opacity="1" fill="url(#linear-gradient5-8)" stroke="none" />
		<defs>
			<linearGradient id="linear-gradient5-9" gradientUnits="userSpaceOnUse" x1="66.996" y1="167.697" x2="81.726" y2="167.697">
				<stop offset="0" stop-color="#a04400" stop-opacity="1" />
				<stop offset="0.3" stop-color="#9c4200" stop-opacity="1" />
				<stop offset="0.62" stop-color="#8e3d00" stop-opacity="1" />
				<stop offset="0.95" stop-color="#793300" stop-opacity="1" />
				<stop offset="1" stop-color="#753200" stop-opacity="1" />
			</linearGradient>
		</defs>
		<path id="Path-12" d="M81.71 142.295 L69.899 136.182 C68.111 144.869 67 153.068 67 153.068 L68.978 179.004 69.001 182.589 C69.001 182.589 68.142 186.785 67.708 188.682 67.275 190.579 67.832 192.209 68.095 193.269 68.564 195.131 71.61 198.468 71.61 198.468 71.61 198.468 72.884 199.703 73.159 198.975 73.434 198.248 72.721 196.142 71.998 194.365 71.649 193.517 71.61 191.121 72.16 190.385 72.555 189.866 72.901 189.311 73.194 188.729 73.194 188.729 73.802 190.169 74.189 190.993 74.576 191.818 75.946 192.003 76.306 191.578 76.666 191.152 76.411 191.191 76.062 190.153 75.714 189.116 75.911 187.83 76.062 186.561 76.213 185.291 76.298 184.536 76.062 183.607 75.804 182.726 75.301 181.936 74.61 181.331 74.382 181.172 73.867 178.726 73.867 178.726 73.867 178.726 76.577 160.996 76.577 153.838 76.817 153.076 79.775 146.371 81.71 142.295 Z" fill-opacity="1" fill="url(#linear-gradient5-9)" stroke="none" />
		<path id="Path-13" d="M94.067 247.645 L94.067 248.545 C94.067 249.464 93.321 250.209 92.402 250.209 L85.275 250.209 C84.356 250.209 83.611 249.464 83.611 248.545 L83.611 246.745 C83.611 245.826 84.356 245.08 85.275 245.08 L92.402 245.08 C93.321 245.08 94.067 245.826 94.067 246.745 Z" fill="#443f40" fill-opacity="1" stroke="none" />
		<path id="Path-14" d="M113.658 247.645 L113.658 248.514 C113.658 249.45 112.899 250.209 111.963 250.209 L104.468 250.209 C103.532 250.209 102.773 249.45 102.773 248.514 L102.773 246.776 C102.773 245.839 103.532 245.08 104.468 245.08 L111.963 245.08 C112.899 245.08 113.658 245.839 113.658 246.776 Z" fill="#443f40" fill-opacity="1" stroke="none" />
		<path id="Path-15" d="M91.322 99.468 C91.322 99.849 91.014 100.157 90.633 100.157 90.253 100.157 89.944 99.849 89.944 99.468 89.944 99.088 90.253 98.779 90.633 98.779 91.014 98.779 91.322 99.088 91.322 99.468 Z" fill="#f2f4f6" fill-opacity="1" stroke="none" />
		<path id="Path-16" d="M84.106 257.998 C84.106 257.998 82.36 258.749 85.682 266.441 86.456 268.237 89.975 269.302 93.424 269.209 96.873 269.116 98.337 268.59 98.577 267.633 98.817 266.677 96.765 263.604 96.765 263.604 Z" fill="#fef5ff" fill-opacity="1" stroke="none" />
		<defs>
			<linearGradient id="linear-gradient5-10" gradientUnits="userSpaceOnUse" x1="84.106" y1="259.756" x2="97.663" y2="259.756">
				<stop offset="0" stop-color="#e62a29" stop-opacity="1" />
				<stop offset="0.44" stop-color="#df2532" stop-opacity="1" />
				<stop offset="0.89" stop-color="#d52039" stop-opacity="1" />
			</linearGradient>
		</defs>
		<path id="Path-17" d="M84.137 257.236 C84.137 257.236 84.103 255.602 84.846 255.223 85.19 257.158 86.127 255.652 87.168 254.564 88.086 253.624 88.454 252.846 90.207 252.71 91.961 252.575 92.53 253.999 93.246 254.564 94.547 255.567 94.574 254.975 94.988 256.446 95.356 257.747 96.486 262.496 97.493 264.405 97.738 264.836 97.672 265.377 97.33 265.737 95.7 267.343 92.015 266.759 89.998 266.422 87.71 266.035 85.643 264.61 84.753 261.56 83.862 258.509 84.137 257.236 84.137 257.236 Z" fill-opacity="1" fill="url(#linear-gradient5-10)" stroke="none" />
		<path id="Path-18" d="M102.541 262.009 L102.541 264.211 C102.534 264.995 103.114 265.66 103.892 265.76 105.44 265.977 107.925 266.337 109.272 266.6 111.324 266.987 116.24 268.787 119.001 268.965 121.761 269.143 124.889 269.19 126.274 268.295 127.66 267.401 127.347 265.307 127.347 265.307 Z" fill="#f6ffff" fill-opacity="1" stroke="none" />
		<defs>
			<linearGradient id="linear-gradient5-11" gradientUnits="userSpaceOnUse" x1="102.471" y1="260.286" x2="127.343" y2="260.286">
				<stop offset="0" stop-color="#e32a2b" stop-opacity="1" />
				<stop offset="0.44" stop-color="#de2631" stop-opacity="1" />
				<stop offset="0.89" stop-color="#d61e3b" stop-opacity="1" />
			</linearGradient>
		</defs>
		<path id="Path-19" d="M103.338 256.121 C103.338 256.121 101.91 261.563 102.715 262.369 103.52 263.174 109.54 263.573 111.146 264.598 112.753 265.624 119.31 267.231 122.79 266.964 126.271 266.697 127.254 266.251 127.343 265.315 127.432 264.378 120.421 263.081 119.179 262.163 117.936 261.246 117.17 257.925 115.431 256.81 113.693 255.695 115.044 253.686 113.202 253.597 111.359 253.508 111.862 256.454 109.141 256.632 107.193 256.693 105.245 256.521 103.338 256.121 Z" fill-opacity="1" fill="url(#linear-gradient5-11)" stroke="none" />
		<path id="Path-20" d="M102.572 176.248 C102.75 176.604 102.928 184.223 99.862 190.072" fill="none" stroke="#343434" stroke-width="0.356" stroke-opacity="1" stroke-linejoin="round" />
		<g id="chefhat">
			<path id="Path-21" d="M108.75 52.697 C108.24 52.697 107.708 52.764 107.155 52.867 105.303 50.708 102.561 49.333 99.5 49.333 96.439 49.333 93.697 50.708 91.845 52.867 91.292 52.764 90.76 52.697 90.25 52.697 85.149 52.697 81 56.846 81 61.947 81 65.442 82.971 68.619 86.065 70.19 L86.049 82.898 C86.048 83.815 86.404 84.677 87.052 85.326 87.701 85.976 88.562 86.333 89.48 86.333 L109.524 86.333 C111.416 86.333 112.954 84.794 112.954 82.902 L112.954 70.178 C116.037 68.603 118 65.43 118 61.947 118 56.846 113.85 52.697 108.75 52.697 Z" fill="#303c42" fill-opacity="1" stroke="none" />
			<path id="Path-22" d="M109.524 84.651 L89.48 84.651 C89.012 84.651 88.573 84.469 88.242 84.138 87.912 83.807 87.73 83.368 87.73 82.9 L87.735 79.606 111.273 79.606 111.273 82.902 C111.273 83.866 110.488 84.651 109.524 84.651 Z" fill="#e6e6e6" fill-opacity="1" stroke="none" />
			<path id="Path-23" d="M89.412 82.9 L89.416 79.606 87.735 79.606 87.73 82.9 C87.73 83.368 87.912 83.807 88.242 84.138 88.573 84.469 89.012 84.651 89.48 84.651 L90.911 84.651 C90.511 84.651 90.135 84.469 89.851 84.138 89.568 83.807 89.412 83.368 89.412 82.9 Z" fill="#ffffff" fill-opacity="1" stroke="none" />
			<path id="Path-24" d="M109.591 79.606 L109.591 82.902 C109.591 83.866 108.918 84.651 108.092 84.651 L109.524 84.651 C110.488 84.651 111.273 83.866 111.273 82.902 L111.273 79.606 Z" fill="#000000" fill-opacity="1" stroke="none" />
			<path id="Path-25" d="M111.793 68.869 C111.749 68.887 111.707 68.908 111.668 68.933 111.562 68.999 111.475 69.086 111.41 69.186 111.344 69.286 111.3 69.401 111.282 69.524 111.274 69.571 111.272 69.618 111.273 69.665 L111.273 77.924 87.737 77.924 87.748 69.677 C87.749 69.631 87.746 69.584 87.74 69.539 87.722 69.411 87.675 69.293 87.606 69.19 87.542 69.094 87.459 69.011 87.357 68.947 87.315 68.92 87.271 68.897 87.225 68.878 84.465 67.671 82.682 64.953 82.682 61.947 82.682 57.773 86.077 54.379 90.25 54.379 90.413 54.379 90.585 54.398 90.754 54.412 89.903 55.89 89.409 57.599 89.409 59.424 89.409 59.889 89.785 60.265 90.25 60.265 90.715 60.265 91.091 59.889 91.091 59.424 91.091 54.787 94.863 51.015 99.5 51.015 104.136 51.015 107.909 54.788 107.909 59.424 107.909 59.889 108.285 60.265 108.75 60.265 109.215 60.265 109.591 59.889 109.591 59.424 109.591 57.599 109.096 55.89 108.246 54.412 108.415 54.398 108.587 54.379 108.75 54.379 112.923 54.379 116.318 57.773 116.318 61.947 116.318 64.943 114.543 67.657 111.793 68.869 Z" fill="#f2f2f2" fill-opacity="1" stroke="none" />
			<path id="Path-26" d="M99.5 52.066 C103.361 52.066 106.606 54.512 107.752 57.869 107.019 53.974 103.604 51.015 99.5 51.015 95.396 51.015 91.981 53.974 91.248 57.869 92.394 54.512 95.639 52.066 99.5 52.066 Z" fill="#ffffff" fill-opacity="1" stroke="none" />
			<path id="Path-27" d="M108.75 54.379 C108.587 54.379 108.415 54.398 108.246 54.412 108.252 54.422 108.256 54.434 108.262 54.445 111.677 54.785 114.374 57.999 114.374 61.947 114.374 64.942 112.803 67.657 110.372 68.869 110.333 68.887 110.296 68.908 110.261 68.933 110.167 68.999 110.09 69.086 110.033 69.186 109.975 69.286 109.936 69.401 109.919 69.524 109.913 69.571 109.911 69.618 109.911 69.665 L109.911 77.924 111.273 77.924 111.273 69.665 C111.272 69.618 111.274 69.571 111.282 69.524 111.3 69.401 111.344 69.286 111.41 69.186 111.475 69.086 111.562 68.999 111.668 68.933 111.707 68.908 111.749 68.887 111.793 68.869 114.543 67.657 116.318 64.943 116.318 61.947 116.318 57.773 112.923 54.379 108.75 54.379 Z" fill="#000000" fill-opacity="1" stroke="none" />
			<path id="Path-28" d="M89.099 69.539 C89.083 69.411 89.042 69.293 88.982 69.191 88.925 69.094 88.851 69.011 88.761 68.947 88.724 68.92 88.685 68.897 88.644 68.878 86.203 67.671 84.626 64.953 84.626 61.947 84.626 57.999 87.323 54.785 90.738 54.445 90.744 54.434 90.748 54.422 90.754 54.412 90.585 54.398 90.413 54.379 90.25 54.379 86.077 54.379 82.682 57.773 82.682 61.947 82.682 64.953 84.465 67.671 87.225 68.879 87.271 68.897 87.315 68.92 87.357 68.947 87.459 69.011 87.542 69.094 87.606 69.191 87.675 69.293 87.721 69.411 87.74 69.539 87.746 69.584 87.749 69.631 87.748 69.677 L87.737 77.924 89.097 77.924 89.107 69.677 C89.107 69.631 89.105 69.584 89.099 69.539 Z" fill="#ffffff" fill-opacity="1" stroke="none" />
			<g id="group">
				<path id="Path-29" d="M91.091 66.992 C91.091 66.527 90.715 66.151 90.25 66.151 89.785 66.151 89.409 66.527 89.409 66.992 89.409 69.2 91.845 72.232 92.122 72.571 92.289 72.774 92.53 72.879 92.773 72.879 92.961 72.879 93.15 72.816 93.306 72.688 93.665 72.393 93.717 71.864 93.423 71.504 92.521 70.405 91.091 68.209 91.091 66.992 Z" fill="#303c42" fill-opacity="1" stroke="none" />
				<path id="Path-30" d="M108.75 66.151 C108.285 66.151 107.909 66.527 107.909 66.992 107.909 68.205 106.478 70.403 105.577 71.505 105.283 71.864 105.335 72.393 105.694 72.688 105.85 72.816 106.039 72.879 106.227 72.879 106.47 72.879 106.711 72.774 106.878 72.571 107.155 72.232 109.591 69.2 109.591 66.992 109.591 66.527 109.215 66.151 108.75 66.151 Z" fill="#303c42" fill-opacity="1" stroke="none" />
				<path id="Path-31" d="M99.5 66.151 C99.035 66.151 98.659 66.527 98.659 66.992 L98.659 72.038 C98.659 72.502 99.035 72.879 99.5 72.879 99.965 72.879 100.341 72.502 100.341 72.038 L100.341 66.992 C100.341 66.527 99.965 66.151 99.5 66.151 Z" fill="#303c42" fill-opacity="1" stroke="none" />
			</g>
			<defs>
				<linearGradient id="linear-gradient5-12" gradientUnits="userSpaceOnUse" x1="75.7" y1="98.009" x2="77.357" y2="97.237">
					<stop offset="0" stop-color="#ffffff" stop-opacity="0.2" />
					<stop offset="1" stop-color="#ffffff" stop-opacity="0" />
				</linearGradient>
			</defs>
			<path id="Path-32" d="M108.75 52.697 C108.24 52.697 107.708 52.764 107.155 52.867 105.303 50.708 102.561 49.333 99.5 49.333 96.439 49.333 93.697 50.708 91.845 52.867 91.292 52.764 90.76 52.697 90.25 52.697 85.149 52.697 81 56.846 81 61.947 81 65.442 82.971 68.619 86.065 70.19 L86.049 82.898 C86.048 83.815 86.404 84.677 87.052 85.326 87.701 85.976 88.562 86.333 89.48 86.333 L109.524 86.333 C111.416 86.333 112.954 84.794 112.954 82.902 L112.954 70.178 C116.037 68.603 118 65.43 118 61.947 118 56.846 113.85 52.697 108.75 52.697 Z" fill-opacity="1" fill="url(#linear-gradient5-12)" stroke="none" />
			<g id="group-1" />
			<g id="group-2" />
			<g id="group-3" />
			<g id="group-4" />
			<g id="group-5" />
			<g id="group-6" />
			<g id="group-7" />
			<g id="group-8" />
			<g id="group-9" />
			<g id="group-10" />
			<g id="group-11" />
			<g id="group-12" />
			<g id="group-13" />
			<g id="group-14" />
			<g id="group-15" />
		</g>
	</g>
	<path id="Rounded-Rectangle" d="M138.035 176.628 C134.694 174.684 130.409 175.817 128.465 179.158 L123.435 187.801 C121.491 191.142 122.623 195.427 125.964 197.372 L125.964 197.372 C129.306 199.316 133.591 198.184 135.535 194.842 L140.565 186.199 C142.509 182.858 141.377 178.573 138.035 176.628 Z" fill="#000000" fill-opacity="1" stroke="none" />
	<g id="recipebook">
		<path id="Rounded-Rectangle-1" d="M216.659 161.488 C213.549 160.335 210.093 161.923 208.941 165.032 L163.036 288.926 C161.883 292.035 163.47 295.491 166.58 296.644 169.69 297.796 173.146 296.208 174.298 293.099 L220.204 169.206 C221.356 166.096 219.769 162.64 216.659 161.488 Z" fill="#656d78" fill-opacity="1" stroke="none" />
		<path id="Rectangle-3" d="M168.541 294.808 L272.161 333.202 275.5 324.192 171.88 285.798 Z" fill="#e7e9ed" fill-opacity="1" stroke="none" />
		<path id="Ellipse" d="M176.968 292.807 C177.89 290.319 176.116 287.368 173.006 286.215 169.896 285.063 166.627 286.146 165.705 288.634 164.784 291.122 166.558 294.073 169.668 295.226 172.777 296.378 176.047 295.295 176.968 292.807 Z" fill="#e7e9ed" fill-opacity="1" stroke="none" />
		<path id="Line" d="M174.298 293.099 L263.276 326.067" fill="none" stroke="#9ea2ab" stroke-width="1.098" stroke-opacity="1" stroke-linejoin="round" />
		<path id="Rectangle-1" d="M166.58 296.644 L273.579 336.289 274.414 334.037 167.415 294.391 Z" fill="#3a8ee1" fill-opacity="1" stroke="none" />
		<path id="Rectangle-2" d="M269.908 332.367 L274.414 334.037 277.752 325.026 273.247 323.357 Z" fill="#2c70b4" fill-opacity="1" stroke="none" />
		<path id="Rectangle" d="M170.754 285.381 L277.752 325.026 323.658 201.133 216.659 161.488 Z" fill="#3a8ee1" fill-opacity="1" stroke="none" />
		<path id="Rounded-Rectangle-1" d="M241.916 184.936 C234.762 182.285 226.814 185.936 224.164 193.089 221.513 200.242 225.164 208.19 232.317 210.841 L279.622 228.368 C286.775 231.019 294.723 227.368 297.373 220.215 300.024 213.062 296.373 205.114 289.22 202.464 Z" fill="#eaecdd" fill-opacity="1" stroke="none" />
		<defs>
			<text id="string5" transform="matrix(0.9377013705871257 0.3474422823995751 -0.3474422823995751 0.9377013705871257 231.19050291992568 186.94962357476425)" text-decoration="none" font-family="Helvetica, Helvetica" x="1.0" font-size="19.218" y="15.0">
				Recipes
			</text>
		</defs>
		<use id="Recipes" xlink:href="#string5" fill="#5b5b5b" fill-opacity="1" stroke="none" />
	</g>
</svg>
