<?xml version="1.0" encoding="UTF-8"?>
<svg preserveAspectRatio="none" viewBox="0 0 512 512" xmlns="http://www.w3.org/2000/svg" xmlns:xlink="http://www.w3.org/1999/xlink" version="1.1">
	<g id="New-Group">
		<g id="Man">
			<defs>
				<linearGradient id="linear-gradient7" gradientUnits="userSpaceOnUse" x1="-4268.618" y1="2444.11" x2="-4280.619" y2="2423.037">
					<stop offset="0" stop-color="#753200" stop-opacity="1" />
					<stop offset="1" stop-color="#a04400" stop-opacity="1" />
				</linearGradient>
			</defs>
			<path id="Path" d="M178.566 392.629 L179.484 405.454 178.347 413.683 176.137 415.65 166.865 412.866 164.58 409.338 165.679 393.11 Z" fill-opacity="1" fill="url(#linear-gradient7)" stroke="none" />
			<defs>
				<linearGradient id="linear-gradient7-1" gradientUnits="userSpaceOnUse" x1="-4133.451" y1="2602.541" x2="-4143.529" y2="2584.833">
					<stop offset="0" stop-color="#753200" stop-opacity="1" />
					<stop offset="1" stop-color="#a04400" stop-opacity="1" />
				</linearGradient>
			</defs>
			<path id="Path-1" d="M147.39 393.204 L148.446 399.791 149.657 409.019 146.566 412.285 137.082 410.306 134.509 406.99 135.808 394.346 Z" fill-opacity="1" fill="url(#linear-gradient7-1)" stroke="none" />
			<path id="Path-2" d="M187.751 342.092 C188.75 336.772 190.873 330.365 189.674 325.083 186.202 309.655 180.664 275.532 177.517 264.555 175.987 259.217 161.583 254.565 149.189 254.059 149.136 254.757 149.124 255.458 149.151 256.157 143.744 254.909 136.851 254.322 130.482 254.059 129.233 268.864 133.017 337.471 133.017 337.471 L135.103 395.888 148.377 396.145 C148.377 396.145 156.182 299.49 158.992 299.184 161.801 298.878 168.438 333.3 168.132 338.046 L164.58 395.37 179.815 395.258 Z" fill="#000000" fill-opacity="1" stroke="none" />
			<defs>
				<linearGradient id="linear-gradient7-2" gradientUnits="userSpaceOnUse" x1="110.708" y1="223.552" x2="195.206" y2="223.552">
					<stop offset="0" stop-color="#ee3219" stop-opacity="1" />
					<stop offset="0.44" stop-color="#e82d27" stop-opacity="1" />
					<stop offset="0.89" stop-color="#d51f3a" stop-opacity="1" />
				</linearGradient>
			</defs>
			<path id="Path-3" d="M183.155 181.037 C177.367 175.743 155.757 172.209 150.569 172.14 141.421 172.021 126.386 175.599 120.96 181.631 116.958 186.083 113.361 199.488 110.702 212.276 L129.727 222.128 C131.006 219.45 132.018 217.477 132.355 217.133 129.57 232.743 128.372 251.937 128.44 268.083 154.764 270.937 164.655 282.794 178.491 266.672 L177.917 212.4 178.772 223.639 195.175 218.644 C193.414 202.317 189.899 187.206 183.155 181.037 Z" fill-opacity="1" fill="url(#linear-gradient7-2)" stroke="none" />
			<defs>
				<linearGradient id="linear-gradient7-3" gradientUnits="userSpaceOnUse" x1="178.797" y1="260.359" x2="207.388" y2="260.359">
					<stop offset="0" stop-color="#a04400" stop-opacity="1" />
					<stop offset="0.3" stop-color="#9c4200" stop-opacity="1" />
					<stop offset="0.62" stop-color="#8e3d00" stop-opacity="1" />
					<stop offset="0.95" stop-color="#793300" stop-opacity="1" />
					<stop offset="1" stop-color="#753200" stop-opacity="1" />
				</linearGradient>
			</defs>
			<path id="Path-4" d="M207.15 291.841 C206.626 290.043 206.832 289.462 204.534 287.039 202.236 284.617 197.31 279.153 197.31 279.153 197.31 279.153 195.306 273.89 195.437 271.792 196.061 263.225 197.466 239.861 195.162 218.669 L178.76 223.664 179.846 237.913 C179.846 237.913 188.063 281.757 187.863 282.194 187.371 283.692 187.314 285.299 187.701 286.827 188.175 288.407 188.949 289.437 190.292 291.198 191.634 292.959 193.058 294.669 193.445 296.505 193.832 298.341 193.445 298.509 194.325 298.828 195.206 299.146 197.091 297.673 196.948 296.118 196.804 294.563 196.448 291.903 196.448 291.903 197.38 292.519 198.367 293.048 199.396 293.483 200.888 294.021 202.001 295.286 202.343 296.836 202.811 300.108 202.936 301.101 203.966 301.9 204.996 302.699 205.839 299.783 205.839 299.783 205.839 299.783 208.093 294.994 207.15 291.841 Z" fill-opacity="1" fill="url(#linear-gradient7-3)" stroke="none" />
			<defs>
				<linearGradient id="linear-gradient7-4" gradientUnits="userSpaceOnUse" x1="-4435.254" y1="786.935" x2="-4431.227" y2="786.935">
					<stop offset="0" stop-color="#753200" stop-opacity="1" />
					<stop offset="1" stop-color="#a04400" stop-opacity="1" />
				</linearGradient>
			</defs>
			<path id="Path-5" d="M141.047 145.735 C140.222 144.255 139.105 140.115 138.58 138.867 140.741 138.735 143.207 141.52 143.575 143.418 143.02 143.5 141.552 145.229 141.047 145.735 Z" fill-opacity="1" fill="url(#linear-gradient7-4)" stroke="none" />
			<defs>
				<linearGradient id="linear-gradient7-5" gradientUnits="userSpaceOnUse" x1="-4479.392" y1="816.911" x2="-4449.347" y2="799.741">
					<stop offset="0" stop-color="#753200" stop-opacity="1" />
					<stop offset="1" stop-color="#a04400" stop-opacity="1" />
				</linearGradient>
			</defs>
			<path id="Path-6" d="M155.089 179.296 C158.554 179.278 161.577 176.939 162.463 173.589 162.621 172.623 162.655 171.641 162.563 170.667 L162.526 169.618 162.494 168.65 162.457 167.463 C163.006 167.425 163.552 167.354 164.093 167.251 168.339 166.433 174.926 163.355 176.687 156.343 177.935 151.454 175.881 147.115 175.694 144.286 175.506 141.458 176.543 139.385 176.874 136.169 177.305 132.073 175.382 127.084 173.321 126.004 164.024 121.097 148.034 127.059 148.034 127.059 148.034 127.059 142.72 129.788 145.536 141.027 144.955 140.69 146.198 143.025 145.424 142.9 144.065 142.634 142.658 142.964 141.559 143.805 139.592 145.51 139.792 149.369 144.125 154.458 L144.275 154.638 C144.47 155.703 144.598 156.779 144.656 157.86 144.656 158.023 144.656 158.191 144.693 158.36 144.818 160.352 144.987 162.937 145.143 165.428 145.367 169.031 145.417 172.14 145.461 173.345 145.555 176.33 148.939 179.508 155.089 179.295 Z" fill-opacity="1" fill="url(#linear-gradient7-5)" stroke="none" />
			<defs>
				<linearGradient id="linear-gradient7-6" gradientUnits="userSpaceOnUse" x1="-4457.863" y1="786.772" x2="-4440.199" y2="775.359">
					<stop offset="0" stop-color="#a04400" stop-opacity="0" />
					<stop offset="0.18" stop-color="#9a4100" stop-opacity="0.14" />
					<stop offset="0.52" stop-color="#8a3b00" stop-opacity="0.52" />
					<stop offset="0.9" stop-color="#753200" stop-opacity="1" />
				</linearGradient>
			</defs>
			<path id="Path-7" d="M145.523 141.052 C142.714 129.813 148.021 127.084 148.021 127.084 148.021 127.084 164.011 121.122 173.309 126.029 174.763 126.791 175.132 128.976 175.563 130.837 171.816 128.177 164.617 129.794 158.892 130.313 156.151 130.562 157.562 133.434 156.806 133.609 150.656 132.885 146.816 136.194 148.452 144.723 L145.474 142.944 C146.104 142.894 144.962 140.74 145.523 141.052 Z" fill-opacity="1" fill="url(#linear-gradient7-6)" stroke="none" />
			<path id="Path-8" d="M138.206 138.286 C137.737 136.313 137.7 134.134 137.794 131.149 137.987 124.712 141.59 121.309 147.834 118.886 L153.871 116.944 C154.421 116.77 164.63 113.966 170.012 115.845 172.035 116.551 174.92 118.668 175.232 120.397 176.031 124.812 176.587 127.153 176.231 130.7 172.335 122.102 169.625 133.603 156.519 126.654 154.09 125.367 155.189 129.776 154.433 129.944 147.49 129.132 143.513 133.441 146.972 144.586 145.099 143.918 143.781 143.094 142.726 143.162 141.146 141.795 138.468 139.322 138.206 138.286 Z" fill="#1d0d01" fill-opacity="1" stroke="none" />
			<defs>
				<linearGradient id="linear-gradient7-7" gradientUnits="userSpaceOnUse" x1="-4433.375" y1="802.788" x2="-4448.828" y2="817.954">
					<stop offset="0" stop-color="#a04400" stop-opacity="1" />
					<stop offset="1" stop-color="#753200" stop-opacity="1" />
				</linearGradient>
			</defs>
			<path id="Path-9" d="M144.712 158.397 C148.724 164.577 155.245 168.685 162.551 169.636 L162.519 168.668 162.482 167.482 C163.031 167.444 163.577 167.373 164.118 167.27 160.24 165.072 149.432 158.834 144.137 154.514 L144.287 154.695 C144.483 155.759 144.61 156.836 144.668 157.917 144.662 158.06 144.674 158.223 144.712 158.397 Z" fill-opacity="1" fill="url(#linear-gradient7-7)" stroke="none" />
			<path id="Path-10" d="M145.748 144.292 C145.499 144.105 144.762 143.668 144.762 143.668 L144.83 141.47 148.183 142.863 C148.831 143.13 149.269 143.743 149.314 144.442 L149.794 152.104 C154.402 153.814 165.204 159.203 167.034 159.147 169.356 159.078 169.531 156.125 170.892 156.537 172.253 156.949 172.391 158.672 173.234 158.51 173.671 158.422 176.187 156.062 176.886 154.663 176.886 154.663 176.368 159.715 176.218 160.614 175.875 162.699 172.422 167.451 172.422 167.451 172.076 167.972 171.51 168.304 170.886 168.35 L165.454 168.756 162.457 167.626 C158.317 166.221 148.046 159.509 147.79 158.354 146.273 151.654 148.221 146.178 145.748 144.292 Z" fill="#1d0d01" fill-opacity="1" stroke="none" />
			<defs>
				<linearGradient id="linear-gradient7-8" gradientUnits="userSpaceOnUse" x1="-4433.306" y1="792.105" x2="-4435.298" y2="794.065">
					<stop offset="0" stop-color="#753200" stop-opacity="1" />
					<stop offset="1" stop-color="#a04400" stop-opacity="1" />
				</linearGradient>
			</defs>
			<path id="Path-11" d="M145.23 146.565 C145.23 146.565 143.594 144.555 142.608 146.209 141.621 147.864 143.457 150.493 143.457 150.493 Z" fill-opacity="1" fill="url(#linear-gradient7-8)" stroke="none" />
			<defs>
				<linearGradient id="linear-gradient7-9" gradientUnits="userSpaceOnUse" x1="105.994" y1="263.1" x2="129.752" y2="263.1">
					<stop offset="0" stop-color="#a04400" stop-opacity="1" />
					<stop offset="0.3" stop-color="#9c4200" stop-opacity="1" />
					<stop offset="0.62" stop-color="#8e3d00" stop-opacity="1" />
					<stop offset="0.95" stop-color="#793300" stop-opacity="1" />
					<stop offset="1" stop-color="#753200" stop-opacity="1" />
				</linearGradient>
			</defs>
			<path id="Path-12" d="M129.727 222.128 L110.677 212.269 C107.792 226.281 106 239.505 106 239.505 L109.191 281.339 109.228 287.121 C109.228 287.121 107.842 293.889 107.143 296.948 106.443 300.008 107.342 302.637 107.767 304.347 108.522 307.351 113.436 312.733 113.436 312.733 113.436 312.733 115.491 314.725 115.934 313.551 116.377 312.377 115.228 308.98 114.061 306.114 113.499 304.747 113.436 300.882 114.323 299.696 114.959 298.858 115.518 297.963 115.99 297.023 115.99 297.023 116.97 299.346 117.595 300.676 118.219 302.006 120.429 302.306 121.01 301.619 121.591 300.932 121.179 300.994 120.617 299.321 120.055 297.648 120.373 295.575 120.617 293.527 120.86 291.479 120.998 290.261 120.617 288.763 120.2 287.342 119.388 286.068 118.275 285.091 117.907 284.835 117.077 280.889 117.077 280.889 117.077 280.889 121.447 252.292 121.447 240.747 121.834 239.517 126.605 228.703 129.727 222.128 Z" fill-opacity="1" fill="url(#linear-gradient7-9)" stroke="none" />
			<path id="Path-13" d="M149.657 392.052 L149.657 393.503 C149.657 394.986 148.455 396.188 146.972 396.188 L135.477 396.188 C133.994 396.188 132.792 394.986 132.792 393.503 L132.792 390.6 C132.792 389.117 133.994 387.915 135.477 387.915 L146.972 387.915 C148.455 387.915 149.657 389.117 149.657 390.6 Z" fill="#443f40" fill-opacity="1" stroke="none" />
			<path id="Path-14" d="M181.257 392.052 L181.257 393.453 C181.257 394.964 180.033 396.188 178.522 396.188 L166.434 396.188 C164.924 396.188 163.699 394.964 163.699 393.453 L163.699 390.65 C163.699 389.14 164.924 387.915 166.434 387.915 L178.522 387.915 C180.033 387.915 181.257 389.14 181.257 390.65 Z" fill="#443f40" fill-opacity="1" stroke="none" />
			<path id="Path-15" d="M145.23 153.053 C145.23 153.666 144.732 154.164 144.119 154.164 143.505 154.164 143.007 153.666 143.007 153.053 143.007 152.439 143.505 151.941 144.119 151.941 144.732 151.941 145.23 152.439 145.23 153.053 Z" fill="#f2f4f6" fill-opacity="1" stroke="none" />
			<path id="Path-16" d="M133.591 408.751 C133.591 408.751 130.776 409.962 136.133 422.369 137.381 425.266 143.057 426.983 148.62 426.833 154.184 426.683 156.544 425.834 156.931 424.292 157.318 422.75 154.009 417.792 154.009 417.792 Z" fill="#fef5ff" fill-opacity="1" stroke="none" />
			<defs>
				<linearGradient id="linear-gradient7-10" gradientUnits="userSpaceOnUse" x1="133.592" y1="411.586" x2="155.458" y2="411.586">
					<stop offset="0" stop-color="#e62a29" stop-opacity="1" />
					<stop offset="0.44" stop-color="#df2532" stop-opacity="1" />
					<stop offset="0.89" stop-color="#d52039" stop-opacity="1" />
				</linearGradient>
			</defs>
			<path id="Path-17" d="M133.641 407.521 C133.641 407.521 133.585 404.886 134.784 404.274 135.34 407.396 136.851 404.967 138.53 403.213 140.01 401.695 140.603 400.44 143.432 400.222 146.26 400.003 147.178 402.301 148.333 403.213 150.431 404.83 150.475 403.874 151.143 406.247 151.736 408.345 153.559 416.006 155.183 419.084 155.578 419.78 155.471 420.652 154.921 421.232 152.292 423.824 146.348 422.881 143.095 422.338 139.405 421.713 136.07 419.415 134.634 414.495 133.198 409.575 133.641 407.521 133.641 407.521 Z" fill-opacity="1" fill="url(#linear-gradient7-10)" stroke="none" />
			<path id="Path-18" d="M163.325 415.219 L163.325 418.772 C163.314 420.036 164.25 421.109 165.504 421.27 168.001 421.62 172.01 422.2 174.183 422.625 177.492 423.249 185.422 426.152 189.874 426.44 194.325 426.727 199.37 426.802 201.606 425.359 203.841 423.917 203.335 420.539 203.335 420.539 Z" fill="#f6ffff" fill-opacity="1" stroke="none" />
			<defs>
				<linearGradient id="linear-gradient7-11" gradientUnits="userSpaceOnUse" x1="163.212" y1="412.441" x2="203.329" y2="412.441">
					<stop offset="0" stop-color="#e32a2b" stop-opacity="1" />
					<stop offset="0.44" stop-color="#de2631" stop-opacity="1" />
					<stop offset="0.89" stop-color="#d61e3b" stop-opacity="1" />
				</linearGradient>
			</defs>
			<path id="Path-19" d="M164.611 405.723 C164.611 405.723 162.307 414.501 163.606 415.8 164.904 417.099 174.614 417.742 177.205 419.397 179.796 421.051 190.373 423.642 195.986 423.212 201.6 422.781 203.185 422.063 203.329 420.552 203.473 419.041 192.165 416.949 190.161 415.469 188.156 413.99 186.92 408.632 184.117 406.834 181.313 405.036 183.492 401.795 180.52 401.652 177.548 401.508 178.36 406.26 173.97 406.547 170.829 406.646 167.687 406.369 164.611 405.723 Z" fill-opacity="1" fill="url(#linear-gradient7-11)" stroke="none" />
			<path id="Path-20" d="M163.375 276.893 C163.662 277.468 163.949 289.755 159.004 299.19" fill="none" stroke="#343434" stroke-width="0.574" stroke-opacity="1" stroke-linejoin="round" />
			<g id="chefhat">
				<path id="Path-21" d="M173.34 77.613 C172.518 77.613 171.659 77.722 170.767 77.887 167.78 74.405 163.358 72.188 158.42 72.188 153.483 72.188 149.061 74.405 146.074 77.887 145.182 77.722 144.323 77.613 143.501 77.613 135.274 77.613 128.581 84.306 128.581 92.533 128.581 98.17 131.76 103.294 136.751 105.828 L136.724 126.326 C136.723 127.805 137.298 129.196 138.343 130.242 139.389 131.29 140.779 131.866 142.258 131.866 L174.588 131.866 C177.639 131.866 180.122 129.384 180.122 126.332 L180.122 105.808 C185.094 103.268 188.26 98.151 188.26 92.533 188.26 84.306 181.567 77.613 173.34 77.613 Z" fill="#303c42" fill-opacity="1" stroke="none" />
				<path id="Path-22" d="M174.588 129.154 L142.258 129.154 C141.505 129.154 140.796 128.859 140.262 128.326 139.73 127.792 139.436 127.083 139.437 126.328 L139.444 121.016 177.409 121.016 177.409 126.332 C177.409 127.887 176.143 129.154 174.588 129.154 Z" fill="#e6e6e6" fill-opacity="1" stroke="none" />
				<path id="Path-23" d="M142.15 126.328 L142.156 121.016 139.444 121.016 139.437 126.328 C139.436 127.083 139.73 127.792 140.262 128.326 140.796 128.859 141.505 129.153 142.258 129.153 L144.568 129.153 C143.922 129.153 143.314 128.859 142.857 128.326 142.401 127.792 142.148 127.083 142.15 126.328 Z" fill="#ffffff" fill-opacity="1" stroke="none" />
				<path id="Path-24" d="M174.696 121.016 L174.696 126.332 C174.696 127.887 173.611 129.154 172.278 129.154 L174.588 129.154 C176.143 129.154 177.409 127.887 177.409 126.332 L177.409 121.016 Z" fill="#000000" fill-opacity="1" stroke="none" />
				<path id="Path-25" d="M178.249 103.697 C178.177 103.726 178.109 103.761 178.046 103.802 177.875 103.908 177.735 104.048 177.63 104.21 177.524 104.37 177.453 104.556 177.423 104.754 177.411 104.83 177.407 104.905 177.409 104.982 L177.409 118.303 139.447 118.303 139.465 105 C139.466 104.926 139.462 104.851 139.452 104.778 139.422 104.573 139.347 104.382 139.237 104.216 139.134 104.061 138.999 103.926 138.834 103.823 138.767 103.781 138.695 103.743 138.621 103.713 134.169 101.766 131.294 97.382 131.294 92.533 131.294 85.801 136.769 80.326 143.501 80.326 143.764 80.326 144.041 80.357 144.314 80.379 142.942 82.764 142.144 85.52 142.144 88.464 142.144 89.213 142.751 89.82 143.501 89.82 144.25 89.82 144.857 89.213 144.857 88.464 144.857 80.985 150.942 74.9 158.42 74.9 165.899 74.9 171.984 80.985 171.984 88.464 171.984 89.213 172.59 89.82 173.34 89.82 174.09 89.82 174.696 89.213 174.696 88.464 174.696 85.52 173.899 82.764 172.527 80.379 172.799 80.357 173.077 80.326 173.34 80.326 180.071 80.326 185.547 85.801 185.547 92.533 185.547 97.365 182.683 101.744 178.249 103.697 Z" fill="#f2f2f2" fill-opacity="1" stroke="none" />
				<path id="Path-26" d="M158.42 76.596 C164.647 76.596 169.882 80.541 171.73 85.955 170.547 79.674 165.04 74.9 158.42 74.9 151.801 74.9 146.293 79.674 145.111 85.955 146.959 80.541 152.193 76.596 158.42 76.596 Z" fill="#ffffff" fill-opacity="1" stroke="none" />
				<path id="Path-27" d="M173.34 80.326 C173.077 80.326 172.799 80.357 172.527 80.379 172.536 80.396 172.543 80.416 172.553 80.433 178.062 80.98 182.41 86.165 182.41 92.532 182.41 97.364 179.878 101.743 175.956 103.697 175.893 103.726 175.833 103.761 175.777 103.802 175.626 103.908 175.502 104.048 175.409 104.21 175.315 104.37 175.252 104.555 175.226 104.754 175.216 104.829 175.212 104.905 175.213 104.982 L175.213 118.303 177.409 118.303 177.409 104.982 C177.408 104.905 177.412 104.829 177.424 104.754 177.453 104.555 177.524 104.37 177.63 104.21 177.735 104.048 177.875 103.908 178.046 103.802 178.11 103.761 178.177 103.726 178.249 103.697 182.683 101.744 185.547 97.365 185.547 92.533 185.547 85.801 180.071 80.326 173.34 80.326 Z" fill="#000000" fill-opacity="1" stroke="none" />
				<path id="Path-28" d="M141.645 104.778 C141.619 104.573 141.552 104.382 141.455 104.216 141.364 104.061 141.244 103.926 141.099 103.823 141.039 103.781 140.976 103.743 140.91 103.713 136.973 101.766 134.43 97.382 134.43 92.533 134.43 86.165 138.779 80.98 144.287 80.433 144.297 80.416 144.304 80.396 144.314 80.379 144.041 80.357 143.764 80.326 143.501 80.326 136.769 80.326 131.294 85.801 131.294 92.533 131.294 97.382 134.169 101.766 138.621 103.713 138.695 103.744 138.767 103.781 138.834 103.823 138.999 103.927 139.134 104.062 139.237 104.217 139.347 104.382 139.422 104.573 139.452 104.778 139.462 104.851 139.466 104.927 139.465 105.001 L139.447 118.303 141.641 118.303 141.657 105.001 C141.658 104.926 141.654 104.851 141.645 104.778 Z" fill="#ffffff" fill-opacity="1" stroke="none" />
				<g id="group">
					<path id="Path-29" d="M144.857 100.671 C144.857 99.921 144.25 99.314 143.501 99.314 142.751 99.314 142.144 99.921 142.144 100.671 142.144 104.232 146.073 109.123 146.521 109.67 146.79 109.995 147.179 110.165 147.571 110.165 147.873 110.165 148.177 110.064 148.43 109.858 149.009 109.382 149.093 108.528 148.619 107.948 147.164 106.175 144.857 102.634 144.857 100.671 Z" fill="#303c42" fill-opacity="1" stroke="none" />
					<path id="Path-30" d="M173.34 99.314 C172.59 99.314 171.984 99.921 171.984 100.671 171.984 102.627 169.676 106.173 168.222 107.949 167.748 108.528 167.832 109.382 168.411 109.858 168.663 110.064 168.968 110.165 169.271 110.165 169.663 110.165 170.051 109.995 170.32 109.67 170.768 109.123 174.696 104.232 174.696 100.671 174.696 99.921 174.09 99.314 173.34 99.314 Z" fill="#303c42" fill-opacity="1" stroke="none" />
					<path id="Path-31" d="M158.42 99.314 C157.671 99.314 157.064 99.921 157.064 100.671 L157.064 108.809 C157.064 109.558 157.671 110.165 158.42 110.165 159.17 110.165 159.777 109.558 159.777 108.809 L159.777 100.671 C159.777 99.921 159.17 99.314 158.42 99.314 Z" fill="#303c42" fill-opacity="1" stroke="none" />
				</g>
				<defs>
					<linearGradient id="linear-gradient7-12" gradientUnits="userSpaceOnUse" x1="120.032" y1="150.699" x2="122.704" y2="149.453">
						<stop offset="0" stop-color="#ffffff" stop-opacity="0.2" />
						<stop offset="1" stop-color="#ffffff" stop-opacity="0" />
					</linearGradient>
				</defs>
				<path id="Path-32" d="M173.34 77.613 C172.518 77.613 171.659 77.722 170.767 77.887 167.78 74.405 163.358 72.188 158.42 72.188 153.483 72.188 149.061 74.405 146.074 77.887 145.182 77.722 144.323 77.613 143.501 77.613 135.274 77.613 128.581 84.306 128.581 92.533 128.581 98.17 131.76 103.294 136.751 105.828 L136.724 126.326 C136.723 127.805 137.298 129.196 138.343 130.242 139.389 131.29 140.779 131.866 142.258 131.866 L174.588 131.866 C177.639 131.866 180.122 129.384 180.122 126.332 L180.122 105.808 C185.094 103.268 188.26 98.151 188.26 92.533 188.26 84.306 181.567 77.613 173.34 77.613 Z" fill-opacity="1" fill="url(#linear-gradient7-12)" stroke="none" />
				<g id="group-1" />
				<g id="group-2" />
				<g id="group-3" />
				<g id="group-4" />
				<g id="group-5" />
				<g id="group-6" />
				<g id="group-7" />
				<g id="group-8" />
				<g id="group-9" />
				<g id="group-10" />
				<g id="group-11" />
				<g id="group-12" />
				<g id="group-13" />
				<g id="group-14" />
				<g id="group-15" />
			</g>
		</g>
		<path id="Rounded-Rectangle" d="M220.576 277.507 C215.186 274.37 208.275 276.197 205.138 281.587 L197.026 295.527 C193.89 300.917 195.716 307.828 201.106 310.964 L201.106 310.964 C206.495 314.101 213.407 312.274 216.543 306.885 L224.655 292.944 C227.792 287.554 225.965 280.643 220.576 277.507 Z" fill="#000000" fill-opacity="1" stroke="none" />
		<g id="recipebook">
			<path id="Rounded-Rectangle-1" d="M349.037 296.576 C349.569 294.399 348.235 292.203 346.058 291.671 L259.337 270.479 C257.161 269.947 254.964 271.281 254.432 273.457 253.9 275.634 255.234 277.831 257.411 278.362 L344.132 299.554 C346.308 300.086 348.505 298.752 349.037 296.576 Z" fill="#656d78" fill-opacity="1" stroke="none" />
			<path id="Rectangle-3" d="M255.816 274.631 L238.092 347.161 244.399 348.702 262.123 276.172 Z" fill="#e7e9ed" fill-opacity="1" stroke="none" />
			<path id="Ellipse" d="M257.814 280.132 C259.555 280.557 261.399 279.137 261.93 276.961 262.462 274.784 261.482 272.674 259.74 272.248 257.999 271.823 256.155 273.243 255.624 275.419 255.092 277.596 256.072 279.706 257.814 280.132 Z" fill="#e7e9ed" fill-opacity="1" stroke="none" />
			<path id="Line" d="M257.411 278.362 L242.191 340.644" fill="none" stroke="#9ea2ab" stroke-width="0.908" stroke-opacity="1" stroke-linejoin="round" />
			<path id="Rectangle-1" d="M254.432 273.457 L236.13 348.353 237.707 348.738 256.009 273.843 Z" fill="#3a8ee1" fill-opacity="1" stroke="none" />
			<path id="Rectangle-2" d="M238.477 345.584 L237.707 348.738 244.014 350.279 244.784 347.126 Z" fill="#2c70b4" fill-opacity="1" stroke="none" />
			<path id="Rectangle" d="M262.316 275.384 L244.014 350.279 330.735 371.471 349.037 296.576 Z" fill="#3a8ee1" fill-opacity="1" stroke="none" />
			<path id="Rounded-Rectangle-1" d="M335.259 315.348 C336.483 310.341 333.416 305.29 328.409 304.067 323.402 302.843 318.35 305.91 317.127 310.917 L309.035 344.029 C307.812 349.036 310.879 354.087 315.886 355.311 320.893 356.534 325.944 353.467 327.168 348.46 Z" fill="#eaecdd" fill-opacity="1" stroke="none" />
			<defs>
				<text id="string7" transform="matrix(-0.23738326173805663 0.9714160730843407 -0.9714160730843407 -0.23738326173805663 333.1431686732377 306.94532740684446)" text-decoration="none" font-family="Helvetica, Helvetica" x="1.0" font-size="12.985" y="10.0">
					Recipes
				</text>
			</defs>
			<use id="Recipes" xlink:href="#string7" fill="#5b5b5b" fill-opacity="1" stroke="none" />
		</g>
	</g>
</svg>
