<?xml version="1.0" encoding="UTF-8"?>
<svg preserveAspectRatio="none" viewBox="0 0 512 512" xmlns="http://www.w3.org/2000/svg" xmlns:xlink="http://www.w3.org/1999/xlink" version="1.1">
	<g id="Man">
		<defs>
			<linearGradient id="linear-gradient2" gradientUnits="userSpaceOnUse" x1="-2645.21" y1="1519.896" x2="-2652.65" y2="1506.831">
				<stop offset="0" stop-color="#753200" stop-opacity="1" />
				<stop offset="1" stop-color="#a04400" stop-opacity="1" />
			</linearGradient>
		</defs>
		<path id="Path" d="M111.99 248.003 L112.559 255.954 111.854 261.056 110.484 262.276 104.735 260.549 103.319 258.362 104 248.301 Z" fill-opacity="1" fill="url(#linear-gradient2)" stroke="none" />
		<defs>
			<linearGradient id="linear-gradient2-1" gradientUnits="userSpaceOnUse" x1="-2561.408" y1="1618.121" x2="-2567.656" y2="1607.143">
				<stop offset="0" stop-color="#753200" stop-opacity="1" />
				<stop offset="1" stop-color="#a04400" stop-opacity="1" />
			</linearGradient>
		</defs>
		<path id="Path-1" d="M92.661 248.359 L93.316 252.443 94.067 258.165 92.151 260.189 86.27 258.962 84.675 256.906 85.481 249.068 Z" fill-opacity="1" fill="url(#linear-gradient2-1)" stroke="none" />
		<path id="Path-2" d="M117.684 216.67 C118.304 213.372 119.62 209.4 118.877 206.125 116.724 196.56 113.291 175.404 111.34 168.599 110.391 165.289 101.461 162.405 93.776 162.091 93.744 162.524 93.736 162.958 93.753 163.392 90.401 162.618 86.127 162.254 82.179 162.091 81.404 171.27 83.75 213.806 83.75 213.806 L85.043 250.024 93.273 250.182 C93.273 250.182 98.112 190.258 99.854 190.068 101.596 189.878 105.711 211.22 105.521 214.162 L103.319 249.702 112.764 249.633 Z" fill="#000000" fill-opacity="1" stroke="none" />
		<defs>
			<linearGradient id="linear-gradient2-2" gradientUnits="userSpaceOnUse" x1="69.919" y1="143.177" x2="122.307" y2="143.177">
				<stop offset="0" stop-color="#ee3219" stop-opacity="1" />
				<stop offset="0.44" stop-color="#e82d27" stop-opacity="1" />
				<stop offset="0.89" stop-color="#d51f3a" stop-opacity="1" />
			</linearGradient>
		</defs>
		<path id="Path-3" d="M114.835 116.819 C111.247 113.536 97.849 111.345 94.632 111.302 88.961 111.229 79.639 113.447 76.275 117.187 73.794 119.947 71.564 128.258 69.915 136.186 L81.71 142.295 C82.504 140.634 83.131 139.411 83.34 139.198 81.613 148.875 80.87 160.775 80.913 170.786 97.233 172.555 103.365 179.906 111.943 169.911 L111.587 136.263 112.118 143.231 122.287 140.134 C121.196 130.011 119.016 120.643 114.835 116.819 Z" fill-opacity="1" fill="url(#linear-gradient2-2)" stroke="none" />
		<defs>
			<linearGradient id="linear-gradient2-3" gradientUnits="userSpaceOnUse" x1="112.133" y1="165.997" x2="129.859" y2="165.997">
				<stop offset="0" stop-color="#a04400" stop-opacity="1" />
				<stop offset="0.3" stop-color="#9c4200" stop-opacity="1" />
				<stop offset="0.62" stop-color="#8e3d00" stop-opacity="1" />
				<stop offset="0.95" stop-color="#793300" stop-opacity="1" />
				<stop offset="1" stop-color="#753200" stop-opacity="1" />
			</linearGradient>
		</defs>
		<path id="Path-4" d="M129.712 185.516 C129.387 184.401 129.515 184.041 128.09 182.539 126.665 181.037 123.611 177.649 123.611 177.649 123.611 177.649 122.368 174.386 122.45 173.085 122.837 167.774 123.708 153.288 122.279 140.15 L112.11 143.247 112.784 152.081 C112.784 152.081 117.878 179.264 117.754 179.535 117.449 180.463 117.414 181.459 117.653 182.407 117.948 183.386 118.428 184.025 119.26 185.117 120.092 186.208 120.975 187.269 121.215 188.407 121.455 189.545 121.215 189.65 121.761 189.847 122.307 190.045 123.476 189.131 123.386 188.167 123.297 187.203 123.077 185.554 123.077 185.554 123.655 185.936 124.266 186.264 124.904 186.534 125.83 186.867 126.52 187.652 126.731 188.612 127.021 190.641 127.099 191.256 127.738 191.752 128.376 192.247 128.899 190.44 128.899 190.44 128.899 190.44 130.297 187.47 129.712 185.515 Z" fill-opacity="1" fill="url(#linear-gradient2-3)" stroke="none" />
		<defs>
			<linearGradient id="linear-gradient2-4" gradientUnits="userSpaceOnUse" x1="-2748.522" y1="492.468" x2="-2746.025" y2="492.468">
				<stop offset="0" stop-color="#753200" stop-opacity="1" />
				<stop offset="1" stop-color="#a04400" stop-opacity="1" />
			</linearGradient>
		</defs>
		<path id="Path-5" d="M88.729 94.932 C88.218 94.014 87.525 91.448 87.199 90.673 88.539 90.592 90.068 92.318 90.296 93.495 89.952 93.546 89.042 94.618 88.728 94.932 Z" fill-opacity="1" fill="url(#linear-gradient2-4)" stroke="none" />
		<defs>
			<linearGradient id="linear-gradient2-5" gradientUnits="userSpaceOnUse" x1="-2775.887" y1="511.053" x2="-2757.259" y2="500.407">
				<stop offset="0" stop-color="#753200" stop-opacity="1" />
				<stop offset="1" stop-color="#a04400" stop-opacity="1" />
			</linearGradient>
		</defs>
		<path id="Path-6" d="M97.435 115.739 C99.583 115.728 101.457 114.277 102.006 112.2 102.104 111.602 102.125 110.993 102.068 110.389 L102.045 109.738 102.026 109.138 102.003 108.403 C102.343 108.379 102.682 108.335 103.017 108.271 105.649 107.764 109.733 105.856 110.825 101.508 111.599 98.477 110.325 95.787 110.209 94.033 110.093 92.28 110.736 90.995 110.941 89.001 111.208 86.461 110.016 83.368 108.738 82.699 102.974 79.656 93.06 83.353 93.06 83.353 93.06 83.353 89.766 85.045 91.512 92.013 91.152 91.804 91.922 93.251 91.442 93.174 90.6 93.009 89.727 93.214 89.046 93.735 87.827 94.792 87.95 97.184 90.637 100.339 L90.73 100.452 C90.851 101.112 90.93 101.779 90.966 102.449 90.966 102.55 90.966 102.654 90.989 102.759 91.067 103.994 91.171 105.596 91.268 107.141 91.407 109.375 91.438 111.302 91.465 112.05 91.523 113.9 93.622 115.87 97.435 115.739 Z" fill-opacity="1" fill="url(#linear-gradient2-5)" stroke="none" />
		<defs>
			<linearGradient id="linear-gradient2-6" gradientUnits="userSpaceOnUse" x1="-2762.539" y1="492.367" x2="-2751.588" y2="485.29">
				<stop offset="0" stop-color="#a04400" stop-opacity="0" />
				<stop offset="0.18" stop-color="#9a4100" stop-opacity="0.14" />
				<stop offset="0.52" stop-color="#8a3b00" stop-opacity="0.52" />
				<stop offset="0.9" stop-color="#753200" stop-opacity="1" />
			</linearGradient>
		</defs>
		<path id="Path-7" d="M91.504 92.028 C89.762 85.06 93.052 83.368 93.052 83.368 93.052 83.368 102.966 79.672 108.73 82.714 109.632 83.187 109.861 84.541 110.128 85.695 107.805 84.046 103.342 85.048 99.792 85.37 98.093 85.525 98.968 87.305 98.499 87.414 94.686 86.965 92.305 89.016 93.32 94.304 L91.473 93.201 C91.864 93.17 91.156 91.834 91.504 92.028 Z" fill-opacity="1" fill="url(#linear-gradient2-6)" stroke="none" />
		<path id="Path-8" d="M86.967 90.313 C86.677 89.09 86.654 87.739 86.712 85.889 86.832 81.897 89.065 79.788 92.936 78.286 L96.68 77.082 C97.02 76.973 103.35 75.235 106.687 76.4 107.941 76.838 109.729 78.15 109.923 79.222 110.418 81.959 110.763 83.411 110.542 85.61 108.127 80.279 106.447 87.41 98.321 83.101 96.815 82.304 97.497 85.037 97.028 85.141 92.724 84.638 90.258 87.309 92.402 94.219 91.241 93.805 90.424 93.294 89.77 93.337 88.79 92.489 87.13 90.956 86.967 90.313 Z" fill="#1d0d01" fill-opacity="1" stroke="none" />
		<defs>
			<linearGradient id="linear-gradient2-7" gradientUnits="userSpaceOnUse" x1="-2747.357" y1="502.296" x2="-2756.938" y2="511.699">
				<stop offset="0" stop-color="#a04400" stop-opacity="1" />
				<stop offset="1" stop-color="#753200" stop-opacity="1" />
			</linearGradient>
		</defs>
		<path id="Path-9" d="M91.001 102.782 C93.488 106.613 97.531 109.16 102.061 109.75 L102.041 109.15 102.018 108.415 C102.358 108.391 102.697 108.347 103.032 108.283 100.628 106.92 93.927 103.053 90.645 100.374 L90.738 100.486 C90.859 101.147 90.938 101.814 90.974 102.484 90.97 102.573 90.978 102.674 91.001 102.782 Z" fill-opacity="1" fill="url(#linear-gradient2-7)" stroke="none" />
		<path id="Path-10" d="M91.643 94.037 C91.489 93.921 91.032 93.65 91.032 93.65 L91.074 92.287 93.153 93.151 C93.554 93.317 93.826 93.697 93.854 94.13 L94.152 98.88 C97.009 99.941 103.706 103.281 104.84 103.247 106.28 103.204 106.389 101.373 107.232 101.628 108.076 101.884 108.161 102.952 108.684 102.852 108.955 102.797 110.515 101.334 110.949 100.467 110.949 100.467 110.627 103.599 110.534 104.156 110.322 105.449 108.181 108.395 108.181 108.395 107.967 108.718 107.615 108.924 107.229 108.953 L103.861 109.204 102.003 108.504 C99.436 107.633 93.068 103.471 92.909 102.755 91.969 98.601 93.176 95.206 91.643 94.037 Z" fill="#1d0d01" fill-opacity="1" stroke="none" />
		<defs>
			<linearGradient id="linear-gradient2-8" gradientUnits="userSpaceOnUse" x1="-2747.314" y1="495.673" x2="-2748.549" y2="496.888">
				<stop offset="0" stop-color="#753200" stop-opacity="1" />
				<stop offset="1" stop-color="#a04400" stop-opacity="1" />
			</linearGradient>
		</defs>
		<path id="Path-11" d="M91.322 95.446 C91.322 95.446 90.308 94.2 89.696 95.226 89.085 96.251 90.223 97.881 90.223 97.881 Z" fill-opacity="1" fill="url(#linear-gradient2-8)" stroke="none" />
		<defs>
			<linearGradient id="linear-gradient2-9" gradientUnits="userSpaceOnUse" x1="66.996" y1="167.697" x2="81.726" y2="167.697">
				<stop offset="0" stop-color="#a04400" stop-opacity="1" />
				<stop offset="0.3" stop-color="#9c4200" stop-opacity="1" />
				<stop offset="0.62" stop-color="#8e3d00" stop-opacity="1" />
				<stop offset="0.95" stop-color="#793300" stop-opacity="1" />
				<stop offset="1" stop-color="#753200" stop-opacity="1" />
			</linearGradient>
		</defs>
		<path id="Path-12" d="M81.71 142.295 L69.899 136.182 C68.111 144.869 67 153.068 67 153.068 L68.978 179.004 69.001 182.589 C69.001 182.589 68.142 186.785 67.708 188.682 67.275 190.579 67.832 192.209 68.095 193.269 68.564 195.131 71.61 198.468 71.61 198.468 71.61 198.468 72.884 199.703 73.159 198.975 73.434 198.248 72.721 196.142 71.998 194.365 71.649 193.517 71.61 191.121 72.16 190.385 72.555 189.866 72.901 189.311 73.194 188.729 73.194 188.729 73.802 190.169 74.189 190.993 74.576 191.818 75.946 192.003 76.306 191.578 76.666 191.152 76.411 191.191 76.062 190.153 75.714 189.116 75.911 187.83 76.062 186.561 76.213 185.291 76.298 184.536 76.062 183.607 75.804 182.726 75.301 181.936 74.61 181.331 74.382 181.172 73.867 178.726 73.867 178.726 73.867 178.726 76.577 160.996 76.577 153.838 76.817 153.076 79.775 146.371 81.71 142.295 Z" fill-opacity="1" fill="url(#linear-gradient2-9)" stroke="none" />
		<path id="Path-13" d="M94.067 247.645 L94.067 248.545 C94.067 249.464 93.321 250.209 92.402 250.209 L85.275 250.209 C84.356 250.209 83.611 249.464 83.611 248.545 L83.611 246.745 C83.611 245.826 84.356 245.08 85.275 245.08 L92.402 245.08 C93.321 245.08 94.067 245.826 94.067 246.745 Z" fill="#443f40" fill-opacity="1" stroke="none" />
		<path id="Path-14" d="M113.658 247.645 L113.658 248.514 C113.658 249.45 112.899 250.209 111.963 250.209 L104.468 250.209 C103.532 250.209 102.773 249.45 102.773 248.514 L102.773 246.776 C102.773 245.839 103.532 245.08 104.468 245.08 L111.963 245.08 C112.899 245.08 113.658 245.839 113.658 246.776 Z" fill="#443f40" fill-opacity="1" stroke="none" />
		<path id="Path-15" d="M91.322 99.468 C91.322 99.849 91.014 100.157 90.633 100.157 90.253 100.157 89.944 99.849 89.944 99.468 89.944 99.088 90.253 98.779 90.633 98.779 91.014 98.779 91.322 99.088 91.322 99.468 Z" fill="#f2f4f6" fill-opacity="1" stroke="none" />
		<path id="Path-16" d="M84.106 257.998 C84.106 257.998 82.36 258.749 85.682 266.441 86.456 268.237 89.975 269.302 93.424 269.209 96.873 269.116 98.337 268.59 98.577 267.633 98.817 266.677 96.765 263.604 96.765 263.604 Z" fill="#fef5ff" fill-opacity="1" stroke="none" />
		<defs>
			<linearGradient id="linear-gradient2-10" gradientUnits="userSpaceOnUse" x1="84.106" y1="259.756" x2="97.663" y2="259.756">
				<stop offset="0" stop-color="#e62a29" stop-opacity="1" />
				<stop offset="0.44" stop-color="#df2532" stop-opacity="1" />
				<stop offset="0.89" stop-color="#d52039" stop-opacity="1" />
			</linearGradient>
		</defs>
		<path id="Path-17" d="M84.137 257.236 C84.137 257.236 84.103 255.602 84.846 255.223 85.19 257.158 86.127 255.652 87.168 254.564 88.086 253.624 88.454 252.846 90.207 252.71 91.961 252.575 92.53 253.999 93.246 254.564 94.547 255.567 94.574 254.975 94.988 256.446 95.356 257.747 96.486 262.496 97.493 264.405 97.738 264.836 97.672 265.377 97.33 265.737 95.7 267.343 92.015 266.759 89.998 266.422 87.71 266.035 85.643 264.61 84.753 261.56 83.862 258.509 84.137 257.236 84.137 257.236 Z" fill-opacity="1" fill="url(#linear-gradient2-10)" stroke="none" />
		<path id="Path-18" d="M102.541 262.009 L102.541 264.211 C102.534 264.995 103.114 265.66 103.892 265.76 105.44 265.977 107.925 266.337 109.272 266.6 111.324 266.987 116.24 268.787 119.001 268.965 121.761 269.143 124.889 269.19 126.274 268.295 127.66 267.401 127.347 265.307 127.347 265.307 Z" fill="#f6ffff" fill-opacity="1" stroke="none" />
		<defs>
			<linearGradient id="linear-gradient2-11" gradientUnits="userSpaceOnUse" x1="102.471" y1="260.286" x2="127.343" y2="260.286">
				<stop offset="0" stop-color="#e32a2b" stop-opacity="1" />
				<stop offset="0.44" stop-color="#de2631" stop-opacity="1" />
				<stop offset="0.89" stop-color="#d61e3b" stop-opacity="1" />
			</linearGradient>
		</defs>
		<path id="Path-19" d="M103.338 256.121 C103.338 256.121 101.91 261.563 102.715 262.369 103.52 263.174 109.54 263.573 111.146 264.598 112.753 265.624 119.31 267.231 122.79 266.964 126.271 266.697 127.254 266.251 127.343 265.315 127.432 264.378 120.421 263.081 119.179 262.163 117.936 261.246 117.17 257.925 115.431 256.81 113.693 255.695 115.044 253.686 113.202 253.597 111.359 253.508 111.862 256.454 109.141 256.632 107.193 256.693 105.245 256.521 103.338 256.121 Z" fill-opacity="1" fill="url(#linear-gradient2-11)" stroke="none" />
		<path id="Path-20" d="M102.572 176.248 C102.75 176.604 102.928 184.223 99.862 190.072" fill="none" stroke="#343434" stroke-width="0.356" stroke-opacity="1" stroke-linejoin="round" />
		<g id="chefhat">
			<path id="Path-21" d="M108.75 52.697 C108.24 52.697 107.708 52.764 107.155 52.867 105.303 50.708 102.561 49.333 99.5 49.333 96.439 49.333 93.697 50.708 91.845 52.867 91.292 52.764 90.76 52.697 90.25 52.697 85.149 52.697 81 56.846 81 61.947 81 65.442 82.971 68.619 86.065 70.19 L86.049 82.898 C86.048 83.815 86.404 84.677 87.052 85.326 87.701 85.976 88.562 86.333 89.48 86.333 L109.524 86.333 C111.416 86.333 112.954 84.794 112.954 82.902 L112.954 70.178 C116.037 68.603 118 65.43 118 61.947 118 56.846 113.85 52.697 108.75 52.697 Z" fill="#303c42" fill-opacity="1" stroke="none" />
			<path id="Path-22" d="M109.524 84.651 L89.48 84.651 C89.012 84.651 88.573 84.469 88.242 84.138 87.912 83.807 87.73 83.368 87.73 82.9 L87.735 79.606 111.273 79.606 111.273 82.902 C111.273 83.866 110.488 84.651 109.524 84.651 Z" fill="#e6e6e6" fill-opacity="1" stroke="none" />
			<path id="Path-23" d="M89.412 82.9 L89.416 79.606 87.735 79.606 87.73 82.9 C87.73 83.368 87.912 83.807 88.242 84.138 88.573 84.469 89.012 84.651 89.48 84.651 L90.911 84.651 C90.511 84.651 90.135 84.469 89.851 84.138 89.568 83.807 89.412 83.368 89.412 82.9 Z" fill="#ffffff" fill-opacity="1" stroke="none" />
			<path id="Path-24" d="M109.591 79.606 L109.591 82.902 C109.591 83.866 108.918 84.651 108.092 84.651 L109.524 84.651 C110.488 84.651 111.273 83.866 111.273 82.902 L111.273 79.606 Z" fill="#000000" fill-opacity="1" stroke="none" />
			<path id="Path-25" d="M111.793 68.869 C111.749 68.887 111.707 68.908 111.668 68.933 111.562 68.999 111.475 69.086 111.41 69.186 111.344 69.286 111.3 69.401 111.282 69.524 111.274 69.571 111.272 69.618 111.273 69.665 L111.273 77.924 87.737 77.924 87.748 69.677 C87.749 69.631 87.746 69.584 87.74 69.539 87.722 69.411 87.675 69.293 87.606 69.19 87.542 69.094 87.459 69.011 87.357 68.947 87.315 68.92 87.271 68.897 87.225 68.878 84.465 67.671 82.682 64.953 82.682 61.947 82.682 57.773 86.077 54.379 90.25 54.379 90.413 54.379 90.585 54.398 90.754 54.412 89.903 55.89 89.409 57.599 89.409 59.424 89.409 59.889 89.785 60.265 90.25 60.265 90.715 60.265 91.091 59.889 91.091 59.424 91.091 54.787 94.863 51.015 99.5 51.015 104.136 51.015 107.909 54.788 107.909 59.424 107.909 59.889 108.285 60.265 108.75 60.265 109.215 60.265 109.591 59.889 109.591 59.424 109.591 57.599 109.096 55.89 108.246 54.412 108.415 54.398 108.587 54.379 108.75 54.379 112.923 54.379 116.318 57.773 116.318 61.947 116.318 64.943 114.543 67.657 111.793 68.869 Z" fill="#f2f2f2" fill-opacity="1" stroke="none" />
			<path id="Path-26" d="M99.5 52.066 C103.361 52.066 106.606 54.512 107.752 57.869 107.019 53.974 103.604 51.015 99.5 51.015 95.396 51.015 91.981 53.974 91.248 57.869 92.394 54.512 95.639 52.066 99.5 52.066 Z" fill="#ffffff" fill-opacity="1" stroke="none" />
			<path id="Path-27" d="M108.75 54.379 C108.587 54.379 108.415 54.398 108.246 54.412 108.252 54.422 108.256 54.434 108.262 54.445 111.677 54.785 114.374 57.999 114.374 61.947 114.374 64.942 112.803 67.657 110.372 68.869 110.333 68.887 110.296 68.908 110.261 68.933 110.167 68.999 110.09 69.086 110.033 69.186 109.975 69.286 109.936 69.401 109.919 69.524 109.913 69.571 109.911 69.618 109.911 69.665 L109.911 77.924 111.273 77.924 111.273 69.665 C111.272 69.618 111.274 69.571 111.282 69.524 111.3 69.401 111.344 69.286 111.41 69.186 111.475 69.086 111.562 68.999 111.668 68.933 111.707 68.908 111.749 68.887 111.793 68.869 114.543 67.657 116.318 64.943 116.318 61.947 116.318 57.773 112.923 54.379 108.75 54.379 Z" fill="#000000" fill-opacity="1" stroke="none" />
			<path id="Path-28" d="M89.099 69.539 C89.083 69.411 89.042 69.293 88.982 69.191 88.925 69.094 88.851 69.011 88.761 68.947 88.724 68.92 88.685 68.897 88.644 68.878 86.203 67.671 84.626 64.953 84.626 61.947 84.626 57.999 87.323 54.785 90.738 54.445 90.744 54.434 90.748 54.422 90.754 54.412 90.585 54.398 90.413 54.379 90.25 54.379 86.077 54.379 82.682 57.773 82.682 61.947 82.682 64.953 84.465 67.671 87.225 68.879 87.271 68.897 87.315 68.92 87.357 68.947 87.459 69.011 87.542 69.094 87.606 69.191 87.675 69.293 87.721 69.411 87.74 69.539 87.746 69.584 87.749 69.631 87.748 69.677 L87.737 77.924 89.097 77.924 89.107 69.677 C89.107 69.631 89.105 69.584 89.099 69.539 Z" fill="#ffffff" fill-opacity="1" stroke="none" />
			<g id="group">
				<path id="Path-29" d="M91.091 66.992 C91.091 66.527 90.715 66.151 90.25 66.151 89.785 66.151 89.409 66.527 89.409 66.992 89.409 69.2 91.845 72.232 92.122 72.571 92.289 72.774 92.53 72.879 92.773 72.879 92.961 72.879 93.15 72.816 93.306 72.688 93.665 72.393 93.717 71.864 93.423 71.504 92.521 70.405 91.091 68.209 91.091 66.992 Z" fill="#303c42" fill-opacity="1" stroke="none" />
				<path id="Path-30" d="M108.75 66.151 C108.285 66.151 107.909 66.527 107.909 66.992 107.909 68.205 106.478 70.403 105.577 71.505 105.283 71.864 105.335 72.393 105.694 72.688 105.85 72.816 106.039 72.879 106.227 72.879 106.47 72.879 106.711 72.774 106.878 72.571 107.155 72.232 109.591 69.2 109.591 66.992 109.591 66.527 109.215 66.151 108.75 66.151 Z" fill="#303c42" fill-opacity="1" stroke="none" />
				<path id="Path-31" d="M99.5 66.151 C99.035 66.151 98.659 66.527 98.659 66.992 L98.659 72.038 C98.659 72.502 99.035 72.879 99.5 72.879 99.965 72.879 100.341 72.502 100.341 72.038 L100.341 66.992 C100.341 66.527 99.965 66.151 99.5 66.151 Z" fill="#303c42" fill-opacity="1" stroke="none" />
			</g>
			<defs>
				<linearGradient id="linear-gradient2-12" gradientUnits="userSpaceOnUse" x1="75.7" y1="98.009" x2="77.357" y2="97.237">
					<stop offset="0" stop-color="#ffffff" stop-opacity="0.2" />
					<stop offset="1" stop-color="#ffffff" stop-opacity="0" />
				</linearGradient>
			</defs>
			<path id="Path-32" d="M108.75 52.697 C108.24 52.697 107.708 52.764 107.155 52.867 105.303 50.708 102.561 49.333 99.5 49.333 96.439 49.333 93.697 50.708 91.845 52.867 91.292 52.764 90.76 52.697 90.25 52.697 85.149 52.697 81 56.846 81 61.947 81 65.442 82.971 68.619 86.065 70.19 L86.049 82.898 C86.048 83.815 86.404 84.677 87.052 85.326 87.701 85.976 88.562 86.333 89.48 86.333 L109.524 86.333 C111.416 86.333 112.954 84.794 112.954 82.902 L112.954 70.178 C116.037 68.603 118 65.43 118 61.947 118 56.846 113.85 52.697 108.75 52.697 Z" fill-opacity="1" fill="url(#linear-gradient2-12)" stroke="none" />
			<g id="group-1" />
			<g id="group-2" />
			<g id="group-3" />
			<g id="group-4" />
			<g id="group-5" />
			<g id="group-6" />
			<g id="group-7" />
			<g id="group-8" />
			<g id="group-9" />
			<g id="group-10" />
			<g id="group-11" />
			<g id="group-12" />
			<g id="group-13" />
			<g id="group-14" />
			<g id="group-15" />
		</g>
	</g>
	<path id="Rounded-Rectangle" d="M138.035 176.628 C134.694 174.684 130.409 175.817 128.465 179.158 L123.435 187.801 C121.491 191.142 122.623 195.427 125.964 197.372 L125.964 197.372 C129.306 199.316 133.591 198.184 135.535 194.842 L140.565 186.199 C142.509 182.858 141.377 178.573 138.035 176.628 Z" fill="#000000" fill-opacity="1" stroke="none" />
	<g id="burger">
		<path id="Path-33" d="M385.617 142.181 L354.586 114.871 C353.52 113.933 351.895 114.036 350.957 115.103 L349.469 116.794 C349.1 117.213 349.141 117.853 349.56 118.222 L382.932 147.592 C383.352 147.961 383.991 147.921 384.361 147.501 L385.849 145.81 C386.787 144.745 386.683 143.12 385.617 142.181 Z M385.617 142.181" fill="#912c2c" fill-opacity="1" stroke="none" />
		<path id="Path-34" d="M385.617 142.181 L383.017 139.893 379.161 144.274 382.932 147.592 C383.352 147.961 383.992 147.921 384.361 147.501 L385.849 145.81 C386.787 144.744 386.683 143.12 385.617 142.181 Z M385.617 142.181" fill="#7c1e1e" fill-opacity="1" stroke="none" />
		<path id="Path-35" d="M388.945 141.018 C389.95 141.903 390.062 143.483 389.141 144.531 387.825 146.029 385.422 145.319 383.696 143.285 382.083 141.385 382.809 140.513 380.935 138.863 379.06 137.214 378.073 138.336 376.198 136.686 374.324 135.037 375.312 133.914 373.438 132.265 371.563 130.616 370.576 131.738 368.701 130.088 366.827 128.439 367.815 127.316 365.94 125.667 364.066 124.017 363.078 125.14 361.204 123.49 359.33 121.84 360.317 120.718 358.443 119.068 356.568 117.419 355.796 118.25 353.706 116.891 351.469 115.438 350.46 113.145 351.778 111.649 352.701 110.602 354.283 110.513 355.288 111.397 Z M388.945 141.018" fill="#a0e557" fill-opacity="1" stroke="none" />
		<path id="Path-36" d="M389.141 144.531 C390.062 143.483 389.95 141.903 388.945 141.018 L386.132 138.542 382.93 142.181 C383.109 142.514 383.348 142.875 383.696 143.285 385.422 145.319 387.825 146.029 389.141 144.531 Z M389.141 144.531" fill="#93cc4a" fill-opacity="1" stroke="none" />
		<path id="Path-37" d="M384.464 148.25 L348.699 116.774 C347.827 116.006 346.497 116.091 345.729 116.964 341.735 121.501 342.177 128.416 346.714 132.409 L369.208 152.206 C373.745 156.199 380.66 155.758 384.653 151.221 385.422 150.348 385.336 149.018 384.464 148.25 Z M384.464 148.25" fill="#efa335" fill-opacity="1" stroke="none" />
		<path id="Path-38" d="M384.464 148.25 L381.522 145.661 378.74 148.821 C375.515 152.486 369.93 152.842 366.265 149.617 L369.207 152.206 C373.745 156.199 380.66 155.758 384.653 151.221 385.422 150.348 385.336 149.018 384.464 148.25 Z M384.464 148.25" fill="#fd8f31" fill-opacity="1" stroke="none" />
		<path id="Path-39" d="M389.41 137.858 L358.379 110.547 C357.313 109.609 357.209 107.985 358.147 106.919 L359.636 105.228 C360.005 104.808 360.644 104.767 361.064 105.137 L394.436 134.507 C394.856 134.876 394.896 135.516 394.527 135.935 L393.039 137.626 C392.101 138.692 390.476 138.796 389.41 137.858 Z M389.41 137.858" fill="#fc4e51" fill-opacity="1" stroke="none" />
		<path id="Path-40" d="M394.436 134.507 L390.679 131.201 387.854 134.411 C387.285 135.058 386.3 135.12 385.653 134.552 L389.41 137.858 C390.476 138.796 392.101 138.692 393.039 137.626 L394.527 135.935 C394.896 135.516 394.856 134.876 394.436 134.507 Z M394.436 134.507" fill="#ea3942" fill-opacity="1" stroke="none" />
		<path id="Path-41" d="M391.363 138.925 L357.108 108.778 C356.332 108.095 355.112 108.15 354.443 108.939 353.795 109.705 353.876 110.852 354.633 111.518 L376.397 130.672 C376.751 130.984 376.981 131.411 377.047 131.877 L377.807 137.242 C378.029 138.809 379.427 139.937 381.005 139.822 L385.526 139.494 C386.055 139.455 386.576 139.631 386.973 139.98 L388.887 141.665 C389.664 142.349 390.883 142.293 391.552 141.504 392.201 140.738 392.12 139.591 391.363 138.925 Z M391.363 138.925" fill="#fccf3f" fill-opacity="1" stroke="none" />
		<path id="Path-42" d="M389.892 106.025 C371.766 90.084 359.903 100.857 358.414 102.55 357.646 103.423 357.73 104.753 358.603 105.521 L394.367 136.997 C395.24 137.765 396.57 137.68 397.339 136.807 398.828 135.114 408.007 121.98 389.892 106.025 Z M389.892 106.025" fill="#efa335" fill-opacity="1" stroke="none" />
		<path id="Path-43" d="M397.378 136.762 C397.382 136.757 397.387 136.751 397.391 136.746 397.401 136.735 397.411 136.723 397.421 136.711 397.426 136.705 397.431 136.699 397.436 136.693 397.446 136.681 397.457 136.668 397.468 136.654 397.473 136.648 397.478 136.642 397.483 136.636 397.495 136.621 397.507 136.606 397.519 136.591 397.524 136.585 397.528 136.58 397.532 136.574 397.547 136.556 397.562 136.538 397.577 136.518 397.579 136.515 397.582 136.512 397.584 136.508 397.678 136.388 397.785 136.245 397.899 136.082 397.9 136.082 397.9 136.081 397.9 136.081 400.255 132.735 406.382 120.548 389.892 106.025 389.107 105.335 388.334 104.695 387.572 104.102 397.972 114.421 397.226 123.36 395.281 128.467 394.462 130.616 391.739 131.273 390.013 129.754 L360.294 103.599 C359.644 103.026 359.431 102.141 359.684 101.366 359.055 101.877 358.627 102.307 358.414 102.55 357.646 103.423 357.73 104.753 358.603 105.521 L394.367 136.997 C395.24 137.765 396.57 137.68 397.339 136.807 397.351 136.793 397.364 136.778 397.378 136.762 Z M397.378 136.762" fill="#fd8f31" fill-opacity="1" stroke="none" />
		<path id="Path-44" d="M391.363 138.925 L388.225 136.164 385.279 139.512 385.526 139.493 C386.054 139.455 386.576 139.631 386.973 139.98 L388.887 141.665 C389.664 142.349 390.883 142.293 391.552 141.504 392.201 140.738 392.12 139.591 391.363 138.925 Z M391.363 138.925" fill="#efc03c" fill-opacity="1" stroke="none" />
	</g>
	<g id="recipebook">
		<path id="Rounded-Rectangle-1" d="M191.5 178 C187.911 178 185 180.911 185 184.5 L185 327.5 C185 331.089 187.911 334 191.5 334 195.089 334 198 331.089 198 327.5 L198 184.5 C198 180.911 195.089 178 191.5 178 Z" fill="#656d78" fill-opacity="1" stroke="none" />
		<path id="Rectangle" d="M191.5 321 L315 321 315 178 191.5 178 Z" fill="#3a8ee1" fill-opacity="1" stroke="none" />
		<path id="Rounded-Rectangle-1" d="M225.95 192.3 C217.694 192.3 211 198.994 211 207.25 211 215.506 217.694 222.2 225.95 222.2 L280.55 222.2 C288.806 222.2 295.5 215.506 295.5 207.25 295.5 198.994 288.806 192.3 280.55 192.3 Z" fill="#eaecdd" fill-opacity="1" stroke="none" />
		<path id="Rectangle-1" d="M191.5 334 L315 334 315 331.4 191.5 331.4 Z" fill="#3a8ee1" fill-opacity="1" stroke="none" />
		<path id="Rectangle-2" d="M309.8 331.4 L315 331.4 315 321 309.8 321 Z" fill="#2c70b4" fill-opacity="1" stroke="none" />
		<path id="Ellipse" d="M200.6 326.2 C200.6 323.328 197.689 321 194.1 321 190.51 321 187.6 323.328 187.6 326.2 187.6 329.072 190.51 331.4 194.1 331.4 197.689 331.4 200.6 329.072 200.6 326.2 Z" fill="#e7e9ed" fill-opacity="1" stroke="none" />
		<path id="Rectangle-3" d="M192.8 331.4 L312.4 331.4 312.4 321 192.8 321 Z" fill="#e7e9ed" fill-opacity="1" stroke="none" />
		<path id="Line" d="M198 327.5 L300.7 327.5" fill="none" stroke="#9ea2ab" stroke-width="1.142" stroke-opacity="1" stroke-linejoin="round" />
		<defs>
			<text id="string2" transform="matrix(1.0 0.0 0.0 1.0 216.3269528 198.7)" text-decoration="none" font-family="Helvetica, Helvetica" x="1.0" font-size="20.8" y="16.0">
				Recipes
			</text>
		</defs>
		<use id="Recipes" xlink:href="#string2" fill="#5b5b5b" fill-opacity="1" stroke="none" />
	</g>
	<g id="taco">
		<path id="Path-45" d="M382.161 374.414 C375.195 357.967 356.216 350.281 339.769 357.246 323.322 364.211 315.635 383.19 322.6 399.638 324.309 403.673 328.966 405.559 333 403.85 L385.255 381.72 Z M382.161 374.414" fill="#efd176" fill-opacity="1" stroke="none" />
		<path id="Path-46" d="M340.208 371.097 L331.644 362.64 C329.475 360.497 330.602 356.8 333.598 356.231 L339.054 355.197 C340.148 354.989 341.095 354.311 341.643 353.342 L343.677 349.745 C344.841 347.687 347.586 347.189 349.399 348.707 L351.328 350.321 C353.043 351.758 355.624 351.4 356.883 349.551 L360.169 344.726 C361.827 342.293 365.507 342.602 366.735 345.278 L372.338 357.49 Z M340.208 371.097" fill="#89d47f" fill-opacity="1" stroke="none" />
		<path id="Path-47" d="M342.429 351.951 L341.643 353.342 C341.095 354.311 340.148 354.989 339.054 355.197 L333.598 356.231 C330.601 356.799 329.475 360.497 331.644 362.64 L340.208 371.097 353.837 365.325 C348.686 362.693 344.176 357.237 342.429 351.951 Z M342.429 351.951" fill="#5ec783" fill-opacity="1" stroke="none" />
		<path id="Path-48" d="M350.109 382.948 C349.475 381.453 348.568 380.155 347.467 379.074 347.739 378.616 347.989 378.141 348.207 377.644 339.784 378.806 327.466 375.838 326.63 364.631 325.531 365.758 324.615 367.085 323.958 368.585 321.827 373.448 322.994 378.742 326.479 382.168 324.491 385.508 324.034 389.603 325.609 393.323 328.318 399.718 335.997 402.58 342.763 399.715 349.528 396.85 352.817 389.344 350.109 382.948 Z M350.109 382.948" fill="#886449" fill-opacity="1" stroke="none" />
		<path id="Ellipse-1" d="M345.121 366.893 C342.771 361.343 336.06 358.879 330.132 361.39 324.203 363.9 321.303 370.434 323.653 375.984 326.004 381.534 332.715 383.998 338.643 381.487 344.571 378.977 347.472 372.443 345.121 366.893 Z" fill="#ea3942" fill-opacity="1" stroke="none" />
		<path id="Path-49" d="M392.561 378.626 C396.596 376.917 398.482 372.261 396.773 368.226 389.807 351.779 370.828 344.093 354.381 351.058 337.934 358.023 330.247 377.002 337.213 393.449 338.921 397.485 337.036 402.141 333 403.85 Z M392.561 378.626" fill="#f7ef87" fill-opacity="1" stroke="none" />
		<path id="Path-50" d="M349.792 353.448 C336.566 361.731 330.932 378.619 337.213 393.449 338.921 397.485 337.036 402.141 333 403.85 L374.093 386.447 C362.003 381.828 350.254 365.635 349.792 353.448 Z M349.792 353.448" fill="#efd176" fill-opacity="1" stroke="none" />
		<path id="Path-51" d="M380.845 378.955 C380.559 379.077 380.226 379.088 379.915 378.962 379.292 378.71 378.992 378.002 379.245 377.38 L381.542 371.707 C381.794 371.084 382.502 370.784 383.125 371.036 383.747 371.288 384.047 371.997 383.795 372.619 L381.498 378.292 C381.372 378.603 381.132 378.834 380.845 378.955 Z M380.845 378.955" fill="#efd176" fill-opacity="1" stroke="none" />
		<path id="Path-52" d="M369.631 383.704 C369.345 383.826 369.012 383.837 368.701 383.711 368.078 383.459 367.778 382.751 368.031 382.129 L370.328 376.456 C370.58 375.833 371.289 375.533 371.911 375.785 372.533 376.037 372.833 376.746 372.582 377.368 L370.284 383.041 C370.158 383.352 369.918 383.583 369.631 383.704 Z M369.631 383.704" fill="#efd176" fill-opacity="1" stroke="none" />
		<path id="Path-53" d="M358.417 388.453 C358.131 388.575 357.799 388.586 357.487 388.46 356.865 388.208 356.565 387.5 356.817 386.877 L359.115 381.205 C359.367 380.582 360.076 380.282 360.698 380.534 361.32 380.786 361.62 381.495 361.368 382.117 L359.07 387.79 C358.944 388.101 358.704 388.332 358.417 388.453 Z M358.417 388.453" fill="#f7ef87" fill-opacity="1" stroke="none" />
		<path id="Path-54" d="M363.511 354.944 C363.784 355.59 363.482 356.335 362.836 356.609 362.19 356.882 361.445 356.581 361.171 355.935 360.898 355.289 361.199 354.543 361.845 354.269 362.492 353.996 363.237 354.298 363.511 354.944 Z M363.511 354.944" fill="#efd176" fill-opacity="1" stroke="none" />
		<path id="Path-55" d="M346.066 385.304 C345.792 384.658 345.047 384.356 344.401 384.629 343.755 384.903 343.453 385.649 343.726 386.295 344 386.941 344.746 387.243 345.392 386.969 346.037 386.696 346.339 385.95 346.066 385.304 Z M346.066 385.304" fill="#f7ef87" fill-opacity="1" stroke="none" />
		<path id="Path-56" d="M391.138 369.566 C390.454 369.721 390.025 370.402 390.179 371.086 390.334 371.77 391.014 372.199 391.698 372.045 392.383 371.89 392.812 371.209 392.658 370.526 392.502 369.841 391.823 369.412 391.138 369.566 Z M391.138 369.566" fill="#efd176" fill-opacity="1" stroke="none" />
	</g>
	<g id="rice">
		<path id="Path-57" d="M127.764 387.129 L129.904 383.387 C130.075 383.089 130.12 382.736 130.03 382.405 129.94 382.074 129.722 381.792 129.424 381.622 129.126 381.452 128.907 381.171 128.817 380.84 128.727 380.509 128.772 380.155 128.943 379.858 L129.371 379.109 C129.542 378.812 129.587 378.458 129.497 378.127 129.407 377.796 129.189 377.515 128.891 377.345 L127.896 376.776 C127.379 376.482 127.132 375.872 127.298 375.302 L127.748 373.682 C127.812 373.462 127.785 373.226 127.673 373.026 127.562 372.826 127.376 372.679 127.155 372.618 126.479 372.429 125.911 371.971 125.582 371.351 125.254 370.731 125.193 370.004 125.416 369.338 L125.612 368.735 125.641 368.633 124.662 365.272 C124.382 364.93 124.043 364.642 123.66 364.421 L122.477 363.744 C121.886 363.407 121.407 362.902 121.103 362.293 L121.068 362.233 117.184 360.011 C116.139 359.81 115.248 359.131 114.776 358.177 114.397 357.424 113.805 356.799 113.074 356.379 L112.752 356.195 C112.253 355.907 111.643 355.891 111.129 356.151 110.609 356.411 110.008 356.453 109.457 356.269 108.907 356.084 108.452 355.688 108.195 355.168 108.092 354.973 107.937 354.812 107.746 354.702 107.486 354.552 107.177 354.512 106.887 354.589 L105.828 354.877 C105.561 354.953 105.307 355.068 105.075 355.221 104.306 355.729 103.316 355.761 102.514 355.305 101.584 354.775 100.401 355.097 99.868 356.026 99.672 356.37 99.298 356.572 98.904 356.547 L96.96 356.439 C96.188 356.4 95.46 356.796 95.072 357.464 94.927 357.717 94.666 357.88 94.376 357.9 L93.124 357.989 C92.259 358.045 91.48 358.533 91.051 359.286 L90.884 359.578 C90.646 359.99 90.121 360.133 89.707 359.898 89.294 359.663 88.768 359.806 88.531 360.218 L86.605 363.586 Z" fill="#ecf0f1" fill-opacity="1" stroke="none" />
		<path id="Path-58" d="M128.449 387.302 L127.767 387.835 C123.059 391.515 117.365 393.716 111.407 394.16 110.879 394.196 110.337 394.224 109.804 394.236 L109.796 394.232 108.893 395.811 C108.68 396.188 108.325 396.463 107.907 396.577 107.49 396.691 107.044 396.633 106.67 396.416 L88.545 386.049 C88.169 385.835 87.894 385.48 87.781 385.063 87.667 384.646 87.724 384.201 87.939 383.826 L88.842 382.247 C88.583 381.78 88.335 381.311 88.103 380.831 85.458 375.468 84.464 369.442 85.246 363.514 L85.359 362.655 C85.298 362.401 85.394 362.136 85.602 361.979 85.81 361.822 86.092 361.804 86.319 361.932 L128.586 386.109 C128.813 386.238 128.941 386.49 128.912 386.75 128.882 387.01 128.7 387.228 128.449 387.302 Z" fill="#b0d3f0" fill-opacity="1" stroke="none" />
		<g id="group-16">
			<path id="Path-59" d="M111.512 391.239 C111.178 391.049 111.011 390.66 111.101 390.286 111.192 389.913 111.52 389.645 111.904 389.629 L111.908 389.629 C115.677 389.52 119.333 388.32 122.432 386.173 122.811 385.885 123.352 385.959 123.64 386.339 123.927 386.718 123.853 387.259 123.474 387.546 120.08 389.904 116.075 391.226 111.945 391.352 111.793 391.353 111.644 391.314 111.512 391.239 Z" fill="#90bae1" fill-opacity="1" stroke="none" />
			<path id="Path-60" d="M99.319 388.239 C99.082 388.651 98.556 388.794 98.143 388.56 L88.414 382.995 88.842 382.247 C88.583 381.78 88.335 381.311 88.103 380.83 L98.999 387.063 C99.411 387.3 99.554 387.826 99.319 388.239 Z" fill="#90bae1" fill-opacity="1" stroke="none" />
			<path id="Path-61" d="M111.407 394.16 C110.879 394.196 110.337 394.224 109.804 394.236 L109.796 394.232 109.368 394.98 107.123 393.696 C106.71 393.46 106.566 392.933 106.803 392.52 107.039 392.106 107.566 391.963 107.979 392.2 Z" fill="#90bae1" fill-opacity="1" stroke="none" />
		</g>
		<path id="Path-62" d="M103.276 365.226 L117.184 360.011 132.365 354.323 C133.255 353.992 134.244 354.444 134.577 355.333 134.909 356.222 134.459 357.212 133.571 357.546 L121.068 362.233 107.957 367.148 106.454 367.709" fill="#af8066" fill-opacity="1" stroke="none" />
		<path id="Path-63" d="M105.994 367.367 L107.957 367.148 124.662 365.272 139.021 363.663 C139.475 363.609 139.931 363.739 140.289 364.024 140.646 364.309 140.875 364.724 140.925 365.179 140.979 365.633 140.849 366.089 140.564 366.447 140.279 366.804 139.863 367.033 139.409 367.083 L125.641 368.633 112.417 370.116 112.405 370.12" fill="#7f5b53" fill-opacity="1" stroke="none" />
		<path id="Path-64" d="M114.489 373.871 C114.341 373.787 114.222 373.661 114.146 373.508 L113.128 371.47 C113.012 371.24 112.798 371.077 112.546 371.025 L111.24 370.763 C110.698 370.653 110.206 370.371 109.836 369.959 L108.949 368.967 C108.777 368.776 108.527 368.674 108.271 368.691 L107.384 368.752 C106.168 368.832 105.063 368.046 104.741 366.871 104.659 366.566 104.411 366.334 104.1 366.273 L103.143 366.081 C102.477 365.95 101.891 365.557 101.517 364.991 101.318 364.691 100.95 364.552 100.603 364.646 L99.429 364.966 C98.97 365.091 98.496 364.82 98.371 364.361 98.246 363.901 98.517 363.427 98.976 363.302 L100.15 362.983 C101.212 362.693 102.34 363.116 102.95 364.032 103.072 364.218 103.264 364.347 103.482 364.391 L104.439 364.582 C105.39 364.77 106.153 365.482 106.404 366.418 106.51 366.801 106.87 367.057 107.266 367.031 L108.152 366.971 C108.94 366.915 109.709 367.228 110.234 367.818 L111.121 368.81 C111.242 368.945 111.402 369.037 111.579 369.072 L112.885 369.334 C113.66 369.488 114.319 369.992 114.671 370.699 L115.689 372.738 C115.859 373.078 115.786 373.489 115.509 373.75 115.233 374.011 114.819 374.06 114.489 373.871 Z" fill="#bdc3c7" fill-opacity="1" stroke="none" />
		<g id="group-17" />
		<g id="group-18" />
		<g id="group-19" />
		<g id="group-20" />
		<g id="group-21" />
		<g id="group-22" />
		<g id="group-23" />
		<g id="group-24" />
		<g id="group-25" />
		<g id="group-26" />
		<g id="group-27" />
		<g id="group-28" />
		<g id="group-29" />
		<g id="group-30" />
		<g id="group-31" />
	</g>
</svg>
