<?xml version="1.0" encoding="UTF-8"?>
<svg preserveAspectRatio="none" viewBox="0 0 512 512" xmlns="http://www.w3.org/2000/svg" xmlns:xlink="http://www.w3.org/1999/xlink" version="1.1">
	<g id="New-Group">
		<g id="Man">
			<defs>
				<linearGradient id="linear-gradient9" gradientUnits="userSpaceOnUse" x1="-5489.708" y1="3111.409" x2="-5505.247" y2="3084.122">
					<stop offset="0" stop-color="#753200" stop-opacity="1" />
					<stop offset="1" stop-color="#a04400" stop-opacity="1" />
				</linearGradient>
			</defs>
			<path id="Path" d="M268.966 454.941 L270.154 471.548 268.683 482.204 265.821 484.751 253.814 481.145 250.855 476.577 252.278 455.563 Z" fill-opacity="1" fill="url(#linear-gradient9)" stroke="none" />
			<defs>
				<linearGradient id="linear-gradient9-1" gradientUnits="userSpaceOnUse" x1="-5314.679" y1="3316.563" x2="-5327.729" y2="3293.633">
					<stop offset="0" stop-color="#753200" stop-opacity="1" />
					<stop offset="1" stop-color="#a04400" stop-opacity="1" />
				</linearGradient>
			</defs>
			<path id="Path-1" d="M228.597 455.685 L229.963 464.215 231.531 476.164 227.529 480.393 215.248 477.83 211.917 473.537 213.599 457.164 Z" fill-opacity="1" fill="url(#linear-gradient9-1)" stroke="none" />
			<path id="Path-2" d="M280.859 389.499 C282.153 382.611 284.902 374.315 283.349 367.475 278.854 347.497 271.682 303.311 267.608 289.098 265.627 282.185 246.974 276.161 230.925 275.506 230.858 276.41 230.841 277.317 230.877 278.223 223.875 276.606 214.949 275.846 206.702 275.506 205.085 294.676 209.984 383.516 209.984 383.516 L212.685 459.161 229.874 459.493 C229.874 459.493 239.981 334.334 243.619 333.938 247.257 333.542 255.852 378.115 255.456 384.26 L250.855 458.49 270.583 458.345 Z" fill="#000000" fill-opacity="1" stroke="none" />
			<defs>
				<linearGradient id="linear-gradient9-2" gradientUnits="userSpaceOnUse" x1="181.096" y1="236.002" x2="290.513" y2="236.002">
					<stop offset="0" stop-color="#ee3219" stop-opacity="1" />
					<stop offset="0.44" stop-color="#e82d27" stop-opacity="1" />
					<stop offset="0.89" stop-color="#d51f3a" stop-opacity="1" />
				</linearGradient>
			</defs>
			<path id="Path-3" d="M274.909 180.95 C267.414 174.094 239.431 169.518 232.712 169.429 220.867 169.275 201.398 173.908 194.372 181.718 189.189 187.483 184.532 204.842 181.088 221.4 L205.724 234.159 C207.381 230.69 208.691 228.135 209.127 227.691 205.521 247.904 203.969 272.757 204.058 293.666 238.145 297.36 250.952 312.714 268.869 291.838 L268.125 221.562 269.233 236.115 290.473 229.647 C288.193 208.504 283.641 188.938 274.909 180.95 Z" fill-opacity="1" fill="url(#linear-gradient9-2)" stroke="none" />
			<defs>
				<linearGradient id="linear-gradient9-3" gradientUnits="userSpaceOnUse" x1="269.265" y1="283.664" x2="306.287" y2="283.664">
					<stop offset="0" stop-color="#a04400" stop-opacity="1" />
					<stop offset="0.3" stop-color="#9c4200" stop-opacity="1" />
					<stop offset="0.62" stop-color="#8e3d00" stop-opacity="1" />
					<stop offset="0.95" stop-color="#793300" stop-opacity="1" />
					<stop offset="1" stop-color="#753200" stop-opacity="1" />
				</linearGradient>
			</defs>
			<path id="Path-4" d="M305.98 324.43 C305.301 322.101 305.568 321.349 302.592 318.212 299.617 315.075 293.238 308.001 293.238 308.001 293.238 308.001 290.642 301.185 290.812 298.468 291.621 287.375 293.44 257.121 290.456 229.679 L269.217 236.148 270.623 254.598 C270.623 254.598 281.263 311.372 281.005 311.938 280.367 313.878 280.294 315.958 280.795 317.937 281.409 319.983 282.412 321.317 284.15 323.597 285.888 325.877 287.732 328.092 288.233 330.469 288.734 332.846 288.233 333.065 289.373 333.477 290.513 333.889 292.955 331.981 292.769 329.968 292.583 327.955 292.122 324.511 292.122 324.511 293.329 325.308 294.606 325.992 295.938 326.556 297.871 327.252 299.312 328.891 299.754 330.898 300.361 335.135 300.522 336.42 301.856 337.455 303.191 338.49 304.282 334.714 304.282 334.714 304.282 334.714 307.201 328.513 305.98 324.43 Z" fill-opacity="1" fill="url(#linear-gradient9-3)" stroke="none" />
			<defs>
				<linearGradient id="linear-gradient9-4" gradientUnits="userSpaceOnUse" x1="-5705.485" y1="965.528" x2="-5700.27" y2="965.528">
					<stop offset="0" stop-color="#753200" stop-opacity="1" />
					<stop offset="1" stop-color="#a04400" stop-opacity="1" />
				</linearGradient>
			</defs>
			<path id="Path-5" d="M220.382 135.236 C219.315 133.32 217.868 127.96 217.188 126.343 219.986 126.173 223.18 129.779 223.656 132.237 222.937 132.342 221.037 134.582 220.382 135.236 Z" fill-opacity="1" fill="url(#linear-gradient9-4)" stroke="none" />
			<defs>
				<linearGradient id="linear-gradient9-5" gradientUnits="userSpaceOnUse" x1="-5762.639" y1="1004.345" x2="-5723.733" y2="982.111">
					<stop offset="0" stop-color="#753200" stop-opacity="1" />
					<stop offset="1" stop-color="#a04400" stop-opacity="1" />
				</linearGradient>
			</defs>
			<path id="Path-6" d="M238.566 178.694 C243.053 178.672 246.967 175.642 248.114 171.304 248.319 170.054 248.363 168.782 248.244 167.521 L248.195 166.162 248.155 164.909 248.106 163.373 C248.817 163.324 249.525 163.232 250.224 163.098 255.722 162.039 264.252 158.053 266.532 148.973 268.149 142.642 265.489 137.023 265.247 133.361 265.004 129.698 266.346 127.014 266.775 122.85 267.333 117.546 264.842 111.086 262.174 109.687 250.135 103.332 229.429 111.054 229.429 111.054 229.429 111.054 222.549 114.587 226.195 129.14 225.443 128.704 227.052 131.727 226.05 131.566 224.291 131.222 222.468 131.649 221.045 132.738 218.498 134.945 218.757 139.942 224.368 146.531 L224.562 146.766 C224.815 148.145 224.98 149.538 225.055 150.938 225.055 151.148 225.055 151.366 225.104 151.585 225.266 154.164 225.484 157.511 225.686 160.737 225.977 165.402 226.042 169.429 226.098 170.989 226.22 174.854 230.602 178.969 238.566 178.694 Z" fill-opacity="1" fill="url(#linear-gradient9-5)" stroke="none" />
			<defs>
				<linearGradient id="linear-gradient9-6" gradientUnits="userSpaceOnUse" x1="-5734.761" y1="965.318" x2="-5711.888" y2="950.538">
					<stop offset="0" stop-color="#a04400" stop-opacity="0" />
					<stop offset="0.18" stop-color="#9a4100" stop-opacity="0.14" />
					<stop offset="0.52" stop-color="#8a3b00" stop-opacity="0.52" />
					<stop offset="0.9" stop-color="#753200" stop-opacity="1" />
				</linearGradient>
			</defs>
			<path id="Path-7" d="M226.179 129.173 C222.541 114.619 229.413 111.086 229.413 111.086 229.413 111.086 250.119 103.365 262.158 109.72 264.042 110.706 264.519 113.536 265.077 115.945 260.226 112.501 250.904 114.595 243.49 115.266 239.94 115.589 241.767 119.309 240.789 119.535 232.825 118.597 227.853 122.882 229.971 133.927 L226.115 131.622 C226.931 131.558 225.451 128.768 226.179 129.172 Z" fill-opacity="1" fill="url(#linear-gradient9-6)" stroke="none" />
			<path id="Path-8" d="M216.703 125.591 C216.097 123.036 216.048 120.214 216.17 116.349 216.42 108.014 221.085 103.607 229.171 100.47 L236.989 97.956 C237.7 97.729 250.92 94.099 257.889 96.533 260.509 97.446 264.244 100.187 264.648 102.427 265.683 108.143 266.403 111.175 265.942 115.767 260.897 104.634 257.388 119.527 240.417 110.528 237.272 108.863 238.695 114.571 237.717 114.789 228.726 113.738 223.576 119.317 228.055 133.749 225.629 132.884 223.923 131.816 222.557 131.905 220.511 130.135 217.043 126.933 216.703 125.591 Z" fill="#1d0d01" fill-opacity="1" stroke="none" />
			<defs>
				<linearGradient id="linear-gradient9-7" gradientUnits="userSpaceOnUse" x1="-5703.051" y1="986.057" x2="-5723.062" y2="1005.696">
					<stop offset="0" stop-color="#a04400" stop-opacity="1" />
					<stop offset="1" stop-color="#753200" stop-opacity="1" />
				</linearGradient>
			</defs>
			<path id="Path-9" d="M225.128 151.633 C230.323 159.635 238.767 164.955 248.227 166.187 L248.187 164.933 248.139 163.397 C248.849 163.348 249.557 163.256 250.257 163.122 245.236 160.276 231.24 152.199 224.384 146.604 L224.578 146.839 C224.832 148.217 224.996 149.611 225.071 151.011 225.063 151.197 225.08 151.407 225.128 151.633 Z" fill-opacity="1" fill="url(#linear-gradient9-7)" stroke="none" />
			<path id="Path-10" d="M226.47 133.369 C226.147 133.126 225.193 132.56 225.193 132.56 L225.282 129.714 229.623 131.517 C230.462 131.864 231.029 132.658 231.087 133.563 L231.709 143.483 C237.676 145.699 251.664 152.676 254.033 152.603 257.04 152.515 257.267 148.69 259.029 149.224 260.792 149.757 260.97 151.989 262.061 151.779 262.627 151.666 265.885 148.609 266.791 146.798 266.791 146.798 266.12 153.339 265.926 154.503 265.481 157.204 261.01 163.357 261.01 163.357 260.563 164.031 259.828 164.461 259.021 164.521 L251.987 165.047 248.106 163.583 C242.746 161.764 229.446 153.072 229.114 151.577 227.149 142.901 229.672 135.811 226.47 133.369 Z" fill="#1d0d01" fill-opacity="1" stroke="none" />
			<defs>
				<linearGradient id="linear-gradient9-8" gradientUnits="userSpaceOnUse" x1="-5702.962" y1="972.223" x2="-5705.542" y2="974.762">
					<stop offset="0" stop-color="#753200" stop-opacity="1" />
					<stop offset="1" stop-color="#a04400" stop-opacity="1" />
				</linearGradient>
			</defs>
			<path id="Path-11" d="M225.799 136.312 C225.799 136.312 223.681 133.708 222.403 135.851 221.126 137.993 223.503 141.397 223.503 141.397 Z" fill-opacity="1" fill="url(#linear-gradient9-8)" stroke="none" />
			<defs>
				<linearGradient id="linear-gradient9-9" gradientUnits="userSpaceOnUse" x1="174.992" y1="287.214" x2="205.756" y2="287.214">
					<stop offset="0" stop-color="#a04400" stop-opacity="1" />
					<stop offset="0.3" stop-color="#9c4200" stop-opacity="1" />
					<stop offset="0.62" stop-color="#8e3d00" stop-opacity="1" />
					<stop offset="0.95" stop-color="#793300" stop-opacity="1" />
					<stop offset="1" stop-color="#753200" stop-opacity="1" />
				</linearGradient>
			</defs>
			<path id="Path-12" d="M205.724 234.159 L181.056 221.392 C177.32 239.535 175 256.66 175 256.66 L179.131 310.83 179.18 318.317 C179.18 318.317 177.385 327.082 176.479 331.043 175.574 335.005 176.738 338.409 177.288 340.624 178.266 344.513 184.629 351.483 184.629 351.483 184.629 351.483 187.289 354.062 187.863 352.542 188.438 351.022 186.95 346.624 185.438 342.913 184.71 341.142 184.629 336.137 185.777 334.601 186.602 333.516 187.324 332.358 187.936 331.141 187.936 331.141 189.206 334.148 190.014 335.87 190.823 337.592 193.685 337.981 194.437 337.091 195.189 336.202 194.655 336.283 193.927 334.116 193.2 331.949 193.612 329.265 193.927 326.613 194.243 323.961 194.421 322.384 193.927 320.444 193.388 318.604 192.337 316.955 190.895 315.69 190.418 315.358 189.343 310.248 189.343 310.248 189.343 310.248 195.003 273.218 195.003 258.269 195.504 256.676 201.681 242.672 205.724 234.159 Z" fill-opacity="1" fill="url(#linear-gradient9-9)" stroke="none" />
			<path id="Path-13" d="M231.531 454.193 L231.531 456.073 C231.531 457.993 229.975 459.549 228.055 459.549 L213.17 459.549 C211.25 459.549 209.693 457.993 209.693 456.073 L209.693 452.313 C209.693 450.393 211.25 448.837 213.17 448.837 L228.055 448.837 C229.975 448.837 231.531 450.393 231.531 452.313 Z" fill="#443f40" fill-opacity="1" stroke="none" />
			<path id="Path-14" d="M272.451 454.193 L272.451 456.008 C272.451 457.964 270.865 459.549 268.909 459.549 L253.256 459.549 C251.301 459.549 249.715 457.964 249.715 456.008 L249.715 452.378 C249.715 450.422 251.301 448.837 253.256 448.837 L268.909 448.837 C270.865 448.837 272.451 450.422 272.451 452.378 Z" fill="#443f40" fill-opacity="1" stroke="none" />
			<path id="Path-15" d="M225.799 144.712 C225.799 145.507 225.155 146.151 224.36 146.151 223.565 146.151 222.921 145.507 222.921 144.712 222.921 143.917 223.565 143.273 224.36 143.273 225.155 143.273 225.799 143.917 225.799 144.712 Z" fill="#f2f4f6" fill-opacity="1" stroke="none" />
			<path id="Path-16" d="M210.728 475.817 C210.728 475.817 207.082 477.385 214.019 493.451 215.636 497.202 222.985 499.426 230.189 499.231 237.393 499.037 240.449 497.938 240.951 495.941 241.452 493.944 237.167 487.524 237.167 487.524 Z" fill="#fef5ff" fill-opacity="1" stroke="none" />
			<defs>
				<linearGradient id="linear-gradient9-10" gradientUnits="userSpaceOnUse" x1="210.728" y1="479.487" x2="239.043" y2="479.487">
					<stop offset="0" stop-color="#e62a29" stop-opacity="1" />
					<stop offset="0.44" stop-color="#df2532" stop-opacity="1" />
					<stop offset="0.89" stop-color="#d52039" stop-opacity="1" />
				</linearGradient>
			</defs>
			<path id="Path-17" d="M210.793 474.224 C210.793 474.224 210.72 470.812 212.273 470.02 212.992 474.062 214.949 470.917 217.124 468.645 219.04 466.681 219.808 465.055 223.471 464.772 227.133 464.49 228.322 467.465 229.817 468.645 232.534 470.739 232.591 469.502 233.456 472.575 234.224 475.291 236.585 485.212 238.687 489.198 239.198 490.099 239.06 491.228 238.347 491.979 234.943 495.334 227.246 494.114 223.034 493.41 218.256 492.602 213.938 489.626 212.079 483.255 210.219 476.884 210.793 474.224 210.793 474.224 Z" fill-opacity="1" fill="url(#linear-gradient9-10)" stroke="none" />
			<path id="Path-18" d="M249.23 484.193 L249.23 488.793 C249.217 490.43 250.428 491.819 252.052 492.028 255.286 492.48 260.476 493.232 263.29 493.782 267.575 494.591 277.844 498.35 283.608 498.722 289.373 499.094 295.906 499.191 298.8 497.323 301.695 495.456 301.04 491.082 301.04 491.082 Z" fill="#f6ffff" fill-opacity="1" stroke="none" />
			<defs>
				<linearGradient id="linear-gradient9-11" gradientUnits="userSpaceOnUse" x1="249.085" y1="480.595" x2="301.032" y2="480.595">
					<stop offset="0" stop-color="#e32a2b" stop-opacity="1" />
					<stop offset="0.44" stop-color="#de2631" stop-opacity="1" />
					<stop offset="0.89" stop-color="#d61e3b" stop-opacity="1" />
				</linearGradient>
			</defs>
			<path id="Path-19" d="M250.896 471.896 C250.896 471.896 247.912 483.263 249.594 484.945 251.276 486.627 263.848 487.459 267.203 489.602 270.559 491.745 284.255 495.1 291.524 494.542 298.792 493.984 300.846 493.054 301.032 491.098 301.218 489.141 286.575 486.433 283.98 484.516 281.385 482.6 279.784 475.663 276.154 473.335 272.523 471.006 275.345 466.81 271.497 466.624 267.648 466.438 268.699 472.591 263.015 472.963 258.947 473.091 254.879 472.732 250.896 471.896 Z" fill-opacity="1" fill="url(#linear-gradient9-11)" stroke="none" />
			<path id="Path-20" d="M249.295 305.074 C249.667 305.818 250.038 321.729 243.635 333.946" fill="none" stroke="#343434" stroke-width="0.744" stroke-opacity="1" stroke-linejoin="round" />
			<g id="chefhat">
				<path id="Path-21" d="M262.199 47.025 C261.134 47.025 260.022 47.166 258.867 47.381 254.999 42.871 249.273 40 242.879 40 236.486 40 230.76 42.871 226.891 47.38 225.736 47.166 224.624 47.025 223.56 47.025 212.907 47.025 204.24 55.692 204.24 66.345 204.24 73.644 208.357 80.28 214.819 83.562 L214.785 110.103 C214.783 112.019 215.528 113.82 216.881 115.175 218.236 116.532 220.035 117.278 221.951 117.278 L263.814 117.278 C267.766 117.278 270.98 114.064 270.98 110.112 L270.98 83.536 C277.419 80.246 281.518 73.62 281.518 66.345 281.518 55.692 272.852 47.025 262.199 47.025 Z" fill="#303c42" fill-opacity="1" stroke="none" />
				<path id="Path-22" d="M263.814 113.765 L221.951 113.765 C220.975 113.765 220.057 113.385 219.366 112.693 218.677 112.002 218.296 111.085 218.298 110.107 L218.307 103.227 267.468 103.227 267.468 110.112 C267.468 112.126 265.828 113.765 263.814 113.765 Z" fill="#e6e6e6" fill-opacity="1" stroke="none" />
				<path id="Path-23" d="M221.81 110.107 L221.818 103.227 218.307 103.227 218.298 110.107 C218.296 111.085 218.677 112.002 219.366 112.693 220.057 113.385 220.975 113.765 221.951 113.765 L224.942 113.765 C224.105 113.765 223.319 113.384 222.726 112.693 222.135 112.002 221.809 111.085 221.81 110.107 Z" fill="#ffffff" fill-opacity="1" stroke="none" />
				<path id="Path-24" d="M263.955 103.227 L263.955 110.112 C263.955 112.126 262.55 113.766 260.824 113.766 L263.814 113.766 C265.828 113.766 267.468 112.126 267.468 110.112 L267.468 103.227 Z" fill="#000000" fill-opacity="1" stroke="none" />
				<path id="Path-25" d="M268.555 80.802 C268.462 80.839 268.375 80.884 268.293 80.937 268.071 81.074 267.89 81.256 267.754 81.465 267.617 81.673 267.524 81.913 267.486 82.17 267.471 82.268 267.466 82.366 267.468 82.465 L267.468 99.715 218.311 99.715 218.334 82.489 C218.335 82.393 218.33 82.296 218.317 82.201 218.279 81.935 218.181 81.688 218.039 81.474 217.905 81.273 217.73 81.098 217.517 80.964 217.43 80.91 217.337 80.862 217.241 80.822 211.477 78.301 207.753 72.624 207.753 66.345 207.753 57.628 214.843 50.538 223.56 50.538 223.9 50.538 224.26 50.579 224.613 50.607 222.836 53.695 221.803 57.264 221.803 61.076 221.803 62.047 222.589 62.832 223.56 62.832 224.531 62.832 225.316 62.047 225.316 61.076 225.316 51.392 233.195 43.513 242.879 43.513 252.563 43.513 260.442 51.392 260.442 61.076 260.442 62.047 261.228 62.832 262.199 62.832 263.17 62.832 263.955 62.047 263.955 61.076 263.955 57.264 262.922 53.695 261.146 50.607 261.498 50.579 261.858 50.538 262.199 50.538 270.915 50.538 278.005 57.628 278.005 66.345 278.005 72.602 274.297 78.272 268.555 80.802 Z" fill="#f2f2f2" fill-opacity="1" stroke="none" />
				<path id="Path-26" d="M242.879 45.708 C250.943 45.708 257.72 50.817 260.114 57.827 258.583 49.694 251.451 43.513 242.879 43.513 234.308 43.513 227.176 49.694 225.645 57.827 228.038 50.817 234.816 45.708 242.879 45.708 Z" fill="#ffffff" fill-opacity="1" stroke="none" />
				<path id="Path-27" d="M262.199 50.538 C261.858 50.538 261.498 50.579 261.146 50.607 261.158 50.63 261.167 50.654 261.18 50.677 268.313 51.386 273.944 58.099 273.944 66.345 273.944 72.601 270.665 78.272 265.586 80.802 265.505 80.839 265.427 80.884 265.354 80.937 265.159 81.074 264.998 81.256 264.878 81.465 264.757 81.673 264.675 81.913 264.641 82.17 264.628 82.268 264.623 82.366 264.625 82.465 L264.625 99.714 267.468 99.714 267.468 82.465 C267.466 82.366 267.471 82.268 267.487 82.17 267.524 81.913 267.617 81.673 267.754 81.465 267.89 81.256 268.071 81.074 268.293 80.937 268.375 80.884 268.463 80.839 268.555 80.802 274.297 78.272 278.005 72.602 278.005 66.345 278.005 57.628 270.915 50.538 262.199 50.538 Z" fill="#000000" fill-opacity="1" stroke="none" />
				<path id="Path-28" d="M221.156 82.201 C221.123 81.935 221.037 81.688 220.911 81.474 220.792 81.273 220.638 81.099 220.45 80.965 220.372 80.91 220.29 80.862 220.205 80.822 215.107 78.301 211.814 72.624 211.814 66.345 211.814 58.099 217.446 51.386 224.578 50.677 224.591 50.654 224.6 50.63 224.613 50.607 224.26 50.579 223.9 50.538 223.56 50.538 214.843 50.538 207.753 57.628 207.753 66.345 207.753 72.624 211.476 78.301 217.241 80.822 217.337 80.862 217.43 80.91 217.517 80.965 217.73 81.099 217.905 81.274 218.039 81.474 218.181 81.689 218.279 81.936 218.317 82.202 218.33 82.296 218.336 82.394 218.334 82.49 L218.311 99.715 221.152 99.715 221.172 82.49 C221.173 82.394 221.169 82.296 221.156 82.201 Z" fill="#ffffff" fill-opacity="1" stroke="none" />
				<g id="group">
					<path id="Path-29" d="M225.316 76.883 C225.316 75.912 224.531 75.126 223.56 75.126 222.589 75.126 221.803 75.912 221.803 76.883 221.803 81.495 226.891 87.827 227.47 88.536 227.818 88.958 228.323 89.177 228.83 89.177 229.221 89.177 229.616 89.047 229.943 88.779 230.693 88.163 230.801 87.057 230.187 86.306 228.304 84.011 225.316 79.425 225.316 76.883 Z" fill="#303c42" fill-opacity="1" stroke="none" />
					<path id="Path-30" d="M262.199 75.126 C261.228 75.126 260.442 75.912 260.442 76.883 260.442 79.416 257.454 84.007 255.571 86.307 254.957 87.057 255.067 88.163 255.817 88.779 256.143 89.047 256.537 89.177 256.93 89.177 257.437 89.177 257.94 88.958 258.288 88.535 258.868 87.827 263.955 81.495 263.955 76.883 263.955 75.912 263.17 75.126 262.199 75.126 Z" fill="#303c42" fill-opacity="1" stroke="none" />
					<path id="Path-31" d="M242.879 75.126 C241.908 75.126 241.123 75.912 241.123 76.883 L241.123 87.421 C241.123 88.391 241.908 89.177 242.879 89.177 243.85 89.177 244.636 88.391 244.636 87.421 L244.636 76.883 C244.635 75.912 243.85 75.126 242.879 75.126 Z" fill="#303c42" fill-opacity="1" stroke="none" />
				</g>
				<defs>
					<linearGradient id="linear-gradient9-12" gradientUnits="userSpaceOnUse" x1="193.17" y1="141.665" x2="196.631" y2="140.051">
						<stop offset="0" stop-color="#ffffff" stop-opacity="0.2" />
						<stop offset="1" stop-color="#ffffff" stop-opacity="0" />
					</linearGradient>
				</defs>
				<path id="Path-32" d="M262.199 47.025 C261.134 47.025 260.022 47.166 258.867 47.381 254.999 42.871 249.273 40 242.879 40 236.486 40 230.76 42.871 226.891 47.38 225.736 47.166 224.624 47.025 223.56 47.025 212.907 47.025 204.24 55.692 204.24 66.345 204.24 73.644 208.357 80.28 214.819 83.562 L214.785 110.103 C214.783 112.019 215.528 113.82 216.881 115.175 218.236 116.532 220.035 117.278 221.951 117.278 L263.814 117.278 C267.766 117.278 270.98 114.064 270.98 110.112 L270.98 83.536 C277.419 80.246 281.518 73.62 281.518 66.345 281.518 55.692 272.852 47.025 262.199 47.025 Z" fill-opacity="1" fill="url(#linear-gradient9-12)" stroke="none" />
				<g id="group-1" />
				<g id="group-2" />
				<g id="group-3" />
				<g id="group-4" />
				<g id="group-5" />
				<g id="group-6" />
				<g id="group-7" />
				<g id="group-8" />
				<g id="group-9" />
				<g id="group-10" />
				<g id="group-11" />
				<g id="group-12" />
				<g id="group-13" />
				<g id="group-14" />
				<g id="group-15" />
			</g>
		</g>
		<g id="recipebook">
			<path id="Rounded-Rectangle" d="M333.508 330.626 C333.75 330.153 333.563 329.572 333.089 329.33 L314.221 319.67 C313.748 319.428 313.167 319.615 312.925 320.089 312.682 320.562 312.87 321.143 313.343 321.385 L332.211 331.045 C332.685 331.287 333.265 331.1 333.508 330.626 Z" fill="#656d78" fill-opacity="1" stroke="none" />
			<path id="Rectangle-3" d="M313.18 320.436 L305.101 336.216 306.473 336.919 314.552 321.138 Z" fill="#e7e9ed" fill-opacity="1" stroke="none" />
			<path id="Ellipse" d="M313.339 321.816 C313.718 322.01 314.222 321.783 314.464 321.31 314.707 320.836 314.596 320.295 314.217 320.101 313.839 319.907 313.335 320.134 313.092 320.607 312.85 321.081 312.96 321.622 313.339 321.816 Z" fill="#e7e9ed" fill-opacity="1" stroke="none" />
			<path id="Line" d="M313.343 321.385 L306.406 334.936" fill="none" stroke="#9ea2ab" stroke-width="0.446" stroke-opacity="1" stroke-linejoin="round" />
			<path id="Rectangle-1" d="M312.925 320.089 L304.582 336.383 304.926 336.559 313.268 320.264 Z" fill="#3a8ee1" fill-opacity="1" stroke="none" />
			<path id="Rectangle-2" d="M305.277 335.873 L304.926 336.559 306.298 337.262 306.649 336.575 Z" fill="#2c70b4" fill-opacity="1" stroke="none" />
			<path id="Rectangle" d="M314.64 320.967 L306.298 337.262 325.165 346.921 333.508 330.626 Z" fill="#3a8ee1" fill-opacity="1" stroke="none" />
			<path id="Rounded-Rectangle-1" d="M329.294 334.206 C329.852 333.116 329.421 331.781 328.331 331.223 327.242 330.666 325.906 331.097 325.349 332.186 L321.661 339.39 C321.103 340.479 321.534 341.815 322.623 342.372 323.713 342.93 325.048 342.499 325.606 341.41 Z" fill="#eaecdd" fill-opacity="1" stroke="none" />
			<defs>
				<text id="string9" transform="matrix(-0.4557102346795117 0.8901281829087001 -0.8901281829087001 -0.4557102346795117 329.8327621139394 330.947742733764)" text-decoration="none" font-family="Helvetica, Helvetica" x="1.0" font-size="3.083" y="2.0">
					Recipes
				</text>
			</defs>
			<use id="Recipes" xlink:href="#string9" fill="#5b5b5b" fill-opacity="1" stroke="none" />
		</g>
		<path id="Rounded-Rectangle-1" d="M323.364 305.868 C316.385 301.807 307.436 304.172 303.375 311.151 L292.87 329.203 C288.809 336.182 291.174 345.132 298.153 349.193 L298.153 349.193 C305.132 353.254 314.081 350.889 318.142 343.91 L328.647 325.858 C332.708 318.879 330.343 309.929 323.364 305.868 Z" fill="#000000" fill-opacity="1" stroke="none" />
	</g>
</svg>
