<?xml version="1.0" encoding="UTF-8"?>
<svg preserveAspectRatio="none" viewBox="0 0 512 512" xmlns="http://www.w3.org/2000/svg" xmlns:xlink="http://www.w3.org/1999/xlink" version="1.1">
	<g id="Man">
		<defs>
			<linearGradient id="linear-gradient1" gradientUnits="userSpaceOnUse" x1="-2645.21" y1="1519.896" x2="-2652.65" y2="1506.831">
				<stop offset="0" stop-color="#753200" stop-opacity="1" />
				<stop offset="1" stop-color="#a04400" stop-opacity="1" />
			</linearGradient>
		</defs>
		<path id="Path" d="M111.99 248.003 L112.559 255.954 111.854 261.056 110.484 262.276 104.735 260.549 103.319 258.362 104 248.301 Z" fill-opacity="1" fill="url(#linear-gradient1)" stroke="none" />
		<defs>
			<linearGradient id="linear-gradient1-1" gradientUnits="userSpaceOnUse" x1="-2561.408" y1="1618.121" x2="-2567.656" y2="1607.143">
				<stop offset="0" stop-color="#753200" stop-opacity="1" />
				<stop offset="1" stop-color="#a04400" stop-opacity="1" />
			</linearGradient>
		</defs>
		<path id="Path-1" d="M92.661 248.359 L93.316 252.443 94.067 258.165 92.151 260.189 86.27 258.962 84.675 256.906 85.481 249.068 Z" fill-opacity="1" fill="url(#linear-gradient1-1)" stroke="none" />
		<path id="Path-2" d="M117.684 216.67 C118.304 213.372 119.62 209.4 118.877 206.125 116.724 196.56 113.291 175.404 111.34 168.599 110.391 165.289 101.461 162.405 93.776 162.091 93.744 162.524 93.736 162.958 93.753 163.392 90.401 162.618 86.127 162.254 82.179 162.091 81.404 171.27 83.75 213.806 83.75 213.806 L85.043 250.024 93.273 250.182 C93.273 250.182 98.112 190.258 99.854 190.068 101.596 189.878 105.711 211.22 105.521 214.162 L103.319 249.702 112.764 249.633 Z" fill="#000000" fill-opacity="1" stroke="none" />
		<defs>
			<linearGradient id="linear-gradient1-2" gradientUnits="userSpaceOnUse" x1="69.919" y1="143.177" x2="122.307" y2="143.177">
				<stop offset="0" stop-color="#ee3219" stop-opacity="1" />
				<stop offset="0.44" stop-color="#e82d27" stop-opacity="1" />
				<stop offset="0.89" stop-color="#d51f3a" stop-opacity="1" />
			</linearGradient>
		</defs>
		<path id="Path-3" d="M114.835 116.819 C111.247 113.536 97.849 111.345 94.632 111.302 88.961 111.229 79.639 113.447 76.275 117.187 73.794 119.947 71.564 128.258 69.915 136.186 L81.71 142.295 C82.504 140.634 83.131 139.411 83.34 139.198 81.613 148.875 80.87 160.775 80.913 170.786 97.233 172.555 103.365 179.906 111.943 169.911 L111.587 136.263 112.118 143.231 122.287 140.134 C121.196 130.011 119.016 120.643 114.835 116.819 Z" fill-opacity="1" fill="url(#linear-gradient1-2)" stroke="none" />
		<defs>
			<linearGradient id="linear-gradient1-3" gradientUnits="userSpaceOnUse" x1="112.133" y1="165.997" x2="129.859" y2="165.997">
				<stop offset="0" stop-color="#a04400" stop-opacity="1" />
				<stop offset="0.3" stop-color="#9c4200" stop-opacity="1" />
				<stop offset="0.62" stop-color="#8e3d00" stop-opacity="1" />
				<stop offset="0.95" stop-color="#793300" stop-opacity="1" />
				<stop offset="1" stop-color="#753200" stop-opacity="1" />
			</linearGradient>
		</defs>
		<path id="Path-4" d="M129.712 185.516 C129.387 184.401 129.515 184.041 128.09 182.539 126.665 181.037 123.611 177.649 123.611 177.649 123.611 177.649 122.368 174.386 122.45 173.085 122.837 167.774 123.708 153.288 122.279 140.15 L112.11 143.247 112.784 152.081 C112.784 152.081 117.878 179.264 117.754 179.535 117.449 180.463 117.414 181.459 117.653 182.407 117.948 183.386 118.428 184.025 119.26 185.117 120.092 186.208 120.975 187.269 121.215 188.407 121.455 189.545 121.215 189.65 121.761 189.847 122.307 190.045 123.476 189.131 123.386 188.167 123.297 187.203 123.077 185.554 123.077 185.554 123.655 185.936 124.266 186.264 124.904 186.534 125.83 186.867 126.52 187.652 126.731 188.612 127.021 190.641 127.099 191.256 127.738 191.752 128.376 192.247 128.899 190.44 128.899 190.44 128.899 190.44 130.297 187.47 129.712 185.515 Z" fill-opacity="1" fill="url(#linear-gradient1-3)" stroke="none" />
		<defs>
			<linearGradient id="linear-gradient1-4" gradientUnits="userSpaceOnUse" x1="-2748.522" y1="492.468" x2="-2746.025" y2="492.468">
				<stop offset="0" stop-color="#753200" stop-opacity="1" />
				<stop offset="1" stop-color="#a04400" stop-opacity="1" />
			</linearGradient>
		</defs>
		<path id="Path-5" d="M88.729 94.932 C88.218 94.014 87.525 91.448 87.199 90.673 88.539 90.592 90.068 92.318 90.296 93.495 89.952 93.546 89.042 94.618 88.728 94.932 Z" fill-opacity="1" fill="url(#linear-gradient1-4)" stroke="none" />
		<defs>
			<linearGradient id="linear-gradient1-5" gradientUnits="userSpaceOnUse" x1="-2775.887" y1="511.053" x2="-2757.259" y2="500.407">
				<stop offset="0" stop-color="#753200" stop-opacity="1" />
				<stop offset="1" stop-color="#a04400" stop-opacity="1" />
			</linearGradient>
		</defs>
		<path id="Path-6" d="M97.435 115.739 C99.583 115.728 101.457 114.277 102.006 112.2 102.104 111.602 102.125 110.993 102.068 110.389 L102.045 109.738 102.026 109.138 102.003 108.403 C102.343 108.379 102.682 108.335 103.017 108.271 105.649 107.764 109.733 105.856 110.825 101.508 111.599 98.477 110.325 95.787 110.209 94.033 110.093 92.28 110.736 90.995 110.941 89.001 111.208 86.461 110.016 83.368 108.738 82.699 102.974 79.656 93.06 83.353 93.06 83.353 93.06 83.353 89.766 85.045 91.512 92.013 91.152 91.804 91.922 93.251 91.442 93.174 90.6 93.009 89.727 93.214 89.046 93.735 87.827 94.792 87.95 97.184 90.637 100.339 L90.73 100.452 C90.851 101.112 90.93 101.779 90.966 102.449 90.966 102.55 90.966 102.654 90.989 102.759 91.067 103.994 91.171 105.596 91.268 107.141 91.407 109.375 91.438 111.302 91.465 112.05 91.523 113.9 93.622 115.87 97.435 115.739 Z" fill-opacity="1" fill="url(#linear-gradient1-5)" stroke="none" />
		<defs>
			<linearGradient id="linear-gradient1-6" gradientUnits="userSpaceOnUse" x1="-2762.539" y1="492.367" x2="-2751.588" y2="485.29">
				<stop offset="0" stop-color="#a04400" stop-opacity="0" />
				<stop offset="0.18" stop-color="#9a4100" stop-opacity="0.14" />
				<stop offset="0.52" stop-color="#8a3b00" stop-opacity="0.52" />
				<stop offset="0.9" stop-color="#753200" stop-opacity="1" />
			</linearGradient>
		</defs>
		<path id="Path-7" d="M91.504 92.028 C89.762 85.06 93.052 83.368 93.052 83.368 93.052 83.368 102.966 79.672 108.73 82.714 109.632 83.187 109.861 84.541 110.128 85.695 107.805 84.046 103.342 85.048 99.792 85.37 98.093 85.525 98.968 87.305 98.499 87.414 94.686 86.965 92.305 89.016 93.32 94.304 L91.473 93.201 C91.864 93.17 91.156 91.834 91.504 92.028 Z" fill-opacity="1" fill="url(#linear-gradient1-6)" stroke="none" />
		<path id="Path-8" d="M86.967 90.313 C86.677 89.09 86.654 87.739 86.712 85.889 86.832 81.897 89.065 79.788 92.936 78.286 L96.68 77.082 C97.02 76.973 103.35 75.235 106.687 76.4 107.941 76.838 109.729 78.15 109.923 79.222 110.418 81.959 110.763 83.411 110.542 85.61 108.127 80.279 106.447 87.41 98.321 83.101 96.815 82.304 97.497 85.037 97.028 85.141 92.724 84.638 90.258 87.309 92.402 94.219 91.241 93.805 90.424 93.294 89.77 93.337 88.79 92.489 87.13 90.956 86.967 90.313 Z" fill="#1d0d01" fill-opacity="1" stroke="none" />
		<defs>
			<linearGradient id="linear-gradient1-7" gradientUnits="userSpaceOnUse" x1="-2747.357" y1="502.296" x2="-2756.938" y2="511.699">
				<stop offset="0" stop-color="#a04400" stop-opacity="1" />
				<stop offset="1" stop-color="#753200" stop-opacity="1" />
			</linearGradient>
		</defs>
		<path id="Path-9" d="M91.001 102.782 C93.488 106.613 97.531 109.16 102.061 109.75 L102.041 109.15 102.018 108.415 C102.358 108.391 102.697 108.347 103.032 108.283 100.628 106.92 93.927 103.053 90.645 100.374 L90.738 100.486 C90.859 101.147 90.938 101.814 90.974 102.484 90.97 102.573 90.978 102.674 91.001 102.782 Z" fill-opacity="1" fill="url(#linear-gradient1-7)" stroke="none" />
		<path id="Path-10" d="M91.643 94.037 C91.489 93.921 91.032 93.65 91.032 93.65 L91.074 92.287 93.153 93.151 C93.554 93.317 93.826 93.697 93.854 94.13 L94.152 98.88 C97.009 99.941 103.706 103.281 104.84 103.247 106.28 103.204 106.389 101.373 107.232 101.628 108.076 101.884 108.161 102.952 108.684 102.852 108.955 102.797 110.515 101.334 110.949 100.467 110.949 100.467 110.627 103.599 110.534 104.156 110.322 105.449 108.181 108.395 108.181 108.395 107.967 108.718 107.615 108.924 107.229 108.953 L103.861 109.204 102.003 108.504 C99.436 107.633 93.068 103.471 92.909 102.755 91.969 98.601 93.176 95.206 91.643 94.037 Z" fill="#1d0d01" fill-opacity="1" stroke="none" />
		<defs>
			<linearGradient id="linear-gradient1-8" gradientUnits="userSpaceOnUse" x1="-2747.314" y1="495.673" x2="-2748.549" y2="496.888">
				<stop offset="0" stop-color="#753200" stop-opacity="1" />
				<stop offset="1" stop-color="#a04400" stop-opacity="1" />
			</linearGradient>
		</defs>
		<path id="Path-11" d="M91.322 95.446 C91.322 95.446 90.308 94.2 89.696 95.226 89.085 96.251 90.223 97.881 90.223 97.881 Z" fill-opacity="1" fill="url(#linear-gradient1-8)" stroke="none" />
		<defs>
			<linearGradient id="linear-gradient1-9" gradientUnits="userSpaceOnUse" x1="66.996" y1="167.697" x2="81.726" y2="167.697">
				<stop offset="0" stop-color="#a04400" stop-opacity="1" />
				<stop offset="0.3" stop-color="#9c4200" stop-opacity="1" />
				<stop offset="0.62" stop-color="#8e3d00" stop-opacity="1" />
				<stop offset="0.95" stop-color="#793300" stop-opacity="1" />
				<stop offset="1" stop-color="#753200" stop-opacity="1" />
			</linearGradient>
		</defs>
		<path id="Path-12" d="M81.71 142.295 L69.899 136.182 C68.111 144.869 67 153.068 67 153.068 L68.978 179.004 69.001 182.589 C69.001 182.589 68.142 186.785 67.708 188.682 67.275 190.579 67.832 192.209 68.095 193.269 68.564 195.131 71.61 198.468 71.61 198.468 71.61 198.468 72.884 199.703 73.159 198.975 73.434 198.248 72.721 196.142 71.998 194.365 71.649 193.517 71.61 191.121 72.16 190.385 72.555 189.866 72.901 189.311 73.194 188.729 73.194 188.729 73.802 190.169 74.189 190.993 74.576 191.818 75.946 192.003 76.306 191.578 76.666 191.152 76.411 191.191 76.062 190.153 75.714 189.116 75.911 187.83 76.062 186.561 76.213 185.291 76.298 184.536 76.062 183.607 75.804 182.726 75.301 181.936 74.61 181.331 74.382 181.172 73.867 178.726 73.867 178.726 73.867 178.726 76.577 160.996 76.577 153.838 76.817 153.076 79.775 146.371 81.71 142.295 Z" fill-opacity="1" fill="url(#linear-gradient1-9)" stroke="none" />
		<path id="Path-13" d="M94.067 247.645 L94.067 248.545 C94.067 249.464 93.321 250.209 92.402 250.209 L85.275 250.209 C84.356 250.209 83.611 249.464 83.611 248.545 L83.611 246.745 C83.611 245.826 84.356 245.08 85.275 245.08 L92.402 245.08 C93.321 245.08 94.067 245.826 94.067 246.745 Z" fill="#443f40" fill-opacity="1" stroke="none" />
		<path id="Path-14" d="M113.658 247.645 L113.658 248.514 C113.658 249.45 112.899 250.209 111.963 250.209 L104.468 250.209 C103.532 250.209 102.773 249.45 102.773 248.514 L102.773 246.776 C102.773 245.839 103.532 245.08 104.468 245.08 L111.963 245.08 C112.899 245.08 113.658 245.839 113.658 246.776 Z" fill="#443f40" fill-opacity="1" stroke="none" />
		<path id="Path-15" d="M91.322 99.468 C91.322 99.849 91.014 100.157 90.633 100.157 90.253 100.157 89.944 99.849 89.944 99.468 89.944 99.088 90.253 98.779 90.633 98.779 91.014 98.779 91.322 99.088 91.322 99.468 Z" fill="#f2f4f6" fill-opacity="1" stroke="none" />
		<path id="Path-16" d="M84.106 257.998 C84.106 257.998 82.36 258.749 85.682 266.441 86.456 268.237 89.975 269.302 93.424 269.209 96.873 269.116 98.337 268.59 98.577 267.633 98.817 266.677 96.765 263.604 96.765 263.604 Z" fill="#fef5ff" fill-opacity="1" stroke="none" />
		<defs>
			<linearGradient id="linear-gradient1-10" gradientUnits="userSpaceOnUse" x1="84.106" y1="259.756" x2="97.663" y2="259.756">
				<stop offset="0" stop-color="#e62a29" stop-opacity="1" />
				<stop offset="0.44" stop-color="#df2532" stop-opacity="1" />
				<stop offset="0.89" stop-color="#d52039" stop-opacity="1" />
			</linearGradient>
		</defs>
		<path id="Path-17" d="M84.137 257.236 C84.137 257.236 84.103 255.602 84.846 255.223 85.19 257.158 86.127 255.652 87.168 254.564 88.086 253.624 88.454 252.846 90.207 252.71 91.961 252.575 92.53 253.999 93.246 254.564 94.547 255.567 94.574 254.975 94.988 256.446 95.356 257.747 96.486 262.496 97.493 264.405 97.738 264.836 97.672 265.377 97.33 265.737 95.7 267.343 92.015 266.759 89.998 266.422 87.71 266.035 85.643 264.61 84.753 261.56 83.862 258.509 84.137 257.236 84.137 257.236 Z" fill-opacity="1" fill="url(#linear-gradient1-10)" stroke="none" />
		<path id="Path-18" d="M102.541 262.009 L102.541 264.211 C102.534 264.995 103.114 265.66 103.892 265.76 105.44 265.977 107.925 266.337 109.272 266.6 111.324 266.987 116.24 268.787 119.001 268.965 121.761 269.143 124.889 269.19 126.274 268.295 127.66 267.401 127.347 265.307 127.347 265.307 Z" fill="#f6ffff" fill-opacity="1" stroke="none" />
		<defs>
			<linearGradient id="linear-gradient1-11" gradientUnits="userSpaceOnUse" x1="102.471" y1="260.286" x2="127.343" y2="260.286">
				<stop offset="0" stop-color="#e32a2b" stop-opacity="1" />
				<stop offset="0.44" stop-color="#de2631" stop-opacity="1" />
				<stop offset="0.89" stop-color="#d61e3b" stop-opacity="1" />
			</linearGradient>
		</defs>
		<path id="Path-19" d="M103.338 256.121 C103.338 256.121 101.91 261.563 102.715 262.369 103.52 263.174 109.54 263.573 111.146 264.598 112.753 265.624 119.31 267.231 122.79 266.964 126.271 266.697 127.254 266.251 127.343 265.315 127.432 264.378 120.421 263.081 119.179 262.163 117.936 261.246 117.17 257.925 115.431 256.81 113.693 255.695 115.044 253.686 113.202 253.597 111.359 253.508 111.862 256.454 109.141 256.632 107.193 256.693 105.245 256.521 103.338 256.121 Z" fill-opacity="1" fill="url(#linear-gradient1-11)" stroke="none" />
		<path id="Path-20" d="M102.572 176.248 C102.75 176.604 102.928 184.223 99.862 190.072" fill="none" stroke="#343434" stroke-width="0.356" stroke-opacity="1" stroke-linejoin="round" />
		<g id="chefhat">
			<path id="Path-21" d="M108.75 52.697 C108.24 52.697 107.708 52.764 107.155 52.867 105.303 50.708 102.561 49.333 99.5 49.333 96.439 49.333 93.697 50.708 91.845 52.867 91.292 52.764 90.76 52.697 90.25 52.697 85.149 52.697 81 56.846 81 61.947 81 65.442 82.971 68.619 86.065 70.19 L86.049 82.898 C86.048 83.815 86.404 84.677 87.052 85.326 87.701 85.976 88.562 86.333 89.48 86.333 L109.524 86.333 C111.416 86.333 112.954 84.794 112.954 82.902 L112.954 70.178 C116.037 68.603 118 65.43 118 61.947 118 56.846 113.85 52.697 108.75 52.697 Z" fill="#303c42" fill-opacity="1" stroke="none" />
			<path id="Path-22" d="M109.524 84.651 L89.48 84.651 C89.012 84.651 88.573 84.469 88.242 84.138 87.912 83.807 87.73 83.368 87.73 82.9 L87.735 79.606 111.273 79.606 111.273 82.902 C111.273 83.866 110.488 84.651 109.524 84.651 Z" fill="#e6e6e6" fill-opacity="1" stroke="none" />
			<path id="Path-23" d="M89.412 82.9 L89.416 79.606 87.735 79.606 87.73 82.9 C87.73 83.368 87.912 83.807 88.242 84.138 88.573 84.469 89.012 84.651 89.48 84.651 L90.911 84.651 C90.511 84.651 90.135 84.469 89.851 84.138 89.568 83.807 89.412 83.368 89.412 82.9 Z" fill="#ffffff" fill-opacity="1" stroke="none" />
			<path id="Path-24" d="M109.591 79.606 L109.591 82.902 C109.591 83.866 108.918 84.651 108.092 84.651 L109.524 84.651 C110.488 84.651 111.273 83.866 111.273 82.902 L111.273 79.606 Z" fill="#000000" fill-opacity="1" stroke="none" />
			<path id="Path-25" d="M111.793 68.869 C111.749 68.887 111.707 68.908 111.668 68.933 111.562 68.999 111.475 69.086 111.41 69.186 111.344 69.286 111.3 69.401 111.282 69.524 111.274 69.571 111.272 69.618 111.273 69.665 L111.273 77.924 87.737 77.924 87.748 69.677 C87.749 69.631 87.746 69.584 87.74 69.539 87.722 69.411 87.675 69.293 87.606 69.19 87.542 69.094 87.459 69.011 87.357 68.947 87.315 68.92 87.271 68.897 87.225 68.878 84.465 67.671 82.682 64.953 82.682 61.947 82.682 57.773 86.077 54.379 90.25 54.379 90.413 54.379 90.585 54.398 90.754 54.412 89.903 55.89 89.409 57.599 89.409 59.424 89.409 59.889 89.785 60.265 90.25 60.265 90.715 60.265 91.091 59.889 91.091 59.424 91.091 54.787 94.863 51.015 99.5 51.015 104.136 51.015 107.909 54.788 107.909 59.424 107.909 59.889 108.285 60.265 108.75 60.265 109.215 60.265 109.591 59.889 109.591 59.424 109.591 57.599 109.096 55.89 108.246 54.412 108.415 54.398 108.587 54.379 108.75 54.379 112.923 54.379 116.318 57.773 116.318 61.947 116.318 64.943 114.543 67.657 111.793 68.869 Z" fill="#f2f2f2" fill-opacity="1" stroke="none" />
			<path id="Path-26" d="M99.5 52.066 C103.361 52.066 106.606 54.512 107.752 57.869 107.019 53.974 103.604 51.015 99.5 51.015 95.396 51.015 91.981 53.974 91.248 57.869 92.394 54.512 95.639 52.066 99.5 52.066 Z" fill="#ffffff" fill-opacity="1" stroke="none" />
			<path id="Path-27" d="M108.75 54.379 C108.587 54.379 108.415 54.398 108.246 54.412 108.252 54.422 108.256 54.434 108.262 54.445 111.677 54.785 114.374 57.999 114.374 61.947 114.374 64.942 112.803 67.657 110.372 68.869 110.333 68.887 110.296 68.908 110.261 68.933 110.167 68.999 110.09 69.086 110.033 69.186 109.975 69.286 109.936 69.401 109.919 69.524 109.913 69.571 109.911 69.618 109.911 69.665 L109.911 77.924 111.273 77.924 111.273 69.665 C111.272 69.618 111.274 69.571 111.282 69.524 111.3 69.401 111.344 69.286 111.41 69.186 111.475 69.086 111.562 68.999 111.668 68.933 111.707 68.908 111.749 68.887 111.793 68.869 114.543 67.657 116.318 64.943 116.318 61.947 116.318 57.773 112.923 54.379 108.75 54.379 Z" fill="#000000" fill-opacity="1" stroke="none" />
			<path id="Path-28" d="M89.099 69.539 C89.083 69.411 89.042 69.293 88.982 69.191 88.925 69.094 88.851 69.011 88.761 68.947 88.724 68.92 88.685 68.897 88.644 68.878 86.203 67.671 84.626 64.953 84.626 61.947 84.626 57.999 87.323 54.785 90.738 54.445 90.744 54.434 90.748 54.422 90.754 54.412 90.585 54.398 90.413 54.379 90.25 54.379 86.077 54.379 82.682 57.773 82.682 61.947 82.682 64.953 84.465 67.671 87.225 68.879 87.271 68.897 87.315 68.92 87.357 68.947 87.459 69.011 87.542 69.094 87.606 69.191 87.675 69.293 87.721 69.411 87.74 69.539 87.746 69.584 87.749 69.631 87.748 69.677 L87.737 77.924 89.097 77.924 89.107 69.677 C89.107 69.631 89.105 69.584 89.099 69.539 Z" fill="#ffffff" fill-opacity="1" stroke="none" />
			<g id="group">
				<path id="Path-29" d="M91.091 66.992 C91.091 66.527 90.715 66.151 90.25 66.151 89.785 66.151 89.409 66.527 89.409 66.992 89.409 69.2 91.845 72.232 92.122 72.571 92.289 72.774 92.53 72.879 92.773 72.879 92.961 72.879 93.15 72.816 93.306 72.688 93.665 72.393 93.717 71.864 93.423 71.504 92.521 70.405 91.091 68.209 91.091 66.992 Z" fill="#303c42" fill-opacity="1" stroke="none" />
				<path id="Path-30" d="M108.75 66.151 C108.285 66.151 107.909 66.527 107.909 66.992 107.909 68.205 106.478 70.403 105.577 71.505 105.283 71.864 105.335 72.393 105.694 72.688 105.85 72.816 106.039 72.879 106.227 72.879 106.47 72.879 106.711 72.774 106.878 72.571 107.155 72.232 109.591 69.2 109.591 66.992 109.591 66.527 109.215 66.151 108.75 66.151 Z" fill="#303c42" fill-opacity="1" stroke="none" />
				<path id="Path-31" d="M99.5 66.151 C99.035 66.151 98.659 66.527 98.659 66.992 L98.659 72.038 C98.659 72.502 99.035 72.879 99.5 72.879 99.965 72.879 100.341 72.502 100.341 72.038 L100.341 66.992 C100.341 66.527 99.965 66.151 99.5 66.151 Z" fill="#303c42" fill-opacity="1" stroke="none" />
			</g>
			<defs>
				<linearGradient id="linear-gradient1-12" gradientUnits="userSpaceOnUse" x1="75.7" y1="98.009" x2="77.357" y2="97.237">
					<stop offset="0" stop-color="#ffffff" stop-opacity="0.2" />
					<stop offset="1" stop-color="#ffffff" stop-opacity="0" />
				</linearGradient>
			</defs>
			<path id="Path-32" d="M108.75 52.697 C108.24 52.697 107.708 52.764 107.155 52.867 105.303 50.708 102.561 49.333 99.5 49.333 96.439 49.333 93.697 50.708 91.845 52.867 91.292 52.764 90.76 52.697 90.25 52.697 85.149 52.697 81 56.846 81 61.947 81 65.442 82.971 68.619 86.065 70.19 L86.049 82.898 C86.048 83.815 86.404 84.677 87.052 85.326 87.701 85.976 88.562 86.333 89.48 86.333 L109.524 86.333 C111.416 86.333 112.954 84.794 112.954 82.902 L112.954 70.178 C116.037 68.603 118 65.43 118 61.947 118 56.846 113.85 52.697 108.75 52.697 Z" fill-opacity="1" fill="url(#linear-gradient1-12)" stroke="none" />
			<g id="group-1" />
			<g id="group-2" />
			<g id="group-3" />
			<g id="group-4" />
			<g id="group-5" />
			<g id="group-6" />
			<g id="group-7" />
			<g id="group-8" />
			<g id="group-9" />
			<g id="group-10" />
			<g id="group-11" />
			<g id="group-12" />
			<g id="group-13" />
			<g id="group-14" />
			<g id="group-15" />
		</g>
	</g>
	<path id="Rounded-Rectangle" d="M138.035 176.628 C134.694 174.684 130.409 175.817 128.465 179.158 L123.435 187.801 C121.491 191.142 122.623 195.427 125.964 197.372 L125.964 197.372 C129.306 199.316 133.591 198.184 135.535 194.842 L140.565 186.199 C142.509 182.858 141.377 178.573 138.035 176.628 Z" fill="#000000" fill-opacity="1" stroke="none" />
	<g id="burger">
		<path id="Path-33" d="M442.816 110.965 L358.716 110.965 C355.826 110.965 353.484 113.307 353.484 116.197 L353.484 120.78 C353.484 121.917 354.407 122.839 355.544 122.839 L445.988 122.839 C447.125 122.839 448.047 121.917 448.047 120.78 L448.047 116.197 C448.047 113.308 445.705 110.965 442.816 110.965 Z M442.816 110.965" fill="#912c2c" fill-opacity="1" stroke="none" />
		<path id="Path-34" d="M442.816 110.965 L435.768 110.965 435.768 122.839 445.988 122.839 C447.125 122.839 448.047 121.916 448.047 120.779 L448.047 116.197 C448.047 113.307 445.705 110.965 442.816 110.965 Z M442.816 110.965" fill="#7c1e1e" fill-opacity="1" stroke="none" />
		<path id="Path-35" d="M446.335 104.716 C449.058 104.716 451.354 106.979 451.356 109.818 451.358 113.874 446.735 116.02 441.365 115.233 436.348 114.499 436.284 112.192 431.205 112.192 426.125 112.192 426.125 115.233 421.045 115.233 415.965 115.233 415.965 112.192 410.886 112.192 405.806 112.192 405.806 115.233 400.726 115.233 395.646 115.233 395.646 112.192 390.566 112.192 385.487 112.192 385.487 115.233 380.407 115.233 375.327 115.233 375.327 112.192 370.247 112.192 365.167 112.192 365.104 114.499 360.087 115.233 354.716 116.02 350.093 113.874 350.097 109.818 350.098 106.979 352.394 104.716 355.118 104.716 Z M446.335 104.716" fill="#a0e557" fill-opacity="1" stroke="none" />
		<path id="Path-36" d="M451.356 109.818 C451.354 106.979 449.058 104.716 446.335 104.716 L438.711 104.716 438.711 114.578 C439.432 114.844 440.283 115.076 441.365 115.233 446.735 116.02 451.358 113.874 451.356 109.818 Z M451.356 109.818" fill="#93cc4a" fill-opacity="1" stroke="none" />
		<path id="Path-37" d="M449.211 121.784 L352.283 121.784 C349.918 121.784 348 123.701 348 126.067 348 138.364 357.969 148.332 370.265 148.332 L431.228 148.332 C443.525 148.332 453.494 138.364 453.494 126.068 453.494 123.701 451.576 121.784 449.211 121.784 Z M449.211 121.784" fill="#efa335" fill-opacity="1" stroke="none" />
		<path id="Path-38" d="M449.211 121.784 L441.237 121.784 441.237 130.35 C441.237 140.282 433.187 148.333 423.255 148.333 L431.228 148.333 C443.525 148.332 453.494 138.364 453.494 126.068 453.494 123.701 451.576 121.784 449.211 121.784 Z M449.211 121.784" fill="#fd8f31" fill-opacity="1" stroke="none" />
		<path id="Path-39" d="M442.797 99.264 L358.696 99.264 C355.808 99.264 353.466 96.922 353.466 94.034 L353.466 89.451 C353.466 88.313 354.387 87.391 355.525 87.391 L445.969 87.391 C447.106 87.391 448.028 88.313 448.028 89.451 L448.028 94.034 C448.028 96.922 445.686 99.264 442.797 99.264 Z M442.797 99.264" fill="#fc4e51" fill-opacity="1" stroke="none" />
		<path id="Path-40" d="M445.969 87.392 L435.788 87.392 435.788 96.092 C435.788 97.845 434.368 99.264 432.616 99.264 L442.797 99.264 C445.686 99.264 448.028 96.922 448.028 94.034 L448.028 89.451 C448.028 88.313 447.106 87.392 445.969 87.392 Z M445.969 87.392" fill="#ea3942" fill-opacity="1" stroke="none" />
		<path id="Path-41" d="M447.214 98.27 L354.378 98.27 C352.273 98.27 350.484 99.993 350.524 102.097 350.563 104.139 352.229 105.782 354.279 105.782 L413.265 105.782 C414.223 105.782 415.15 106.124 415.877 106.748 L424.249 113.921 C426.694 116.016 430.344 115.859 432.601 113.562 L439.064 106.983 C439.819 106.214 440.851 105.782 441.928 105.782 L447.116 105.782 C449.222 105.782 451.009 104.059 450.97 101.954 450.931 99.913 449.265 98.27 447.214 98.27 Z M447.214 98.27" fill="#fccf3f" fill-opacity="1" stroke="none" />
		<path id="Path-42" d="M400.747 50 C351.636 50.019 348 82.416 348 87.003 348 89.369 349.918 91.287 352.283 91.287 L449.211 91.287 C451.576 91.287 453.494 89.369 453.494 87.003 453.494 82.416 449.857 50.019 400.747 50 Z M400.747 50" fill="#efa335" fill-opacity="1" stroke="none" />
		<path id="Path-43" d="M453.493 86.882 C453.493 86.868 453.492 86.854 453.492 86.84 453.491 86.809 453.491 86.778 453.49 86.746 453.49 86.73 453.49 86.714 453.489 86.699 453.488 86.665 453.487 86.631 453.486 86.596 453.485 86.58 453.484 86.564 453.484 86.548 453.482 86.51 453.481 86.47 453.478 86.43 453.478 86.416 453.478 86.402 453.477 86.387 453.474 86.34 453.472 86.292 453.469 86.242 453.469 86.234 453.468 86.225 453.467 86.217 453.449 85.906 453.42 85.546 453.375 85.142 453.375 85.141 453.375 85.14 453.375 85.14 452.475 76.863 445.452 50.017 400.747 50 398.62 50.001 396.579 50.064 394.619 50.181 424.371 51.963 435.248 66.616 439.141 77.031 440.779 81.413 437.502 86.078 432.824 86.078 L352.283 86.078 C350.519 86.078 349.005 85.011 348.348 83.488 348.075 85.113 348 86.345 348 87.003 348 89.369 349.918 91.287 352.283 91.287 L449.211 91.287 C451.576 91.287 453.494 89.369 453.494 87.003 453.494 86.965 453.493 86.924 453.493 86.882 Z M453.493 86.882" fill="#fd8f31" fill-opacity="1" stroke="none" />
		<path id="Path-44" d="M447.214 98.27 L438.711 98.27 438.711 107.343 439.063 106.983 C439.818 106.214 440.851 105.782 441.928 105.782 L447.116 105.782 C449.221 105.782 451.009 104.059 450.97 101.954 450.931 99.913 449.265 98.27 447.214 98.27 Z M447.214 98.27" fill="#efc03c" fill-opacity="1" stroke="none" />
	</g>
	<g id="recipebook">
		<path id="Rounded-Rectangle-1" d="M191.5 178 C187.911 178 185 180.911 185 184.5 L185 327.5 C185 331.089 187.911 334 191.5 334 195.089 334 198 331.089 198 327.5 L198 184.5 C198 180.911 195.089 178 191.5 178 Z" fill="#656d78" fill-opacity="1" stroke="none" />
		<path id="Rectangle" d="M191.5 321 L315 321 315 178 191.5 178 Z" fill="#3a8ee1" fill-opacity="1" stroke="none" />
		<path id="Rounded-Rectangle-1" d="M225.95 192.3 C217.694 192.3 211 198.994 211 207.25 211 215.506 217.694 222.2 225.95 222.2 L280.55 222.2 C288.806 222.2 295.5 215.506 295.5 207.25 295.5 198.994 288.806 192.3 280.55 192.3 Z" fill="#eaecdd" fill-opacity="1" stroke="none" />
		<path id="Rectangle-1" d="M191.5 334 L315 334 315 331.4 191.5 331.4 Z" fill="#3a8ee1" fill-opacity="1" stroke="none" />
		<path id="Rectangle-2" d="M309.8 331.4 L315 331.4 315 321 309.8 321 Z" fill="#2c70b4" fill-opacity="1" stroke="none" />
		<path id="Ellipse" d="M200.6 326.2 C200.6 323.328 197.689 321 194.1 321 190.51 321 187.6 323.328 187.6 326.2 187.6 329.072 190.51 331.4 194.1 331.4 197.689 331.4 200.6 329.072 200.6 326.2 Z" fill="#e7e9ed" fill-opacity="1" stroke="none" />
		<path id="Rectangle-3" d="M192.8 331.4 L312.4 331.4 312.4 321 192.8 321 Z" fill="#e7e9ed" fill-opacity="1" stroke="none" />
		<path id="Line" d="M198 327.5 L300.7 327.5" fill="none" stroke="#9ea2ab" stroke-width="1.142" stroke-opacity="1" stroke-linejoin="round" />
		<defs>
			<text id="string1" transform="matrix(1.0 0.0 0.0 1.0 216.3269528 198.7)" text-decoration="none" font-family="Helvetica, Helvetica" x="1.0" font-size="20.8" y="16.0">
				Recipes
			</text>
		</defs>
		<use id="Recipes" xlink:href="#string1" fill="#5b5b5b" fill-opacity="1" stroke="none" />
	</g>
	<g id="taco">
		<path id="Path-45" d="M449.844 441.081 C449.844 405.073 420.654 375.885 384.648 375.885 348.64 375.885 319.45 405.073 319.45 441.081 319.45 449.915 326.612 457.077 335.445 457.077 L449.844 457.077 Z M449.844 441.081" fill="#efd176" fill-opacity="1" stroke="none" />
		<path id="Path-46" d="M374.573 401.941 L365.325 379.511 C362.982 373.828 367.981 367.849 373.99 369.15 L384.931 371.519 C387.125 371.994 389.416 371.479 391.195 370.111 L397.798 365.033 C401.578 362.128 407.066 363.361 409.236 367.604 L411.548 372.117 C413.603 376.133 418.675 377.497 422.466 375.054 L432.36 368.682 C437.35 365.468 443.938 368.934 444.113 374.868 L444.915 401.941 Z M374.573 401.941" fill="#89d47f" fill-opacity="1" stroke="none" />
		<path id="Path-47" d="M393.749 368.147 L391.195 370.111 C389.416 371.478 387.125 371.994 384.931 371.519 L373.99 369.15 C367.981 367.848 362.982 373.828 365.325 379.511 L374.573 401.941 404.411 401.941 C396.919 393.006 392.835 379.332 393.749 368.147 Z M393.749 368.147" fill="#5ec783" fill-opacity="1" stroke="none" />
		<path id="Path-48" d="M383.635 431.726 C383.635 428.452 382.972 425.329 381.777 422.458 382.643 421.821 383.48 421.134 384.276 420.384 367.727 415.919 347.193 400.726 354.451 379.265 351.524 380.494 348.781 382.236 346.382 384.505 338.604 391.858 336.607 402.601 340.384 411.7 334.069 416.338 330 423.581 330 431.725 330 445.725 342.006 457.075 356.818 457.075 371.629 457.077 383.635 445.727 383.635 431.726 Z M383.635 431.726" fill="#886449" fill-opacity="1" stroke="none" />
		<path id="Ellipse-1" d="M387 398 C387 385.85 376.479 376 363.5 376 350.521 376 340 385.85 340 398 340 410.15 350.521 420 363.5 420 376.479 420 387 410.15 387 398 Z" fill="#ea3942" fill-opacity="1" stroke="none" />
		<path id="Path-49" d="M465.839 457.077 C474.672 457.077 481.834 449.915 481.834 441.081 481.834 405.073 452.644 375.885 416.636 375.885 380.63 375.885 351.44 405.073 351.44 441.081 351.44 449.915 344.279 457.077 335.445 457.077 Z M465.839 457.077" fill="#f7ef87" fill-opacity="1" stroke="none" />
		<path id="Path-50" d="M406.24 376.713 C375.175 381.693 351.44 408.614 351.44 441.081 351.44 449.915 344.279 457.077 335.445 457.077 L425.408 457.077 C406.596 438.996 397.516 399.702 406.24 376.713 Z M406.24 376.713" fill="#efd176" fill-opacity="1" stroke="none" />
		<path id="Path-51" d="M443.833 448.477 C443.205 448.477 442.578 448.237 442.099 447.758 441.142 446.801 441.142 445.251 442.099 444.293 L450.824 435.569 C451.781 434.612 453.332 434.612 454.289 435.569 455.246 436.526 455.246 438.077 454.289 439.034 L445.564 447.758 C445.086 448.237 444.459 448.477 443.833 448.477 Z M443.833 448.477" fill="#efd176" fill-opacity="1" stroke="none" />
		<path id="Path-52" d="M419.282 448.477 C418.655 448.477 418.027 448.237 417.549 447.758 416.592 446.801 416.592 445.251 417.549 444.293 L426.274 435.569 C427.231 434.612 428.783 434.612 429.74 435.569 430.696 436.526 430.696 438.077 429.74 439.034 L421.015 447.758 C420.537 448.237 419.909 448.477 419.282 448.477 Z M419.282 448.477" fill="#efd176" fill-opacity="1" stroke="none" />
		<path id="Path-53" d="M394.732 448.477 C394.105 448.477 393.478 448.237 393 447.758 392.042 446.801 392.042 445.251 393 444.293 L401.724 435.569 C402.682 434.612 404.234 434.612 405.191 435.569 406.147 436.526 406.147 438.077 405.191 439.034 L396.465 447.758 C395.986 448.237 395.359 448.477 394.732 448.477 Z M394.732 448.477" fill="#f7ef87" fill-opacity="1" stroke="none" />
		<path id="Path-54" d="M430.53 390.276 C430.53 391.69 429.384 392.836 427.968 392.836 426.554 392.836 425.408 391.69 425.408 390.276 425.408 388.862 426.554 387.715 427.968 387.715 429.384 387.715 430.53 388.862 430.53 390.276 Z M430.53 390.276" fill="#efd176" fill-opacity="1" stroke="none" />
		<path id="Path-55" d="M374.278 432.921 C374.278 431.506 373.132 430.359 371.718 430.359 370.304 430.359 369.156 431.506 369.156 432.921 369.156 434.335 370.304 435.482 371.718 435.482 373.132 435.482 374.278 434.335 374.278 432.921 Z M374.278 432.921" fill="#f7ef87" fill-opacity="1" stroke="none" />
		<path id="Path-56" d="M470.32 439.14 C468.928 438.89 467.597 439.815 467.345 441.206 467.095 442.599 468.021 443.93 469.412 444.181 470.804 444.431 472.136 443.506 472.387 442.115 472.637 440.722 471.713 439.391 470.32 439.14 Z M470.32 439.14" fill="#efd176" fill-opacity="1" stroke="none" />
	</g>
	<g id="rice">
		<path id="Path-57" d="M148.276 422.456 L148.276 413.835 C148.277 413.148 148.004 412.49 147.519 412.005 147.034 411.52 146.376 411.247 145.689 411.248 145.003 411.249 144.345 410.977 143.86 410.492 143.374 410.007 143.102 409.348 143.103 408.662 L143.103 406.938 C143.104 406.252 142.832 405.593 142.347 405.108 141.861 404.623 141.203 404.35 140.517 404.351 L138.224 404.351 C137.036 404.354 136.001 403.541 135.723 402.386 L134.896 399.127 C134.788 398.682 134.507 398.299 134.115 398.063 133.723 397.827 133.253 397.756 132.81 397.868 131.449 398.211 130.007 397.981 128.821 397.231 127.635 396.482 126.808 395.279 126.533 393.903 L126.275 392.661 126.223 392.454 121.188 387.592 C120.362 387.276 119.486 387.113 118.602 387.109 L115.877 387.109 C114.515 387.111 113.183 386.709 112.049 385.954 L111.929 385.885 102.98 385.885 C100.966 386.573 98.746 386.28 96.98 385.092 95.573 384.16 93.925 383.662 92.238 383.661 L91.496 383.661 C90.345 383.657 89.268 384.234 88.634 385.195 87.991 386.162 86.989 386.833 85.85 387.06 84.711 387.286 83.529 387.05 82.565 386.402 82.194 386.166 81.763 386.04 81.323 386.04 80.723 386.038 80.147 386.273 79.72 386.695 L78.168 388.247 C77.779 388.643 77.454 389.097 77.203 389.592 76.37 391.238 74.685 392.277 72.84 392.282 70.699 392.285 68.964 394.02 68.961 396.161 68.963 396.952 68.514 397.674 67.805 398.024 L64.322 399.765 C62.945 400.465 62.073 401.875 62.064 403.42 62.063 404.002 61.772 404.545 61.288 404.869 L59.202 406.265 C57.756 407.223 56.888 408.842 56.891 410.576 L56.891 411.248 C56.888 412.199 56.118 412.97 55.167 412.973 54.216 412.975 53.445 413.746 53.442 414.697 L53.442 422.456 Z" fill="#ecf0f1" fill-opacity="1" stroke="none" />
		<path id="Path-58" d="M149.638 422.076 L148.983 423.68 C144.463 434.743 136.764 444.217 126.861 450.906 125.981 451.492 125.067 452.078 124.154 452.63 L124.136 452.63 124.136 456.268 C124.14 457.134 123.798 457.965 123.186 458.577 122.574 459.188 121.743 459.531 120.878 459.527 L79.116 459.527 C78.252 459.528 77.423 459.185 76.811 458.573 76.2 457.962 75.857 457.133 75.858 456.268 L75.858 452.63 C74.944 452.078 74.047 451.509 73.168 450.906 63.251 444.222 55.541 434.747 51.011 423.68 L50.356 422.076 C49.999 421.697 49.901 421.141 50.106 420.662 50.312 420.183 50.783 419.871 51.304 419.869 L148.69 419.869 C149.213 419.868 149.687 420.179 149.893 420.659 150.1 421.14 149.999 421.698 149.638 422.076 Z" fill="#b0d3f0" fill-opacity="1" stroke="none" />
		<g id="group-16">
			<path id="Path-59" d="M124.144 445.729 C123.375 445.731 122.698 445.223 122.484 444.484 122.271 443.746 122.573 442.955 123.225 442.546 L123.231 442.542 C129.667 438.611 134.822 432.896 138.07 426.091 138.443 425.215 139.456 424.807 140.332 425.18 141.208 425.553 141.615 426.565 141.243 427.441 137.692 434.904 132.052 441.177 125.007 445.497 124.745 445.649 124.447 445.73 124.144 445.729 Z" fill="#90bae1" fill-opacity="1" stroke="none" />
			<path id="Path-60" d="M99.997 452.63 C99.994 453.581 99.224 454.351 98.273 454.354 L75.858 454.354 75.858 452.63 C74.944 452.078 74.047 451.509 73.168 450.906 L98.273 450.906 C99.224 450.909 99.994 451.679 99.997 452.63 Z" fill="#90bae1" fill-opacity="1" stroke="none" />
			<path id="Path-61" d="M126.861 450.906 C125.981 451.492 125.068 452.078 124.154 452.63 L124.136 452.63 124.136 454.354 118.964 454.354 C118.012 454.354 117.24 453.583 117.24 452.63 117.24 451.678 118.011 450.906 118.964 450.906 Z" fill="#90bae1" fill-opacity="1" stroke="none" />
		</g>
		<path id="Path-62" d="M84.013 408.748 L102.98 385.885 123.688 360.935 C124.903 359.477 127.069 359.278 128.53 360.491 129.99 361.704 130.192 363.87 128.982 365.332 L111.929 385.885 94.048 407.438 91.996 409.903" fill="#af8066" fill-opacity="1" stroke="none" />
		<path id="Path-63" d="M90.859 409.765 L94.048 407.438 121.188 387.592 144.517 370.539 C145.252 369.995 146.173 369.768 147.077 369.907 147.98 370.046 148.79 370.541 149.328 371.28 149.871 372.015 150.099 372.937 149.96 373.84 149.821 374.744 149.326 375.554 148.586 376.091 L126.223 392.454 104.739 408.162 104.721 408.179" fill="#7f5b53" fill-opacity="1" stroke="none" />
		<path id="Path-64" d="M112.065 412.622 C111.725 412.622 111.393 412.522 111.11 412.333 L107.317 409.804 C106.888 409.522 106.354 409.45 105.866 409.61 L103.338 410.452 C102.288 410.8 101.153 410.8 100.103 410.452 L97.577 409.61 C97.089 409.448 96.554 409.52 96.126 409.804 L94.646 410.79 C92.615 412.137 89.917 411.87 88.191 410.15 87.745 409.701 87.083 409.545 86.484 409.748 L84.633 410.365 C83.346 410.798 81.939 410.698 80.726 410.087 80.084 409.763 79.306 409.888 78.797 410.397 L77.077 412.117 C76.403 412.79 75.312 412.79 74.638 412.117 73.965 411.444 73.965 410.352 74.638 409.679 L76.358 407.959 C77.914 406.4 80.294 406.014 82.263 407 82.659 407.201 83.12 407.235 83.542 407.093 L85.393 406.476 C87.231 405.856 89.262 406.336 90.629 407.712 91.192 408.272 92.07 408.359 92.733 407.921 L94.212 406.935 C95.524 406.055 97.17 405.835 98.667 406.338 L101.193 407.18 C101.535 407.295 101.905 407.295 102.248 407.18 L104.775 406.338 C106.273 405.836 107.918 406.057 109.231 406.935 L113.023 409.464 C113.655 409.885 113.937 410.671 113.716 411.399 113.496 412.126 112.825 412.623 112.065 412.622 Z" fill="#bdc3c7" fill-opacity="1" stroke="none" />
		<g id="group-17" />
		<g id="group-18" />
		<g id="group-19" />
		<g id="group-20" />
		<g id="group-21" />
		<g id="group-22" />
		<g id="group-23" />
		<g id="group-24" />
		<g id="group-25" />
		<g id="group-26" />
		<g id="group-27" />
		<g id="group-28" />
		<g id="group-29" />
		<g id="group-30" />
		<g id="group-31" />
	</g>
</svg>
