<?xml version="1.0" encoding="UTF-8"?>
<svg preserveAspectRatio="none" viewBox="0 0 512 512" xmlns="http://www.w3.org/2000/svg" xmlns:xlink="http://www.w3.org/1999/xlink" version="1.1">
	<g id="Man">
		<defs>
			<linearGradient id="linear-gradient3" gradientUnits="userSpaceOnUse" x1="-2645.21" y1="1519.896" x2="-2652.65" y2="1506.831">
				<stop offset="0" stop-color="#753200" stop-opacity="1" />
				<stop offset="1" stop-color="#a04400" stop-opacity="1" />
			</linearGradient>
		</defs>
		<path id="Path" d="M111.99 248.003 L112.559 255.954 111.854 261.056 110.484 262.276 104.735 260.549 103.319 258.362 104 248.301 Z" fill-opacity="1" fill="url(#linear-gradient3)" stroke="none" />
		<defs>
			<linearGradient id="linear-gradient3-1" gradientUnits="userSpaceOnUse" x1="-2561.408" y1="1618.121" x2="-2567.656" y2="1607.143">
				<stop offset="0" stop-color="#753200" stop-opacity="1" />
				<stop offset="1" stop-color="#a04400" stop-opacity="1" />
			</linearGradient>
		</defs>
		<path id="Path-1" d="M92.661 248.359 L93.316 252.443 94.067 258.165 92.151 260.189 86.27 258.962 84.675 256.906 85.481 249.068 Z" fill-opacity="1" fill="url(#linear-gradient3-1)" stroke="none" />
		<path id="Path-2" d="M117.684 216.67 C118.304 213.372 119.62 209.4 118.877 206.125 116.724 196.56 113.291 175.404 111.34 168.599 110.391 165.289 101.461 162.405 93.776 162.091 93.744 162.524 93.736 162.958 93.753 163.392 90.401 162.618 86.127 162.254 82.179 162.091 81.404 171.27 83.75 213.806 83.75 213.806 L85.043 250.024 93.273 250.182 C93.273 250.182 98.112 190.258 99.854 190.068 101.596 189.878 105.711 211.22 105.521 214.162 L103.319 249.702 112.764 249.633 Z" fill="#000000" fill-opacity="1" stroke="none" />
		<defs>
			<linearGradient id="linear-gradient3-2" gradientUnits="userSpaceOnUse" x1="69.919" y1="143.177" x2="122.307" y2="143.177">
				<stop offset="0" stop-color="#ee3219" stop-opacity="1" />
				<stop offset="0.44" stop-color="#e82d27" stop-opacity="1" />
				<stop offset="0.89" stop-color="#d51f3a" stop-opacity="1" />
			</linearGradient>
		</defs>
		<path id="Path-3" d="M114.835 116.819 C111.247 113.536 97.849 111.345 94.632 111.302 88.961 111.229 79.639 113.447 76.275 117.187 73.794 119.947 71.564 128.258 69.915 136.186 L81.71 142.295 C82.504 140.634 83.131 139.411 83.34 139.198 81.613 148.875 80.87 160.775 80.913 170.786 97.233 172.555 103.365 179.906 111.943 169.911 L111.587 136.263 112.118 143.231 122.287 140.134 C121.196 130.011 119.016 120.643 114.835 116.819 Z" fill-opacity="1" fill="url(#linear-gradient3-2)" stroke="none" />
		<defs>
			<linearGradient id="linear-gradient3-3" gradientUnits="userSpaceOnUse" x1="112.133" y1="165.997" x2="129.859" y2="165.997">
				<stop offset="0" stop-color="#a04400" stop-opacity="1" />
				<stop offset="0.3" stop-color="#9c4200" stop-opacity="1" />
				<stop offset="0.62" stop-color="#8e3d00" stop-opacity="1" />
				<stop offset="0.95" stop-color="#793300" stop-opacity="1" />
				<stop offset="1" stop-color="#753200" stop-opacity="1" />
			</linearGradient>
		</defs>
		<path id="Path-4" d="M129.712 185.516 C129.387 184.401 129.515 184.041 128.09 182.539 126.665 181.037 123.611 177.649 123.611 177.649 123.611 177.649 122.368 174.386 122.45 173.085 122.837 167.774 123.708 153.288 122.279 140.15 L112.11 143.247 112.784 152.081 C112.784 152.081 117.878 179.264 117.754 179.535 117.449 180.463 117.414 181.459 117.653 182.407 117.948 183.386 118.428 184.025 119.26 185.117 120.092 186.208 120.975 187.269 121.215 188.407 121.455 189.545 121.215 189.65 121.761 189.847 122.307 190.045 123.476 189.131 123.386 188.167 123.297 187.203 123.077 185.554 123.077 185.554 123.655 185.936 124.266 186.264 124.904 186.534 125.83 186.867 126.52 187.652 126.731 188.612 127.021 190.641 127.099 191.256 127.738 191.752 128.376 192.247 128.899 190.44 128.899 190.44 128.899 190.44 130.297 187.47 129.712 185.515 Z" fill-opacity="1" fill="url(#linear-gradient3-3)" stroke="none" />
		<defs>
			<linearGradient id="linear-gradient3-4" gradientUnits="userSpaceOnUse" x1="-2748.522" y1="492.468" x2="-2746.025" y2="492.468">
				<stop offset="0" stop-color="#753200" stop-opacity="1" />
				<stop offset="1" stop-color="#a04400" stop-opacity="1" />
			</linearGradient>
		</defs>
		<path id="Path-5" d="M88.729 94.932 C88.218 94.014 87.525 91.448 87.199 90.673 88.539 90.592 90.068 92.318 90.296 93.495 89.952 93.546 89.042 94.618 88.728 94.932 Z" fill-opacity="1" fill="url(#linear-gradient3-4)" stroke="none" />
		<defs>
			<linearGradient id="linear-gradient3-5" gradientUnits="userSpaceOnUse" x1="-2775.887" y1="511.053" x2="-2757.259" y2="500.407">
				<stop offset="0" stop-color="#753200" stop-opacity="1" />
				<stop offset="1" stop-color="#a04400" stop-opacity="1" />
			</linearGradient>
		</defs>
		<path id="Path-6" d="M97.435 115.739 C99.583 115.728 101.457 114.277 102.006 112.2 102.104 111.602 102.125 110.993 102.068 110.389 L102.045 109.738 102.026 109.138 102.003 108.403 C102.343 108.379 102.682 108.335 103.017 108.271 105.649 107.764 109.733 105.856 110.825 101.508 111.599 98.477 110.325 95.787 110.209 94.033 110.093 92.28 110.736 90.995 110.941 89.001 111.208 86.461 110.016 83.368 108.738 82.699 102.974 79.656 93.06 83.353 93.06 83.353 93.06 83.353 89.766 85.045 91.512 92.013 91.152 91.804 91.922 93.251 91.442 93.174 90.6 93.009 89.727 93.214 89.046 93.735 87.827 94.792 87.95 97.184 90.637 100.339 L90.73 100.452 C90.851 101.112 90.93 101.779 90.966 102.449 90.966 102.55 90.966 102.654 90.989 102.759 91.067 103.994 91.171 105.596 91.268 107.141 91.407 109.375 91.438 111.302 91.465 112.05 91.523 113.9 93.622 115.87 97.435 115.739 Z" fill-opacity="1" fill="url(#linear-gradient3-5)" stroke="none" />
		<defs>
			<linearGradient id="linear-gradient3-6" gradientUnits="userSpaceOnUse" x1="-2762.539" y1="492.367" x2="-2751.588" y2="485.29">
				<stop offset="0" stop-color="#a04400" stop-opacity="0" />
				<stop offset="0.18" stop-color="#9a4100" stop-opacity="0.14" />
				<stop offset="0.52" stop-color="#8a3b00" stop-opacity="0.52" />
				<stop offset="0.9" stop-color="#753200" stop-opacity="1" />
			</linearGradient>
		</defs>
		<path id="Path-7" d="M91.504 92.028 C89.762 85.06 93.052 83.368 93.052 83.368 93.052 83.368 102.966 79.672 108.73 82.714 109.632 83.187 109.861 84.541 110.128 85.695 107.805 84.046 103.342 85.048 99.792 85.37 98.093 85.525 98.968 87.305 98.499 87.414 94.686 86.965 92.305 89.016 93.32 94.304 L91.473 93.201 C91.864 93.17 91.156 91.834 91.504 92.028 Z" fill-opacity="1" fill="url(#linear-gradient3-6)" stroke="none" />
		<path id="Path-8" d="M86.967 90.313 C86.677 89.09 86.654 87.739 86.712 85.889 86.832 81.897 89.065 79.788 92.936 78.286 L96.68 77.082 C97.02 76.973 103.35 75.235 106.687 76.4 107.941 76.838 109.729 78.15 109.923 79.222 110.418 81.959 110.763 83.411 110.542 85.61 108.127 80.279 106.447 87.41 98.321 83.101 96.815 82.304 97.497 85.037 97.028 85.141 92.724 84.638 90.258 87.309 92.402 94.219 91.241 93.805 90.424 93.294 89.77 93.337 88.79 92.489 87.13 90.956 86.967 90.313 Z" fill="#1d0d01" fill-opacity="1" stroke="none" />
		<defs>
			<linearGradient id="linear-gradient3-7" gradientUnits="userSpaceOnUse" x1="-2747.357" y1="502.296" x2="-2756.938" y2="511.699">
				<stop offset="0" stop-color="#a04400" stop-opacity="1" />
				<stop offset="1" stop-color="#753200" stop-opacity="1" />
			</linearGradient>
		</defs>
		<path id="Path-9" d="M91.001 102.782 C93.488 106.613 97.531 109.16 102.061 109.75 L102.041 109.15 102.018 108.415 C102.358 108.391 102.697 108.347 103.032 108.283 100.628 106.92 93.927 103.053 90.645 100.374 L90.738 100.486 C90.859 101.147 90.938 101.814 90.974 102.484 90.97 102.573 90.978 102.674 91.001 102.782 Z" fill-opacity="1" fill="url(#linear-gradient3-7)" stroke="none" />
		<path id="Path-10" d="M91.643 94.037 C91.489 93.921 91.032 93.65 91.032 93.65 L91.074 92.287 93.153 93.151 C93.554 93.317 93.826 93.697 93.854 94.13 L94.152 98.88 C97.009 99.941 103.706 103.281 104.84 103.247 106.28 103.204 106.389 101.373 107.232 101.628 108.076 101.884 108.161 102.952 108.684 102.852 108.955 102.797 110.515 101.334 110.949 100.467 110.949 100.467 110.627 103.599 110.534 104.156 110.322 105.449 108.181 108.395 108.181 108.395 107.967 108.718 107.615 108.924 107.229 108.953 L103.861 109.204 102.003 108.504 C99.436 107.633 93.068 103.471 92.909 102.755 91.969 98.601 93.176 95.206 91.643 94.037 Z" fill="#1d0d01" fill-opacity="1" stroke="none" />
		<defs>
			<linearGradient id="linear-gradient3-8" gradientUnits="userSpaceOnUse" x1="-2747.314" y1="495.673" x2="-2748.549" y2="496.888">
				<stop offset="0" stop-color="#753200" stop-opacity="1" />
				<stop offset="1" stop-color="#a04400" stop-opacity="1" />
			</linearGradient>
		</defs>
		<path id="Path-11" d="M91.322 95.446 C91.322 95.446 90.308 94.2 89.696 95.226 89.085 96.251 90.223 97.881 90.223 97.881 Z" fill-opacity="1" fill="url(#linear-gradient3-8)" stroke="none" />
		<defs>
			<linearGradient id="linear-gradient3-9" gradientUnits="userSpaceOnUse" x1="66.996" y1="167.697" x2="81.726" y2="167.697">
				<stop offset="0" stop-color="#a04400" stop-opacity="1" />
				<stop offset="0.3" stop-color="#9c4200" stop-opacity="1" />
				<stop offset="0.62" stop-color="#8e3d00" stop-opacity="1" />
				<stop offset="0.95" stop-color="#793300" stop-opacity="1" />
				<stop offset="1" stop-color="#753200" stop-opacity="1" />
			</linearGradient>
		</defs>
		<path id="Path-12" d="M81.71 142.295 L69.899 136.182 C68.111 144.869 67 153.068 67 153.068 L68.978 179.004 69.001 182.589 C69.001 182.589 68.142 186.785 67.708 188.682 67.275 190.579 67.832 192.209 68.095 193.269 68.564 195.131 71.61 198.468 71.61 198.468 71.61 198.468 72.884 199.703 73.159 198.975 73.434 198.248 72.721 196.142 71.998 194.365 71.649 193.517 71.61 191.121 72.16 190.385 72.555 189.866 72.901 189.311 73.194 188.729 73.194 188.729 73.802 190.169 74.189 190.993 74.576 191.818 75.946 192.003 76.306 191.578 76.666 191.152 76.411 191.191 76.062 190.153 75.714 189.116 75.911 187.83 76.062 186.561 76.213 185.291 76.298 184.536 76.062 183.607 75.804 182.726 75.301 181.936 74.61 181.331 74.382 181.172 73.867 178.726 73.867 178.726 73.867 178.726 76.577 160.996 76.577 153.838 76.817 153.076 79.775 146.371 81.71 142.295 Z" fill-opacity="1" fill="url(#linear-gradient3-9)" stroke="none" />
		<path id="Path-13" d="M94.067 247.645 L94.067 248.545 C94.067 249.464 93.321 250.209 92.402 250.209 L85.275 250.209 C84.356 250.209 83.611 249.464 83.611 248.545 L83.611 246.745 C83.611 245.826 84.356 245.08 85.275 245.08 L92.402 245.08 C93.321 245.08 94.067 245.826 94.067 246.745 Z" fill="#443f40" fill-opacity="1" stroke="none" />
		<path id="Path-14" d="M113.658 247.645 L113.658 248.514 C113.658 249.45 112.899 250.209 111.963 250.209 L104.468 250.209 C103.532 250.209 102.773 249.45 102.773 248.514 L102.773 246.776 C102.773 245.839 103.532 245.08 104.468 245.08 L111.963 245.08 C112.899 245.08 113.658 245.839 113.658 246.776 Z" fill="#443f40" fill-opacity="1" stroke="none" />
		<path id="Path-15" d="M91.322 99.468 C91.322 99.849 91.014 100.157 90.633 100.157 90.253 100.157 89.944 99.849 89.944 99.468 89.944 99.088 90.253 98.779 90.633 98.779 91.014 98.779 91.322 99.088 91.322 99.468 Z" fill="#f2f4f6" fill-opacity="1" stroke="none" />
		<path id="Path-16" d="M84.106 257.998 C84.106 257.998 82.36 258.749 85.682 266.441 86.456 268.237 89.975 269.302 93.424 269.209 96.873 269.116 98.337 268.59 98.577 267.633 98.817 266.677 96.765 263.604 96.765 263.604 Z" fill="#fef5ff" fill-opacity="1" stroke="none" />
		<defs>
			<linearGradient id="linear-gradient3-10" gradientUnits="userSpaceOnUse" x1="84.106" y1="259.756" x2="97.663" y2="259.756">
				<stop offset="0" stop-color="#e62a29" stop-opacity="1" />
				<stop offset="0.44" stop-color="#df2532" stop-opacity="1" />
				<stop offset="0.89" stop-color="#d52039" stop-opacity="1" />
			</linearGradient>
		</defs>
		<path id="Path-17" d="M84.137 257.236 C84.137 257.236 84.103 255.602 84.846 255.223 85.19 257.158 86.127 255.652 87.168 254.564 88.086 253.624 88.454 252.846 90.207 252.71 91.961 252.575 92.53 253.999 93.246 254.564 94.547 255.567 94.574 254.975 94.988 256.446 95.356 257.747 96.486 262.496 97.493 264.405 97.738 264.836 97.672 265.377 97.33 265.737 95.7 267.343 92.015 266.759 89.998 266.422 87.71 266.035 85.643 264.61 84.753 261.56 83.862 258.509 84.137 257.236 84.137 257.236 Z" fill-opacity="1" fill="url(#linear-gradient3-10)" stroke="none" />
		<path id="Path-18" d="M102.541 262.009 L102.541 264.211 C102.534 264.995 103.114 265.66 103.892 265.76 105.44 265.977 107.925 266.337 109.272 266.6 111.324 266.987 116.24 268.787 119.001 268.965 121.761 269.143 124.889 269.19 126.274 268.295 127.66 267.401 127.347 265.307 127.347 265.307 Z" fill="#f6ffff" fill-opacity="1" stroke="none" />
		<defs>
			<linearGradient id="linear-gradient3-11" gradientUnits="userSpaceOnUse" x1="102.471" y1="260.286" x2="127.343" y2="260.286">
				<stop offset="0" stop-color="#e32a2b" stop-opacity="1" />
				<stop offset="0.44" stop-color="#de2631" stop-opacity="1" />
				<stop offset="0.89" stop-color="#d61e3b" stop-opacity="1" />
			</linearGradient>
		</defs>
		<path id="Path-19" d="M103.338 256.121 C103.338 256.121 101.91 261.563 102.715 262.369 103.52 263.174 109.54 263.573 111.146 264.598 112.753 265.624 119.31 267.231 122.79 266.964 126.271 266.697 127.254 266.251 127.343 265.315 127.432 264.378 120.421 263.081 119.179 262.163 117.936 261.246 117.17 257.925 115.431 256.81 113.693 255.695 115.044 253.686 113.202 253.597 111.359 253.508 111.862 256.454 109.141 256.632 107.193 256.693 105.245 256.521 103.338 256.121 Z" fill-opacity="1" fill="url(#linear-gradient3-11)" stroke="none" />
		<path id="Path-20" d="M102.572 176.248 C102.75 176.604 102.928 184.223 99.862 190.072" fill="none" stroke="#343434" stroke-width="0.356" stroke-opacity="1" stroke-linejoin="round" />
		<g id="chefhat">
			<path id="Path-21" d="M108.75 52.697 C108.24 52.697 107.708 52.764 107.155 52.867 105.303 50.708 102.561 49.333 99.5 49.333 96.439 49.333 93.697 50.708 91.845 52.867 91.292 52.764 90.76 52.697 90.25 52.697 85.149 52.697 81 56.846 81 61.947 81 65.442 82.971 68.619 86.065 70.19 L86.049 82.898 C86.048 83.815 86.404 84.677 87.052 85.326 87.701 85.976 88.562 86.333 89.48 86.333 L109.524 86.333 C111.416 86.333 112.954 84.794 112.954 82.902 L112.954 70.178 C116.037 68.603 118 65.43 118 61.947 118 56.846 113.85 52.697 108.75 52.697 Z" fill="#303c42" fill-opacity="1" stroke="none" />
			<path id="Path-22" d="M109.524 84.651 L89.48 84.651 C89.012 84.651 88.573 84.469 88.242 84.138 87.912 83.807 87.73 83.368 87.73 82.9 L87.735 79.606 111.273 79.606 111.273 82.902 C111.273 83.866 110.488 84.651 109.524 84.651 Z" fill="#e6e6e6" fill-opacity="1" stroke="none" />
			<path id="Path-23" d="M89.412 82.9 L89.416 79.606 87.735 79.606 87.73 82.9 C87.73 83.368 87.912 83.807 88.242 84.138 88.573 84.469 89.012 84.651 89.48 84.651 L90.911 84.651 C90.511 84.651 90.135 84.469 89.851 84.138 89.568 83.807 89.412 83.368 89.412 82.9 Z" fill="#ffffff" fill-opacity="1" stroke="none" />
			<path id="Path-24" d="M109.591 79.606 L109.591 82.902 C109.591 83.866 108.918 84.651 108.092 84.651 L109.524 84.651 C110.488 84.651 111.273 83.866 111.273 82.902 L111.273 79.606 Z" fill="#000000" fill-opacity="1" stroke="none" />
			<path id="Path-25" d="M111.793 68.869 C111.749 68.887 111.707 68.908 111.668 68.933 111.562 68.999 111.475 69.086 111.41 69.186 111.344 69.286 111.3 69.401 111.282 69.524 111.274 69.571 111.272 69.618 111.273 69.665 L111.273 77.924 87.737 77.924 87.748 69.677 C87.749 69.631 87.746 69.584 87.74 69.539 87.722 69.411 87.675 69.293 87.606 69.19 87.542 69.094 87.459 69.011 87.357 68.947 87.315 68.92 87.271 68.897 87.225 68.878 84.465 67.671 82.682 64.953 82.682 61.947 82.682 57.773 86.077 54.379 90.25 54.379 90.413 54.379 90.585 54.398 90.754 54.412 89.903 55.89 89.409 57.599 89.409 59.424 89.409 59.889 89.785 60.265 90.25 60.265 90.715 60.265 91.091 59.889 91.091 59.424 91.091 54.787 94.863 51.015 99.5 51.015 104.136 51.015 107.909 54.788 107.909 59.424 107.909 59.889 108.285 60.265 108.75 60.265 109.215 60.265 109.591 59.889 109.591 59.424 109.591 57.599 109.096 55.89 108.246 54.412 108.415 54.398 108.587 54.379 108.75 54.379 112.923 54.379 116.318 57.773 116.318 61.947 116.318 64.943 114.543 67.657 111.793 68.869 Z" fill="#f2f2f2" fill-opacity="1" stroke="none" />
			<path id="Path-26" d="M99.5 52.066 C103.361 52.066 106.606 54.512 107.752 57.869 107.019 53.974 103.604 51.015 99.5 51.015 95.396 51.015 91.981 53.974 91.248 57.869 92.394 54.512 95.639 52.066 99.5 52.066 Z" fill="#ffffff" fill-opacity="1" stroke="none" />
			<path id="Path-27" d="M108.75 54.379 C108.587 54.379 108.415 54.398 108.246 54.412 108.252 54.422 108.256 54.434 108.262 54.445 111.677 54.785 114.374 57.999 114.374 61.947 114.374 64.942 112.803 67.657 110.372 68.869 110.333 68.887 110.296 68.908 110.261 68.933 110.167 68.999 110.09 69.086 110.033 69.186 109.975 69.286 109.936 69.401 109.919 69.524 109.913 69.571 109.911 69.618 109.911 69.665 L109.911 77.924 111.273 77.924 111.273 69.665 C111.272 69.618 111.274 69.571 111.282 69.524 111.3 69.401 111.344 69.286 111.41 69.186 111.475 69.086 111.562 68.999 111.668 68.933 111.707 68.908 111.749 68.887 111.793 68.869 114.543 67.657 116.318 64.943 116.318 61.947 116.318 57.773 112.923 54.379 108.75 54.379 Z" fill="#000000" fill-opacity="1" stroke="none" />
			<path id="Path-28" d="M89.099 69.539 C89.083 69.411 89.042 69.293 88.982 69.191 88.925 69.094 88.851 69.011 88.761 68.947 88.724 68.92 88.685 68.897 88.644 68.878 86.203 67.671 84.626 64.953 84.626 61.947 84.626 57.999 87.323 54.785 90.738 54.445 90.744 54.434 90.748 54.422 90.754 54.412 90.585 54.398 90.413 54.379 90.25 54.379 86.077 54.379 82.682 57.773 82.682 61.947 82.682 64.953 84.465 67.671 87.225 68.879 87.271 68.897 87.315 68.92 87.357 68.947 87.459 69.011 87.542 69.094 87.606 69.191 87.675 69.293 87.721 69.411 87.74 69.539 87.746 69.584 87.749 69.631 87.748 69.677 L87.737 77.924 89.097 77.924 89.107 69.677 C89.107 69.631 89.105 69.584 89.099 69.539 Z" fill="#ffffff" fill-opacity="1" stroke="none" />
			<g id="group">
				<path id="Path-29" d="M91.091 66.992 C91.091 66.527 90.715 66.151 90.25 66.151 89.785 66.151 89.409 66.527 89.409 66.992 89.409 69.2 91.845 72.232 92.122 72.571 92.289 72.774 92.53 72.879 92.773 72.879 92.961 72.879 93.15 72.816 93.306 72.688 93.665 72.393 93.717 71.864 93.423 71.504 92.521 70.405 91.091 68.209 91.091 66.992 Z" fill="#303c42" fill-opacity="1" stroke="none" />
				<path id="Path-30" d="M108.75 66.151 C108.285 66.151 107.909 66.527 107.909 66.992 107.909 68.205 106.478 70.403 105.577 71.505 105.283 71.864 105.335 72.393 105.694 72.688 105.85 72.816 106.039 72.879 106.227 72.879 106.47 72.879 106.711 72.774 106.878 72.571 107.155 72.232 109.591 69.2 109.591 66.992 109.591 66.527 109.215 66.151 108.75 66.151 Z" fill="#303c42" fill-opacity="1" stroke="none" />
				<path id="Path-31" d="M99.5 66.151 C99.035 66.151 98.659 66.527 98.659 66.992 L98.659 72.038 C98.659 72.502 99.035 72.879 99.5 72.879 99.965 72.879 100.341 72.502 100.341 72.038 L100.341 66.992 C100.341 66.527 99.965 66.151 99.5 66.151 Z" fill="#303c42" fill-opacity="1" stroke="none" />
			</g>
			<defs>
				<linearGradient id="linear-gradient3-12" gradientUnits="userSpaceOnUse" x1="75.7" y1="98.009" x2="77.357" y2="97.237">
					<stop offset="0" stop-color="#ffffff" stop-opacity="0.2" />
					<stop offset="1" stop-color="#ffffff" stop-opacity="0" />
				</linearGradient>
			</defs>
			<path id="Path-32" d="M108.75 52.697 C108.24 52.697 107.708 52.764 107.155 52.867 105.303 50.708 102.561 49.333 99.5 49.333 96.439 49.333 93.697 50.708 91.845 52.867 91.292 52.764 90.76 52.697 90.25 52.697 85.149 52.697 81 56.846 81 61.947 81 65.442 82.971 68.619 86.065 70.19 L86.049 82.898 C86.048 83.815 86.404 84.677 87.052 85.326 87.701 85.976 88.562 86.333 89.48 86.333 L109.524 86.333 C111.416 86.333 112.954 84.794 112.954 82.902 L112.954 70.178 C116.037 68.603 118 65.43 118 61.947 118 56.846 113.85 52.697 108.75 52.697 Z" fill-opacity="1" fill="url(#linear-gradient3-12)" stroke="none" />
			<g id="group-1" />
			<g id="group-2" />
			<g id="group-3" />
			<g id="group-4" />
			<g id="group-5" />
			<g id="group-6" />
			<g id="group-7" />
			<g id="group-8" />
			<g id="group-9" />
			<g id="group-10" />
			<g id="group-11" />
			<g id="group-12" />
			<g id="group-13" />
			<g id="group-14" />
			<g id="group-15" />
		</g>
	</g>
	<path id="Rounded-Rectangle" d="M138.035 176.628 C134.694 174.684 130.409 175.817 128.465 179.158 L123.435 187.801 C121.491 191.142 122.623 195.427 125.964 197.372 L125.964 197.372 C129.306 199.316 133.591 198.184 135.535 194.842 L140.565 186.199 C142.509 182.858 141.377 178.573 138.035 176.628 Z" fill="#000000" fill-opacity="1" stroke="none" />
	<g id="recipebook">
		<g id="burger">
			<path id="Path-33" d="M315.982 189.735 L298.541 174.385 C297.941 173.858 297.028 173.916 296.501 174.516 L295.664 175.466 C295.457 175.702 295.48 176.061 295.716 176.269 L314.473 192.777 C314.709 192.984 315.068 192.962 315.276 192.726 L316.112 191.775 C316.639 191.176 316.581 190.263 315.982 189.735 Z M315.982 189.735" fill="#912c2c" fill-opacity="1" stroke="none" />
			<path id="Path-34" d="M315.982 189.735 L314.521 188.449 312.353 190.911 314.473 192.777 C314.709 192.984 315.068 192.961 315.276 192.725 L316.112 191.775 C316.64 191.176 316.581 190.263 315.982 189.735 Z M315.982 189.735" fill="#7c1e1e" fill-opacity="1" stroke="none" />
			<path id="Path-35" d="M317.852 189.082 C318.417 189.579 318.48 190.467 317.963 191.056 317.223 191.898 315.872 191.499 314.902 190.356 313.996 189.288 314.404 188.798 313.35 187.871 312.297 186.943 311.741 187.574 310.688 186.647 309.634 185.72 310.19 185.089 309.136 184.162 308.083 183.235 307.528 183.866 306.474 182.938 305.421 182.011 305.976 181.38 304.922 180.453 303.869 179.526 303.314 180.157 302.26 179.23 301.207 178.303 301.762 177.672 300.708 176.745 299.655 175.818 299.22 176.284 298.046 175.521 296.789 174.704 296.222 173.415 296.962 172.574 297.481 171.986 298.37 171.936 298.935 172.433 Z M317.852 189.082" fill="#a0e557" fill-opacity="1" stroke="none" />
			<path id="Path-36" d="M317.963 191.056 C318.48 190.467 318.417 189.579 317.852 189.082 L316.271 187.69 314.471 189.735 C314.572 189.922 314.707 190.126 314.902 190.356 315.872 191.499 317.223 191.898 317.963 191.056 Z M317.963 191.056" fill="#93cc4a" fill-opacity="1" stroke="none" />
			<path id="Path-37" d="M315.334 193.146 L295.232 175.455 C294.741 175.023 293.994 175.071 293.562 175.562 291.317 178.112 291.566 181.999 294.116 184.243 L306.759 195.37 C309.309 197.614 313.196 197.367 315.44 194.816 315.872 194.326 315.824 193.578 315.334 193.146 Z M315.334 193.146" fill="#efa335" fill-opacity="1" stroke="none" />
			<path id="Path-38" d="M315.334 193.146 L313.68 191.691 312.117 193.468 C310.304 195.527 307.165 195.728 305.105 193.915 L306.759 195.37 C309.309 197.614 313.196 197.367 315.44 194.816 315.872 194.326 315.824 193.578 315.334 193.146 Z M315.334 193.146" fill="#fd8f31" fill-opacity="1" stroke="none" />
			<path id="Path-39" d="M318.114 187.305 L300.672 171.955 C300.073 171.428 300.015 170.515 300.542 169.916 L301.379 168.965 C301.586 168.729 301.946 168.706 302.182 168.914 L320.939 185.422 C321.175 185.63 321.197 185.989 320.99 186.225 L320.153 187.175 C319.626 187.774 318.713 187.833 318.114 187.305 Z M318.114 187.305" fill="#fc4e51" fill-opacity="1" stroke="none" />
			<path id="Path-40" d="M320.939 185.422 L318.827 183.564 317.239 185.368 C316.919 185.732 316.366 185.767 316.002 185.447 L318.114 187.305 C318.713 187.833 319.626 187.774 320.153 187.175 L320.99 186.225 C321.197 185.989 321.174 185.63 320.939 185.422 Z M320.939 185.422" fill="#ea3942" fill-opacity="1" stroke="none" />
			<path id="Path-41" d="M319.211 187.905 L299.958 170.961 C299.521 170.577 298.836 170.608 298.46 171.051 298.096 171.482 298.141 172.127 298.567 172.501 L310.8 183.267 C310.998 183.442 311.128 183.682 311.165 183.944 L311.592 186.959 C311.717 187.84 312.502 188.474 313.39 188.409 L315.931 188.225 C316.228 188.203 316.521 188.302 316.744 188.498 L317.82 189.445 C318.257 189.83 318.942 189.799 319.318 189.355 319.682 188.925 319.637 188.28 319.211 187.905 Z M319.211 187.905" fill="#fccf3f" fill-opacity="1" stroke="none" />
			<path id="Path-42" d="M318.385 169.413 C308.196 160.454 301.529 166.509 300.692 167.46 300.26 167.951 300.308 168.699 300.798 169.13 L320.9 186.822 C321.391 187.253 322.138 187.205 322.57 186.715 323.407 185.763 328.566 178.381 318.385 169.413 Z M318.385 169.413" fill="#efa335" fill-opacity="1" stroke="none" />
			<path id="Path-43" d="M322.592 186.69 C322.595 186.687 322.597 186.684 322.599 186.681 322.605 186.674 322.611 186.668 322.616 186.661 322.619 186.658 322.622 186.654 322.625 186.651 322.631 186.644 322.637 186.637 322.643 186.629 322.646 186.625 322.648 186.622 322.651 186.619 322.658 186.61 322.665 186.602 322.672 186.593 322.674 186.59 322.677 186.587 322.679 186.584 322.687 186.574 322.695 186.563 322.704 186.552 322.705 186.551 322.707 186.549 322.708 186.547 322.761 186.479 322.821 186.399 322.885 186.307 322.885 186.307 322.886 186.307 322.886 186.307 324.21 184.426 327.653 177.577 318.385 169.413 317.943 169.025 317.509 168.666 317.081 168.333 322.926 174.132 322.507 179.157 321.414 182.027 320.953 183.235 319.422 183.604 318.452 182.75 L301.749 168.05 C301.383 167.728 301.264 167.231 301.406 166.795 301.052 167.082 300.812 167.324 300.692 167.46 300.26 167.951 300.308 168.699 300.798 169.13 L320.9 186.822 C321.391 187.253 322.138 187.205 322.57 186.715 322.577 186.707 322.584 186.698 322.592 186.69 Z M322.592 186.69" fill="#fd8f31" fill-opacity="1" stroke="none" />
			<path id="Path-44" d="M319.211 187.905 L317.448 186.353 315.792 188.235 315.931 188.225 C316.228 188.203 316.521 188.302 316.744 188.498 L317.82 189.445 C318.256 189.829 318.942 189.799 319.318 189.355 319.682 188.925 319.637 188.28 319.211 187.905 Z M319.211 187.905" fill="#efc03c" fill-opacity="1" stroke="none" />
		</g>
		<path id="Rounded-Rectangle-1" d="M191.5 178 C187.911 178 185 180.911 185 184.5 L185 327.5 C185 331.089 187.911 334 191.5 334 195.089 334 198 331.089 198 327.5 L198 184.5 C198 180.911 195.089 178 191.5 178 Z" fill="#656d78" fill-opacity="1" stroke="none" />
		<path id="Rectangle-3" d="M192.8 331.4 L312.4 331.4 312.4 321 192.8 321 Z" fill="#e7e9ed" fill-opacity="1" stroke="none" />
		<path id="Ellipse" d="M200.6 326.2 C200.6 323.328 197.689 321 194.1 321 190.51 321 187.6 323.328 187.6 326.2 187.6 329.072 190.51 331.4 194.1 331.4 197.689 331.4 200.6 329.072 200.6 326.2 Z" fill="#e7e9ed" fill-opacity="1" stroke="none" />
		<path id="Line" d="M198 327.5 L300.7 327.5" fill="none" stroke="#9ea2ab" stroke-width="1.142" stroke-opacity="1" stroke-linejoin="round" />
		<path id="Rectangle-1" d="M191.5 334 L315 334 315 331.4 191.5 331.4 Z" fill="#3a8ee1" fill-opacity="1" stroke="none" />
		<path id="Rectangle-2" d="M309.8 331.4 L315 331.4 315 321 309.8 321 Z" fill="#2c70b4" fill-opacity="1" stroke="none" />
		<g id="rice">
			<path id="Path-45" d="M222.727 339.72 L224.247 337.063 C224.368 336.852 224.4 336.601 224.336 336.366 224.272 336.13 224.117 335.931 223.906 335.81 223.694 335.689 223.539 335.489 223.475 335.254 223.411 335.019 223.443 334.768 223.565 334.557 L223.868 334.026 C223.99 333.814 224.022 333.563 223.958 333.328 223.894 333.093 223.739 332.893 223.527 332.773 L222.821 332.369 C222.454 332.16 222.279 331.727 222.397 331.322 L222.716 330.172 C222.761 330.016 222.742 329.848 222.663 329.706 222.584 329.565 222.451 329.46 222.295 329.416 221.815 329.282 221.411 328.957 221.178 328.517 220.945 328.077 220.902 327.56 221.06 327.088 L221.199 326.66 221.219 326.587 220.525 324.201 C220.326 323.958 220.085 323.753 219.813 323.596 L218.974 323.116 C218.553 322.877 218.214 322.518 217.998 322.085 L217.973 322.043 215.215 320.465 C214.473 320.323 213.84 319.841 213.506 319.163 213.236 318.629 212.816 318.184 212.297 317.887 L212.068 317.756 C211.714 317.552 211.281 317.54 210.916 317.724 210.547 317.909 210.12 317.939 209.729 317.808 209.338 317.677 209.015 317.396 208.832 317.026 208.76 316.888 208.649 316.773 208.514 316.696 208.329 316.589 208.11 316.56 207.904 316.615 L207.152 316.82 C206.963 316.874 206.782 316.956 206.618 317.064 206.071 317.425 205.368 317.448 204.799 317.124 204.139 316.748 203.298 316.976 202.92 317.636 202.781 317.88 202.516 318.023 202.236 318.006 L200.855 317.929 C200.307 317.901 199.79 318.183 199.515 318.657 199.412 318.836 199.227 318.952 199.021 318.967 L198.131 319.029 C197.517 319.07 196.964 319.416 196.66 319.95 L196.541 320.158 C196.373 320.45 195.999 320.552 195.706 320.385 195.412 320.218 195.039 320.32 194.87 320.613 L193.503 323.004 Z" fill="#ecf0f1" fill-opacity="1" stroke="none" />
			<path id="Path-46" d="M223.214 339.843 L222.729 340.221 C219.386 342.834 215.344 344.397 211.113 344.712 210.739 344.738 210.354 344.757 209.975 344.766 L209.969 344.763 209.328 345.884 C209.177 346.152 208.925 346.348 208.628 346.428 208.332 346.509 208.016 346.468 207.75 346.314 L194.88 338.953 C194.614 338.801 194.419 338.549 194.338 338.253 194.257 337.957 194.298 337.641 194.45 337.374 L195.092 336.253 C194.907 335.922 194.731 335.589 194.567 335.248 192.689 331.44 191.983 327.161 192.538 322.952 L192.619 322.343 C192.575 322.162 192.643 321.974 192.791 321.863 192.939 321.751 193.139 321.738 193.3 321.83 L223.311 338.995 C223.472 339.087 223.563 339.266 223.542 339.451 223.521 339.636 223.392 339.79 223.214 339.843 Z" fill="#b0d3f0" fill-opacity="1" stroke="none" />
			<g id="group-16">
				<path id="Path-47" d="M211.188 342.638 C210.951 342.503 210.832 342.227 210.896 341.962 210.961 341.697 211.193 341.506 211.466 341.495 L211.469 341.495 C214.145 341.418 216.741 340.565 218.941 339.041 219.211 338.837 219.595 338.889 219.799 339.159 220.003 339.428 219.95 339.812 219.681 340.016 217.271 341.69 214.428 342.629 211.495 342.719 211.387 342.719 211.282 342.692 211.188 342.638 Z" fill="#90bae1" fill-opacity="1" stroke="none" />
				<path id="Path-48" d="M202.531 340.508 C202.362 340.801 201.989 340.902 201.695 340.736 L194.788 336.785 195.092 336.253 C194.907 335.922 194.731 335.589 194.567 335.248 L202.303 339.673 C202.596 339.841 202.697 340.215 202.531 340.508 Z" fill="#90bae1" fill-opacity="1" stroke="none" />
				<path id="Path-49" d="M211.113 344.712 C210.739 344.738 210.354 344.757 209.975 344.766 L209.969 344.763 209.666 345.295 208.072 344.383 C207.778 344.215 207.676 343.841 207.844 343.547 208.012 343.254 208.386 343.152 208.679 343.32 Z" fill="#90bae1" fill-opacity="1" stroke="none" />
			</g>
			<path id="Path-50" d="M205.34 324.168 L215.215 320.465 225.994 316.427 C226.626 316.192 227.328 316.512 227.564 317.144 227.801 317.775 227.481 318.478 226.85 318.715 L217.973 322.043 208.663 325.533 207.596 325.931" fill="#af8066" fill-opacity="1" stroke="none" />
			<path id="Path-51" d="M207.27 325.688 L208.663 325.533 220.525 324.201 230.72 323.058 C231.042 323.02 231.366 323.112 231.62 323.315 231.874 323.517 232.037 323.812 232.072 324.134 232.11 324.457 232.018 324.781 231.816 325.035 231.613 325.289 231.318 325.451 230.995 325.486 L221.219 326.587 211.83 327.641 211.822 327.643" fill="#7f5b53" fill-opacity="1" stroke="none" />
			<path id="Path-52" d="M213.302 330.306 C213.197 330.247 213.112 330.157 213.058 330.049 L212.335 328.601 C212.253 328.438 212.101 328.322 211.922 328.285 L210.995 328.099 C210.61 328.022 210.26 327.822 209.998 327.529 L209.368 326.824 C209.246 326.688 209.068 326.616 208.886 326.628 L208.256 326.671 C207.393 326.729 206.609 326.171 206.38 325.336 206.322 325.12 206.146 324.955 205.925 324.911 L205.246 324.775 C204.773 324.682 204.357 324.403 204.091 324.001 203.95 323.788 203.688 323.689 203.442 323.756 L202.609 323.983 C202.282 324.072 201.946 323.88 201.857 323.554 201.768 323.227 201.961 322.891 202.287 322.802 L203.12 322.575 C203.874 322.369 204.676 322.67 205.109 323.321 205.195 323.453 205.331 323.544 205.486 323.575 L206.166 323.711 C206.841 323.844 207.383 324.35 207.561 325.015 207.636 325.286 207.891 325.468 208.173 325.45 L208.802 325.407 C209.362 325.367 209.908 325.589 210.281 326.008 L210.91 326.713 C210.996 326.809 211.11 326.874 211.235 326.899 L212.163 327.085 C212.713 327.194 213.181 327.552 213.431 328.054 L214.153 329.502 C214.274 329.743 214.222 330.035 214.026 330.22 213.83 330.406 213.536 330.441 213.302 330.306 Z" fill="#bdc3c7" fill-opacity="1" stroke="none" />
			<g id="group-17" />
			<g id="group-18" />
			<g id="group-19" />
			<g id="group-20" />
			<g id="group-21" />
			<g id="group-22" />
			<g id="group-23" />
			<g id="group-24" />
			<g id="group-25" />
			<g id="group-26" />
			<g id="group-27" />
			<g id="group-28" />
			<g id="group-29" />
			<g id="group-30" />
			<g id="group-31" />
		</g>
		<g id="taco">
			<path id="Path-53" d="M319.141 320.675 C315.016 310.933 303.773 306.38 294.031 310.506 284.289 314.632 279.736 325.874 283.862 335.616 284.874 338.006 287.632 339.123 290.022 338.111 L320.974 325.003 Z M319.141 320.675" fill="#efd176" fill-opacity="1" stroke="none" />
			<path id="Path-54" d="M294.291 318.71 L289.219 313.701 C287.934 312.432 288.601 310.242 290.376 309.905 L293.608 309.292 C294.256 309.169 294.817 308.768 295.141 308.194 L296.346 306.063 C297.036 304.844 298.662 304.549 299.735 305.448 L300.878 306.404 C301.894 307.255 303.422 307.043 304.169 305.948 L306.115 303.09 C307.097 301.649 309.277 301.832 310.004 303.417 L313.323 310.651 Z M294.291 318.71" fill="#89d47f" fill-opacity="1" stroke="none" />
			<path id="Path-55" d="M295.607 307.37 L295.141 308.194 C294.817 308.767 294.256 309.169 293.608 309.292 L290.376 309.905 C288.601 310.241 287.934 312.432 289.219 313.701 L294.291 318.71 302.364 315.292 C299.313 313.732 296.642 310.501 295.607 307.37 Z M295.607 307.37" fill="#5ec783" fill-opacity="1" stroke="none" />
			<path id="Path-56" d="M300.156 325.731 C299.781 324.845 299.244 324.076 298.591 323.436 298.752 323.164 298.9 322.883 299.03 322.588 294.041 323.277 286.744 321.519 286.249 314.88 285.598 315.548 285.055 316.334 284.666 317.223 283.404 320.104 284.095 323.239 286.159 325.268 284.982 327.247 284.711 329.672 285.644 331.876 287.248 335.664 291.797 337.359 295.805 335.662 299.812 333.965 301.76 329.519 300.156 325.731 Z M300.156 325.731" fill="#886449" fill-opacity="1" stroke="none" />
			<path id="Ellipse-1" d="M297.202 316.22 C295.81 312.933 291.834 311.473 288.323 312.961 284.811 314.448 283.093 318.318 284.485 321.605 285.878 324.893 289.853 326.352 293.364 324.865 296.876 323.378 298.594 319.508 297.202 316.22 Z" fill="#ea3942" fill-opacity="1" stroke="none" />
			<path id="Path-57" d="M325.302 323.17 C327.692 322.158 328.809 319.4 327.797 317.01 323.671 307.268 312.429 302.715 302.686 306.841 292.944 310.966 288.391 322.208 292.517 331.951 293.529 334.341 292.412 337.099 290.022 338.111 Z M325.302 323.17" fill="#f7ef87" fill-opacity="1" stroke="none" />
			<path id="Path-58" d="M299.968 308.256 C292.134 313.163 288.797 323.166 292.517 331.951 293.529 334.341 292.412 337.099 290.022 338.111 L314.363 327.803 C307.201 325.067 300.242 315.475 299.968 308.256 Z M299.968 308.256" fill="#efd176" fill-opacity="1" stroke="none" />
			<path id="Path-59" d="M318.362 323.365 C318.193 323.437 317.995 323.444 317.811 323.369 317.442 323.22 317.265 322.801 317.414 322.432 L318.775 319.072 C318.924 318.703 319.344 318.525 319.712 318.675 320.081 318.824 320.259 319.244 320.109 319.612 L318.749 322.972 C318.674 323.157 318.532 323.293 318.362 323.365 Z M318.362 323.365" fill="#efd176" fill-opacity="1" stroke="none" />
			<path id="Path-60" d="M311.72 326.178 C311.55 326.25 311.353 326.257 311.169 326.182 310.8 326.033 310.622 325.614 310.772 325.245 L312.132 321.885 C312.282 321.516 312.702 321.338 313.07 321.488 313.439 321.637 313.616 322.057 313.467 322.425 L312.107 325.785 C312.032 325.97 311.89 326.106 311.72 326.178 Z M311.72 326.178" fill="#efd176" fill-opacity="1" stroke="none" />
			<path id="Path-61" d="M305.078 328.991 C304.908 329.063 304.711 329.07 304.527 328.995 304.158 328.846 303.98 328.427 304.13 328.058 L305.49 324.698 C305.64 324.329 306.06 324.151 306.428 324.3 306.797 324.45 306.974 324.87 306.825 325.238 L305.464 328.598 C305.389 328.783 305.247 328.919 305.078 328.991 Z M305.078 328.991" fill="#f7ef87" fill-opacity="1" stroke="none" />
			<path id="Path-62" d="M308.094 309.143 C308.256 309.525 308.078 309.967 307.695 310.129 307.312 310.291 306.871 310.112 306.709 309.729 306.547 309.347 306.725 308.905 307.108 308.743 307.491 308.581 307.932 308.76 308.094 309.143 Z M308.094 309.143" fill="#efd176" fill-opacity="1" stroke="none" />
			<path id="Path-63" d="M297.761 327.126 C297.599 326.743 297.157 326.564 296.775 326.726 296.392 326.888 296.213 327.33 296.375 327.713 296.537 328.095 296.979 328.274 297.362 328.112 297.744 327.95 297.923 327.509 297.761 327.126 Z M297.761 327.126" fill="#f7ef87" fill-opacity="1" stroke="none" />
			<path id="Path-64" d="M324.459 317.804 C324.054 317.896 323.8 318.299 323.891 318.704 323.983 319.109 324.386 319.363 324.791 319.272 325.196 319.18 325.451 318.777 325.359 318.372 325.267 317.967 324.865 317.712 324.459 317.804 Z M324.459 317.804" fill="#efd176" fill-opacity="1" stroke="none" />
		</g>
		<path id="Rectangle" d="M191.5 321 L315 321 315 178 191.5 178 Z" fill="#3a8ee1" fill-opacity="1" stroke="none" />
		<path id="Rounded-Rectangle-1" d="M225.95 192.3 C217.694 192.3 211 198.994 211 207.25 211 215.506 217.694 222.2 225.95 222.2 L280.55 222.2 C288.806 222.2 295.5 215.506 295.5 207.25 295.5 198.994 288.806 192.3 280.55 192.3 Z" fill="#eaecdd" fill-opacity="1" stroke="none" />
		<defs>
			<text id="string3" transform="matrix(1.0 0.0 0.0 1.0 216.3269528 198.7)" text-decoration="none" font-family="Helvetica, Helvetica" x="1.0" font-size="20.8" y="16.0">
				Recipes
			</text>
		</defs>
		<use id="Recipes" xlink:href="#string3" fill="#5b5b5b" fill-opacity="1" stroke="none" />
	</g>
</svg>
