<?xml version="1.0" encoding="UTF-8"?>
<svg preserveAspectRatio="none" viewBox="0 0 512 512" xmlns="http://www.w3.org/2000/svg" xmlns:xlink="http://www.w3.org/1999/xlink" version="1.1">
	<g id="New-Group">
		<g id="Man">
			<defs>
				<linearGradient id="linear-gradient6" gradientUnits="userSpaceOnUse" x1="-2785.165" y1="1639.78" x2="-2793.096" y2="1625.853">
					<stop offset="0" stop-color="#753200" stop-opacity="1" />
					<stop offset="1" stop-color="#a04400" stop-opacity="1" />
				</linearGradient>
			</defs>
			<path id="Path" d="M153.958 283.966 L154.565 292.442 153.814 297.881 152.353 299.181 146.225 297.34 144.715 295.009 145.441 284.284 Z" fill-opacity="1" fill="url(#linear-gradient6)" stroke="none" />
			<defs>
				<linearGradient id="linear-gradient6-1" gradientUnits="userSpaceOnUse" x1="-2695.834" y1="1744.487" x2="-2702.494" y2="1732.784">
					<stop offset="0" stop-color="#753200" stop-opacity="1" />
					<stop offset="1" stop-color="#a04400" stop-opacity="1" />
				</linearGradient>
			</defs>
			<path id="Path-1" d="M133.355 284.346 L134.052 288.699 134.853 294.798 132.81 296.956 126.542 295.648 124.842 293.457 125.7 285.101 Z" fill-opacity="1" fill="url(#linear-gradient6-1)" stroke="none" />
			<path id="Path-2" d="M160.029 250.566 C160.689 247.05 162.092 242.816 161.3 239.325 159.005 229.129 155.345 206.577 153.265 199.323 152.254 195.794 142.734 192.72 134.543 192.386 134.509 192.847 134.5 193.31 134.518 193.772 130.945 192.947 126.389 192.559 122.18 192.386 121.355 202.17 123.855 247.512 123.855 247.512 L125.234 286.12 134.007 286.289 C134.007 286.289 139.165 222.411 141.022 222.208 142.879 222.006 147.265 244.756 147.063 247.892 L144.715 285.778 154.784 285.703 Z" fill="#000000" fill-opacity="1" stroke="none" />
			<defs>
				<linearGradient id="linear-gradient6-2" gradientUnits="userSpaceOnUse" x1="109.111" y1="172.224" x2="164.956" y2="172.224">
					<stop offset="0" stop-color="#ee3219" stop-opacity="1" />
					<stop offset="0.44" stop-color="#e82d27" stop-opacity="1" />
					<stop offset="0.89" stop-color="#d51f3a" stop-opacity="1" />
				</linearGradient>
			</defs>
			<path id="Path-3" d="M156.991 144.126 C153.166 140.627 138.884 138.291 135.455 138.246 129.41 138.167 119.473 140.532 115.887 144.518 113.242 147.46 110.865 156.32 109.107 164.771 L121.681 171.283 C122.527 169.512 123.195 168.208 123.418 167.982 121.578 178.298 120.785 190.983 120.831 201.654 138.228 203.54 144.765 211.376 153.909 200.721 L153.529 164.854 154.095 172.281 164.935 168.98 C163.771 158.189 161.448 148.203 156.991 144.126 Z" fill-opacity="1" fill="url(#linear-gradient6-2)" stroke="none" />
			<defs>
				<linearGradient id="linear-gradient6-3" gradientUnits="userSpaceOnUse" x1="154.111" y1="196.549" x2="173.007" y2="196.549">
					<stop offset="0" stop-color="#a04400" stop-opacity="1" />
					<stop offset="0.3" stop-color="#9c4200" stop-opacity="1" />
					<stop offset="0.62" stop-color="#8e3d00" stop-opacity="1" />
					<stop offset="0.95" stop-color="#793300" stop-opacity="1" />
					<stop offset="1" stop-color="#753200" stop-opacity="1" />
				</linearGradient>
			</defs>
			<path id="Path-4" d="M172.85 217.356 C172.503 216.167 172.639 215.783 171.121 214.182 169.602 212.581 166.346 208.97 166.346 208.97 166.346 208.97 165.022 205.492 165.108 204.105 165.521 198.444 166.45 183.002 164.927 168.997 L154.086 172.298 154.804 181.715 C154.804 181.715 160.235 210.691 160.103 210.98 159.777 211.97 159.74 213.032 159.996 214.042 160.309 215.086 160.821 215.767 161.708 216.931 162.595 218.094 163.536 219.225 163.792 220.438 164.048 221.651 163.792 221.763 164.374 221.973 164.956 222.184 166.202 221.21 166.107 220.182 166.012 219.155 165.777 217.397 165.777 217.397 166.393 217.804 167.045 218.153 167.725 218.441 168.711 218.796 169.447 219.633 169.672 220.657 169.982 222.819 170.064 223.475 170.745 224.003 171.426 224.531 171.983 222.604 171.983 222.604 171.983 222.604 173.473 219.439 172.85 217.355 Z" fill-opacity="1" fill="url(#linear-gradient6-3)" stroke="none" />
			<defs>
				<linearGradient id="linear-gradient6-4" gradientUnits="userSpaceOnUse" x1="-2895.294" y1="544.561" x2="-2892.632" y2="544.561">
					<stop offset="0" stop-color="#753200" stop-opacity="1" />
					<stop offset="1" stop-color="#a04400" stop-opacity="1" />
				</linearGradient>
			</defs>
			<path id="Path-5" d="M129.162 120.795 C128.617 119.817 127.879 117.081 127.532 116.255 128.96 116.169 130.59 118.009 130.833 119.264 130.466 119.317 129.496 120.46 129.162 120.795 Z" fill-opacity="1" fill="url(#linear-gradient6-4)" stroke="none" />
			<defs>
				<linearGradient id="linear-gradient6-5" gradientUnits="userSpaceOnUse" x1="-2924.464" y1="564.372" x2="-2904.608" y2="553.024">
					<stop offset="0" stop-color="#753200" stop-opacity="1" />
					<stop offset="1" stop-color="#a04400" stop-opacity="1" />
				</linearGradient>
			</defs>
			<path id="Path-6" d="M138.443 142.975 C140.733 142.963 142.731 141.417 143.316 139.203 143.421 138.565 143.443 137.916 143.382 137.272 L143.357 136.579 143.337 135.939 143.312 135.155 C143.675 135.13 144.036 135.083 144.393 135.015 147.199 134.474 151.553 132.44 152.716 127.806 153.542 124.574 152.184 121.707 152.06 119.837 151.937 117.968 152.621 116.598 152.84 114.473 153.125 111.766 151.854 108.469 150.492 107.755 144.348 104.511 133.78 108.452 133.78 108.452 133.78 108.452 130.268 110.255 132.129 117.683 131.745 117.46 132.567 119.004 132.055 118.921 131.157 118.746 130.227 118.964 129.5 119.52 128.201 120.646 128.333 123.196 131.197 126.559 L131.296 126.679 C131.425 127.383 131.509 128.094 131.547 128.808 131.547 128.916 131.547 129.027 131.572 129.139 131.655 130.455 131.766 132.163 131.869 133.81 132.018 136.191 132.051 138.246 132.08 139.042 132.141 141.015 134.378 143.115 138.443 142.975 Z" fill-opacity="1" fill="url(#linear-gradient6-5)" stroke="none" />
			<defs>
				<linearGradient id="linear-gradient6-6" gradientUnits="userSpaceOnUse" x1="-2910.236" y1="544.453" x2="-2898.562" y2="536.91">
					<stop offset="0" stop-color="#a04400" stop-opacity="0" />
					<stop offset="0.18" stop-color="#9a4100" stop-opacity="0.14" />
					<stop offset="0.52" stop-color="#8a3b00" stop-opacity="0.52" />
					<stop offset="0.9" stop-color="#753200" stop-opacity="1" />
				</linearGradient>
			</defs>
			<path id="Path-7" d="M132.121 117.7 C130.264 110.272 133.771 108.469 133.771 108.469 133.771 108.469 144.339 104.528 150.484 107.771 151.445 108.275 151.689 109.719 151.974 110.949 149.498 109.191 144.74 110.26 140.956 110.602 139.144 110.767 140.077 112.665 139.578 112.781 135.513 112.302 132.975 114.489 134.056 120.126 L132.088 118.95 C132.505 118.917 131.75 117.493 132.121 117.7 Z" fill-opacity="1" fill="url(#linear-gradient6-6)" stroke="none" />
			<path id="Path-8" d="M127.285 115.872 C126.975 114.568 126.95 113.128 127.012 111.155 127.14 106.901 129.521 104.652 133.648 103.051 L137.638 101.767 C138.001 101.652 144.748 99.799 148.305 101.041 149.642 101.507 151.549 102.906 151.755 104.049 152.283 106.967 152.65 108.514 152.415 110.858 149.84 105.176 148.049 112.777 139.388 108.184 137.782 107.334 138.509 110.247 138.009 110.359 133.421 109.822 130.792 112.669 133.078 120.035 131.84 119.594 130.97 119.049 130.272 119.094 129.228 118.191 127.458 116.557 127.285 115.872 Z" fill="#1d0d01" fill-opacity="1" stroke="none" />
			<defs>
				<linearGradient id="linear-gradient6-7" gradientUnits="userSpaceOnUse" x1="-2894.052" y1="555.038" x2="-2904.265" y2="565.061">
					<stop offset="0" stop-color="#a04400" stop-opacity="1" />
					<stop offset="1" stop-color="#753200" stop-opacity="1" />
				</linearGradient>
			</defs>
			<path id="Path-9" d="M131.584 129.163 C134.236 133.247 138.546 135.962 143.374 136.591 L143.353 135.951 143.328 135.167 C143.691 135.142 144.052 135.095 144.41 135.027 141.847 133.574 134.704 129.452 131.205 126.597 L131.304 126.716 C131.433 127.42 131.517 128.131 131.556 128.846 131.551 128.94 131.56 129.048 131.584 129.163 Z" fill-opacity="1" fill="url(#linear-gradient6-7)" stroke="none" />
			<path id="Path-10" d="M132.269 119.841 C132.104 119.718 131.617 119.429 131.617 119.429 L131.663 117.976 133.879 118.896 C134.307 119.073 134.596 119.478 134.626 119.94 L134.943 125.004 C137.989 126.134 145.128 129.696 146.337 129.658 147.872 129.613 147.987 127.661 148.887 127.933 149.787 128.206 149.877 129.345 150.434 129.238 150.723 129.18 152.386 127.62 152.848 126.696 152.848 126.696 152.506 130.034 152.407 130.628 152.18 132.006 149.898 135.147 149.898 135.147 149.67 135.491 149.295 135.71 148.883 135.741 L145.293 136.009 143.312 135.262 C140.576 134.334 133.788 129.898 133.619 129.134 132.616 124.707 133.904 121.088 132.269 119.841 Z" fill="#1d0d01" fill-opacity="1" stroke="none" />
			<defs>
				<linearGradient id="linear-gradient6-8" gradientUnits="userSpaceOnUse" x1="-2894.006" y1="547.977" x2="-2895.323" y2="549.273">
					<stop offset="0" stop-color="#753200" stop-opacity="1" />
					<stop offset="1" stop-color="#a04400" stop-opacity="1" />
				</linearGradient>
			</defs>
			<path id="Path-11" d="M131.927 121.344 C131.927 121.344 130.846 120.015 130.194 121.108 129.542 122.202 130.755 123.939 130.755 123.939 Z" fill-opacity="1" fill="url(#linear-gradient6-8)" stroke="none" />
			<defs>
				<linearGradient id="linear-gradient6-9" gradientUnits="userSpaceOnUse" x1="105.996" y1="198.361" x2="121.697" y2="198.361">
					<stop offset="0" stop-color="#a04400" stop-opacity="1" />
					<stop offset="0.3" stop-color="#9c4200" stop-opacity="1" />
					<stop offset="0.62" stop-color="#8e3d00" stop-opacity="1" />
					<stop offset="0.95" stop-color="#793300" stop-opacity="1" />
					<stop offset="1" stop-color="#753200" stop-opacity="1" />
				</linearGradient>
			</defs>
			<path id="Path-12" d="M121.681 171.283 L109.091 164.767 C107.184 174.027 106 182.767 106 182.767 L108.109 210.415 108.133 214.236 C108.133 214.236 107.217 218.709 106.755 220.731 106.293 222.753 106.887 224.49 107.168 225.621 107.667 227.606 110.915 231.163 110.915 231.163 110.915 231.163 112.272 232.479 112.565 231.703 112.858 230.928 112.099 228.683 111.327 226.789 110.956 225.885 110.915 223.331 111.501 222.547 111.921 221.993 112.29 221.402 112.602 220.781 112.602 220.781 113.25 222.316 113.663 223.195 114.076 224.073 115.536 224.272 115.92 223.818 116.304 223.364 116.031 223.405 115.66 222.299 115.289 221.193 115.499 219.823 115.66 218.47 115.821 217.116 115.912 216.312 115.66 215.321 115.385 214.382 114.848 213.54 114.113 212.895 113.869 212.726 113.32 210.118 113.32 210.118 113.32 210.118 116.209 191.218 116.209 183.588 116.465 182.775 119.617 175.628 121.681 171.283 Z" fill-opacity="1" fill="url(#linear-gradient6-9)" stroke="none" />
			<path id="Path-13" d="M134.853 283.584 L134.853 284.544 C134.853 285.524 134.058 286.318 133.078 286.318 L125.481 286.318 C124.501 286.318 123.707 285.524 123.707 284.544 L123.707 282.625 C123.707 281.645 124.501 280.85 125.481 280.85 L133.078 280.85 C134.058 280.85 134.853 281.645 134.853 282.625 Z" fill="#443f40" fill-opacity="1" stroke="none" />
			<path id="Path-14" d="M155.737 283.584 L155.737 284.511 C155.737 285.509 154.928 286.318 153.93 286.318 L145.941 286.318 C144.942 286.318 144.133 285.509 144.133 284.511 L144.133 282.658 C144.133 281.66 144.942 280.85 145.941 280.85 L153.93 280.85 C154.928 280.85 155.737 281.66 155.737 282.658 Z" fill="#443f40" fill-opacity="1" stroke="none" />
			<path id="Path-15" d="M131.927 125.631 C131.927 126.037 131.598 126.365 131.192 126.365 130.787 126.365 130.458 126.037 130.458 125.631 130.458 125.225 130.787 124.896 131.192 124.896 131.598 124.896 131.927 125.225 131.927 125.631 Z" fill="#f2f4f6" fill-opacity="1" stroke="none" />
			<path id="Path-16" d="M124.235 294.621 C124.235 294.621 122.374 295.421 125.915 303.621 126.74 305.535 130.491 306.67 134.168 306.571 137.844 306.472 139.404 305.911 139.66 304.892 139.916 303.872 137.729 300.596 137.729 300.596 Z" fill="#fef5ff" fill-opacity="1" stroke="none" />
			<defs>
				<linearGradient id="linear-gradient6-10" gradientUnits="userSpaceOnUse" x1="124.235" y1="296.494" x2="138.686" y2="296.494">
					<stop offset="0" stop-color="#e62a29" stop-opacity="1" />
					<stop offset="0.44" stop-color="#df2532" stop-opacity="1" />
					<stop offset="0.89" stop-color="#d52039" stop-opacity="1" />
				</linearGradient>
			</defs>
			<path id="Path-17" d="M124.268 293.808 C124.268 293.808 124.231 292.066 125.023 291.662 125.391 293.725 126.389 292.12 127.499 290.961 128.477 289.958 128.869 289.128 130.739 288.984 132.608 288.839 133.214 290.358 133.978 290.961 135.364 292.029 135.393 291.398 135.835 292.966 136.227 294.353 137.432 299.416 138.505 301.45 138.766 301.91 138.695 302.486 138.331 302.87 136.594 304.582 132.666 303.959 130.516 303.6 128.077 303.188 125.873 301.669 124.924 298.417 123.975 295.165 124.268 293.808 124.268 293.808 Z" fill-opacity="1" fill="url(#linear-gradient6-10)" stroke="none" />
			<path id="Path-18" d="M143.886 298.896 L143.886 301.244 C143.879 302.079 144.497 302.788 145.326 302.894 146.976 303.125 149.626 303.509 151.062 303.79 153.249 304.203 158.489 306.121 161.432 306.311 164.374 306.501 167.708 306.551 169.185 305.597 170.663 304.644 170.328 302.412 170.328 302.412 Z" fill="#f6ffff" fill-opacity="1" stroke="none" />
			<defs>
				<linearGradient id="linear-gradient6-11" gradientUnits="userSpaceOnUse" x1="143.811" y1="297.059" x2="170.324" y2="297.059">
					<stop offset="0" stop-color="#e32a2b" stop-opacity="1" />
					<stop offset="0.44" stop-color="#de2631" stop-opacity="1" />
					<stop offset="0.89" stop-color="#d61e3b" stop-opacity="1" />
				</linearGradient>
			</defs>
			<path id="Path-19" d="M144.736 292.619 C144.736 292.619 143.213 298.421 144.071 299.28 144.93 300.138 151.346 300.563 153.059 301.656 154.771 302.75 161.762 304.463 165.472 304.178 169.181 303.893 170.229 303.418 170.324 302.42 170.419 301.421 162.946 300.039 161.621 299.061 160.297 298.083 159.48 294.542 157.627 293.354 155.774 292.165 157.214 290.024 155.25 289.929 153.286 289.834 153.822 292.974 150.921 293.164 148.845 293.229 146.769 293.047 144.736 292.619 Z" fill-opacity="1" fill="url(#linear-gradient6-11)" stroke="none" />
			<path id="Path-20" d="M143.919 207.477 C144.109 207.856 144.298 215.977 141.03 222.212" fill="none" stroke="#343434" stroke-width="0.38" stroke-opacity="1" stroke-linejoin="round" />
			<g id="chefhat">
				<path id="Path-21" d="M150.505 75.773 C149.961 75.773 149.394 75.845 148.804 75.955 146.83 73.653 143.907 72.188 140.644 72.188 137.381 72.188 134.459 73.653 132.484 75.955 131.895 75.845 131.327 75.773 130.784 75.773 125.347 75.773 120.924 80.197 120.924 85.634 120.924 89.359 123.025 92.746 126.323 94.421 L126.306 107.967 C126.305 108.945 126.685 109.864 127.375 110.556 128.067 111.248 128.985 111.629 129.963 111.629 L151.329 111.629 C153.346 111.629 154.987 109.988 154.987 107.972 L154.987 94.407 C158.273 92.729 160.365 89.347 160.365 85.634 160.365 80.197 155.942 75.773 150.505 75.773 Z" fill="#303c42" fill-opacity="1" stroke="none" />
				<path id="Path-22" d="M151.329 109.836 L129.963 109.836 C129.465 109.836 128.996 109.642 128.644 109.289 128.292 108.936 128.097 108.468 128.098 107.969 L128.103 104.458 153.194 104.458 153.194 107.972 C153.194 108.999 152.357 109.836 151.329 109.836 Z" fill="#e6e6e6" fill-opacity="1" stroke="none" />
				<path id="Path-23" d="M129.891 107.969 L129.895 104.458 128.103 104.458 128.098 107.969 C128.098 108.468 128.292 108.936 128.644 109.289 128.996 109.642 129.465 109.836 129.963 109.836 L131.489 109.836 C131.063 109.836 130.661 109.642 130.359 109.289 130.057 108.936 129.89 108.468 129.891 107.969 Z" fill="#ffffff" fill-opacity="1" stroke="none" />
				<path id="Path-24" d="M151.401 104.458 L151.401 107.972 C151.401 108.999 150.684 109.836 149.803 109.836 L151.329 109.836 C152.357 109.836 153.194 108.999 153.194 107.972 L153.194 104.458 Z" fill="#000000" fill-opacity="1" stroke="none" />
				<path id="Path-25" d="M153.749 93.012 C153.701 93.031 153.657 93.054 153.615 93.081 153.502 93.151 153.409 93.244 153.34 93.351 153.27 93.457 153.223 93.579 153.203 93.711 153.195 93.761 153.193 93.811 153.194 93.861 L153.194 102.665 128.105 102.665 128.117 93.873 C128.118 93.824 128.115 93.775 128.108 93.726 128.089 93.591 128.039 93.465 127.966 93.355 127.898 93.253 127.809 93.164 127.7 93.095 127.655 93.067 127.608 93.043 127.559 93.022 124.617 91.736 122.716 88.838 122.716 85.634 122.716 81.185 126.335 77.566 130.784 77.566 130.958 77.566 131.141 77.587 131.321 77.601 130.415 79.177 129.888 80.999 129.888 82.944 129.888 83.44 130.288 83.841 130.784 83.841 131.279 83.841 131.68 83.44 131.68 82.944 131.68 78.002 135.702 73.98 140.644 73.98 145.587 73.98 149.608 78.002 149.608 82.944 149.608 83.44 150.009 83.841 150.505 83.841 151 83.841 151.401 83.44 151.401 82.944 151.401 80.999 150.874 79.177 149.967 77.601 150.147 77.587 150.331 77.566 150.505 77.566 154.953 77.566 158.572 81.185 158.572 85.634 158.572 88.827 156.68 91.721 153.749 93.012 Z" fill="#f2f2f2" fill-opacity="1" stroke="none" />
				<path id="Path-26" d="M140.644 75.101 C144.76 75.101 148.219 77.709 149.441 81.286 148.659 77.135 145.019 73.98 140.644 73.98 136.27 73.98 132.63 77.135 131.848 81.286 133.07 77.708 136.529 75.101 140.644 75.101 Z" fill="#ffffff" fill-opacity="1" stroke="none" />
				<path id="Path-27" d="M150.505 77.566 C150.331 77.566 150.147 77.587 149.967 77.601 149.974 77.613 149.978 77.625 149.985 77.637 153.625 77.999 156.499 81.425 156.499 85.634 156.499 88.827 154.826 91.721 152.234 93.012 152.192 93.031 152.152 93.054 152.115 93.081 152.015 93.151 151.933 93.244 151.872 93.351 151.81 93.457 151.768 93.579 151.751 93.711 151.744 93.76 151.742 93.81 151.743 93.861 L151.743 102.665 153.194 102.665 153.194 93.861 C153.193 93.81 153.196 93.76 153.203 93.711 153.223 93.579 153.27 93.457 153.34 93.351 153.409 93.244 153.502 93.151 153.615 93.081 153.657 93.054 153.702 93.031 153.749 93.012 156.68 91.721 158.572 88.827 158.572 85.634 158.572 81.185 154.953 77.566 150.505 77.566 Z" fill="#000000" fill-opacity="1" stroke="none" />
				<path id="Path-28" d="M129.557 93.726 C129.54 93.591 129.496 93.465 129.432 93.355 129.372 93.253 129.293 93.164 129.197 93.095 129.157 93.067 129.115 93.043 129.072 93.023 126.47 91.736 124.789 88.838 124.789 85.634 124.789 81.425 127.664 77.999 131.304 77.637 131.31 77.625 131.315 77.613 131.322 77.601 131.141 77.587 130.958 77.566 130.784 77.566 126.335 77.566 122.716 81.185 122.716 85.634 122.716 88.838 124.617 91.736 127.559 93.023 127.608 93.043 127.655 93.067 127.7 93.095 127.809 93.164 127.898 93.253 127.966 93.355 128.039 93.465 128.089 93.591 128.108 93.727 128.115 93.775 128.118 93.825 128.117 93.874 L128.105 102.665 129.555 102.665 129.565 93.874 C129.566 93.825 129.564 93.775 129.557 93.726 Z" fill="#ffffff" fill-opacity="1" stroke="none" />
				<g id="group">
					<path id="Path-29" d="M131.68 91.012 C131.68 90.516 131.279 90.115 130.784 90.115 130.288 90.115 129.888 90.516 129.888 91.012 129.888 93.366 132.484 96.598 132.78 96.959 132.958 97.175 133.215 97.287 133.474 97.287 133.674 97.287 133.875 97.22 134.042 97.084 134.425 96.769 134.48 96.205 134.166 95.821 133.205 94.65 131.68 92.309 131.68 91.012 Z" fill="#303c42" fill-opacity="1" stroke="none" />
					<path id="Path-30" d="M150.505 90.115 C150.009 90.115 149.608 90.516 149.608 91.012 149.608 92.305 148.083 94.648 147.122 95.822 146.809 96.205 146.865 96.769 147.247 97.084 147.414 97.22 147.615 97.287 147.815 97.287 148.074 97.287 148.331 97.175 148.509 96.959 148.805 96.598 151.401 93.366 151.401 91.012 151.401 90.516 151 90.115 150.505 90.115 Z" fill="#303c42" fill-opacity="1" stroke="none" />
					<path id="Path-31" d="M140.644 90.115 C140.149 90.115 139.748 90.516 139.748 91.012 L139.748 96.39 C139.748 96.886 140.149 97.287 140.644 97.287 141.14 97.287 141.541 96.886 141.541 96.39 L141.541 91.012 C141.541 90.516 141.14 90.115 140.644 90.115 Z" fill="#303c42" fill-opacity="1" stroke="none" />
				</g>
				<defs>
					<linearGradient id="linear-gradient6-12" gradientUnits="userSpaceOnUse" x1="115.274" y1="124.076" x2="117.04" y2="123.252">
						<stop offset="0" stop-color="#ffffff" stop-opacity="0.2" />
						<stop offset="1" stop-color="#ffffff" stop-opacity="0" />
					</linearGradient>
				</defs>
				<path id="Path-32" d="M150.505 75.773 C149.961 75.773 149.394 75.845 148.804 75.955 146.83 73.653 143.907 72.188 140.644 72.188 137.381 72.188 134.459 73.653 132.484 75.955 131.895 75.845 131.327 75.773 130.784 75.773 125.347 75.773 120.924 80.197 120.924 85.634 120.924 89.359 123.025 92.746 126.323 94.421 L126.306 107.967 C126.305 108.945 126.685 109.864 127.375 110.556 128.067 111.248 128.985 111.629 129.963 111.629 L151.329 111.629 C153.346 111.629 154.987 109.988 154.987 107.972 L154.987 94.407 C158.273 92.729 160.365 89.347 160.365 85.634 160.365 80.197 155.942 75.773 150.505 75.773 Z" fill-opacity="1" fill="url(#linear-gradient6-12)" stroke="none" />
				<g id="group-1" />
				<g id="group-2" />
				<g id="group-3" />
				<g id="group-4" />
				<g id="group-5" />
				<g id="group-6" />
				<g id="group-7" />
				<g id="group-8" />
				<g id="group-9" />
				<g id="group-10" />
				<g id="group-11" />
				<g id="group-12" />
				<g id="group-13" />
				<g id="group-14" />
				<g id="group-15" />
			</g>
		</g>
		<path id="Rounded-Rectangle" d="M181.722 207.882 C178.161 205.809 173.593 207.017 171.52 210.578 L166.159 219.792 C164.086 223.354 165.293 227.921 168.855 229.994 L168.855 229.994 C172.417 232.067 176.985 230.86 179.057 227.298 L184.419 218.084 C186.491 214.523 185.284 209.955 181.722 207.882 Z" fill="#000000" fill-opacity="1" stroke="none" />
		<g id="recipebook">
			<path id="Rounded-Rectangle-1" d="M288.024 199.674 C286.223 197.604 283.084 197.386 281.014 199.188 L198.541 270.949 C196.471 272.75 196.253 275.889 198.054 277.959 199.855 280.03 202.995 280.248 205.065 278.446 L287.537 206.685 C289.608 204.884 289.826 201.745 288.024 199.674 Z" fill="#656d78" fill-opacity="1" stroke="none" />
			<path id="Rectangle-3" d="M200.206 277.405 L260.225 346.382 266.223 341.162 206.204 272.186 Z" fill="#e7e9ed" fill-opacity="1" stroke="none" />
			<path id="Ellipse" d="M207.119 279.293 C208.776 277.852 208.658 275.005 206.857 272.935 205.055 270.865 202.252 270.355 200.596 271.796 198.939 273.237 199.057 276.084 200.859 278.154 202.66 280.224 205.463 280.735 207.119 279.293 Z" fill="#e7e9ed" fill-opacity="1" stroke="none" />
			<path id="Line" d="M205.065 278.446 L256.603 337.677" fill="none" stroke="#9ea2ab" stroke-width="0.999" stroke-opacity="1" stroke-linejoin="round" />
			<path id="Rectangle-1" d="M198.054 277.959 L260.03 349.186 261.529 347.881 199.554 276.655 Z" fill="#3a8ee1" fill-opacity="1" stroke="none" />
			<path id="Rectangle-2" d="M258.92 344.882 L261.529 347.881 267.527 342.662 264.918 339.663 Z" fill="#2c70b4" fill-opacity="1" stroke="none" />
			<path id="Rectangle" d="M205.552 271.436 L267.527 342.662 350 270.901 288.024 199.674 Z" fill="#3a8ee1" fill-opacity="1" stroke="none" />
			<path id="Rounded-Rectangle-1" d="M297.065 226.719 C292.922 221.957 285.702 221.456 280.941 225.599 276.179 229.742 275.677 236.962 279.821 241.724 L307.22 273.213 C311.364 277.975 318.583 278.476 323.345 274.333 328.107 270.19 328.608 262.97 324.465 258.208 Z" fill="#eaecdd" fill-opacity="1" stroke="none" />
			<defs>
				<text id="string6" transform="matrix(0.6564182613333405 0.7543971541490029 -0.7543971541490029 0.6564182613333405 288.07486750676514 223.8819575817687)" text-decoration="none" font-family="Helvetica, Helvetica" x="1.0" font-size="15.901" y="12.0">
					Recipes
				</text>
			</defs>
			<use id="Recipes" xlink:href="#string6" fill="#5b5b5b" fill-opacity="1" stroke="none" />
		</g>
	</g>
</svg>
