<svg viewBox="0 0 200 200" xmlns="http://www.w3.org/2000/svg" xmlns:xlink="http://www.w3.org/1999/xlink" version="1.1">
	<path id="Rounded-Rectangle" d="M55 40 C52.239 40 50 42.239 50 45 L50 155 C50 157.761 52.239 160 55 160 L55 160 C57.761 160 60 157.761 60 155 L60 45 C60 42.239 57.761 40 55 40 Z" fill="#656d78" fill-opacity="1" stroke="none" />
	<path id="Rectangle" d="M55 150 L150 150 150 40 55 40 Z" fill="#3a8ee1" fill-opacity="1" stroke="none" />
	<path id="Rounded-Rectangle-1" d="M81.5 51 C75.149 51 70 56.149 70 62.5 L70 62.5 C70 68.851 75.149 74 81.5 74 L123.5 74 C129.851 74 135 68.851 135 62.5 L135 62.5 C135 56.149 129.851 51 123.5 51 Z" fill="#eaecdd" fill-opacity="1" stroke="none" />
	<path id="Rectangle-1" d="M55 160 L150 160 150 158 55 158 Z" fill="#3a8ee1" fill-opacity="1" stroke="none" />
	<path id="Rectangle-2" d="M146 158 L150 158 150 150 146 150 Z" fill="#2c70b4" fill-opacity="1" stroke="none" />
	<path id="Ellipse" d="M62 154 C62 151.791 59.761 150 57 150 54.239 150 52 151.791 52 154 52 156.209 54.239 158 57 158 59.761 158 62 156.209 62 154 Z" fill="#e7e9ed" fill-opacity="1" stroke="none" />
	<path id="Rectangle-3" d="M56 158 L148 158 148 150 56 150 Z" fill="#e7e9ed" fill-opacity="1" stroke="none" />
	<path id="Line" d="M60 155 L139 155" fill="none" stroke="#9ea2ab" stroke-width="1" stroke-opacity="1" stroke-linejoin="round" />
	<defs>
		<text id="string" transform="matrix(1.0 0.0 0.0 1.0 74.0 56.0)" x="1.09765625" font-size="16" font-family="Helvetica, Helvetica" text-decoration="none" y="12.0" fill="#5b5b5b">
			Recipes
		</text>
	</defs>
	<use id="Recipes" xlink:href="#string" />
</svg>
