<svg height="512pt" viewBox="0 -106 512 512" width="512pt" xmlns="http://www.w3.org/2000/svg"><path d="m406.589844 245.101562c0-110.207031-89.339844-199.542968-199.542969-199.542968-110.207031 0-199.546875 89.335937-199.546875 199.542968 0 27.039063 21.917969 48.957032 48.953125 48.957032h350.136719zm0 0" fill="#efd176"/><path d="m176.210938 125.308594-28.304688-68.652344c-7.171875-17.394531 8.128906-35.691406 26.519531-31.710938l33.488281 7.25c6.714844 1.453126 13.726563-.121093 19.171876-4.308593l20.210937-15.542969c11.566406-8.890625 28.363281-5.117188 35.007813 7.871094l7.074218 13.8125c6.289063 12.289062 21.8125 16.464844 33.417969 8.988281l30.28125-19.503906c15.273437-9.835938 35.4375.773437 35.972656 18.933593l2.453125 82.863282zm0 0" fill="#89d47f"/><path d="m234.902344 21.875-7.816406 6.011719c-5.445313 4.183593-12.457032 5.761719-19.171876 4.308593l-33.488281-7.25c-18.390625-3.984374-33.691406 14.316407-26.519531 31.710938l28.304688 68.652344h91.324218c-22.929687-27.347656-35.429687-69.199219-32.632812-103.433594zm0 0" fill="#5ec783"/><path d="m205.996094 71.941406c-30.300782-30.300781-79.425782-30.300781-109.726563 0-22.503906 22.503906-28.28125 55.386719-17.355469 83.234375-18.269531 14.195313-30.042968 36.363281-30.042968 61.292969 0 42.851562 34.738281 77.589844 77.59375 77.589844 42.851562 0 77.589844-34.738282 77.589844-77.589844 0-10.019531-1.921876-19.578125-5.375-28.367188 2.535156-1.972656 4.988281-4.101562 7.316406-6.429687 30.304687-30.304687 30.304687-79.429687 0-109.730469zm0 0" fill="#e1b89a"/><path d="m204.054688 216.46875c0-10.019531-1.917969-19.578125-5.375-28.367188 2.503906-1.949218 4.925781-4.050781 7.230468-6.347656-47.882812-13.664062-107.292968-60.164062-86.292968-125.851562-8.46875 3.761718-16.40625 9.09375-23.347657 16.039062-22.503906 22.503906-28.28125 55.386719-17.355469 83.234375-18.269531 14.195313-30.042968 36.363281-30.042968 61.289063 0 42.851562 34.738281 77.589844 77.59375 77.589844 42.851562.003906 77.589844-34.734376 77.589844-77.585938zm0 0" fill="#d2996f"/><path d="m455.546875 294.058594c27.035156 0 48.953125-21.917969 48.953125-48.957032 0-110.207031-89.339844-199.542968-199.546875-199.542968-110.203125 0-199.542969 89.335937-199.542969 199.542968 0 27.039063-21.917968 48.957032-48.957031 48.957032zm0 0" fill="#f7ef87"/><path d="m273.132812 48.09375c-95.078124 15.242188-167.722656 97.636719-167.722656 197.007812 0 27.039063-21.917968 48.957032-48.957031 48.957032h275.347656c-57.578125-55.339844-85.367187-175.605469-58.667969-245.964844zm0 0" fill="#efd176"/><path d="m266 168.855469c0-15.535157-15.8125-28.125-35.320312-28.125-19.507813 0-35.320313 12.589843-35.320313 28.125 0 15.535156 15.8125 28.128906 35.320313 28.128906 19.507812 0 35.320312-12.59375 35.320312-28.128906zm0 0" fill="#eda1ab"/><path d="m457.445312 168.855469c0-15.535157-15.8125-28.125-35.320312-28.125s-35.320312 12.589843-35.320312 28.125c0 15.535156 15.8125 28.128906 35.320312 28.128906s35.320312-12.59375 35.320312-28.128906zm0 0" fill="#eda1ab"/><path d="m388.191406 267.738281c-1.921875 0-3.839844-.734375-5.304687-2.199219-2.929688-2.929687-2.929688-7.675781 0-10.605468l26.703125-26.703125c2.929687-2.929688 7.675781-2.929688 10.605468 0 2.929688 2.929687 2.929688 7.675781 0 10.605469l-26.703124 26.703124c-1.464844 1.464844-3.382813 2.199219-5.300782 2.199219zm0 0" fill="#efd176"/><path d="m313.050781 267.738281c-1.917969 0-3.839843-.734375-5.304687-2.199219-2.929688-2.929687-2.929688-7.675781 0-10.605468l26.703125-26.703125c2.929687-2.929688 7.679687-2.929688 10.609375 0 2.925781 2.929687 2.925781 7.675781 0 10.605469l-26.703125 26.703124c-1.464844 1.464844-3.386719 2.199219-5.304688 2.199219zm0 0" fill="#efd176"/><path d="m237.910156 267.738281c-1.917968 0-3.835937-.734375-5.300781-2.199219-2.929687-2.929687-2.929687-7.675781 0-10.605468l26.703125-26.703125c2.929688-2.929688 7.679688-2.929688 10.609375 0 2.925781 2.929687 2.925781 7.675781 0 10.605469l-26.707031 26.703124c-1.464844 1.464844-3.382813 2.199219-5.304688 2.199219zm0 0" fill="#f7ef87"/><path d="m347.476562 89.605469c0 4.328125-3.507812 7.835937-7.839843 7.835937-4.328125 0-7.835938-3.507812-7.835938-7.835937s3.507813-7.839844 7.835938-7.839844c4.332031 0 7.839843 3.511719 7.839843 7.839844zm0 0" fill="#efd176"/><path d="m175.308594 220.125c0-4.328125-3.507813-7.839844-7.835938-7.839844s-7.839844 3.511719-7.839844 7.839844 3.511719 7.839844 7.839844 7.839844 7.835938-3.511719 7.835938-7.839844zm0 0" fill="#f7ef87"/><path d="m469.261719 239.160156c-4.261719-.765625-8.335938 2.066406-9.105469 6.324219-.765625 4.261719 2.066406 8.335937 6.324219 9.105469 4.261719.765625 8.339843-2.066406 9.105469-6.324219.765624-4.261719-2.0625-8.335937-6.324219-9.105469zm0 0" fill="#efd176"/><path d="m377.230469 138.25c0 4.140625 3.355469 7.5 7.5 7.5 4.140625 0 7.5-3.359375 7.5-7.5 0-5.136719 4.175781-9.3125 9.308593-9.3125 5.136719 0 9.3125 4.175781 9.3125 9.3125 0 4.140625 3.359376 7.5 7.5 7.5 4.144532 0 7.5-3.359375 7.5-7.5 0-13.40625-10.90625-24.3125-24.3125-24.3125-13.402343 0-24.308593 10.90625-24.308593 24.3125zm19.835937-78.535156-.515625-17.488282c-.335937-11.269531-6.488281-21.132812-16.464843-26.382812-9.976563-5.25-21.589844-4.742188-31.066407 1.363281l-30.28125 19.503907c-1.03125.660156-2.132812 1.199218-3.289062 1.609374-3.476563-.171874-6.972657-.261718-10.492188-.261718-.242187 0-.484375.007812-.726562.007812-3.539063-1.421875-6.421875-4.027344-8.175781-7.457031l-7.070313-13.8125c-4.1875-8.179687-11.730469-14.027344-20.691406-16.039063-8.964844-2.015624-18.28125.039063-25.566407 5.640626l-20.210937 15.539062c-3.703125 2.847656-8.445313 3.914062-13.011719 2.925781l-33.488281-7.25c-9.605469-2.082031-19.335937.402344-26.699219 6.8125-5.46875 4.757813-9.0625 11.25-10.253906 18.199219-17.613281 2.503906-34.585938 10.503906-48.09375 24.011719-5.015625 5.015625-9.304688 10.554687-12.84375 16.46875-12.660156 10.089843-24.148438 21.648437-34.136719 34.394531-2.554687 3.257812-1.984375 7.972656 1.277344 10.527344 1.371094 1.078125 3 1.597656 4.621094 1.597656 2.222656 0 4.425781-.988281 5.90625-2.875 3.566406-4.550781 7.339843-8.941406 11.296875-13.152344-2.027344 12.902344-1.105469 26.300782 3.003906 39.148438-18.320312 16.171875-28.71875 39.097656-28.71875 63.71875 0 25.921875 12.027344 50.441406 32.007812 66.460937-5.171874 2.324219-10.898437 3.628907-16.925781 3.628907-22.859375.003906-41.457031-18.59375-41.457031-41.453126 0-31.382812 7.734375-62.511718 22.367188-90.03125 1.945312-3.65625.554687-8.199218-3.101563-10.144531-3.652344-1.941406-8.199219-.554687-10.144531 3.101563-15.78125 29.679687-24.121094 63.246094-24.121094 97.074218 0 31.128907 25.324219 56.457032 56.453125 56.457032h388.671875c4.144531 0 7.5-3.359375 7.5-7.5 0-4.144532-3.355469-7.5-7.5-7.5h-350.386719c11.171875-10.324219 18.171875-25.085938 18.171875-41.457032 0-105.894531 86.152344-192.042968 192.046875-192.042968 105.890625 0 192.042969 86.148437 192.042969 192.042968 0 14.921876-8.078125 28.757813-21.082031 36.113282-3.605469 2.039062-4.875 6.617187-2.835938 10.222656 2.039063 3.605469 6.613281 4.875 10.21875 2.835938 17.703125-10.011719 28.699219-28.851563 28.699219-49.171876 0-81.089843-46.867188-151.429687-114.933594-185.386718zm-299.15625 185.386718c0 11.160157-4.441406 21.300782-11.640625 28.757813-18.5625-13.046875-29.894531-34.558594-29.894531-57.390625 0-21.789062 9.890625-41.96875 27.140625-55.371094 2.625-2.039062 3.59375-5.5625 2.378906-8.660156-10.183593-25.96875-4.03125-55.484375 15.675781-75.195312 24.964844-24.960938 64.273438-27.097657 91.710938-6.417969-57.320312 36.859375-95.371094 101.207031-95.371094 174.277343zm109.148438-182.394531c-14.992188-13.097656-33.519532-20.054687-52.269532-20.851562.941407-2.308594 2.421876-4.417969 4.367188-6.113281 2.210938-1.921876 6.929688-4.925782 13.683594-3.46875l33.488281 7.253906c8.890625 1.925781 18.121094-.152344 25.328125-5.695313l20.214844-15.539062c3.738281-2.878907 8.523437-3.9375 13.128906-2.898438 4.605469 1.035157 8.480469 4.035157 10.628906 8.238281l7.074219 13.8125c.296875.582032.617187 1.148438.945313 1.703126-27.464844 2.820312-53.351563 11.035156-76.589844 23.558593zm132.71875-21.707031 17.363281-11.183594c4.863281-3.132812 10.832031-3.398437 15.957031-.699218 5.125 2.695312 8.285156 7.761718 8.457032 13.550781l.300781 10.207031c-13.394531-5.378906-27.480469-9.390625-42.078125-11.875zm-112.824219 97.25c0 4.140625 3.359375 7.5 7.5 7.5s7.5-3.359375 7.5-7.5c0-5.136719 4.175781-9.3125 9.3125-9.3125 5.132813 0 9.308594 4.175781 9.308594 9.3125 0 4.140625 3.359375 7.5 7.5 7.5 4.144531 0 7.5-3.359375 7.5-7.5 0-13.40625-10.902344-24.3125-24.308594-24.3125s-24.3125 10.90625-24.3125 24.3125zm111.628906 14.722656c-3.074219 3.527344-7.515625 5.550782-12.179687 5.550782-4.664063 0-9.105469-2.023438-12.179688-5.554688-2.722656-3.121094-7.460937-3.445312-10.582031-.726562-3.121094 2.722656-3.445313 7.460937-.726563 10.582031 5.925782 6.796875 14.484376 10.699219 23.488282 10.699219 9 0 17.5625-3.902344 23.484375-10.699219 2.722656-3.121094 2.398437-7.859375-.726563-10.582031-3.121094-2.71875-7.855468-2.394532-10.578125.730468zm0 0"/></svg>