<?xml version="1.0" encoding="UTF-8"?>
<svg viewBox="0 0 512 512" xmlns="http://www.w3.org/2000/svg" xmlns:xlink="http://www.w3.org/1999/xlink" version="1.1">
	<g id="insidecart">
		<path id="Line" d="M141 169 L141 319" fill="none" stroke="#5f645f" stroke-width="5" stroke-opacity="1" stroke-linejoin="round" />
		<path id="Line-1" d="M170 169 L170 319" fill="none" stroke="#878f87" stroke-width="5" stroke-opacity="1" stroke-linejoin="round" />
		<path id="Line-2" d="M170.011 319.894 L129.985 512.128" fill="none" stroke="#878f87" stroke-width="5" stroke-opacity="1" stroke-linejoin="round" />
		<path id="Line-3" d="M331 323 L369.988 512.897" fill="none" stroke="#878f87" stroke-width="5" stroke-opacity="1" stroke-linejoin="round" />
		<path id="Line-4" d="M301 322 L319.994 512.922" fill="none" stroke="#878f87" stroke-width="5" stroke-opacity="1" stroke-linejoin="round" />
		<path id="Line-5" d="M201 318 L179.996 511.95" fill="none" stroke="#878f87" stroke-width="5" stroke-opacity="1" stroke-linejoin="round" />
		<path id="Line-6" d="M230 318 L229.996 513.054" fill="none" stroke="#878f87" stroke-width="5" stroke-opacity="1" stroke-linejoin="round" />
		<path id="Line-7" d="M270 319 L269.996 514.054" fill="none" stroke="#878f87" stroke-width="5" stroke-opacity="1" stroke-linejoin="round" />
		<path id="Line-8" d="M200 169 L200 319" fill="none" stroke="#878f87" stroke-width="5" stroke-opacity="1" stroke-linejoin="round" />
		<path id="Line-9" d="M230 169 L230 319" fill="none" stroke="#878f87" stroke-width="5" stroke-opacity="1" stroke-linejoin="round" />
		<path id="Line-10" d="M270 169 L270 319" fill="none" stroke="#878f87" stroke-width="5" stroke-opacity="1" stroke-linejoin="round" />
		<path id="Line-11" d="M300 168 L300 318" fill="none" stroke="#878f87" stroke-width="5" stroke-opacity="1" stroke-linejoin="round" />
		<path id="Line-12" d="M330 169 L330 319" fill="none" stroke="#878f87" stroke-width="5" stroke-opacity="1" stroke-linejoin="round" />
		<path id="Line-13" d="M361 169 L361 319" fill="none" stroke="#5f645f" stroke-width="5" stroke-opacity="1" stroke-linejoin="round" />
		<path id="Line-14" d="M141 169 L360.5 168.5" fill="none" stroke="#878f87" stroke-width="5" stroke-opacity="1" stroke-linejoin="round" />
		<path id="Line-15" d="M141 169 L360.5 168.5" fill="none" stroke="#3c91e7" stroke-width="10" stroke-opacity="1" stroke-linejoin="round" />
		<path id="Line-16" d="M141 200 L360.5 199.5" fill="none" stroke="#878f87" stroke-width="5" stroke-opacity="1" stroke-linejoin="round" />
		<path id="Line-17" d="M141 230 L360.5 229.5" fill="none" stroke="#878f87" stroke-width="5" stroke-opacity="1" stroke-linejoin="round" />
		<path id="Line-18" d="M142 260 L361.5 259.5" fill="none" stroke="#878f87" stroke-width="5" stroke-opacity="1" stroke-linejoin="round" />
		<path id="Line-19" d="M143 289 L362.5 288.5" fill="none" stroke="#878f87" stroke-width="5" stroke-opacity="1" stroke-linejoin="round" />
		<path id="Line-20" d="M130.501 350.498 L369.499 349.499" fill="none" stroke="#878f87" stroke-width="5" stroke-opacity="1" stroke-linejoin="round" />
		<path id="Line-21" d="M370.5 349.5 L369.039 179.806" fill="none" stroke="#878f87" stroke-width="5" stroke-opacity="1" stroke-linejoin="round" />
		<path id="Line-22" d="M132.5 348.5 L131.039 178.806" fill="none" stroke="#878f87" stroke-width="5" stroke-opacity="1" stroke-linejoin="round" />
		<path id="Line-23" d="M380.5 379.5 L379.001 190.004" fill="none" stroke="#878f87" stroke-width="5" stroke-opacity="1" stroke-linejoin="round" />
		<path id="Line-24" d="M122.5 382.5 L121.001 193.004" fill="none" stroke="#878f87" stroke-width="5" stroke-opacity="1" stroke-linejoin="round" />
		<path id="Line-25" d="M389.5 410.5 L387.998 205.004" fill="none" stroke="#878f87" stroke-width="5" stroke-opacity="1" stroke-linejoin="round" />
		<path id="Line-26" d="M111.5 410.5 L109.998 205.004" fill="none" stroke="#878f87" stroke-width="5" stroke-opacity="1" stroke-linejoin="round" />
		<path id="Line-27" d="M399.5 439.5 L398.001 210.004" fill="none" stroke="#878f87" stroke-width="5" stroke-opacity="1" stroke-linejoin="round" />
		<path id="Line-28" d="M102.5 443.5 L101.001 214.004" fill="none" stroke="#878f87" stroke-width="5" stroke-opacity="1" stroke-linejoin="round" />
		<path id="Line-29" d="M409.5 469.5 L408.001 230.004" fill="none" stroke="#878f87" stroke-width="5" stroke-opacity="1" stroke-linejoin="round" />
		<path id="Line-30" d="M91.5 468.5 L90.001 229.004" fill="none" stroke="#878f87" stroke-width="5" stroke-opacity="1" stroke-linejoin="round" />
		<path id="Line-31" d="M418.5 498.5 L418.002 244.004" fill="none" stroke="#878f87" stroke-width="5" stroke-opacity="1" stroke-linejoin="round" />
		<path id="Line-32" d="M81.5 504.5 L81.002 250.004" fill="none" stroke="#878f87" stroke-width="5" stroke-opacity="1" stroke-linejoin="round" />
		<path id="Line-33" d="M431.5 519.5 L429.002 256.004" fill="none" stroke="#878f87" stroke-width="5" stroke-opacity="1" stroke-linejoin="round" />
		<path id="Line-34" d="M71.5 522.5 L69.002 259.004" fill="none" stroke="#878f87" stroke-width="5" stroke-opacity="1" stroke-linejoin="round" />
		<path id="Line-35" d="M442.999 519.996 L449.003 279.983" fill="none" stroke="#878f87" stroke-width="5" stroke-opacity="1" stroke-linejoin="round" />
		<path id="Line-36" d="M50.998 520.012 L53.003 280.983" fill="none" stroke="#878f87" stroke-width="5" stroke-opacity="1" stroke-linejoin="round" />
		<path id="Line-37" d="M471 519.999 L469.002 303.004" fill="none" stroke="#878f87" stroke-width="5" stroke-opacity="1" stroke-linejoin="round" />
		<path id="Line-38" d="M30 534.999 L28.002 318.004" fill="none" stroke="#878f87" stroke-width="5" stroke-opacity="1" stroke-linejoin="round" />
		<path id="Line-39" d="M499.5 565.5 L499.001 340.004" fill="none" stroke="#878f87" stroke-width="5" stroke-opacity="1" stroke-linejoin="round" />
		<path id="Line-40" d="M0.5 581.5 L0.001 356.004" fill="none" stroke="#878f87" stroke-width="5" stroke-opacity="1" stroke-linejoin="round" />
		<path id="Line-41" d="M120.501 380.499 L379.499 379.499" fill="none" stroke="#878f87" stroke-width="5" stroke-opacity="1" stroke-linejoin="round" />
		<path id="Line-42" d="M111.501 410.502 L389.499 409.499" fill="none" stroke="#878f87" stroke-width="5" stroke-opacity="1" stroke-linejoin="round" />
		<path id="Line-43" d="M139 440 L358.5 439.5" fill="none" stroke="#878f87" stroke-width="5" stroke-opacity="1" stroke-linejoin="round" />
		<path id="Line-44" d="M100.501 440.501 L399.499 439.499" fill="none" stroke="#878f87" stroke-width="5" stroke-opacity="1" stroke-linejoin="round" />
		<path id="Line-45" d="M90.501 470.501 L409.499 469.499" fill="none" stroke="#878f87" stroke-width="5" stroke-opacity="1" stroke-linejoin="round" />
		<path id="Line-46" d="M81.501 500.502 L419.499 499.499" fill="none" stroke="#878f87" stroke-width="5" stroke-opacity="1" stroke-linejoin="round" />
		<path id="Line-47" d="M143 319 L362.5 318.5" fill="none" stroke="#5f645f" stroke-width="5" stroke-opacity="1" stroke-linejoin="round" />
		<path id="Line-48" d="M-19.093 380.29 L138.155 168.739" fill="none" stroke="#878f87" stroke-width="5" stroke-opacity="1" stroke-linejoin="round" />
		<path id="Line-49" d="M66.901 264.298 L138.155 168.739" fill="none" stroke="#3c91e7" stroke-width="10" stroke-opacity="1" stroke-linejoin="round" />
		<path id="Line-50" d="M539.097 390.295 L362.052 169.259" fill="none" stroke="#878f87" stroke-width="5" stroke-opacity="1" stroke-linejoin="round" />
		<path id="Line-51" d="M442.11 264.313 L362.052 169.259" fill="none" stroke="#3c91e7" stroke-width="10" stroke-opacity="1" stroke-linejoin="round" />
		<path id="Line-52" d="M520.907 440.707 L363.052 200.259" fill="none" stroke="#878f87" stroke-width="5" stroke-opacity="1" stroke-linejoin="round" />
		<path id="Line-53" d="M-9.083 441.278 L141.052 200.259" fill="none" stroke="#878f87" stroke-width="5" stroke-opacity="1" stroke-linejoin="round" />
		<path id="Line-54" d="M-10.923 519.736 L141.052 230.259" fill="none" stroke="#878f87" stroke-width="5" stroke-opacity="1" stroke-linejoin="round" />
		<path id="Line-55" d="M520.944 514.23 L362.052 230.259" fill="none" stroke="#878f87" stroke-width="5" stroke-opacity="1" stroke-linejoin="round" />
		<path id="Line-56" d="M479.039 520.198 L362.052 259.259" fill="none" stroke="#878f87" stroke-width="5" stroke-opacity="1" stroke-linejoin="round" />
		<path id="Line-57" d="M30.956 529.796 L141.052 260.259" fill="none" stroke="#878f87" stroke-width="5" stroke-opacity="1" stroke-linejoin="round" />
		<path id="Line-58" d="M60.963 513.189 L142.052 288.259" fill="none" stroke="#878f87" stroke-width="5" stroke-opacity="1" stroke-linejoin="round" />
		<path id="Line-59" d="M440.969 510.171 L361.052 290.259" fill="none" stroke="#878f87" stroke-width="5" stroke-opacity="1" stroke-linejoin="round" />
		<path id="Line-60" d="M420.98 519.854 L360.973 319.838" fill="none" stroke="#5f645f" stroke-width="5" stroke-opacity="1" stroke-linejoin="round" />
		<path id="Line-61" d="M80.978 511.856 L140.973 320.838" fill="none" stroke="#5f645f" stroke-width="5" stroke-opacity="1" stroke-linejoin="round" />
	</g>
	<g id="bread">
		<path id="Path" d="M156.117 382.56 C146.012 372.035 139.709 357.146 139.709 340.64 139.709 331.789 141.523 323.404 144.763 315.906 141.524 308.409 139.709 300.023 139.709 291.172 139.709 282.754 141.352 274.758 144.298 267.546 141.352 260.333 139.709 252.338 139.709 243.92 139.709 227.413 146.011 212.525 156.117 201.999 169.754 187.797 192.275 198.65 192.275 219.294 L192.275 365.265 C192.275 385.909 169.753 396.762 156.117 382.56 Z" fill="#d5a150" fill-opacity="1" stroke="none" />
		<g id="group">
			<path id="Path-1" d="M156.117 382.56 C155.782 382.211 155.451 381.856 155.125 381.498 166.589 382.172 177.938 372.455 177.938 357.8 L177.938 211.828 C177.938 205.277 175.669 199.715 172.137 195.624 182.627 196.467 192.275 205.782 192.275 219.294 L192.275 365.266 C192.275 385.909 169.753 396.762 156.117 382.56 Z" fill="#ad712c" fill-opacity="1" stroke="none" />
			<path id="Path-2" d="M143.364 265.107 C143.354 265.082 143.345 265.056 143.336 265.031 142.265 262.035 141.415 258.917 140.808 255.701 140.576 254.469 140.852 253.185 141.566 252.201 143.102 250.08 144.771 248.08 146.56 246.217 151.169 241.417 156.792 239.479 162.218 239.814 164.575 239.96 165.094 243.468 162.902 244.432 160.507 245.486 158.208 247.074 156.117 249.251 151.167 254.407 147.133 260.611 144.301 267.538 143.974 266.737 143.658 265.928 143.364 265.107 Z" fill="#ad712c" fill-opacity="1" stroke="none" />
		</g>
		<path id="Path-3" d="M203.426 367.001 C193.32 356.476 187.018 341.587 187.018 325.08 187.018 316.229 188.832 307.844 192.072 300.346 188.833 292.849 187.018 284.464 187.018 275.613 187.018 267.195 188.66 259.199 191.607 251.986 188.66 244.774 187.018 236.779 187.018 228.36 187.018 211.854 193.32 196.965 203.426 186.44 217.062 172.238 239.583 183.091 239.583 203.734 L239.583 349.706 C239.583 370.35 217.062 381.203 203.426 367.001 Z" fill="#d5a150" fill-opacity="1" stroke="none" />
		<g id="group-1">
			<path id="Path-4" d="M203.426 367.001 C203.091 366.652 202.76 366.297 202.433 365.938 213.897 366.613 225.247 356.896 225.247 342.24 L225.247 196.269 C225.247 189.718 222.977 184.156 219.446 180.065 229.935 180.908 239.583 190.224 239.583 203.735 L239.583 349.707 C239.583 370.35 217.062 381.203 203.426 367.001 Z" fill="#ad712c" fill-opacity="1" stroke="none" />
			<path id="Path-5" d="M191.27 298.393 C191.239 298.315 191.209 298.236 191.178 298.157 190.692 296.898 190.244 295.616 189.839 294.313 189.818 294.246 189.798 294.178 189.777 294.11 189.372 292.793 189.009 291.456 188.689 290.099 188.675 290.038 188.642 289.895 188.642 289.895 188.348 288.624 188.615 287.272 189.371 286.258 190.769 284.385 192.27 282.609 193.869 280.944 198.328 276.299 203.741 274.336 209.003 274.517 209.059 274.546 209.113 274.572 209.17 274.6 209.115 274.572 209.058 274.546 209.003 274.517 209.068 274.519 209.137 274.522 209.205 274.527 211.552 274.673 212.052 278.218 209.859 279.147 207.461 280.162 205.022 281.499 203.426 283.16 198.74 288.041 194.873 293.862 192.072 300.345 191.793 299.702 191.526 299.05 191.27 298.393 Z" fill="#ad712c" fill-opacity="1" stroke="none" />
			<path id="Path-6" d="M190.673 249.548 C190.663 249.523 190.654 249.497 190.645 249.471 189.574 246.475 188.724 243.357 188.117 240.141 187.885 238.909 188.161 237.626 188.875 236.641 190.411 234.52 192.08 232.52 193.869 230.658 198.478 225.858 204.101 223.92 209.527 224.255 211.884 224.4 212.403 227.909 210.211 228.873 207.816 229.927 205.517 231.514 203.426 233.692 198.476 238.847 194.442 245.052 191.61 251.979 191.283 251.178 190.967 250.369 190.673 249.548 Z" fill="#ad712c" fill-opacity="1" stroke="none" />
		</g>
		<path id="Path-7" d="M247.891 296.498 L241.583 290.296 C240.764 289.491 239.453 289.491 238.634 290.296 L233.172 295.666 C232.354 296.471 231.042 296.471 230.224 295.666 L224.762 290.296 C223.943 289.491 222.631 289.491 221.813 290.296 L216.351 295.666 C215.533 296.471 214.221 296.471 213.403 295.666 L207.94 290.296 C207.122 289.491 205.81 289.491 204.992 290.296 L199.53 295.666 C199.121 296.069 198.588 296.27 198.055 296.27 L160.209 343.373 198.057 389 C198.984 389 241.036 389 240.109 389 244.754 389 248.52 385.235 248.52 380.589 L248.52 297.997 C248.519 297.433 248.293 296.893 247.891 296.498 Z" fill="#8d663d" fill-opacity="1" stroke="none" />
		<path id="Path-8" d="M196.582 295.666 L191.12 290.296 C190.302 289.491 188.99 289.491 188.172 290.296 L182.709 295.666 C181.891 296.471 180.579 296.471 179.761 295.666 L174.299 290.296 C173.48 289.491 172.168 289.491 171.35 290.296 L165.876 295.678 C165.063 296.478 163.76 296.484 162.94 295.691 L157.465 290.399 C156.65 289.611 155.358 289.611 154.542 290.399 L149.054 295.703 C148.24 296.491 146.947 296.491 146.132 295.703 L140.644 290.399 C139.829 289.611 138.536 289.611 137.721 290.399 L131.413 296.496 C131.003 296.892 130.772 297.438 130.772 298.008 L130.772 380.589 C130.772 385.234 134.537 389 139.182 389 L198.055 389 198.055 296.27 C197.524 296.27 196.991 296.068 196.582 295.666 Z" fill="#b69362" fill-opacity="1" stroke="none" />
		<g id="group-2" />
		<g id="group-3" />
		<g id="group-4" />
		<g id="group-5" />
		<g id="group-6" />
		<g id="group-7" />
		<g id="group-8" />
		<g id="group-9" />
		<g id="group-10" />
		<g id="group-11" />
		<g id="group-12" />
		<g id="group-13" />
		<g id="group-14" />
		<g id="group-15" />
		<g id="group-16" />
	</g>
	<g id="cheese">
		<path id="Path-9" d="M303.308 381.757 L260.657 361.554 C258.054 360.328 255.167 359.825 252.299 360.054 227.447 362.038 219 379.51 219 387.196 L303.308 387.196 Z" fill="#fff082" fill-opacity="1" stroke="none" />
		<path id="Path-10" d="M302.18 404.991 C302.827 404.854 303.308 404.317 303.308 403.656 L303.308 381.757 224.439 381.757 C221.435 381.757 219 384.192 219 387.196 L219 425.271 C219 428.275 221.435 430.71 224.439 430.71 L252.109 430.71 C252.681 430.71 253.19 430.352 253.38 429.812 254.311 427.167 256.831 425.271 259.794 425.271 262.758 425.271 265.278 427.167 266.208 429.812 266.398 430.352 266.907 430.71 267.479 430.71 L301.948 430.71 C302.699 430.71 303.308 430.101 303.308 429.35 L303.308 416.969 C303.308 416.308 302.827 415.771 302.18 415.635 299.717 415.116 297.869 412.93 297.869 410.313 297.869 407.695 299.717 405.51 302.18 404.991 Z" fill="#ffdc64" fill-opacity="1" stroke="none" />
		<g id="group-17">
			<path id="Path-11" d="M291.069 395.355 C291.069 396.857 289.852 398.075 288.35 398.075 286.848 398.075 285.63 396.857 285.63 395.355 285.63 393.853 286.848 392.635 288.35 392.635 289.852 392.635 291.069 393.853 291.069 395.355 Z" fill="#e1a546" fill-opacity="1" stroke="none" />
			<path id="Path-12" d="M255.714 414.392 C255.714 415.894 254.497 417.111 252.995 417.111 251.493 417.111 250.275 415.894 250.275 414.392 250.275 412.89 251.493 411.672 252.995 411.672 254.497 411.672 255.714 412.89 255.714 414.392 Z" fill="#e1a546" fill-opacity="1" stroke="none" />
		</g>
		<path id="Path-13" d="M236.677 418.472 C236.677 420.725 234.851 422.552 232.598 422.552 230.345 422.552 228.519 420.725 228.519 418.472 228.519 416.219 230.345 414.393 232.598 414.393 234.851 414.393 236.677 416.219 236.677 418.472 Z" fill="#ffc850" fill-opacity="1" stroke="none" />
		<path id="Path-14" d="M232.598 414.392 C230.943 414.392 229.525 415.382 228.885 416.799 229.397 416.568 229.96 416.432 230.558 416.432 232.811 416.432 234.638 418.258 234.638 420.511 234.638 421.109 234.502 421.673 234.271 422.184 235.688 421.545 236.677 420.127 236.677 418.472 236.677 416.219 234.851 414.392 232.598 414.392 Z" fill="#e1a546" fill-opacity="1" stroke="none" />
		<path id="Path-15" d="M272.032 392.635 C272.032 394.888 270.206 396.714 267.953 396.714 265.7 396.714 263.874 394.888 263.874 392.635 263.874 390.382 265.7 388.555 267.953 388.555 270.206 388.555 272.032 390.382 272.032 392.635 Z" fill="#ffc850" fill-opacity="1" stroke="none" />
		<path id="Path-16" d="M267.953 388.556 C266.298 388.556 264.88 389.546 264.24 390.962 264.752 390.731 265.315 390.596 265.913 390.596 268.166 390.596 269.993 392.422 269.993 394.675 269.993 395.273 269.857 395.836 269.626 396.348 271.042 395.708 272.032 394.291 272.032 392.635 272.032 390.382 270.206 388.556 267.953 388.556 Z" fill="#e1a546" fill-opacity="1" stroke="none" />
		<path id="Path-17" d="M247.556 398.075 C247.556 401.83 244.512 404.874 240.757 404.874 237.002 404.874 233.958 401.83 233.958 398.075 233.958 394.32 237.002 391.276 240.757 391.276 244.512 391.276 247.556 394.32 247.556 398.075 Z" fill="#ffc850" fill-opacity="1" stroke="none" />
		<path id="Path-18" d="M240.757 391.276 C238.177 391.276 235.96 392.729 234.808 394.846 235.773 394.321 236.862 393.995 238.037 393.995 241.792 393.995 244.836 397.039 244.836 400.794 244.836 401.97 244.511 403.059 243.986 404.023 246.102 402.871 247.556 400.654 247.556 398.075 247.556 394.32 244.512 391.276 240.757 391.276 Z" fill="#e1a546" fill-opacity="1" stroke="none" />
		<path id="Path-19" d="M284.271 414.392 C284.271 418.147 281.227 421.191 277.472 421.191 273.717 421.191 270.673 418.147 270.673 414.392 270.673 410.637 273.717 407.593 277.472 407.593 281.227 407.593 284.271 410.637 284.271 414.392 Z" fill="#ffc850" fill-opacity="1" stroke="none" />
		<path id="Path-20" d="M277.472 407.593 C274.892 407.593 272.675 409.047 271.523 411.163 272.488 410.638 273.577 410.313 274.752 410.313 278.507 410.313 281.551 413.357 281.551 417.112 281.551 418.287 281.226 419.376 280.701 420.341 282.817 419.189 284.271 416.972 284.271 414.392 284.271 410.637 281.227 407.593 277.472 407.593 Z" fill="#e1a546" fill-opacity="1" stroke="none" />
		<path id="Path-21" d="M219 388.556 C222.004 388.556 224.439 390.991 224.439 393.995 L224.439 418.472 C224.439 422.978 228.092 426.63 232.598 426.63 L250.955 426.63 C252.082 426.63 252.995 427.544 252.995 428.67 252.995 429.797 252.082 430.71 250.955 430.71 L224.439 430.71 C221.435 430.71 219 428.275 219 425.271 Z" fill="#ffc850" fill-opacity="1" stroke="none" />
		<g id="group-18" />
		<g id="group-19" />
		<g id="group-20" />
		<g id="group-21" />
		<g id="group-22" />
		<g id="group-23" />
		<g id="group-24" />
		<g id="group-25" />
		<g id="group-26" />
		<g id="group-27" />
		<g id="group-28" />
		<g id="group-29" />
		<g id="group-30" />
		<g id="group-31" />
		<g id="group-32" />
	</g>
	<g id="pastajar">
		<path id="Path-22" d="M443.109 -27.195 C439.64 -28.499 435.768 -26.736 434.459 -23.256 L408.869 44.79 C407.56 48.27 409.311 52.148 412.78 53.453 L448.891 67.033 C452.359 68.338 456.232 66.574 457.541 63.094 L483.131 -4.952 C484.44 -8.432 482.689 -12.31 479.22 -13.614 Z" fill="#c40802" fill-opacity="1" stroke="none" />
		<path id="Rectangle" d="M415.503 27.149 L464.175 45.453 473.653 20.25 424.981 1.946 Z" fill="#504eca" fill-opacity="1" stroke="none" />
		<path id="Rectangle-1" d="M449.999 40.121 L464.175 45.453 473.653 20.25 459.477 14.919 Z" fill="#3f3ea2" fill-opacity="1" stroke="none" />
		<path id="Rectangle-2" d="M416.688 23.998 L465.36 42.302 472.468 23.401 423.797 5.097 Z" fill="#dfd300" fill-opacity="1" stroke="none" />
		<path id="Rectangle-3" d="M451.184 36.971 L465.36 42.302 472.468 23.401 458.292 18.069 Z" fill="#cac002" fill-opacity="1" stroke="none" />
		<defs>
			<text id="string" transform="matrix(0.9359992473496653 0.3520020013591685 -0.3520020013591685 0.9359992473496653 437.15249753847047 17.701673668418472)" text-decoration="none" x="1.0" font-family="Helvetica, Helvetica" font-size="5.385" y="4.0">
				Sauce
			</text>
		</defs>
		<use id="Sauce" xlink:href="#string" fill="#c40802" fill-opacity="1" stroke="none" />
		<path id="Ellipse-1" d="M457.067 64.354 C458.048 61.745 456.728 58.833 454.119 57.852 451.509 56.87 448.598 58.191 447.616 60.8 446.635 63.41 447.954 66.321 450.564 67.303 453.174 68.284 456.085 66.964 457.067 64.354 Z" fill="#9f0803" fill-opacity="1" stroke="none" />
		<path id="Rectangle-4" d="M440.995 64.064 L448.871 67.025 450.766 61.985 442.891 59.023 Z" fill="#9f0803" fill-opacity="1" stroke="none" />
		<path id="Rectangle-5" d="M442.891 59.023 L457.067 64.354 464.175 45.453 449.999 40.121 Z" fill="#9f0803" fill-opacity="1" stroke="none" />
		<path id="Rectangle-6" d="M459.477 14.919 L473.653 20.25 481.946 -1.802 467.77 -7.133 Z" fill="#9f0803" fill-opacity="1" stroke="none" />
	</g>
</svg>
