<svg id="Capa_1" enable-background="new 0 0 512 512" height="512" viewBox="0 0 512 512" width="512" xmlns="http://www.w3.org/2000/svg">
	<g>
		<g>
			<path d="m488.947 260.77c-.094-.15-119.58-169.693-119.58-169.693-15.077-21.389-44.24-27.232-66.392-13.311l-2.715 1.706c-22.976 14.44-29.876 45.828-14.998 68.581 3.021 4.621 9.219 5.921 13.842 2.896 4.622-3.022 5.919-9.22 2.896-13.842-8.827-13.502-4.738-32.131 8.901-40.701l2.715-1.706c13.148-8.264 30.455-4.794 39.402 7.899l84.927 120.484c-12.08-4.43-25.122-6.848-38.719-6.848-51.596 0-95.207 34.83-108.564 82.212-7.922-7.462-19.176-13.051-34.663-13.051s-26.741 5.589-34.663 13.051c-13.356-47.382-56.968-82.212-108.563-82.212-13.575 0-26.597 2.412-38.661 6.828l84.985-120.464c8.948-12.693 26.255-16.163 39.404-7.899l2.713 1.705c13.639 8.572 17.73 27.2 8.901 40.702-3.022 4.622-1.726 10.819 2.897 13.842 4.623 3.024 10.82 1.727 13.842-2.896 14.877-22.753 7.978-54.142-14.999-68.581l-2.713-1.705c-22.155-13.926-51.317-8.078-66.391 13.307 0 0-119.439 169.33-119.531 169.475-14.554 18.997-23.22 42.734-23.22 68.461 0 44.24 26.059 84.6 66.388 102.82 1.336.604 2.734.89 4.111.89 3.809-.001 7.449-2.188 9.119-5.886 2.274-5.033.037-10.956-4.996-13.23-33.182-14.992-54.622-48.197-54.622-84.594 0-51.155 41.618-92.773 92.774-92.773s92.774 41.618 92.774 92.773c0 36.128-21.222 69.23-54.065 84.334-5.018 2.307-7.215 8.245-4.908 13.263s8.244 7.216 13.263 4.908c39.605-18.213 65.291-57.966 65.691-101.477.799-3.857 6.234-24.64 30.471-24.64 23.961 0 29.543 20.27 30.465 24.629.549 61.716 50.918 111.758 112.761 111.758 62.184-.001 112.774-50.592 112.774-112.775 0-25.627-8.598-49.28-23.053-68.24zm-89.72 161.014c-51.156 0-92.774-41.618-92.774-92.774 0-51.155 41.618-92.773 92.774-92.773 51.155 0 92.773 41.618 92.773 92.773 0 51.156-41.618 92.774-92.773 92.774z" />
			<path d="m122.01 427.962c-3.401-8.304-15.634-7.952-18.646.455-3.079 8.594 6.541 16.557 14.408 12.025 4.281-2.466 6.141-7.915 4.238-12.48z" />
		</g>
	</g>
</svg>
