<svg viewBox="0 0 512 512" xmlns="http://www.w3.org/2000/svg" xmlns:xlink="http://www.w3.org/1999/xlink" version="1.1">
	<path id="Path" d="M427.908 147.124 L412.843 140.433 412.843 14.986 C412.843 6.71 406.133 0 397.857 0 L351.865 0 C343.589 0 336.879 6.71 336.879 14.986 L336.879 140.434 321.814 147.125 C305.632 154.311 295.176 170.395 295.176 188.102 L295.176 497.015 C295.176 505.291 301.886 512.001 310.162 512.001 L439.561 512.001 C447.837 512.001 454.547 505.291 454.547 497.015 L454.547 188.1 C454.546 170.394 444.091 154.31 427.908 147.124 Z" fill="#1ba88a" fill-opacity="1" stroke="none" />
	<path id="Path-1" d="M412.843 14.986 C412.843 6.71 406.133 0 397.857 0 L351.865 0 C343.589 0 336.879 6.71 336.879 14.986 L336.879 92.917 412.842 92.917 412.842 14.986 Z" fill="#bd0058" fill-opacity="1" stroke="none" />
	<path id="Path-2" d="M374.86 0 L351.864 0 C343.588 0 336.878 6.71 336.878 14.986 L336.878 140.434 321.813 147.125 C305.631 154.311 295.175 170.395 295.175 188.102 L295.175 497.015 C295.175 505.291 301.885 512.001 310.161 512.001 L374.86 512.001 Z" fill="#73cb8b" fill-opacity="1" stroke="none" />
	<path id="Path-3" d="M374.86 0 L351.864 0 C343.588 0 336.878 6.71 336.878 14.986 L336.878 92.917 374.859 92.917 374.859 0 Z" fill="#e83a71" fill-opacity="1" stroke="none" />
	<path id="Path-4" d="M402.235 431.147 L402.235 257.049 C402.235 251.531 397.761 247.059 392.245 247.059 L295.176 247.059 295.176 441.137 392.245 441.137 C397.762 441.138 402.235 436.664 402.235 431.147 Z" fill="#ffae45" fill-opacity="1" stroke="none" />
	<path id="Path-5" d="M295.174 247.061 L374.757 247.061 374.757 441.143 295.174 441.143 Z" fill="#ffd75e" fill-opacity="1" stroke="none" />
	<defs>
		<text id="string" transform="matrix(1.0 0.0 0.0 1.0 290.0 280.0)" text-decoration="none" font-size="36" fill="#e83a71" x="6.478515625" y="28.0" font-family="Helvetica, Helvetica">
			ne
		</text>
	</defs>
	<use id="ne" xlink:href="#string" />
</svg>
